<svg xmlns="http://www.w3.org/2000/svg" xmlns:xlink="http://www.w3.org/1999/xlink" width="120" height="120" viewBox="0 0 120 120">
  <defs>
    <clipPath id="clip-path">
      <rect id="Rectángulo_400938" data-name="Rectángulo 400938" width="113" height="113" fill="none"/>
    </clipPath>
    <clipPath id="clip-path-2">
      <rect id="Rectángulo_401742" data-name="Rectángulo 401742" width="120" height="120" fill="none"/>
    </clipPath>
    <clipPath id="clip-path-3">
      <rect id="Rectángulo_401301" data-name="Rectángulo 401301" width="64.317" height="193.113" fill="#d4e157"/>
    </clipPath>
    <clipPath id="clip-path-5">
      <rect id="Rectángulo_401247" data-name="Rectángulo 401247" width="15.921" height="15.92" fill="#d4e157"/>
    </clipPath>
    <clipPath id="clip-path-6">
      <path id="Trazado_873506" data-name="Trazado 873506" d="M15.921,7.96A7.96,7.96,0,1,1,7.96,0a7.961,7.961,0,0,1,7.961,7.96" fill="#d4e157"/>
    </clipPath>
    <clipPath id="clip-path-8">
      <path id="Trazado_873507" data-name="Trazado 873507" d="M15.921,7.96A7.96,7.96,0,1,1,7.96,0a7.96,7.96,0,0,1,7.961,7.96" fill="#d4e157"/>
    </clipPath>
    <clipPath id="clip-path-13">
      <rect id="Rectángulo_401261" data-name="Rectángulo 401261" width="15.92" height="15.92" fill="#d4e157"/>
    </clipPath>
    <clipPath id="clip-path-14">
      <path id="Trazado_873513" data-name="Trazado 873513" d="M15.92,7.96A7.96,7.96,0,1,1,7.96,0a7.96,7.96,0,0,1,7.96,7.96" fill="#d4e157"/>
    </clipPath>
    <clipPath id="clip-path-15">
      <rect id="Rectángulo_401263" data-name="Rectángulo 401263" width="15.921" height="15.921" fill="#d4e157"/>
    </clipPath>
    <clipPath id="clip-path-16">
      <path id="Trazado_873514" data-name="Trazado 873514" d="M15.921,7.961A7.96,7.96,0,1,1,7.96,0a7.961,7.961,0,0,1,7.961,7.961" fill="#d4e157"/>
    </clipPath>
    <clipPath id="clip-path-21">
      <rect id="Rectángulo_401273" data-name="Rectángulo 401273" width="15.92" height="15.921" fill="#d4e157"/>
    </clipPath>
    <clipPath id="clip-path-22">
      <path id="Trazado_873519" data-name="Trazado 873519" d="M15.92,7.961A7.96,7.96,0,1,1,7.96,0a7.96,7.96,0,0,1,7.96,7.961" fill="#d4e157"/>
    </clipPath>
    <clipPath id="clip-path-24">
      <path id="Trazado_873521" data-name="Trazado 873521" d="M15.921,7.96A7.96,7.96,0,1,1,7.961,0a7.96,7.96,0,0,1,7.96,7.96" fill="#d4e157"/>
    </clipPath>
    <clipPath id="clip-path-32">
      <path id="Trazado_873532" data-name="Trazado 873532" d="M15.921,7.961A7.96,7.96,0,1,1,7.961,0a7.96,7.96,0,0,1,7.96,7.961" fill="#d4e157"/>
    </clipPath>
  </defs>
  <g id="Grupo_1119770" data-name="Grupo 1119770" transform="translate(-810.711 -1630)">
    <g id="Grupo_1101088" data-name="Grupo 1101088" transform="translate(810.711 1630.434)">
      <g id="Grupo_1099379" data-name="Grupo 1099379" transform="translate(0 -0.434)">
        <rect id="Rectángulo_401103" data-name="Rectángulo 401103" width="120" height="120" transform="translate(0 0)" fill="none"/>
        <path id="Trazado_873425" data-name="Trazado 873425" d="M49.147,0C76.29,0,98.293,23.571,98.293,52.647s-22,52.647-49.147,52.647S0,81.723,0,52.647,22,0,49.147,0Z" transform="translate(15.677 12.583)" fill="#b9bfe2"/>
        <g id="Enmascarar_grupo_1100032" data-name="Enmascarar grupo 1100032" transform="translate(0 0)" clip-path="url(#clip-path-2)">
          <g id="Grupo_1101051" data-name="Grupo 1101051" transform="translate(148.45 -27.966) rotate(90)" style="isolation: isolate">
            <g id="Grupo_1099913" data-name="Grupo 1099913" clip-path="url(#clip-path-3)" style="isolation: isolate">
              <g id="Grupo_1099912" data-name="Grupo 1099912">
                <g id="Grupo_1099911" data-name="Grupo 1099911" clip-path="url(#clip-path-3)">
                  <g id="Grupo_1099780" data-name="Grupo 1099780" transform="translate(48.396 81.162)" style="isolation: isolate">
                    <g id="Grupo_1099779" data-name="Grupo 1099779">
                      <g id="Grupo_1099778" data-name="Grupo 1099778" transform="translate(0 0)" clip-path="url(#clip-path-5)">
                        <g id="Grupo_1099777" data-name="Grupo 1099777" transform="translate(0 0)">
                          <g id="Grupo_1099776" data-name="Grupo 1099776" clip-path="url(#clip-path-6)">
                            <path id="Trazado_875145" data-name="Trazado 875145" d="M0,0H20.238V20.238H0Z" transform="translate(-4.903 14.231) rotate(-70.991)" fill="#d4e157"/>
                          </g>
                        </g>
                      </g>
                    </g>
                  </g>
                  <g id="Grupo_1099785" data-name="Grupo 1099785" transform="translate(48.396 97.082)" style="isolation: isolate">
                    <g id="Grupo_1099784" data-name="Grupo 1099784">
                      <g id="Grupo_1099783" data-name="Grupo 1099783" clip-path="url(#clip-path-5)">
                        <g id="Grupo_1099782" data-name="Grupo 1099782" transform="translate(0)">
                          <g id="Grupo_1099781" data-name="Grupo 1099781" clip-path="url(#clip-path-8)">
                            <path id="Trazado_875146" data-name="Trazado 875146" d="M0,0H20.238V20.238H0Z" transform="translate(-4.903 14.231) rotate(-70.991)" fill="#d4e157"/>
                          </g>
                        </g>
                      </g>
                    </g>
                  </g>
                  <g id="Grupo_1099790" data-name="Grupo 1099790" transform="translate(48.396 113.052)" style="isolation: isolate">
                    <g id="Grupo_1099789" data-name="Grupo 1099789">
                      <g id="Grupo_1099788" data-name="Grupo 1099788" transform="translate(0 0)" clip-path="url(#clip-path-5)">
                        <g id="Grupo_1099787" data-name="Grupo 1099787" transform="translate(0 0)">
                          <g id="Grupo_1099786" data-name="Grupo 1099786" clip-path="url(#clip-path-6)">
                            <path id="Trazado_875147" data-name="Trazado 875147" d="M0,0H20.238V20.238H0Z" transform="translate(-4.903 14.231) rotate(-70.991)" fill="#d4e157"/>
                          </g>
                        </g>
                      </g>
                    </g>
                  </g>
                  <g id="Grupo_1099795" data-name="Grupo 1099795" transform="translate(48.396 128.972)" style="isolation: isolate">
                    <g id="Grupo_1099794" data-name="Grupo 1099794">
                      <g id="Grupo_1099793" data-name="Grupo 1099793" transform="translate(0 0)" clip-path="url(#clip-path-5)">
                        <g id="Grupo_1099792" data-name="Grupo 1099792" transform="translate(0 0)">
                          <g id="Grupo_1099791" data-name="Grupo 1099791" clip-path="url(#clip-path-8)">
                            <path id="Trazado_875148" data-name="Trazado 875148" d="M0,0H20.238V20.238H0Z" transform="translate(-4.903 14.231) rotate(-70.991)" fill="#d4e157"/>
                          </g>
                        </g>
                      </g>
                    </g>
                  </g>
                  <g id="Grupo_1099815" data-name="Grupo 1099815" transform="translate(32.476 81.162)" style="isolation: isolate">
                    <g id="Grupo_1099814" data-name="Grupo 1099814">
                      <g id="Grupo_1099813" data-name="Grupo 1099813" transform="translate(0 0)" clip-path="url(#clip-path-13)">
                        <g id="Grupo_1099812" data-name="Grupo 1099812" transform="translate(0 0)">
                          <g id="Grupo_1099811" data-name="Grupo 1099811" clip-path="url(#clip-path-14)">
                            <path id="Trazado_875149" data-name="Trazado 875149" d="M0,0H20.238V20.238H0Z" transform="translate(-4.903 14.231) rotate(-70.991)" fill="#d4e157"/>
                          </g>
                        </g>
                      </g>
                    </g>
                  </g>
                  <g id="Grupo_1099820" data-name="Grupo 1099820" transform="translate(48.396 64.723)" style="isolation: isolate">
                    <g id="Grupo_1099819" data-name="Grupo 1099819">
                      <g id="Grupo_1099818" data-name="Grupo 1099818" transform="translate(0 0)" clip-path="url(#clip-path-15)">
                        <g id="Grupo_1099817" data-name="Grupo 1099817" transform="translate(0 0)">
                          <g id="Grupo_1099816" data-name="Grupo 1099816" clip-path="url(#clip-path-16)">
                            <path id="Trazado_875150" data-name="Trazado 875150" d="M0,0H20.238V20.238H0Z" transform="matrix(0.326, -0.945, 0.945, 0.326, -4.903, 14.232)" fill="#d4e157"/>
                          </g>
                        </g>
                      </g>
                    </g>
                  </g>
                  <g id="Grupo_1099825" data-name="Grupo 1099825" transform="translate(48.396 48.715)" style="isolation: isolate">
                    <g id="Grupo_1099824" data-name="Grupo 1099824">
                      <g id="Grupo_1099823" data-name="Grupo 1099823" transform="translate(0 0)" clip-path="url(#clip-path-5)">
                        <g id="Grupo_1099822" data-name="Grupo 1099822" transform="translate(0 0)">
                          <g id="Grupo_1099821" data-name="Grupo 1099821" clip-path="url(#clip-path-6)">
                            <path id="Trazado_875151" data-name="Trazado 875151" d="M0,0H20.238V20.238H0Z" transform="translate(-4.903 14.231) rotate(-70.991)" fill="#d4e157"/>
                          </g>
                        </g>
                      </g>
                    </g>
                  </g>
                  <g id="Grupo_1099830" data-name="Grupo 1099830" transform="translate(48.396 32.501)" style="isolation: isolate">
                    <g id="Grupo_1099829" data-name="Grupo 1099829">
                      <g id="Grupo_1099828" data-name="Grupo 1099828" transform="translate(0 0)" clip-path="url(#clip-path-15)">
                        <g id="Grupo_1099827" data-name="Grupo 1099827" transform="translate(0 0)">
                          <g id="Grupo_1099826" data-name="Grupo 1099826" clip-path="url(#clip-path-16)">
                            <path id="Trazado_875152" data-name="Trazado 875152" d="M0,0H20.238V20.238H0Z" transform="translate(-4.903 14.232) rotate(-70.991)" fill="#d4e157"/>
                          </g>
                        </g>
                      </g>
                    </g>
                  </g>
                  <g id="Grupo_1099845" data-name="Grupo 1099845" transform="translate(32.476 64.723)" style="isolation: isolate">
                    <g id="Grupo_1099844" data-name="Grupo 1099844">
                      <g id="Grupo_1099843" data-name="Grupo 1099843" transform="translate(0 0)" clip-path="url(#clip-path-21)">
                        <g id="Grupo_1099842" data-name="Grupo 1099842" transform="translate(0 0)">
                          <g id="Grupo_1099841" data-name="Grupo 1099841" clip-path="url(#clip-path-22)">
                            <path id="Trazado_875153" data-name="Trazado 875153" d="M0,0H20.238V20.238H0Z" transform="translate(-4.903 14.232) rotate(-70.991)" fill="#d4e157"/>
                          </g>
                        </g>
                      </g>
                    </g>
                  </g>
                  <g id="Grupo_1099855" data-name="Grupo 1099855" transform="translate(32.11 97.082)" style="isolation: isolate">
                    <g id="Grupo_1099854" data-name="Grupo 1099854">
                      <g id="Grupo_1099853" data-name="Grupo 1099853" clip-path="url(#clip-path-5)">
                        <g id="Grupo_1099852" data-name="Grupo 1099852" transform="translate(0)">
                          <g id="Grupo_1099851" data-name="Grupo 1099851" clip-path="url(#clip-path-24)">
                            <path id="Trazado_875154" data-name="Trazado 875154" d="M0,0H20.238V20.238H0Z" transform="translate(-4.903 14.231) rotate(-70.991)" fill="#d4e157"/>
                          </g>
                        </g>
                      </g>
                    </g>
                  </g>
                  <g id="Grupo_1099870" data-name="Grupo 1099870" transform="translate(32.11 113.052)" style="isolation: isolate">
                    <g id="Grupo_1099869" data-name="Grupo 1099869">
                      <g id="Grupo_1099868" data-name="Grupo 1099868" transform="translate(0 0)" clip-path="url(#clip-path-5)">
                        <g id="Grupo_1099867" data-name="Grupo 1099867" transform="translate(0 0)">
                          <g id="Grupo_1099866" data-name="Grupo 1099866" clip-path="url(#clip-path-24)">
                            <path id="Trazado_875155" data-name="Trazado 875155" d="M0,0H20.238V20.238H0Z" transform="translate(-4.903 14.231) rotate(-70.991)" fill="#d4e157"/>
                          </g>
                        </g>
                      </g>
                    </g>
                  </g>
                  <g id="Grupo_1099885" data-name="Grupo 1099885" transform="translate(32.11 128.972)" style="isolation: isolate">
                    <g id="Grupo_1099884" data-name="Grupo 1099884">
                      <g id="Grupo_1099883" data-name="Grupo 1099883" transform="translate(0 0)" clip-path="url(#clip-path-5)">
                        <g id="Grupo_1099882" data-name="Grupo 1099882" transform="translate(0 0)">
                          <g id="Grupo_1099881" data-name="Grupo 1099881" clip-path="url(#clip-path-24)">
                            <path id="Trazado_875156" data-name="Trazado 875156" d="M0,0H20.238V20.238H0Z" transform="translate(-4.903 14.231) rotate(-70.991)" fill="#d4e157"/>
                          </g>
                        </g>
                      </g>
                    </g>
                  </g>
                  <g id="Grupo_1099900" data-name="Grupo 1099900" transform="translate(32.476 48.788)" style="isolation: isolate">
                    <g id="Grupo_1099899" data-name="Grupo 1099899">
                      <g id="Grupo_1099898" data-name="Grupo 1099898" transform="translate(0 0)" clip-path="url(#clip-path-21)">
                        <g id="Grupo_1099897" data-name="Grupo 1099897" transform="translate(0 0)">
                          <g id="Grupo_1099896" data-name="Grupo 1099896" clip-path="url(#clip-path-22)">
                            <path id="Trazado_875157" data-name="Trazado 875157" d="M0,0H20.238V20.238H0Z" transform="translate(-4.903 14.232) rotate(-70.991)" fill="#d4e157"/>
                          </g>
                        </g>
                      </g>
                    </g>
                  </g>
                  <g id="Grupo_1099910" data-name="Grupo 1099910" transform="translate(32.11 32.501)" style="isolation: isolate">
                    <g id="Grupo_1099909" data-name="Grupo 1099909">
                      <g id="Grupo_1099908" data-name="Grupo 1099908" transform="translate(0 0)" clip-path="url(#clip-path-15)">
                        <g id="Grupo_1099907" data-name="Grupo 1099907" transform="translate(0 0)">
                          <g id="Grupo_1099906" data-name="Grupo 1099906" clip-path="url(#clip-path-32)">
                            <path id="Trazado_875158" data-name="Trazado 875158" d="M0,0H20.238V20.238H0Z" transform="matrix(0.326, -0.945, 0.945, 0.326, -4.903, 14.232)" fill="#d4e157"/>
                          </g>
                        </g>
                      </g>
                    </g>
                  </g>
                </g>
              </g>
            </g>
          </g>
        </g>
        <circle id="Elipse_11503" data-name="Elipse 11503" cx="51.5" cy="51.5" r="51.5" transform="translate(8 9)" fill="#f3f9ff"/>
      </g>
    </g>
    <g id="Grupo_1101089" data-name="Grupo 1101089" transform="translate(837.504 1655.256)">
      <g id="Grupo_1099389" data-name="Grupo 1099389" transform="translate(0.293 -0.141)">
        <rect id="Rectángulo_401104" data-name="Rectángulo 401104" width="67" height="68" transform="translate(-0.086 -0.116)" fill="none"/>
      </g>
      <g id="Grupo_1120642" data-name="Grupo 1120642" transform="translate(-348.563 -6422.587)">
        <g id="Grupo_1099389-2" data-name="Grupo 1099389" transform="translate(347.969 6423)">
          <rect id="Rectángulo_401104-2" data-name="Rectángulo 401104" width="65.82" height="66.663" transform="translate(0 0)" fill="none"/>
        </g>
        <path id="Trazado_911883" data-name="Trazado 911883" d="M14.087,60.789a2.789,2.789,0,0,1,.868,2.3,3.016,3.016,0,0,1-1.349,2.2,3.771,3.771,0,0,1-1.341.538v.858a1.03,1.03,0,1,1-2.061,0V65.7A4.293,4.293,0,0,1,7.579,63.2a1.031,1.031,0,0,1,1.9-.8,2.209,2.209,0,0,0,1.394,1.354,1.975,1.975,0,0,0,1.6-.184.937.937,0,0,0,.428-.676.75.75,0,0,0-.253-.626,3.455,3.455,0,0,0-1.268-.445,5.3,5.3,0,0,1-2.732-1.266,2.969,2.969,0,0,1,1.263-4.852c.1-.032.192-.059.29-.085v-.927a1.03,1.03,0,1,1,2.061,0v.887a3.805,3.805,0,0,1,1,.37,3.064,3.064,0,0,1,1.546,1.994,1.031,1.031,0,1,1-2,.493,1.025,1.025,0,0,0-.534-.68,2.259,2.259,0,0,0-1.7-.1.9.9,0,0,0-.633.658.871.871,0,0,0,.187.8,3.652,3.652,0,0,0,1.728.7A4.559,4.559,0,0,1,14.087,60.789ZM49.811,80a1.031,1.031,0,0,1,0,1.457A27.426,27.426,0,0,1,21.58,88.015a3.949,3.949,0,0,1-3.071,1.466H3.959A3.955,3.955,0,0,1,1.3,82.6a3.951,3.951,0,0,1,0-5.853,3.956,3.956,0,0,1,2.659-6.884h.794a11.222,11.222,0,0,1,.567-18.716A27.348,27.348,0,0,1,30.439,34.7a1.03,1.03,0,0,1,1.03,1.03V61.66ZM11.234,69.861a9.17,9.17,0,1,0-9.172-9.168A9.179,9.179,0,0,0,11.234,69.861ZM3.959,75.714H18.51a1.9,1.9,0,0,0,0-3.79H3.959a1.9,1.9,0,0,0,0,3.79Zm0,5.853H18.51a1.9,1.9,0,0,0,0-3.79H3.959a1.9,1.9,0,0,0,0,3.79ZM20.4,85.525a1.9,1.9,0,0,0-1.893-1.9H3.959a1.9,1.9,0,0,0,0,3.79H18.51A1.894,1.894,0,0,0,20.4,85.525Zm27.208-4.811-17.9-17.9a1.03,1.03,0,0,1-.3-.729V36.778A25.282,25.282,0,0,0,8.246,49.862a11.23,11.23,0,0,1,9.466,20h.8a3.956,3.956,0,0,1,2.659,6.884,3.951,3.951,0,0,1,0,5.853,3.957,3.957,0,0,1,1.251,3.525,25.368,25.368,0,0,0,25.191-5.408ZM34.086,59V32.631a1.03,1.03,0,0,1,1.03-1.03A27.395,27.395,0,0,1,62.511,59a1.03,1.03,0,0,1-1.03,1.03H35.118A1.031,1.031,0,0,1,34.086,59Zm2.062-1.03h24.28a25.369,25.369,0,0,0-24.28-24.283Zm29.883,5.707a27.209,27.209,0,0,1-8.023,19.37,1.031,1.031,0,0,1-1.457,0L37.909,64.4a1.032,1.032,0,0,1,.729-1.76H65a1.031,1.031,0,0,1,1.032,1.032ZM63.949,64.7H41.128L57.264,80.84A25.132,25.132,0,0,0,63.949,64.7Z" transform="translate(347.757 6395.791)" fill="#474d41"/>
      </g>
    </g>
  </g>
</svg>
