<svg xmlns="http://www.w3.org/2000/svg" xmlns:xlink="http://www.w3.org/1999/xlink" width="252.289" height="108" viewBox="0 0 252.289 108">
  <defs>
    <clipPath id="clip-path">
      <rect id="Rectángulo_401273" data-name="Rectángulo 401273" width="11.958" height="11.958" fill="#f6f8de"/>
    </clipPath>
    <clipPath id="clip-path-2">
      <path id="Trazado_873519" data-name="Trazado 873519" d="M11.958,5.979A5.979,5.979,0,1,1,5.979,0a5.979,5.979,0,0,1,5.979,5.979" fill="#f6f8de"/>
    </clipPath>
  </defs>
  <g id="Grupo_1121169" data-name="Grupo 1121169" transform="translate(-327.711 -487)">
    <rect id="Rectángulo_409839" data-name="Rectángulo 409839" width="215" height="108" rx="7" transform="translate(345.711 487)" fill="#dcedc8"/>
    <g id="Grupo_1121166" data-name="Grupo 1121166" transform="translate(413.711 502)">
      <path id="Trazado_906868" data-name="Trazado 906868" d="M39.337,0A39.337,39.337,0,1,1,0,39.337,39.337,39.337,0,0,1,39.337,0Z" transform="translate(0)" fill="#fff"/>
      <g id="Grupo_1119330" data-name="Grupo 1119330" transform="translate(7.152 15.895)">
        <g id="Grupo_1099855" data-name="Grupo 1099855" transform="translate(0 0)">
          <g id="Grupo_1099808" data-name="Grupo 1099808" transform="translate(0 0)">
            <g id="Grupo_1101062" data-name="Grupo 1101062" transform="translate(0 26.431)">
              <g id="Grupo_1101056" data-name="Grupo 1101056" transform="translate(11.958) rotate(90)" opacity="0.998" style="isolation: isolate">
                <g id="Grupo_1099844" data-name="Grupo 1099844" transform="translate(0 0)">
                  <g id="Grupo_1099843" data-name="Grupo 1099843" transform="translate(0 0)" clip-path="url(#clip-path)">
                    <g id="Grupo_1099842" data-name="Grupo 1099842" transform="translate(0 0)">
                      <g id="Grupo_1099841" data-name="Grupo 1099841" clip-path="url(#clip-path-2)">
                        <rect id="Rectángulo_401272" data-name="Rectángulo 401272" width="15.201" height="15.201" transform="translate(-3.683 10.689) rotate(-70.991)" fill="#f6f8de"/>
                      </g>
                    </g>
                  </g>
                </g>
              </g>
              <g id="Grupo_1101057" data-name="Grupo 1101057" transform="translate(11.958 11.958) rotate(90)" opacity="0.998" style="isolation: isolate">
                <g id="Grupo_1099844-2" data-name="Grupo 1099844" transform="translate(0 0)">
                  <g id="Grupo_1099843-2" data-name="Grupo 1099843" transform="translate(0 0)" clip-path="url(#clip-path)">
                    <g id="Grupo_1099842-2" data-name="Grupo 1099842" transform="translate(0 0)">
                      <g id="Grupo_1099841-2" data-name="Grupo 1099841" clip-path="url(#clip-path-2)">
                        <rect id="Rectángulo_401272-2" data-name="Rectángulo 401272" width="15.201" height="15.201" transform="translate(-3.683 10.689) rotate(-70.991)" fill="#f6f8de"/>
                      </g>
                    </g>
                  </g>
                </g>
              </g>
              <g id="Grupo_1101058" data-name="Grupo 1101058" transform="translate(11.958 23.916) rotate(90)" opacity="0.998" style="isolation: isolate">
                <g id="Grupo_1099844-3" data-name="Grupo 1099844" transform="translate(0 0)">
                  <g id="Grupo_1099843-3" data-name="Grupo 1099843" transform="translate(0 0)" clip-path="url(#clip-path)">
                    <g id="Grupo_1099842-3" data-name="Grupo 1099842" transform="translate(0 0)">
                      <g id="Grupo_1099841-3" data-name="Grupo 1099841" clip-path="url(#clip-path-2)">
                        <rect id="Rectángulo_401272-3" data-name="Rectángulo 401272" width="15.201" height="15.201" transform="translate(-3.683 10.689) rotate(-70.991)" fill="#f6f8de"/>
                      </g>
                    </g>
                  </g>
                </g>
              </g>
              <g id="Grupo_1101059" data-name="Grupo 1101059" transform="translate(23.916 24.024) rotate(90)" opacity="0.998" style="isolation: isolate">
                <g id="Grupo_1099844-4" data-name="Grupo 1099844" transform="translate(0 0)">
                  <g id="Grupo_1099843-4" data-name="Grupo 1099843" transform="translate(0 0)" clip-path="url(#clip-path)">
                    <g id="Grupo_1099842-4" data-name="Grupo 1099842" transform="translate(0 0)">
                      <g id="Grupo_1099841-4" data-name="Grupo 1099841" clip-path="url(#clip-path-2)">
                        <rect id="Rectángulo_401272-4" data-name="Rectángulo 401272" width="15.201" height="15.201" transform="translate(-3.683 10.689) rotate(-70.991)" fill="#f6f8de"/>
                      </g>
                    </g>
                  </g>
                </g>
              </g>
              <g id="Grupo_1101060" data-name="Grupo 1101060" transform="translate(23.916 11.958) rotate(90)" opacity="0.998" style="isolation: isolate">
                <g id="Grupo_1099844-5" data-name="Grupo 1099844" transform="translate(0 0)">
                  <g id="Grupo_1099843-5" data-name="Grupo 1099843" transform="translate(0 0)" clip-path="url(#clip-path)">
                    <g id="Grupo_1099842-5" data-name="Grupo 1099842" transform="translate(0 0)">
                      <g id="Grupo_1099841-5" data-name="Grupo 1099841" clip-path="url(#clip-path-2)">
                        <rect id="Rectángulo_401272-5" data-name="Rectángulo 401272" width="15.201" height="15.201" transform="translate(-3.683 10.689) rotate(-70.991)" fill="#f6f8de"/>
                      </g>
                    </g>
                  </g>
                </g>
              </g>
              <g id="Grupo_1101061" data-name="Grupo 1101061" transform="translate(35.874 24.024) rotate(90)" opacity="0.998" style="isolation: isolate">
                <g id="Grupo_1099844-6" data-name="Grupo 1099844" transform="translate(0 0)">
                  <g id="Grupo_1099843-6" data-name="Grupo 1099843" transform="translate(0 0)" clip-path="url(#clip-path)">
                    <g id="Grupo_1099842-6" data-name="Grupo 1099842" transform="translate(0 0)">
                      <g id="Grupo_1099841-6" data-name="Grupo 1099841" clip-path="url(#clip-path-2)">
                        <rect id="Rectángulo_401272-6" data-name="Rectángulo 401272" width="15.201" height="15.201" transform="translate(-3.683 10.689) rotate(-70.991)" fill="#f6f8de"/>
                      </g>
                    </g>
                  </g>
                </g>
              </g>
            </g>
            <g id="Grupo_1099776" data-name="Grupo 1099776" transform="translate(9.597 0)">
              <g id="Grupo_1099618" data-name="Grupo 1099618" transform="translate(0 0)">
                <rect id="Rectángulo_401104" data-name="Rectángulo 401104" width="45.951" height="46.505" transform="translate(0)" fill="none"/>
              </g>
              <g id="Layer_32" data-name="Layer 32" transform="translate(0.615 0.934)">
                <path id="Trazado_911879" data-name="Trazado 911879" d="M37.448,13.688A.688.688,0,0,0,36.76,13H32.634a.688.688,0,0,0-.688.688V29.5H29.2V21.94a.688.688,0,0,0-.688-.688H24.381a.688.688,0,0,0-.688.688V29.5H20.943V16.438a.688.688,0,0,0-.688-.688H16.129a.688.688,0,0,0-.688.688V29.5H12.691V19.877A.688.688,0,0,0,12,19.189H7.877a.688.688,0,0,0-.688.688V29.5H1V30.88H5.126v2.751a.688.688,0,0,0,.688.688H7.777a15.012,15.012,0,0,0,1.342,3.238L7.73,38.945a.688.688,0,0,0,0,.972l4.863,4.863a.688.688,0,0,0,.972,0l1.388-1.388a14.992,14.992,0,0,0,3.238,1.342V46.7a.688.688,0,0,0,.688.688h6.877a.688.688,0,0,0,.688-.688V44.734a14.992,14.992,0,0,0,3.238-1.342l1.388,1.388a.688.688,0,0,0,.972,0l4.863-4.863a.688.688,0,0,0,0-.972l-1.388-1.388a15.012,15.012,0,0,0,1.342-3.238h1.963a.688.688,0,0,0,.688-.688V30.88h4.126V29.5H37.448Zm-4.126.688h2.751V29.5H33.321Zm-2.1,16.5a8.931,8.931,0,0,1-17.811,0Zm-6.154-8.252H27.82V29.5H25.069Zm-8.252-5.5h2.751V29.5H16.817ZM8.565,20.565h2.751V29.5H8.565ZM38.135,32.943h-1.8a.688.688,0,0,0-.668.525,13.651,13.651,0,0,1-1.594,3.844.688.688,0,0,0,.1.842l1.277,1.277-3.89,3.89-1.277-1.277a.688.688,0,0,0-.843-.1,13.612,13.612,0,0,1-3.844,1.593.688.688,0,0,0-.524.668v1.8h-5.5V44.2a.688.688,0,0,0-.524-.668A13.611,13.611,0,0,1,15.2,41.944a.688.688,0,0,0-.843.1l-1.277,1.277-3.89-3.89,1.277-1.277a.688.688,0,0,0,.1-.842,13.651,13.651,0,0,1-1.594-3.844.688.688,0,0,0-.668-.525H6.5V30.88h5.537a10.3,10.3,0,0,0,20.562,0h5.535Z" transform="translate(0 -3.748)" fill="#474d41"/>
                <path id="Trazado_911880" data-name="Trazado 911880" d="M39.618,6.5V1.688A.688.688,0,0,0,38.931,1H34.117V2.375h3.237l-7.446,8.018L22.151,4.576a.688.688,0,0,0-.857.025l-8.94,7.565.888,1.051,8.522-7.211,7.814,5.861a.688.688,0,0,0,.917-.082l7.748-8.344V6.5Z" transform="translate(-3.546)" fill="#474d41"/>
              </g>
            </g>
          </g>
        </g>
      </g>
    </g>
    <g id="Grupo_1121167" data-name="Grupo 1121167" transform="translate(327.711 502)">
      <rect id="Rectángulo_409320" data-name="Rectángulo 409320" width="78.674" height="78.674" rx="39.337" transform="translate(0)" fill="#fff"/>
      <g id="Grupo_1119330-2" data-name="Grupo 1119330" transform="translate(7.152 17.608)">
        <g id="Grupo_1099855-2" data-name="Grupo 1099855" transform="translate(0 0)">
          <g id="Grupo_1099808-2" data-name="Grupo 1099808" transform="translate(0 0)">
            <g id="Grupo_1101062-2" data-name="Grupo 1101062" transform="translate(0 24.718)">
              <g id="Grupo_1101056-2" data-name="Grupo 1101056" transform="translate(11.958) rotate(90)" opacity="0.998" style="isolation: isolate">
                <g id="Grupo_1099844-7" data-name="Grupo 1099844" transform="translate(0 0)">
                  <g id="Grupo_1099843-7" data-name="Grupo 1099843" transform="translate(0 0)" clip-path="url(#clip-path)">
                    <g id="Grupo_1099842-7" data-name="Grupo 1099842" transform="translate(0 0)">
                      <g id="Grupo_1099841-7" data-name="Grupo 1099841" clip-path="url(#clip-path-2)">
                        <rect id="Rectángulo_401272-7" data-name="Rectángulo 401272" width="15.201" height="15.201" transform="translate(-3.683 10.689) rotate(-70.991)" fill="#f6f8de"/>
                      </g>
                    </g>
                  </g>
                </g>
              </g>
              <g id="Grupo_1101057-2" data-name="Grupo 1101057" transform="translate(11.958 11.958) rotate(90)" opacity="0.998" style="isolation: isolate">
                <g id="Grupo_1099844-8" data-name="Grupo 1099844" transform="translate(0 0)">
                  <g id="Grupo_1099843-8" data-name="Grupo 1099843" transform="translate(0 0)" clip-path="url(#clip-path)">
                    <g id="Grupo_1099842-8" data-name="Grupo 1099842" transform="translate(0 0)">
                      <g id="Grupo_1099841-8" data-name="Grupo 1099841" clip-path="url(#clip-path-2)">
                        <rect id="Rectángulo_401272-8" data-name="Rectángulo 401272" width="15.201" height="15.201" transform="translate(-3.683 10.689) rotate(-70.991)" fill="#f6f8de"/>
                      </g>
                    </g>
                  </g>
                </g>
              </g>
              <g id="Grupo_1101058-2" data-name="Grupo 1101058" transform="translate(11.958 23.916) rotate(90)" opacity="0.998" style="isolation: isolate">
                <g id="Grupo_1099844-9" data-name="Grupo 1099844" transform="translate(0 0)">
                  <g id="Grupo_1099843-9" data-name="Grupo 1099843" transform="translate(0 0)" clip-path="url(#clip-path)">
                    <g id="Grupo_1099842-9" data-name="Grupo 1099842" transform="translate(0 0)">
                      <g id="Grupo_1099841-9" data-name="Grupo 1099841" clip-path="url(#clip-path-2)">
                        <rect id="Rectángulo_401272-9" data-name="Rectángulo 401272" width="15.201" height="15.201" transform="translate(-3.683 10.689) rotate(-70.991)" fill="#f6f8de"/>
                      </g>
                    </g>
                  </g>
                </g>
              </g>
              <g id="Grupo_1101059-2" data-name="Grupo 1101059" transform="translate(23.916 24.024) rotate(90)" opacity="0.998" style="isolation: isolate">
                <g id="Grupo_1099844-10" data-name="Grupo 1099844" transform="translate(0 0)">
                  <g id="Grupo_1099843-10" data-name="Grupo 1099843" transform="translate(0 0)" clip-path="url(#clip-path)">
                    <g id="Grupo_1099842-10" data-name="Grupo 1099842" transform="translate(0 0)">
                      <g id="Grupo_1099841-10" data-name="Grupo 1099841" clip-path="url(#clip-path-2)">
                        <rect id="Rectángulo_401272-10" data-name="Rectángulo 401272" width="15.201" height="15.201" transform="translate(-3.683 10.689) rotate(-70.991)" fill="#f6f8de"/>
                      </g>
                    </g>
                  </g>
                </g>
              </g>
              <g id="Grupo_1101060-2" data-name="Grupo 1101060" transform="translate(23.916 11.958) rotate(90)" opacity="0.998" style="isolation: isolate">
                <g id="Grupo_1099844-11" data-name="Grupo 1099844" transform="translate(0 0)">
                  <g id="Grupo_1099843-11" data-name="Grupo 1099843" transform="translate(0 0)" clip-path="url(#clip-path)">
                    <g id="Grupo_1099842-11" data-name="Grupo 1099842" transform="translate(0 0)">
                      <g id="Grupo_1099841-11" data-name="Grupo 1099841" clip-path="url(#clip-path-2)">
                        <rect id="Rectángulo_401272-11" data-name="Rectángulo 401272" width="15.201" height="15.201" transform="translate(-3.683 10.689) rotate(-70.991)" fill="#f6f8de"/>
                      </g>
                    </g>
                  </g>
                </g>
              </g>
              <g id="Grupo_1101061-2" data-name="Grupo 1101061" transform="translate(35.874 24.024) rotate(90)" opacity="0.998" style="isolation: isolate">
                <g id="Grupo_1099844-12" data-name="Grupo 1099844" transform="translate(0 0)">
                  <g id="Grupo_1099843-12" data-name="Grupo 1099843" transform="translate(0 0)" clip-path="url(#clip-path)">
                    <g id="Grupo_1099842-12" data-name="Grupo 1099842" transform="translate(0 0)">
                      <g id="Grupo_1099841-12" data-name="Grupo 1099841" clip-path="url(#clip-path-2)">
                        <rect id="Rectángulo_401272-12" data-name="Rectángulo 401272" width="15.201" height="15.201" transform="translate(-3.683 10.689) rotate(-70.991)" fill="#f6f8de"/>
                      </g>
                    </g>
                  </g>
                </g>
              </g>
            </g>
            <g id="Grupo_1122158" data-name="Grupo 1122158" transform="translate(10.899 -3.147)">
              <g id="Grupo_1122157" data-name="Grupo 1122157">
                <path id="Trazado_911871" data-name="Trazado 911871" d="M195.932,314.741a3.245,3.245,0,1,0-4.391,0,5.855,5.855,0,0,0-3.651,5.417.644.644,0,0,0,.644.644h10.405a.644.644,0,0,0,.644-.644,5.855,5.855,0,0,0-3.651-5.417Zm-4.153-2.387a1.958,1.958,0,1,1,1.958,1.958A1.96,1.96,0,0,1,191.779,312.354Zm-2.556,7.16a4.559,4.559,0,0,1,9.027,0Z" transform="translate(-171.762 -282.575)" fill="#474d41"/>
                <path id="Trazado_911872" data-name="Trazado 911872" d="M378.382,312.354a3.236,3.236,0,0,0,1.05,2.387,5.855,5.855,0,0,0-3.651,5.417.644.644,0,0,0,.644.644H386.83a.644.644,0,0,0,.644-.644,5.855,5.855,0,0,0-3.651-5.417,3.244,3.244,0,1,0-5.441-2.387Zm7.759,7.16h-9.027a4.559,4.559,0,0,1,9.027,0Zm-2.556-7.16a1.958,1.958,0,1,1-1.958-1.958A1.96,1.96,0,0,1,383.585,312.354Z" transform="translate(-343.524 -282.575)" fill="#474d41"/>
                <path id="Trazado_911873" data-name="Trazado 911873" d="M8.042,314.741a3.245,3.245,0,1,0-4.391,0A5.855,5.855,0,0,0,0,320.158a.644.644,0,0,0,.644.644H11.049a.644.644,0,0,0,.644-.644A5.855,5.855,0,0,0,8.042,314.741Zm-4.153-2.387a1.958,1.958,0,1,1,1.958,1.958,1.96,1.96,0,0,1-1.958-1.958Zm-2.556,7.16a4.559,4.559,0,0,1,9.027,0Z" transform="translate(0 -282.575)" fill="#474d41"/>
                <path id="Trazado_911874" data-name="Trazado 911874" d="M63.274,165.151a.644.644,0,0,0,.644-.644v-2.825H78.585v2.825a.644.644,0,0,0,1.288,0v-2.825H94.54v2.825a.644.644,0,0,0,1.288,0v-3.468a.644.644,0,0,0-.644-.644H79.872v-2.614h4.559a.644.644,0,0,0,.644-.644v-2.948a.644.644,0,0,0-.644-.644H74.026a.644.644,0,0,0-.644.644v2.948a.644.644,0,0,0,.644.644h4.559V160.4H63.274a.644.644,0,0,0-.644.644v3.468a.644.644,0,0,0,.644.644Zm11.4-10.319h9.118v1.661H74.67Z" transform="translate(-57.254 -140.365)" fill="#474d41"/>
                <path id="Trazado_911875" data-name="Trazado 911875" d="M198.939,462.654H188.534a.644.644,0,0,0-.644.644v2.948a.644.644,0,0,0,.644.644h10.405a.644.644,0,0,0,.644-.644V463.3A.644.644,0,0,0,198.939,462.654ZM198.3,465.6h-9.118v-1.661H198.3Z" transform="translate(-171.762 -422.94)" fill="#474d41"/>
                <path id="Trazado_911876" data-name="Trazado 911876" d="M188.534,11.693h5.588a.644.644,0,0,0,0-1.288h-4.9a4.559,4.559,0,0,1,9.027,0h-1.123a.644.644,0,1,0,0,1.288h1.812a.644.644,0,0,0,.644-.644,5.855,5.855,0,0,0-3.651-5.417,3.245,3.245,0,1,0-4.391,0,5.855,5.855,0,0,0-3.651,5.417A.644.644,0,0,0,188.534,11.693Zm3.245-8.448A1.958,1.958,0,1,1,193.736,5.2,1.96,1.96,0,0,1,191.779,3.245Z" transform="translate(-171.762)" fill="#474d41"/>
                <path id="Trazado_911877" data-name="Trazado 911877" d="M386.829,462.654h-1.275a.644.644,0,1,0,0,1.288h.632V465.6h-9.118v-1.661h5.478a.644.644,0,1,0,0-1.288h-6.122a.644.644,0,0,0-.644.644v2.948a.644.644,0,0,0,.644.644h10.405a.644.644,0,0,0,.644-.644V463.3A.644.644,0,0,0,386.829,462.654Z" transform="translate(-343.523 -422.94)" fill="#474d41"/>
                <path id="Trazado_911878" data-name="Trazado 911878" d="M11.049,462.654H9.774a.644.644,0,1,0,0,1.288h.632V465.6H1.288v-1.661H6.766a.644.644,0,1,0,0-1.288H.644A.644.644,0,0,0,0,463.3v2.948a.644.644,0,0,0,.644.644H11.049a.644.644,0,0,0,.644-.644V463.3A.644.644,0,0,0,11.049,462.654Z" transform="translate(0 -422.94)" fill="#474d41"/>
              </g>
            </g>
          </g>
        </g>
      </g>
    </g>
    <g id="Grupo_1121168" data-name="Grupo 1121168" transform="translate(501.326 502)">
      <rect id="Rectángulo_409320-2" data-name="Rectángulo 409320" width="78.674" height="78.674" rx="39.337" fill="#fff"/>
      <g id="Grupo_1119330-3" data-name="Grupo 1119330" transform="translate(7.152 15.895)">
        <g id="Grupo_1099855-3" data-name="Grupo 1099855" transform="translate(0 0)">
          <g id="Grupo_1099808-3" data-name="Grupo 1099808" transform="translate(0 0)">
            <g id="Grupo_1101062-3" data-name="Grupo 1101062" transform="translate(0 26.431)">
              <g id="Grupo_1101056-3" data-name="Grupo 1101056" transform="translate(11.958) rotate(90)" opacity="0.998" style="isolation: isolate">
                <g id="Grupo_1099844-13" data-name="Grupo 1099844" transform="translate(0 0)">
                  <g id="Grupo_1099843-13" data-name="Grupo 1099843" transform="translate(0 0)" clip-path="url(#clip-path)">
                    <g id="Grupo_1099842-13" data-name="Grupo 1099842" transform="translate(0 0)">
                      <g id="Grupo_1099841-13" data-name="Grupo 1099841" clip-path="url(#clip-path-2)">
                        <rect id="Rectángulo_401272-13" data-name="Rectángulo 401272" width="15.201" height="15.201" transform="translate(-3.683 10.689) rotate(-70.991)" fill="#f6f8de"/>
                      </g>
                    </g>
                  </g>
                </g>
              </g>
              <g id="Grupo_1101057-3" data-name="Grupo 1101057" transform="translate(11.958 11.958) rotate(90)" opacity="0.998" style="isolation: isolate">
                <g id="Grupo_1099844-14" data-name="Grupo 1099844" transform="translate(0 0)">
                  <g id="Grupo_1099843-14" data-name="Grupo 1099843" transform="translate(0 0)" clip-path="url(#clip-path)">
                    <g id="Grupo_1099842-14" data-name="Grupo 1099842" transform="translate(0 0)">
                      <g id="Grupo_1099841-14" data-name="Grupo 1099841" clip-path="url(#clip-path-2)">
                        <rect id="Rectángulo_401272-14" data-name="Rectángulo 401272" width="15.201" height="15.201" transform="translate(-3.683 10.689) rotate(-70.991)" fill="#f6f8de"/>
                      </g>
                    </g>
                  </g>
                </g>
              </g>
              <g id="Grupo_1101058-3" data-name="Grupo 1101058" transform="translate(11.958 23.916) rotate(90)" opacity="0.998" style="isolation: isolate">
                <g id="Grupo_1099844-15" data-name="Grupo 1099844" transform="translate(0 0)">
                  <g id="Grupo_1099843-15" data-name="Grupo 1099843" transform="translate(0 0)" clip-path="url(#clip-path)">
                    <g id="Grupo_1099842-15" data-name="Grupo 1099842" transform="translate(0 0)">
                      <g id="Grupo_1099841-15" data-name="Grupo 1099841" clip-path="url(#clip-path-2)">
                        <rect id="Rectángulo_401272-15" data-name="Rectángulo 401272" width="15.201" height="15.201" transform="translate(-3.683 10.689) rotate(-70.991)" fill="#f6f8de"/>
                      </g>
                    </g>
                  </g>
                </g>
              </g>
              <g id="Grupo_1101059-3" data-name="Grupo 1101059" transform="translate(23.916 24.024) rotate(90)" opacity="0.998" style="isolation: isolate">
                <g id="Grupo_1099844-16" data-name="Grupo 1099844" transform="translate(0 0)">
                  <g id="Grupo_1099843-16" data-name="Grupo 1099843" transform="translate(0 0)" clip-path="url(#clip-path)">
                    <g id="Grupo_1099842-16" data-name="Grupo 1099842" transform="translate(0 0)">
                      <g id="Grupo_1099841-16" data-name="Grupo 1099841" clip-path="url(#clip-path-2)">
                        <rect id="Rectángulo_401272-16" data-name="Rectángulo 401272" width="15.201" height="15.201" transform="translate(-3.683 10.689) rotate(-70.991)" fill="#f6f8de"/>
                      </g>
                    </g>
                  </g>
                </g>
              </g>
              <g id="Grupo_1101060-3" data-name="Grupo 1101060" transform="translate(23.916 11.958) rotate(90)" opacity="0.998" style="isolation: isolate">
                <g id="Grupo_1099844-17" data-name="Grupo 1099844" transform="translate(0 0)">
                  <g id="Grupo_1099843-17" data-name="Grupo 1099843" transform="translate(0 0)" clip-path="url(#clip-path)">
                    <g id="Grupo_1099842-17" data-name="Grupo 1099842" transform="translate(0 0)">
                      <g id="Grupo_1099841-17" data-name="Grupo 1099841" clip-path="url(#clip-path-2)">
                        <rect id="Rectángulo_401272-17" data-name="Rectángulo 401272" width="15.201" height="15.201" transform="translate(-3.683 10.689) rotate(-70.991)" fill="#f6f8de"/>
                      </g>
                    </g>
                  </g>
                </g>
              </g>
              <g id="Grupo_1101061-3" data-name="Grupo 1101061" transform="translate(35.874 24.024) rotate(90)" opacity="0.998" style="isolation: isolate">
                <g id="Grupo_1099844-18" data-name="Grupo 1099844" transform="translate(0 0)">
                  <g id="Grupo_1099843-18" data-name="Grupo 1099843" transform="translate(0 0)" clip-path="url(#clip-path)">
                    <g id="Grupo_1099842-18" data-name="Grupo 1099842" transform="translate(0 0)">
                      <g id="Grupo_1099841-18" data-name="Grupo 1099841" clip-path="url(#clip-path-2)">
                        <rect id="Rectángulo_401272-18" data-name="Rectángulo 401272" width="15.201" height="15.201" transform="translate(-3.683 10.689) rotate(-70.991)" fill="#f6f8de"/>
                      </g>
                    </g>
                  </g>
                </g>
              </g>
            </g>
            <g id="Grupo_1099776-2" data-name="Grupo 1099776" transform="translate(4.597 1)">
              <g id="Grupo_1099618-2" data-name="Grupo 1099618" transform="translate(0 0)">
                <rect id="Rectángulo_401104-2" data-name="Rectángulo 401104" width="45.951" height="46.505" transform="translate(0)" fill="none"/>
              </g>
              <path id="Trazado_911881" data-name="Trazado 911881" d="M40.553,23.587H38.284a.665.665,0,0,0-.665.665V29.46a.665.665,0,0,0,.665.665h2.269a.665.665,0,0,0,.665-.665V24.252A.665.665,0,0,0,40.553,23.587Zm-.665,5.208H38.95V24.917h.938Zm-9-3.661H28.619a.665.665,0,0,0-.665.665V29.46a.665.665,0,0,0,.665.665h2.269a.665.665,0,0,0,.665-.665V25.8A.665.665,0,0,0,30.888,25.134Zm-.665,3.661h-.938v-2.33h.938Zm5.5-8.184H33.451a.665.665,0,0,0-.665.665V29.46a.665.665,0,0,0,.665.665H35.72a.665.665,0,0,0,.665-.665V21.276a.665.665,0,0,0-.665-.665Zm-.665,8.184h-.938V21.941h.938Zm10.957-15.6.266-.321a2.447,2.447,0,1,0-1.065-.8l-.121.146A14.89,14.89,0,0,0,22.565,31.5l-3.518,3.518a1.963,1.963,0,0,0-2.48.274L8.987,43.1a1.961,1.961,0,0,0,.042,2.77L11.935,48.7a1.961,1.961,0,0,0,2.77-.042l7.581-7.813a1.966,1.966,0,0,0,.319-2.293l3.5-3.5a14.889,14.889,0,0,0,19.9-21.852Zm1.144-3.71a1.111,1.111,0,1,1-1.111,1.111A1.112,1.112,0,0,1,47.156,9.481ZM21.331,39.914,13.75,47.727a.629.629,0,0,1-.888.013L9.955,44.92a.629.629,0,0,1-.013-.888l7.581-7.813a.623.623,0,0,1,.441-.189h.01a.623.623,0,0,1,.437.176l2.907,2.821a.632.632,0,0,1,.013.888Zm.383-2.358L20.028,35.92l3.363-3.363q.38.444.8.863t.863.8Zm13.005-1.1A13.562,13.562,0,1,1,48.281,22.89,13.473,13.473,0,0,1,34.719,36.451Zm8.014-21.575a11.258,11.258,0,0,0-8.013-3.319h0a11.333,11.333,0,1,0,8.013,3.319ZM34.719,32.891a10,10,0,1,1,7.073-17.075q.087.087.171.175l-1.6,1.933a1.745,1.745,0,0,0-2.169.225l-1.854-.8c0-.01,0-.019,0-.029a1.754,1.754,0,1,0-3.4.6L30.5,20.137a1.762,1.762,0,1,0,.9.984l2.435-2.215a1.743,1.743,0,0,0,1.978-.331l1.854.8c0,.01,0,.019,0,.029a1.754,1.754,0,1,0,3.476-.332l1.689-2.037a10,10,0,0,1-8.109,15.859ZM39.842,19.4a.423.423,0,1,1-.423-.423A.424.424,0,0,1,39.842,19.4Zm-5.68-2.078a.423.423,0,1,1,.423.423A.424.424,0,0,1,34.162,17.323Zm-3.986,4.4a.423.423,0,1,1-.423-.423A.424.424,0,0,1,30.177,21.72Z" transform="translate(-0.113 -5.37)" fill="#474d41"/>
            </g>
          </g>
        </g>
      </g>
    </g>
  </g>
</svg>
