<svg xmlns="http://www.w3.org/2000/svg" xmlns:xlink="http://www.w3.org/1999/xlink" width="120" height="120" viewBox="0 0 120 120">
  <defs>
    <clipPath id="clip-path">
      <rect id="Rectángulo_400938" data-name="Rectángulo 400938" width="113" height="113" fill="none"/>
    </clipPath>
    <clipPath id="clip-path-2">
      <rect id="Rectángulo_401742" data-name="Rectángulo 401742" width="120" height="120" fill="none"/>
    </clipPath>
    <clipPath id="clip-path-3">
      <rect id="Rectángulo_401301" data-name="Rectángulo 401301" width="64.317" height="193.113" fill="#d4e157"/>
    </clipPath>
    <clipPath id="clip-path-5">
      <rect id="Rectángulo_401247" data-name="Rectángulo 401247" width="15.921" height="15.92" fill="#d4e157"/>
    </clipPath>
    <clipPath id="clip-path-6">
      <path id="Trazado_873506" data-name="Trazado 873506" d="M15.921,7.96A7.96,7.96,0,1,1,7.96,0a7.961,7.961,0,0,1,7.961,7.96" fill="#d4e157"/>
    </clipPath>
    <clipPath id="clip-path-8">
      <path id="Trazado_873507" data-name="Trazado 873507" d="M15.921,7.96A7.96,7.96,0,1,1,7.96,0a7.96,7.96,0,0,1,7.961,7.96" fill="#d4e157"/>
    </clipPath>
    <clipPath id="clip-path-13">
      <rect id="Rectángulo_401261" data-name="Rectángulo 401261" width="15.92" height="15.92" fill="#d4e157"/>
    </clipPath>
    <clipPath id="clip-path-14">
      <path id="Trazado_873513" data-name="Trazado 873513" d="M15.92,7.96A7.96,7.96,0,1,1,7.96,0a7.96,7.96,0,0,1,7.96,7.96" fill="#d4e157"/>
    </clipPath>
    <clipPath id="clip-path-15">
      <rect id="Rectángulo_401263" data-name="Rectángulo 401263" width="15.921" height="15.921" fill="#d4e157"/>
    </clipPath>
    <clipPath id="clip-path-16">
      <path id="Trazado_873514" data-name="Trazado 873514" d="M15.921,7.961A7.96,7.96,0,1,1,7.96,0a7.961,7.961,0,0,1,7.961,7.961" fill="#d4e157"/>
    </clipPath>
    <clipPath id="clip-path-21">
      <rect id="Rectángulo_401273" data-name="Rectángulo 401273" width="15.92" height="15.921" fill="#d4e157"/>
    </clipPath>
    <clipPath id="clip-path-22">
      <path id="Trazado_873519" data-name="Trazado 873519" d="M15.92,7.961A7.96,7.96,0,1,1,7.96,0a7.96,7.96,0,0,1,7.96,7.961" fill="#d4e157"/>
    </clipPath>
    <clipPath id="clip-path-24">
      <path id="Trazado_873521" data-name="Trazado 873521" d="M15.921,7.96A7.96,7.96,0,1,1,7.961,0a7.96,7.96,0,0,1,7.96,7.96" fill="#d4e157"/>
    </clipPath>
    <clipPath id="clip-path-32">
      <path id="Trazado_873532" data-name="Trazado 873532" d="M15.921,7.961A7.96,7.96,0,1,1,7.961,0a7.96,7.96,0,0,1,7.96,7.961" fill="#d4e157"/>
    </clipPath>
  </defs>
  <g id="Grupo_1121567" data-name="Grupo 1121567" transform="translate(-810.711 -1630)">
    <g id="Grupo_1101088" data-name="Grupo 1101088" transform="translate(810.711 1630.434)">
      <g id="Grupo_1099379" data-name="Grupo 1099379" transform="translate(0 -0.434)">
        <rect id="Rectángulo_401103" data-name="Rectángulo 401103" width="120" height="120" transform="translate(0 0)" fill="none"/>
        <path id="Trazado_873425" data-name="Trazado 873425" d="M49.147,0C76.29,0,98.293,23.571,98.293,52.647s-22,52.647-49.147,52.647S0,81.723,0,52.647,22,0,49.147,0Z" transform="translate(15.677 12.583)" fill="#b9bfe2"/>
        <g id="Enmascarar_grupo_1100032" data-name="Enmascarar grupo 1100032" transform="translate(0 0)" clip-path="url(#clip-path-2)">
          <g id="Grupo_1101051" data-name="Grupo 1101051" transform="translate(148.45 -27.966) rotate(90)" style="isolation: isolate">
            <g id="Grupo_1099913" data-name="Grupo 1099913" clip-path="url(#clip-path-3)" style="isolation: isolate">
              <g id="Grupo_1099912" data-name="Grupo 1099912">
                <g id="Grupo_1099911" data-name="Grupo 1099911" clip-path="url(#clip-path-3)">
                  <g id="Grupo_1099780" data-name="Grupo 1099780" transform="translate(48.396 81.162)" style="isolation: isolate">
                    <g id="Grupo_1099779" data-name="Grupo 1099779">
                      <g id="Grupo_1099778" data-name="Grupo 1099778" transform="translate(0 0)" clip-path="url(#clip-path-5)">
                        <g id="Grupo_1099777" data-name="Grupo 1099777" transform="translate(0 0)">
                          <g id="Grupo_1099776" data-name="Grupo 1099776" clip-path="url(#clip-path-6)">
                            <path id="Trazado_875145" data-name="Trazado 875145" d="M0,0H20.238V20.238H0Z" transform="translate(-4.903 14.231) rotate(-70.991)" fill="#d4e157"/>
                          </g>
                        </g>
                      </g>
                    </g>
                  </g>
                  <g id="Grupo_1099785" data-name="Grupo 1099785" transform="translate(48.396 97.082)" style="isolation: isolate">
                    <g id="Grupo_1099784" data-name="Grupo 1099784">
                      <g id="Grupo_1099783" data-name="Grupo 1099783" clip-path="url(#clip-path-5)">
                        <g id="Grupo_1099782" data-name="Grupo 1099782" transform="translate(0)">
                          <g id="Grupo_1099781" data-name="Grupo 1099781" clip-path="url(#clip-path-8)">
                            <path id="Trazado_875146" data-name="Trazado 875146" d="M0,0H20.238V20.238H0Z" transform="translate(-4.903 14.231) rotate(-70.991)" fill="#d4e157"/>
                          </g>
                        </g>
                      </g>
                    </g>
                  </g>
                  <g id="Grupo_1099790" data-name="Grupo 1099790" transform="translate(48.396 113.052)" style="isolation: isolate">
                    <g id="Grupo_1099789" data-name="Grupo 1099789">
                      <g id="Grupo_1099788" data-name="Grupo 1099788" transform="translate(0 0)" clip-path="url(#clip-path-5)">
                        <g id="Grupo_1099787" data-name="Grupo 1099787" transform="translate(0 0)">
                          <g id="Grupo_1099786" data-name="Grupo 1099786" clip-path="url(#clip-path-6)">
                            <path id="Trazado_875147" data-name="Trazado 875147" d="M0,0H20.238V20.238H0Z" transform="translate(-4.903 14.231) rotate(-70.991)" fill="#d4e157"/>
                          </g>
                        </g>
                      </g>
                    </g>
                  </g>
                  <g id="Grupo_1099795" data-name="Grupo 1099795" transform="translate(48.396 128.972)" style="isolation: isolate">
                    <g id="Grupo_1099794" data-name="Grupo 1099794">
                      <g id="Grupo_1099793" data-name="Grupo 1099793" transform="translate(0 0)" clip-path="url(#clip-path-5)">
                        <g id="Grupo_1099792" data-name="Grupo 1099792" transform="translate(0 0)">
                          <g id="Grupo_1099791" data-name="Grupo 1099791" clip-path="url(#clip-path-8)">
                            <path id="Trazado_875148" data-name="Trazado 875148" d="M0,0H20.238V20.238H0Z" transform="translate(-4.903 14.231) rotate(-70.991)" fill="#d4e157"/>
                          </g>
                        </g>
                      </g>
                    </g>
                  </g>
                  <g id="Grupo_1099815" data-name="Grupo 1099815" transform="translate(32.476 81.162)" style="isolation: isolate">
                    <g id="Grupo_1099814" data-name="Grupo 1099814">
                      <g id="Grupo_1099813" data-name="Grupo 1099813" transform="translate(0 0)" clip-path="url(#clip-path-13)">
                        <g id="Grupo_1099812" data-name="Grupo 1099812" transform="translate(0 0)">
                          <g id="Grupo_1099811" data-name="Grupo 1099811" clip-path="url(#clip-path-14)">
                            <path id="Trazado_875149" data-name="Trazado 875149" d="M0,0H20.238V20.238H0Z" transform="translate(-4.903 14.231) rotate(-70.991)" fill="#d4e157"/>
                          </g>
                        </g>
                      </g>
                    </g>
                  </g>
                  <g id="Grupo_1099820" data-name="Grupo 1099820" transform="translate(48.396 64.723)" style="isolation: isolate">
                    <g id="Grupo_1099819" data-name="Grupo 1099819">
                      <g id="Grupo_1099818" data-name="Grupo 1099818" transform="translate(0 0)" clip-path="url(#clip-path-15)">
                        <g id="Grupo_1099817" data-name="Grupo 1099817" transform="translate(0 0)">
                          <g id="Grupo_1099816" data-name="Grupo 1099816" clip-path="url(#clip-path-16)">
                            <path id="Trazado_875150" data-name="Trazado 875150" d="M0,0H20.238V20.238H0Z" transform="matrix(0.326, -0.945, 0.945, 0.326, -4.903, 14.232)" fill="#d4e157"/>
                          </g>
                        </g>
                      </g>
                    </g>
                  </g>
                  <g id="Grupo_1099825" data-name="Grupo 1099825" transform="translate(48.396 48.715)" style="isolation: isolate">
                    <g id="Grupo_1099824" data-name="Grupo 1099824">
                      <g id="Grupo_1099823" data-name="Grupo 1099823" transform="translate(0 0)" clip-path="url(#clip-path-5)">
                        <g id="Grupo_1099822" data-name="Grupo 1099822" transform="translate(0 0)">
                          <g id="Grupo_1099821" data-name="Grupo 1099821" clip-path="url(#clip-path-6)">
                            <path id="Trazado_875151" data-name="Trazado 875151" d="M0,0H20.238V20.238H0Z" transform="translate(-4.903 14.231) rotate(-70.991)" fill="#d4e157"/>
                          </g>
                        </g>
                      </g>
                    </g>
                  </g>
                  <g id="Grupo_1099830" data-name="Grupo 1099830" transform="translate(48.396 32.501)" style="isolation: isolate">
                    <g id="Grupo_1099829" data-name="Grupo 1099829">
                      <g id="Grupo_1099828" data-name="Grupo 1099828" transform="translate(0 0)" clip-path="url(#clip-path-15)">
                        <g id="Grupo_1099827" data-name="Grupo 1099827" transform="translate(0 0)">
                          <g id="Grupo_1099826" data-name="Grupo 1099826" clip-path="url(#clip-path-16)">
                            <path id="Trazado_875152" data-name="Trazado 875152" d="M0,0H20.238V20.238H0Z" transform="translate(-4.903 14.232) rotate(-70.991)" fill="#d4e157"/>
                          </g>
                        </g>
                      </g>
                    </g>
                  </g>
                  <g id="Grupo_1099845" data-name="Grupo 1099845" transform="translate(32.476 64.723)" style="isolation: isolate">
                    <g id="Grupo_1099844" data-name="Grupo 1099844">
                      <g id="Grupo_1099843" data-name="Grupo 1099843" transform="translate(0 0)" clip-path="url(#clip-path-21)">
                        <g id="Grupo_1099842" data-name="Grupo 1099842" transform="translate(0 0)">
                          <g id="Grupo_1099841" data-name="Grupo 1099841" clip-path="url(#clip-path-22)">
                            <path id="Trazado_875153" data-name="Trazado 875153" d="M0,0H20.238V20.238H0Z" transform="translate(-4.903 14.232) rotate(-70.991)" fill="#d4e157"/>
                          </g>
                        </g>
                      </g>
                    </g>
                  </g>
                  <g id="Grupo_1099855" data-name="Grupo 1099855" transform="translate(32.11 97.082)" style="isolation: isolate">
                    <g id="Grupo_1099854" data-name="Grupo 1099854">
                      <g id="Grupo_1099853" data-name="Grupo 1099853" clip-path="url(#clip-path-5)">
                        <g id="Grupo_1099852" data-name="Grupo 1099852" transform="translate(0)">
                          <g id="Grupo_1099851" data-name="Grupo 1099851" clip-path="url(#clip-path-24)">
                            <path id="Trazado_875154" data-name="Trazado 875154" d="M0,0H20.238V20.238H0Z" transform="translate(-4.903 14.231) rotate(-70.991)" fill="#d4e157"/>
                          </g>
                        </g>
                      </g>
                    </g>
                  </g>
                  <g id="Grupo_1099870" data-name="Grupo 1099870" transform="translate(32.11 113.052)" style="isolation: isolate">
                    <g id="Grupo_1099869" data-name="Grupo 1099869">
                      <g id="Grupo_1099868" data-name="Grupo 1099868" transform="translate(0 0)" clip-path="url(#clip-path-5)">
                        <g id="Grupo_1099867" data-name="Grupo 1099867" transform="translate(0 0)">
                          <g id="Grupo_1099866" data-name="Grupo 1099866" clip-path="url(#clip-path-24)">
                            <path id="Trazado_875155" data-name="Trazado 875155" d="M0,0H20.238V20.238H0Z" transform="translate(-4.903 14.231) rotate(-70.991)" fill="#d4e157"/>
                          </g>
                        </g>
                      </g>
                    </g>
                  </g>
                  <g id="Grupo_1099885" data-name="Grupo 1099885" transform="translate(32.11 128.972)" style="isolation: isolate">
                    <g id="Grupo_1099884" data-name="Grupo 1099884">
                      <g id="Grupo_1099883" data-name="Grupo 1099883" transform="translate(0 0)" clip-path="url(#clip-path-5)">
                        <g id="Grupo_1099882" data-name="Grupo 1099882" transform="translate(0 0)">
                          <g id="Grupo_1099881" data-name="Grupo 1099881" clip-path="url(#clip-path-24)">
                            <path id="Trazado_875156" data-name="Trazado 875156" d="M0,0H20.238V20.238H0Z" transform="translate(-4.903 14.231) rotate(-70.991)" fill="#d4e157"/>
                          </g>
                        </g>
                      </g>
                    </g>
                  </g>
                  <g id="Grupo_1099900" data-name="Grupo 1099900" transform="translate(32.476 48.788)" style="isolation: isolate">
                    <g id="Grupo_1099899" data-name="Grupo 1099899">
                      <g id="Grupo_1099898" data-name="Grupo 1099898" transform="translate(0 0)" clip-path="url(#clip-path-21)">
                        <g id="Grupo_1099897" data-name="Grupo 1099897" transform="translate(0 0)">
                          <g id="Grupo_1099896" data-name="Grupo 1099896" clip-path="url(#clip-path-22)">
                            <path id="Trazado_875157" data-name="Trazado 875157" d="M0,0H20.238V20.238H0Z" transform="translate(-4.903 14.232) rotate(-70.991)" fill="#d4e157"/>
                          </g>
                        </g>
                      </g>
                    </g>
                  </g>
                  <g id="Grupo_1099910" data-name="Grupo 1099910" transform="translate(32.11 32.501)" style="isolation: isolate">
                    <g id="Grupo_1099909" data-name="Grupo 1099909">
                      <g id="Grupo_1099908" data-name="Grupo 1099908" transform="translate(0 0)" clip-path="url(#clip-path-15)">
                        <g id="Grupo_1099907" data-name="Grupo 1099907" transform="translate(0 0)">
                          <g id="Grupo_1099906" data-name="Grupo 1099906" clip-path="url(#clip-path-32)">
                            <path id="Trazado_875158" data-name="Trazado 875158" d="M0,0H20.238V20.238H0Z" transform="matrix(0.326, -0.945, 0.945, 0.326, -4.903, 14.232)" fill="#d4e157"/>
                          </g>
                        </g>
                      </g>
                    </g>
                  </g>
                </g>
              </g>
            </g>
          </g>
        </g>
        <circle id="Elipse_11503" data-name="Elipse 11503" cx="51.5" cy="51.5" r="51.5" transform="translate(8 9)" fill="#f3f9ff"/>
      </g>
    </g>
    <g id="Grupo_1101089" data-name="Grupo 1101089" transform="translate(837.504 1655.256)">
      <g id="Grupo_1099389" data-name="Grupo 1099389" transform="translate(0.293 -0.141)">
        <rect id="Rectángulo_401104" data-name="Rectángulo 401104" width="67" height="68" transform="translate(-0.086 -0.116)" fill="none"/>
      </g>
      <g id="Grupo_1120642" data-name="Grupo 1120642" transform="translate(-348.563 -6422.587)">
        <g id="Grupo_1099389-2" data-name="Grupo 1099389" transform="translate(347.969 6423)">
          <rect id="Rectángulo_401104-2" data-name="Rectángulo 401104" width="65.82" height="66.663" transform="translate(0 0)" fill="none"/>
        </g>
        <g id="Grupo_1122160" data-name="Grupo 1122160" transform="translate(346.969 6422.42)">
          <path id="Trazado_911885" data-name="Trazado 911885" d="M9.232,31a4.232,4.232,0,1,0,4.232,4.232A4.232,4.232,0,0,0,9.232,31Zm0,6.348a2.116,2.116,0,1,1,2.116-2.116A2.116,2.116,0,0,1,9.232,37.348Z" transform="translate(0.232 1.742)" fill="#474d41"/>
          <path id="Trazado_911886" data-name="Trazado 911886" d="M9.232,41a4.232,4.232,0,1,0,4.232,4.232A4.232,4.232,0,0,0,9.232,41Zm0,6.348a2.116,2.116,0,1,1,2.116-2.116A2.116,2.116,0,0,1,9.232,47.348Z" transform="translate(0.232 2.323)" fill="#474d41"/>
          <path id="Trazado_911887" data-name="Trazado 911887" d="M9.232,51a4.232,4.232,0,1,0,4.232,4.232A4.232,4.232,0,0,0,9.232,51Zm0,6.348a2.116,2.116,0,1,1,2.116-2.116A2.116,2.116,0,0,1,9.232,57.348Z" transform="translate(0.232 2.904)" fill="#474d41"/>
          <path id="Trazado_911888" data-name="Trazado 911888" d="M15,32H57.323v2.116H15Z" transform="translate(0.813 1.801)" fill="#474d41"/>
          <path id="Trazado_911889" data-name="Trazado 911889" d="M15,36H53.091v2.116H15Z" transform="translate(0.813 2.033)" fill="#474d41"/>
          <path id="Trazado_911890" data-name="Trazado 911890" d="M53,36h2.116v2.116H53Z" transform="translate(3.02 2.033)" fill="#474d41"/>
          <path id="Trazado_911891" data-name="Trazado 911891" d="M15,42H57.323v2.116H15Z" transform="translate(0.813 2.381)" fill="#474d41"/>
          <path id="Trazado_911892" data-name="Trazado 911892" d="M15,46H53.091v2.116H15Z" transform="translate(0.813 2.614)" fill="#474d41"/>
          <path id="Trazado_911893" data-name="Trazado 911893" d="M53,46h2.116v2.116H53Z" transform="translate(3.02 2.614)" fill="#474d41"/>
          <path id="Trazado_911894" data-name="Trazado 911894" d="M15,52H57.323v2.116H15Z" transform="translate(0.813 2.962)" fill="#474d41"/>
          <path id="Trazado_911895" data-name="Trazado 911895" d="M15,56H53.091v2.116H15Z" transform="translate(0.813 3.194)" fill="#474d41"/>
          <path id="Trazado_911896" data-name="Trazado 911896" d="M53,56h2.116v2.116H53Z" transform="translate(3.02 3.194)" fill="#474d41"/>
          <path id="Trazado_911897" data-name="Trazado 911897" d="M50.73,1A15.879,15.879,0,0,0,34.913,15.813H24.278V14.755a3.174,3.174,0,1,0-6.348,0v1.058H13.7V14.755a3.174,3.174,0,1,0-6.348,0v1.058H5.232A4.232,4.232,0,0,0,1,20.045V62.369A4.232,4.232,0,0,0,5.232,66.6h52.9a4.232,4.232,0,0,0,4.232-4.232V27.625A15.845,15.845,0,0,0,50.73,1ZM20.045,14.755a1.058,1.058,0,1,1,2.116,0V21.1a1.058,1.058,0,1,1-2.116,0Zm-10.581,0a1.058,1.058,0,1,1,2.116,0V21.1a1.058,1.058,0,1,1-2.116,0ZM5.232,17.929H7.348V21.1a3.174,3.174,0,1,0,6.348,0V17.929h4.232V21.1a3.174,3.174,0,1,0,6.348,0V17.929H34.913A15.809,15.809,0,0,0,39.977,28.51H3.116V20.045a2.116,2.116,0,0,1,2.116-2.116Zm52.9,46.556H5.232a2.116,2.116,0,0,1-2.116-2.116V30.626h39.73a15.747,15.747,0,0,0,17.407-1.089V62.369A2.116,2.116,0,0,1,58.136,64.485ZM50.73,30.626A13.755,13.755,0,1,1,64.485,16.871,13.755,13.755,0,0,1,50.73,30.626Z" transform="translate(0 0)" fill="#474d41"/>
          <path id="Trazado_911898" data-name="Trazado 911898" d="M48.639,5A11.639,11.639,0,1,0,60.278,16.639,11.639,11.639,0,0,0,48.639,5Zm0,21.162a9.523,9.523,0,1,1,9.523-9.523A9.523,9.523,0,0,1,48.639,26.162Z" transform="translate(2.091 0.232)" fill="#474d41"/>
          <path id="Trazado_911899" data-name="Trazado 911899" d="M47.157,15.91l-2.864,2.863,1.5,1.5L48.964,17.1a1.058,1.058,0,0,0,.309-.748V10H47.157Z" transform="translate(2.515 0.523)" fill="#474d41"/>
        </g>
      </g>
    </g>
  </g>
</svg>
