<svg xmlns="http://www.w3.org/2000/svg" xmlns:xlink="http://www.w3.org/1999/xlink" width="120" height="120" viewBox="0 0 120 120">
  <defs>
    <clipPath id="clip-path">
      <rect id="Rectángulo_400938" data-name="Rectángulo 400938" width="113" height="113" fill="none"/>
    </clipPath>
    <clipPath id="clip-path-2">
      <rect id="Rectángulo_401742" data-name="Rectángulo 401742" width="120" height="120" fill="none"/>
    </clipPath>
    <clipPath id="clip-path-3">
      <rect id="Rectángulo_401301" data-name="Rectángulo 401301" width="64.317" height="193.113" fill="#d4e157"/>
    </clipPath>
    <clipPath id="clip-path-5">
      <rect id="Rectángulo_401247" data-name="Rectángulo 401247" width="15.921" height="15.92" fill="#d4e157"/>
    </clipPath>
    <clipPath id="clip-path-6">
      <path id="Trazado_873506" data-name="Trazado 873506" d="M15.921,7.96A7.96,7.96,0,1,1,7.96,0a7.961,7.961,0,0,1,7.961,7.96" fill="#d4e157"/>
    </clipPath>
    <clipPath id="clip-path-8">
      <path id="Trazado_873507" data-name="Trazado 873507" d="M15.921,7.96A7.96,7.96,0,1,1,7.96,0a7.96,7.96,0,0,1,7.961,7.96" fill="#d4e157"/>
    </clipPath>
    <clipPath id="clip-path-13">
      <rect id="Rectángulo_401261" data-name="Rectángulo 401261" width="15.92" height="15.92" fill="#d4e157"/>
    </clipPath>
    <clipPath id="clip-path-14">
      <path id="Trazado_873513" data-name="Trazado 873513" d="M15.92,7.96A7.96,7.96,0,1,1,7.96,0a7.96,7.96,0,0,1,7.96,7.96" fill="#d4e157"/>
    </clipPath>
    <clipPath id="clip-path-15">
      <rect id="Rectángulo_401263" data-name="Rectángulo 401263" width="15.921" height="15.921" fill="#d4e157"/>
    </clipPath>
    <clipPath id="clip-path-16">
      <path id="Trazado_873514" data-name="Trazado 873514" d="M15.921,7.961A7.96,7.96,0,1,1,7.96,0a7.961,7.961,0,0,1,7.961,7.961" fill="#d4e157"/>
    </clipPath>
    <clipPath id="clip-path-21">
      <rect id="Rectángulo_401273" data-name="Rectángulo 401273" width="15.92" height="15.921" fill="#d4e157"/>
    </clipPath>
    <clipPath id="clip-path-22">
      <path id="Trazado_873519" data-name="Trazado 873519" d="M15.92,7.961A7.96,7.96,0,1,1,7.96,0a7.96,7.96,0,0,1,7.96,7.961" fill="#d4e157"/>
    </clipPath>
    <clipPath id="clip-path-24">
      <path id="Trazado_873521" data-name="Trazado 873521" d="M15.921,7.96A7.96,7.96,0,1,1,7.961,0a7.96,7.96,0,0,1,7.96,7.96" fill="#d4e157"/>
    </clipPath>
    <clipPath id="clip-path-32">
      <path id="Trazado_873532" data-name="Trazado 873532" d="M15.921,7.961A7.96,7.96,0,1,1,7.961,0a7.96,7.96,0,0,1,7.96,7.961" fill="#d4e157"/>
    </clipPath>
  </defs>
  <g id="Grupo_1119771" data-name="Grupo 1119771" transform="translate(-180.711 -1630)">
    <g id="Grupo_1101154" data-name="Grupo 1101154" transform="translate(180.711 1630.434)">
      <g id="Grupo_1099379" data-name="Grupo 1099379" transform="translate(0 -0.434)">
        <rect id="Rectángulo_401103" data-name="Rectángulo 401103" width="120" height="120" transform="translate(0 0)" fill="none"/>
        <path id="Trazado_873425" data-name="Trazado 873425" d="M49.147,0C76.29,0,98.293,23.571,98.293,52.647s-22,52.647-49.147,52.647S0,81.723,0,52.647,22,0,49.147,0Z" transform="translate(15.677 12.583)" fill="#b9bfe2"/>
        <g id="Enmascarar_grupo_1100032" data-name="Enmascarar grupo 1100032" transform="translate(0 0)" clip-path="url(#clip-path-2)">
          <g id="Grupo_1101051" data-name="Grupo 1101051" transform="translate(148.45 -27.966) rotate(90)" style="isolation: isolate">
            <g id="Grupo_1099913" data-name="Grupo 1099913" clip-path="url(#clip-path-3)" style="isolation: isolate">
              <g id="Grupo_1099912" data-name="Grupo 1099912">
                <g id="Grupo_1099911" data-name="Grupo 1099911" clip-path="url(#clip-path-3)">
                  <g id="Grupo_1099780" data-name="Grupo 1099780" transform="translate(48.396 81.162)" style="isolation: isolate">
                    <g id="Grupo_1099779" data-name="Grupo 1099779">
                      <g id="Grupo_1099778" data-name="Grupo 1099778" transform="translate(0 0)" clip-path="url(#clip-path-5)">
                        <g id="Grupo_1099777" data-name="Grupo 1099777" transform="translate(0 0)">
                          <g id="Grupo_1099776" data-name="Grupo 1099776" clip-path="url(#clip-path-6)">
                            <path id="Trazado_875145" data-name="Trazado 875145" d="M0,0H20.238V20.238H0Z" transform="translate(-4.903 14.231) rotate(-70.991)" fill="#d4e157"/>
                          </g>
                        </g>
                      </g>
                    </g>
                  </g>
                  <g id="Grupo_1099785" data-name="Grupo 1099785" transform="translate(48.396 97.082)" style="isolation: isolate">
                    <g id="Grupo_1099784" data-name="Grupo 1099784">
                      <g id="Grupo_1099783" data-name="Grupo 1099783" clip-path="url(#clip-path-5)">
                        <g id="Grupo_1099782" data-name="Grupo 1099782" transform="translate(0)">
                          <g id="Grupo_1099781" data-name="Grupo 1099781" clip-path="url(#clip-path-8)">
                            <path id="Trazado_875146" data-name="Trazado 875146" d="M0,0H20.238V20.238H0Z" transform="translate(-4.903 14.231) rotate(-70.991)" fill="#d4e157"/>
                          </g>
                        </g>
                      </g>
                    </g>
                  </g>
                  <g id="Grupo_1099790" data-name="Grupo 1099790" transform="translate(48.396 113.052)" style="isolation: isolate">
                    <g id="Grupo_1099789" data-name="Grupo 1099789">
                      <g id="Grupo_1099788" data-name="Grupo 1099788" transform="translate(0 0)" clip-path="url(#clip-path-5)">
                        <g id="Grupo_1099787" data-name="Grupo 1099787" transform="translate(0 0)">
                          <g id="Grupo_1099786" data-name="Grupo 1099786" clip-path="url(#clip-path-6)">
                            <path id="Trazado_875147" data-name="Trazado 875147" d="M0,0H20.238V20.238H0Z" transform="translate(-4.903 14.231) rotate(-70.991)" fill="#d4e157"/>
                          </g>
                        </g>
                      </g>
                    </g>
                  </g>
                  <g id="Grupo_1099795" data-name="Grupo 1099795" transform="translate(48.396 128.972)" style="isolation: isolate">
                    <g id="Grupo_1099794" data-name="Grupo 1099794">
                      <g id="Grupo_1099793" data-name="Grupo 1099793" transform="translate(0 0)" clip-path="url(#clip-path-5)">
                        <g id="Grupo_1099792" data-name="Grupo 1099792" transform="translate(0 0)">
                          <g id="Grupo_1099791" data-name="Grupo 1099791" clip-path="url(#clip-path-8)">
                            <path id="Trazado_875148" data-name="Trazado 875148" d="M0,0H20.238V20.238H0Z" transform="translate(-4.903 14.231) rotate(-70.991)" fill="#d4e157"/>
                          </g>
                        </g>
                      </g>
                    </g>
                  </g>
                  <g id="Grupo_1099815" data-name="Grupo 1099815" transform="translate(32.476 81.162)" style="isolation: isolate">
                    <g id="Grupo_1099814" data-name="Grupo 1099814">
                      <g id="Grupo_1099813" data-name="Grupo 1099813" transform="translate(0 0)" clip-path="url(#clip-path-13)">
                        <g id="Grupo_1099812" data-name="Grupo 1099812" transform="translate(0 0)">
                          <g id="Grupo_1099811" data-name="Grupo 1099811" clip-path="url(#clip-path-14)">
                            <path id="Trazado_875149" data-name="Trazado 875149" d="M0,0H20.238V20.238H0Z" transform="translate(-4.903 14.231) rotate(-70.991)" fill="#d4e157"/>
                          </g>
                        </g>
                      </g>
                    </g>
                  </g>
                  <g id="Grupo_1099820" data-name="Grupo 1099820" transform="translate(48.396 64.723)" style="isolation: isolate">
                    <g id="Grupo_1099819" data-name="Grupo 1099819">
                      <g id="Grupo_1099818" data-name="Grupo 1099818" transform="translate(0 0)" clip-path="url(#clip-path-15)">
                        <g id="Grupo_1099817" data-name="Grupo 1099817" transform="translate(0 0)">
                          <g id="Grupo_1099816" data-name="Grupo 1099816" clip-path="url(#clip-path-16)">
                            <path id="Trazado_875150" data-name="Trazado 875150" d="M0,0H20.238V20.238H0Z" transform="matrix(0.326, -0.945, 0.945, 0.326, -4.903, 14.232)" fill="#d4e157"/>
                          </g>
                        </g>
                      </g>
                    </g>
                  </g>
                  <g id="Grupo_1099825" data-name="Grupo 1099825" transform="translate(48.396 48.715)" style="isolation: isolate">
                    <g id="Grupo_1099824" data-name="Grupo 1099824">
                      <g id="Grupo_1099823" data-name="Grupo 1099823" transform="translate(0 0)" clip-path="url(#clip-path-5)">
                        <g id="Grupo_1099822" data-name="Grupo 1099822" transform="translate(0 0)">
                          <g id="Grupo_1099821" data-name="Grupo 1099821" clip-path="url(#clip-path-6)">
                            <path id="Trazado_875151" data-name="Trazado 875151" d="M0,0H20.238V20.238H0Z" transform="translate(-4.903 14.231) rotate(-70.991)" fill="#d4e157"/>
                          </g>
                        </g>
                      </g>
                    </g>
                  </g>
                  <g id="Grupo_1099830" data-name="Grupo 1099830" transform="translate(48.396 32.501)" style="isolation: isolate">
                    <g id="Grupo_1099829" data-name="Grupo 1099829">
                      <g id="Grupo_1099828" data-name="Grupo 1099828" transform="translate(0 0)" clip-path="url(#clip-path-15)">
                        <g id="Grupo_1099827" data-name="Grupo 1099827" transform="translate(0 0)">
                          <g id="Grupo_1099826" data-name="Grupo 1099826" clip-path="url(#clip-path-16)">
                            <path id="Trazado_875152" data-name="Trazado 875152" d="M0,0H20.238V20.238H0Z" transform="translate(-4.903 14.232) rotate(-70.991)" fill="#d4e157"/>
                          </g>
                        </g>
                      </g>
                    </g>
                  </g>
                  <g id="Grupo_1099845" data-name="Grupo 1099845" transform="translate(32.476 64.723)" style="isolation: isolate">
                    <g id="Grupo_1099844" data-name="Grupo 1099844">
                      <g id="Grupo_1099843" data-name="Grupo 1099843" transform="translate(0 0)" clip-path="url(#clip-path-21)">
                        <g id="Grupo_1099842" data-name="Grupo 1099842" transform="translate(0 0)">
                          <g id="Grupo_1099841" data-name="Grupo 1099841" clip-path="url(#clip-path-22)">
                            <path id="Trazado_875153" data-name="Trazado 875153" d="M0,0H20.238V20.238H0Z" transform="translate(-4.903 14.232) rotate(-70.991)" fill="#d4e157"/>
                          </g>
                        </g>
                      </g>
                    </g>
                  </g>
                  <g id="Grupo_1099855" data-name="Grupo 1099855" transform="translate(32.11 97.082)" style="isolation: isolate">
                    <g id="Grupo_1099854" data-name="Grupo 1099854">
                      <g id="Grupo_1099853" data-name="Grupo 1099853" clip-path="url(#clip-path-5)">
                        <g id="Grupo_1099852" data-name="Grupo 1099852" transform="translate(0)">
                          <g id="Grupo_1099851" data-name="Grupo 1099851" clip-path="url(#clip-path-24)">
                            <path id="Trazado_875154" data-name="Trazado 875154" d="M0,0H20.238V20.238H0Z" transform="translate(-4.903 14.231) rotate(-70.991)" fill="#d4e157"/>
                          </g>
                        </g>
                      </g>
                    </g>
                  </g>
                  <g id="Grupo_1099870" data-name="Grupo 1099870" transform="translate(32.11 113.052)" style="isolation: isolate">
                    <g id="Grupo_1099869" data-name="Grupo 1099869">
                      <g id="Grupo_1099868" data-name="Grupo 1099868" transform="translate(0 0)" clip-path="url(#clip-path-5)">
                        <g id="Grupo_1099867" data-name="Grupo 1099867" transform="translate(0 0)">
                          <g id="Grupo_1099866" data-name="Grupo 1099866" clip-path="url(#clip-path-24)">
                            <path id="Trazado_875155" data-name="Trazado 875155" d="M0,0H20.238V20.238H0Z" transform="translate(-4.903 14.231) rotate(-70.991)" fill="#d4e157"/>
                          </g>
                        </g>
                      </g>
                    </g>
                  </g>
                  <g id="Grupo_1099885" data-name="Grupo 1099885" transform="translate(32.11 128.972)" style="isolation: isolate">
                    <g id="Grupo_1099884" data-name="Grupo 1099884">
                      <g id="Grupo_1099883" data-name="Grupo 1099883" transform="translate(0 0)" clip-path="url(#clip-path-5)">
                        <g id="Grupo_1099882" data-name="Grupo 1099882" transform="translate(0 0)">
                          <g id="Grupo_1099881" data-name="Grupo 1099881" clip-path="url(#clip-path-24)">
                            <path id="Trazado_875156" data-name="Trazado 875156" d="M0,0H20.238V20.238H0Z" transform="translate(-4.903 14.231) rotate(-70.991)" fill="#d4e157"/>
                          </g>
                        </g>
                      </g>
                    </g>
                  </g>
                  <g id="Grupo_1099900" data-name="Grupo 1099900" transform="translate(32.476 48.788)" style="isolation: isolate">
                    <g id="Grupo_1099899" data-name="Grupo 1099899">
                      <g id="Grupo_1099898" data-name="Grupo 1099898" transform="translate(0 0)" clip-path="url(#clip-path-21)">
                        <g id="Grupo_1099897" data-name="Grupo 1099897" transform="translate(0 0)">
                          <g id="Grupo_1099896" data-name="Grupo 1099896" clip-path="url(#clip-path-22)">
                            <path id="Trazado_875157" data-name="Trazado 875157" d="M0,0H20.238V20.238H0Z" transform="translate(-4.903 14.232) rotate(-70.991)" fill="#d4e157"/>
                          </g>
                        </g>
                      </g>
                    </g>
                  </g>
                  <g id="Grupo_1099910" data-name="Grupo 1099910" transform="translate(32.11 32.501)" style="isolation: isolate">
                    <g id="Grupo_1099909" data-name="Grupo 1099909">
                      <g id="Grupo_1099908" data-name="Grupo 1099908" transform="translate(0 0)" clip-path="url(#clip-path-15)">
                        <g id="Grupo_1099907" data-name="Grupo 1099907" transform="translate(0 0)">
                          <g id="Grupo_1099906" data-name="Grupo 1099906" clip-path="url(#clip-path-32)">
                            <path id="Trazado_875158" data-name="Trazado 875158" d="M0,0H20.238V20.238H0Z" transform="matrix(0.326, -0.945, 0.945, 0.326, -4.903, 14.232)" fill="#d4e157"/>
                          </g>
                        </g>
                      </g>
                    </g>
                  </g>
                </g>
              </g>
            </g>
          </g>
        </g>
        <circle id="Elipse_11503" data-name="Elipse 11503" cx="51.5" cy="51.5" r="51.5" transform="translate(8 9)" fill="#f3f9ff"/>
      </g>
    </g>
    <g id="Grupo_1101156" data-name="Grupo 1101156" transform="translate(207.504 1655.256)">
      <g id="Grupo_1099389" data-name="Grupo 1099389" transform="translate(0.293 -0.141)">
        <rect id="Rectángulo_401104" data-name="Rectángulo 401104" width="67" height="68" transform="translate(-0.086 -0.116)" fill="none"/>
      </g>
      <g id="Grupo_1122126" data-name="Grupo 1122126" transform="translate(1.207 1.813)">
        <path id="Trazado_911818" data-name="Trazado 911818" d="M56.734,1l-14,8H41.14L34.991,7.243a6.249,6.249,0,0,0-1.485-.213L28.982,5.583a12.337,12.337,0,0,0-6.408-.291L15.95,6.765,7.3,1H1V15.7l11.568,4.207,3.442,2.065a3.113,3.113,0,0,0,3,3.017,3.113,3.113,0,0,0,3,3,3.11,3.11,0,0,0,2.253,2.876,17,17,0,1,0,14.378-.509A2.994,2.994,0,0,0,39,29a3.042,3.042,0,0,0,3-3,3.077,3.077,0,0,0,3-3.069,2.94,2.94,0,0,0-.036-.337l4.447-2.668L63,15.739V1ZM3,14.3V3H6.7l8.148,5.432L12.32,17.689Zm15,7.579a1.117,1.117,0,0,1,.328-.793l2.758-2.758a1.121,1.121,0,0,1,1.586,1.586l-2.758,2.758A1.121,1.121,0,0,1,18,21.879Zm3,3a1.117,1.117,0,0,1,.328-.793l2.758-2.758a1.121,1.121,0,0,1,1.586,1.586l-2.758,2.758A1.121,1.121,0,0,1,21,24.879Zm3.328,2.207,2.758-2.758a1.121,1.121,0,0,1,1.586,1.586l-2.758,2.758a1.121,1.121,0,0,1-1.586-1.586ZM30.879,27a1.121,1.121,0,0,1,.793,1.914l-2.758,2.758a1.121,1.121,0,0,1-1.586-1.586l2.758-2.758A1.117,1.117,0,0,1,30.879,27Zm2,3.535.745.621A1.043,1.043,0,0,1,32.957,33h-.185a1.045,1.045,0,0,1-.69-.261l-.748-.66ZM32,35A11,11,0,1,1,21,46,11.013,11.013,0,0,1,32,35ZM47,46A15,15,0,1,1,25.465,32.5a3.117,3.117,0,0,0,1.859,1.388,13,13,0,1,0,8.237-.376A3.009,3.009,0,0,0,36,32a3,3,0,0,0,.911-.163A14.9,14.9,0,0,1,47,46ZM41.924,24h-.173a1.073,1.073,0,0,1-.688-.249l-.158-.132L35.64,19.232l-1.28,1.536,5.265,4.387A1.044,1.044,0,0,1,38.957,27H38.74a1.044,1.044,0,0,1-.668-.242l-.167-.139L32.64,22.232l-1.28,1.536,5.265,4.387A1.044,1.044,0,0,1,35.957,30a1.644,1.644,0,0,1-1.052-.381l-.984-.82A3.182,3.182,0,0,0,34,28.121a3.118,3.118,0,0,0-3.011-3.11,3.113,3.113,0,0,0-3-3,3.113,3.113,0,0,0-3-3,3.115,3.115,0,0,0-5.317-2.1l-2.758,2.758a3.038,3.038,0,0,0-.281.342l-2.469-1.481L16.87,8.609l6.137-1.364a10.339,10.339,0,0,1,5.365.244l1.472.471-4.993,2.5a3.331,3.331,0,0,0-1.851,3v.2a3.349,3.349,0,0,0,5.073,2.871L31.8,14.288a2.067,2.067,0,0,1,2.4.231l8.45,7.6A1.076,1.076,0,0,1,41.924,24Zm2.058-3.361-8.45-7.6a4.108,4.108,0,0,0-4.766-.46l-3.723,2.234A1.349,1.349,0,0,1,25,13.651v-.2a1.342,1.342,0,0,1,.746-1.207l5.579-2.789a4.365,4.365,0,0,1,3.117-.29l6.284,1.8,1.734.029,5.127,7.691L44.1,20.771c-.043-.041-.076-.092-.121-.132ZM61,14.261,49.418,17.825l-4.992-7.488L57.266,3H61Z" fill="#474d41"/>
        <path id="Trazado_911819" data-name="Trazado 911819" d="M31,53v2h2V53a4,4,0,0,0,0-8H31a2,2,0,0,1,0-4h2a2,2,0,0,1,2,2h2a4,4,0,0,0-4-4V37H31v2a4,4,0,0,0,0,8h2a2,2,0,0,1,0,4H31a2,2,0,0,1-2-2V48H27v1A4,4,0,0,0,31,53Z" fill="#474d41"/>
        <path id="Trazado_911820" data-name="Trazado 911820" d="M48.2,37.4l1.6,1.2L54,33V54h2V33l4.2,5.6,1.6-1.2L55,28.333Z" fill="#474d41"/>
        <path id="Trazado_911821" data-name="Trazado 911821" d="M54,56h2v2H54Z" fill="#474d41"/>
        <path id="Trazado_911822" data-name="Trazado 911822" d="M15.8,37.4,9,28.333,2.2,37.4l1.6,1.2L8,33V54h2V33l4.2,5.6Z" fill="#474d41"/>
        <path id="Trazado_911823" data-name="Trazado 911823" d="M8,56h2v2H8Z" fill="#474d41"/>
      </g>
    </g>
  </g>
</svg>
