<svg xmlns="http://www.w3.org/2000/svg" xmlns:xlink="http://www.w3.org/1999/xlink" width="252.289" height="108" viewBox="0 0 252.289 108">
  <defs>
    <clipPath id="clip-path">
      <rect id="Rectángulo_401273" data-name="Rectángulo 401273" width="11.958" height="11.958" fill="#f6f8de"/>
    </clipPath>
    <clipPath id="clip-path-2">
      <path id="Trazado_873519" data-name="Trazado 873519" d="M11.958,5.979A5.979,5.979,0,1,1,5.979,0a5.979,5.979,0,0,1,5.979,5.979" fill="#f6f8de"/>
    </clipPath>
  </defs>
  <g id="Grupo_1121169" data-name="Grupo 1121169" transform="translate(-327.711 -487)">
    <rect id="Rectángulo_409839" data-name="Rectángulo 409839" width="215" height="108" rx="7" transform="translate(345.711 487)" fill="#dcedc8"/>
    <g id="Grupo_1121166" data-name="Grupo 1121166" transform="translate(413.711 502)">
      <path id="Trazado_906868" data-name="Trazado 906868" d="M39.337,0A39.337,39.337,0,1,1,0,39.337,39.337,39.337,0,0,1,39.337,0Z" transform="translate(0)" fill="#fff"/>
      <g id="Grupo_1119330" data-name="Grupo 1119330" transform="translate(7.152 15.895)">
        <g id="Grupo_1099855" data-name="Grupo 1099855" transform="translate(0 0)">
          <g id="Grupo_1099808" data-name="Grupo 1099808" transform="translate(0 0)">
            <g id="Grupo_1101062" data-name="Grupo 1101062" transform="translate(0 26.431)">
              <g id="Grupo_1101056" data-name="Grupo 1101056" transform="translate(11.958) rotate(90)" opacity="0.998" style="isolation: isolate">
                <g id="Grupo_1099844" data-name="Grupo 1099844" transform="translate(0 0)">
                  <g id="Grupo_1099843" data-name="Grupo 1099843" transform="translate(0 0)" clip-path="url(#clip-path)">
                    <g id="Grupo_1099842" data-name="Grupo 1099842" transform="translate(0 0)">
                      <g id="Grupo_1099841" data-name="Grupo 1099841" clip-path="url(#clip-path-2)">
                        <rect id="Rectángulo_401272" data-name="Rectángulo 401272" width="15.201" height="15.201" transform="translate(-3.683 10.689) rotate(-70.991)" fill="#f6f8de"/>
                      </g>
                    </g>
                  </g>
                </g>
              </g>
              <g id="Grupo_1101057" data-name="Grupo 1101057" transform="translate(11.958 11.958) rotate(90)" opacity="0.998" style="isolation: isolate">
                <g id="Grupo_1099844-2" data-name="Grupo 1099844" transform="translate(0 0)">
                  <g id="Grupo_1099843-2" data-name="Grupo 1099843" transform="translate(0 0)" clip-path="url(#clip-path)">
                    <g id="Grupo_1099842-2" data-name="Grupo 1099842" transform="translate(0 0)">
                      <g id="Grupo_1099841-2" data-name="Grupo 1099841" clip-path="url(#clip-path-2)">
                        <rect id="Rectángulo_401272-2" data-name="Rectángulo 401272" width="15.201" height="15.201" transform="translate(-3.683 10.689) rotate(-70.991)" fill="#f6f8de"/>
                      </g>
                    </g>
                  </g>
                </g>
              </g>
              <g id="Grupo_1101058" data-name="Grupo 1101058" transform="translate(11.958 23.916) rotate(90)" opacity="0.998" style="isolation: isolate">
                <g id="Grupo_1099844-3" data-name="Grupo 1099844" transform="translate(0 0)">
                  <g id="Grupo_1099843-3" data-name="Grupo 1099843" transform="translate(0 0)" clip-path="url(#clip-path)">
                    <g id="Grupo_1099842-3" data-name="Grupo 1099842" transform="translate(0 0)">
                      <g id="Grupo_1099841-3" data-name="Grupo 1099841" clip-path="url(#clip-path-2)">
                        <rect id="Rectángulo_401272-3" data-name="Rectángulo 401272" width="15.201" height="15.201" transform="translate(-3.683 10.689) rotate(-70.991)" fill="#f6f8de"/>
                      </g>
                    </g>
                  </g>
                </g>
              </g>
              <g id="Grupo_1101059" data-name="Grupo 1101059" transform="translate(23.916 24.024) rotate(90)" opacity="0.998" style="isolation: isolate">
                <g id="Grupo_1099844-4" data-name="Grupo 1099844" transform="translate(0 0)">
                  <g id="Grupo_1099843-4" data-name="Grupo 1099843" transform="translate(0 0)" clip-path="url(#clip-path)">
                    <g id="Grupo_1099842-4" data-name="Grupo 1099842" transform="translate(0 0)">
                      <g id="Grupo_1099841-4" data-name="Grupo 1099841" clip-path="url(#clip-path-2)">
                        <rect id="Rectángulo_401272-4" data-name="Rectángulo 401272" width="15.201" height="15.201" transform="translate(-3.683 10.689) rotate(-70.991)" fill="#f6f8de"/>
                      </g>
                    </g>
                  </g>
                </g>
              </g>
              <g id="Grupo_1101060" data-name="Grupo 1101060" transform="translate(23.916 11.958) rotate(90)" opacity="0.998" style="isolation: isolate">
                <g id="Grupo_1099844-5" data-name="Grupo 1099844" transform="translate(0 0)">
                  <g id="Grupo_1099843-5" data-name="Grupo 1099843" transform="translate(0 0)" clip-path="url(#clip-path)">
                    <g id="Grupo_1099842-5" data-name="Grupo 1099842" transform="translate(0 0)">
                      <g id="Grupo_1099841-5" data-name="Grupo 1099841" clip-path="url(#clip-path-2)">
                        <rect id="Rectángulo_401272-5" data-name="Rectángulo 401272" width="15.201" height="15.201" transform="translate(-3.683 10.689) rotate(-70.991)" fill="#f6f8de"/>
                      </g>
                    </g>
                  </g>
                </g>
              </g>
              <g id="Grupo_1101061" data-name="Grupo 1101061" transform="translate(35.874 24.024) rotate(90)" opacity="0.998" style="isolation: isolate">
                <g id="Grupo_1099844-6" data-name="Grupo 1099844" transform="translate(0 0)">
                  <g id="Grupo_1099843-6" data-name="Grupo 1099843" transform="translate(0 0)" clip-path="url(#clip-path)">
                    <g id="Grupo_1099842-6" data-name="Grupo 1099842" transform="translate(0 0)">
                      <g id="Grupo_1099841-6" data-name="Grupo 1099841" clip-path="url(#clip-path-2)">
                        <rect id="Rectángulo_401272-6" data-name="Rectángulo 401272" width="15.201" height="15.201" transform="translate(-3.683 10.689) rotate(-70.991)" fill="#f6f8de"/>
                      </g>
                    </g>
                  </g>
                </g>
              </g>
            </g>
            <g id="Grupo_1099776" data-name="Grupo 1099776" transform="translate(9.597 0)">
              <g id="Grupo_1099618" data-name="Grupo 1099618" transform="translate(0 0)">
                <rect id="Rectángulo_401104" data-name="Rectángulo 401104" width="45.951" height="46.505" transform="translate(0)" fill="none"/>
              </g>
              <g id="Grupo_1122129" data-name="Grupo 1122129" transform="translate(1.411 1.687)">
                <g id="Grupo_1122128" data-name="Grupo 1122128" transform="translate(0)">
                  <path id="Trazado_911832" data-name="Trazado 911832" d="M42.873,12.672q0-.024-.009-.049a15.362,15.362,0,0,0-1.181-3.669.629.629,0,0,0-.059-.127,15.521,15.521,0,0,0-1.83-2.933.634.634,0,0,0-.1-.125l-.016-.014A15.623,15.623,0,0,0,37.318,3.4L37.3,3.388a.632.632,0,0,0-.128-.1,15.519,15.519,0,0,0-2.943-1.816.623.623,0,0,0-.126-.059A15.357,15.357,0,0,0,30.418.25L30.369.241a15.541,15.541,0,0,0-4.836-.1h-.007A15.527,15.527,0,0,0,12.453,12.454a15.426,15.426,0,0,0-4.778,1.813.633.633,0,0,0,.64,1.093,14.144,14.144,0,0,1,3.933-1.566,15.534,15.534,0,0,0,.147,4.419c0,.017.006.035.01.052a15.354,15.354,0,0,0,1.166,3.688.627.627,0,0,0,.059.126,15.524,15.524,0,0,0,1.816,2.943.632.632,0,0,0,.1.128l.016.014a15.627,15.627,0,0,0,2.352,2.363l.014.016a.632.632,0,0,0,.125.1,15.52,15.52,0,0,0,2.933,1.831.626.626,0,0,0,.127.059,15.358,15.358,0,0,0,3.67,1.181l.048.009a15.51,15.51,0,0,0,4.512.164A14.223,14.223,0,0,1,1.266,27.642,14.092,14.092,0,0,1,5.727,17.3a.633.633,0,0,0-.869-.921,15.488,15.488,0,1,0,25.819,14.3A15.526,15.526,0,0,0,43,17.489s0-.008,0-.011a15.562,15.562,0,0,0-.13-4.805Zm-3.693-5.49a14.249,14.249,0,0,1,1.133,1.851L29.1,20.25a15.541,15.541,0,0,0-1.164-1.82Zm-.791-1L27.131,17.44a15.6,15.6,0,0,0-1.5-1.489L36.892,4.694A14.354,14.354,0,0,1,38.388,6.182Zm-2.5-2.275L24.64,15.156A15.536,15.536,0,0,0,22.813,14L34.029,2.783A14.237,14.237,0,0,1,35.889,3.907Zm-5.4-2.356a14.1,14.1,0,0,1,2.3.679L21.606,13.415a15.363,15.363,0,0,0-2.22-.764Zm-4.6-.178a14.29,14.29,0,0,1,1.753-.108c.432,0,.859.02,1.281.058L17.9,12.343a15.544,15.544,0,0,0-2.416-.189c-.129,0-.257,0-.385.006Zm-2.26.469L14,11.475A14.281,14.281,0,0,1,23.629,1.844ZM13.478,16.769c-.038-.422-.058-.849-.058-1.281a14.29,14.29,0,0,1,.108-1.753l.2-.2a14.265,14.265,0,0,1,1.755-.11c.432,0,.859.02,1.281.058Zm.227,1.563,4.626-4.626a14.083,14.083,0,0,1,2.3.679l-6.252,6.252A14.1,14.1,0,0,1,13.706,18.331Zm2.356,5.4a14.239,14.239,0,0,1-1.124-1.86l6.937-6.937a14.248,14.248,0,0,1,1.86,1.124Zm.787,1,7.89-7.89a14.363,14.363,0,0,1,1.5,1.488l-7.9,7.9A14.346,14.346,0,0,1,16.848,24.738Zm2.488,2.287,7.689-7.689a14.238,14.238,0,0,1,1.133,1.851l-6.972,6.972A14.266,14.266,0,0,1,19.336,27.025Zm5.378,2.381a14.087,14.087,0,0,1-2.294-.69l6.3-6.3a14.1,14.1,0,0,1,.69,2.294Zm4.9-.127-.336.336a14.3,14.3,0,0,1-1.637.095c-.464,0-.922-.023-1.375-.067l3.376-3.376c.044.453.067.911.067,1.375A14.294,14.294,0,0,1,29.615,29.279Zm.842-5.616a15.367,15.367,0,0,0-.773-2.211L40.87,10.265a14.1,14.1,0,0,1,.69,2.294Zm1.053,5.512,9.82-9.82A14.28,14.28,0,0,1,31.51,29.175Zm10.26-12.05-10.8,10.8c0-.093,0-.186,0-.28a15.525,15.525,0,0,0-.2-2.5L41.8,14.113c.044.453.067.911.067,1.375A14.332,14.332,0,0,1,41.769,17.125Z" transform="translate(0 0)" fill="#474d41"/>
                </g>
              </g>
            </g>
          </g>
        </g>
      </g>
    </g>
    <g id="Grupo_1121167" data-name="Grupo 1121167" transform="translate(327.711 502)">
      <rect id="Rectángulo_409320" data-name="Rectángulo 409320" width="78.674" height="78.674" rx="39.337" transform="translate(0)" fill="#fff"/>
      <g id="Grupo_1119330-2" data-name="Grupo 1119330" transform="translate(7.152 17.608)">
        <g id="Grupo_1099855-2" data-name="Grupo 1099855" transform="translate(0 0)">
          <g id="Grupo_1099808-2" data-name="Grupo 1099808" transform="translate(0 0)">
            <g id="Grupo_1101062-2" data-name="Grupo 1101062" transform="translate(0 24.718)">
              <g id="Grupo_1101056-2" data-name="Grupo 1101056" transform="translate(11.958) rotate(90)" opacity="0.998" style="isolation: isolate">
                <g id="Grupo_1099844-7" data-name="Grupo 1099844" transform="translate(0 0)">
                  <g id="Grupo_1099843-7" data-name="Grupo 1099843" transform="translate(0 0)" clip-path="url(#clip-path)">
                    <g id="Grupo_1099842-7" data-name="Grupo 1099842" transform="translate(0 0)">
                      <g id="Grupo_1099841-7" data-name="Grupo 1099841" clip-path="url(#clip-path-2)">
                        <rect id="Rectángulo_401272-7" data-name="Rectángulo 401272" width="15.201" height="15.201" transform="translate(-3.683 10.689) rotate(-70.991)" fill="#f6f8de"/>
                      </g>
                    </g>
                  </g>
                </g>
              </g>
              <g id="Grupo_1101057-2" data-name="Grupo 1101057" transform="translate(11.958 11.958) rotate(90)" opacity="0.998" style="isolation: isolate">
                <g id="Grupo_1099844-8" data-name="Grupo 1099844" transform="translate(0 0)">
                  <g id="Grupo_1099843-8" data-name="Grupo 1099843" transform="translate(0 0)" clip-path="url(#clip-path)">
                    <g id="Grupo_1099842-8" data-name="Grupo 1099842" transform="translate(0 0)">
                      <g id="Grupo_1099841-8" data-name="Grupo 1099841" clip-path="url(#clip-path-2)">
                        <rect id="Rectángulo_401272-8" data-name="Rectángulo 401272" width="15.201" height="15.201" transform="translate(-3.683 10.689) rotate(-70.991)" fill="#f6f8de"/>
                      </g>
                    </g>
                  </g>
                </g>
              </g>
              <g id="Grupo_1101058-2" data-name="Grupo 1101058" transform="translate(11.958 23.916) rotate(90)" opacity="0.998" style="isolation: isolate">
                <g id="Grupo_1099844-9" data-name="Grupo 1099844" transform="translate(0 0)">
                  <g id="Grupo_1099843-9" data-name="Grupo 1099843" transform="translate(0 0)" clip-path="url(#clip-path)">
                    <g id="Grupo_1099842-9" data-name="Grupo 1099842" transform="translate(0 0)">
                      <g id="Grupo_1099841-9" data-name="Grupo 1099841" clip-path="url(#clip-path-2)">
                        <rect id="Rectángulo_401272-9" data-name="Rectángulo 401272" width="15.201" height="15.201" transform="translate(-3.683 10.689) rotate(-70.991)" fill="#f6f8de"/>
                      </g>
                    </g>
                  </g>
                </g>
              </g>
              <g id="Grupo_1101059-2" data-name="Grupo 1101059" transform="translate(23.916 24.024) rotate(90)" opacity="0.998" style="isolation: isolate">
                <g id="Grupo_1099844-10" data-name="Grupo 1099844" transform="translate(0 0)">
                  <g id="Grupo_1099843-10" data-name="Grupo 1099843" transform="translate(0 0)" clip-path="url(#clip-path)">
                    <g id="Grupo_1099842-10" data-name="Grupo 1099842" transform="translate(0 0)">
                      <g id="Grupo_1099841-10" data-name="Grupo 1099841" clip-path="url(#clip-path-2)">
                        <rect id="Rectángulo_401272-10" data-name="Rectángulo 401272" width="15.201" height="15.201" transform="translate(-3.683 10.689) rotate(-70.991)" fill="#f6f8de"/>
                      </g>
                    </g>
                  </g>
                </g>
              </g>
              <g id="Grupo_1101060-2" data-name="Grupo 1101060" transform="translate(23.916 11.958) rotate(90)" opacity="0.998" style="isolation: isolate">
                <g id="Grupo_1099844-11" data-name="Grupo 1099844" transform="translate(0 0)">
                  <g id="Grupo_1099843-11" data-name="Grupo 1099843" transform="translate(0 0)" clip-path="url(#clip-path)">
                    <g id="Grupo_1099842-11" data-name="Grupo 1099842" transform="translate(0 0)">
                      <g id="Grupo_1099841-11" data-name="Grupo 1099841" clip-path="url(#clip-path-2)">
                        <rect id="Rectángulo_401272-11" data-name="Rectángulo 401272" width="15.201" height="15.201" transform="translate(-3.683 10.689) rotate(-70.991)" fill="#f6f8de"/>
                      </g>
                    </g>
                  </g>
                </g>
              </g>
              <g id="Grupo_1101061-2" data-name="Grupo 1101061" transform="translate(35.874 24.024) rotate(90)" opacity="0.998" style="isolation: isolate">
                <g id="Grupo_1099844-12" data-name="Grupo 1099844" transform="translate(0 0)">
                  <g id="Grupo_1099843-12" data-name="Grupo 1099843" transform="translate(0 0)" clip-path="url(#clip-path)">
                    <g id="Grupo_1099842-12" data-name="Grupo 1099842" transform="translate(0 0)">
                      <g id="Grupo_1099841-12" data-name="Grupo 1099841" clip-path="url(#clip-path-2)">
                        <rect id="Rectángulo_401272-12" data-name="Rectángulo 401272" width="15.201" height="15.201" transform="translate(-3.683 10.689) rotate(-70.991)" fill="#f6f8de"/>
                      </g>
                    </g>
                  </g>
                </g>
              </g>
            </g>
            <g id="Grupo_1122127" data-name="Grupo 1122127" transform="translate(7.821 -5.432)">
              <path id="Trazado_911824" data-name="Trazado 911824" d="M29.974,15.947a4.974,4.974,0,1,1,4.974-4.974A4.974,4.974,0,0,1,29.974,15.947Zm0-8.526a3.553,3.553,0,1,0,3.553,3.553A3.553,3.553,0,0,0,29.974,7.421Z" transform="translate(-6.658 0)" fill="#474d41"/>
              <path id="Trazado_911825" data-name="Trazado 911825" d="M31.315,24.283H29.894V20.73a.711.711,0,0,1,.207-.5l9.489-9.552a.864.864,0,0,0,0-1.218.853.853,0,0,0-1.152-.048l-4.864,4.133a12.267,12.267,0,0,1-15.885,0L12.824,9.415a.856.856,0,0,0-1.152,1.265l9.489,9.552a.711.711,0,0,1,.207.5v3.553H19.946V21.023l-9.282-9.34a2.278,2.278,0,0,1,3.08-3.352l4.864,4.134a10.846,10.846,0,0,0,14.044,0l4.864-4.134a2.278,2.278,0,0,1,3.08,3.352l-9.282,9.34Z" transform="translate(-2.315 -0.519)" fill="#474d41"/>
              <path id="Trazado_911826" data-name="Trazado 911826" d="M28.816,53.947c-5.811,0-7.441-1.462-7.608-1.629a.711.711,0,0,1-.208-.5V48.974A4.979,4.979,0,0,1,25.974,44h5.684a4.979,4.979,0,0,1,4.974,4.974v2.842a.71.71,0,0,1-.208.5C36.257,52.485,34.627,53.947,28.816,53.947Zm-6.395-2.5c.552.317,2.3,1.076,6.395,1.076,4.076,0,5.826-.753,6.395-1.08V48.974a3.557,3.557,0,0,0-3.553-3.553H25.974a3.557,3.557,0,0,0-3.553,3.553Zm13.5.366Z" transform="translate(-5.5 -11)" fill="#474d41"/>
              <path id="Trazado_911827" data-name="Trazado 911827" d="M29.974,41.947a4.974,4.974,0,1,1,4.974-4.974A4.974,4.974,0,0,1,29.974,41.947Zm0-8.526a3.553,3.553,0,1,0,3.553,3.553A3.553,3.553,0,0,0,29.974,33.421Z" transform="translate(-6.658 -7.526)" fill="#474d41"/>
              <path id="Trazado_911828" data-name="Trazado 911828" d="M48.154,50.947a23.661,23.661,0,0,1-4.4-.36l.267-1.4a22.347,22.347,0,0,0,4.13.335c4.076,0,5.826-.753,6.395-1.08V45.974A3.557,3.557,0,0,0,51,42.421H45.312a3.548,3.548,0,0,0-2.961,1.589l-1.184-.787A4.966,4.966,0,0,1,45.312,41H51a4.979,4.979,0,0,1,4.974,4.974v2.842a.71.71,0,0,1-.208.5C55.6,49.485,53.964,50.947,48.154,50.947Z" transform="translate(-11.338 -10.131)" fill="#474d41"/>
              <path id="Trazado_911829" data-name="Trazado 911829" d="M48.974,38.947a4.974,4.974,0,1,1,4.974-4.974,4.974,4.974,0,0,1-4.974,4.974Zm0-8.526a3.553,3.553,0,1,0,3.553,3.553A3.553,3.553,0,0,0,48.974,30.421Z" transform="translate(-12.158 -6.658)" fill="#474d41"/>
              <path id="Trazado_911830" data-name="Trazado 911830" d="M9.816,50.947c-5.811,0-7.441-1.462-7.608-1.629a.711.711,0,0,1-.208-.5V45.974A4.979,4.979,0,0,1,6.974,41h5.684A4.966,4.966,0,0,1,16.8,43.223l-1.184.787a3.548,3.548,0,0,0-2.961-1.589H6.974a3.557,3.557,0,0,0-3.553,3.553V48.45c.552.317,2.3,1.076,6.395,1.076a22.347,22.347,0,0,0,4.13-.335l.267,1.4a23.661,23.661,0,0,1-4.4.36Z" transform="translate(0 -10.131)" fill="#474d41"/>
              <path id="Trazado_911831" data-name="Trazado 911831" d="M10.974,38.947a4.974,4.974,0,1,1,4.974-4.974,4.974,4.974,0,0,1-4.974,4.974Zm0-8.526a3.553,3.553,0,1,0,3.553,3.553A3.553,3.553,0,0,0,10.974,30.421Z" transform="translate(-1.158 -6.658)" fill="#474d41"/>
            </g>
          </g>
        </g>
      </g>
    </g>
    <g id="Grupo_1121168" data-name="Grupo 1121168" transform="translate(501.326 502)">
      <rect id="Rectángulo_409320-2" data-name="Rectángulo 409320" width="78.674" height="78.674" rx="39.337" fill="#fff"/>
      <g id="Grupo_1119330-3" data-name="Grupo 1119330" transform="translate(7.152 15.895)">
        <g id="Grupo_1099855-3" data-name="Grupo 1099855" transform="translate(0 0)">
          <g id="Grupo_1099808-3" data-name="Grupo 1099808" transform="translate(0 0)">
            <g id="Grupo_1101062-3" data-name="Grupo 1101062" transform="translate(0 26.431)">
              <g id="Grupo_1101056-3" data-name="Grupo 1101056" transform="translate(11.958) rotate(90)" opacity="0.998" style="isolation: isolate">
                <g id="Grupo_1099844-13" data-name="Grupo 1099844" transform="translate(0 0)">
                  <g id="Grupo_1099843-13" data-name="Grupo 1099843" transform="translate(0 0)" clip-path="url(#clip-path)">
                    <g id="Grupo_1099842-13" data-name="Grupo 1099842" transform="translate(0 0)">
                      <g id="Grupo_1099841-13" data-name="Grupo 1099841" clip-path="url(#clip-path-2)">
                        <rect id="Rectángulo_401272-13" data-name="Rectángulo 401272" width="15.201" height="15.201" transform="translate(-3.683 10.689) rotate(-70.991)" fill="#f6f8de"/>
                      </g>
                    </g>
                  </g>
                </g>
              </g>
              <g id="Grupo_1101057-3" data-name="Grupo 1101057" transform="translate(11.958 11.958) rotate(90)" opacity="0.998" style="isolation: isolate">
                <g id="Grupo_1099844-14" data-name="Grupo 1099844" transform="translate(0 0)">
                  <g id="Grupo_1099843-14" data-name="Grupo 1099843" transform="translate(0 0)" clip-path="url(#clip-path)">
                    <g id="Grupo_1099842-14" data-name="Grupo 1099842" transform="translate(0 0)">
                      <g id="Grupo_1099841-14" data-name="Grupo 1099841" clip-path="url(#clip-path-2)">
                        <rect id="Rectángulo_401272-14" data-name="Rectángulo 401272" width="15.201" height="15.201" transform="translate(-3.683 10.689) rotate(-70.991)" fill="#f6f8de"/>
                      </g>
                    </g>
                  </g>
                </g>
              </g>
              <g id="Grupo_1101058-3" data-name="Grupo 1101058" transform="translate(11.958 23.916) rotate(90)" opacity="0.998" style="isolation: isolate">
                <g id="Grupo_1099844-15" data-name="Grupo 1099844" transform="translate(0 0)">
                  <g id="Grupo_1099843-15" data-name="Grupo 1099843" transform="translate(0 0)" clip-path="url(#clip-path)">
                    <g id="Grupo_1099842-15" data-name="Grupo 1099842" transform="translate(0 0)">
                      <g id="Grupo_1099841-15" data-name="Grupo 1099841" clip-path="url(#clip-path-2)">
                        <rect id="Rectángulo_401272-15" data-name="Rectángulo 401272" width="15.201" height="15.201" transform="translate(-3.683 10.689) rotate(-70.991)" fill="#f6f8de"/>
                      </g>
                    </g>
                  </g>
                </g>
              </g>
              <g id="Grupo_1101059-3" data-name="Grupo 1101059" transform="translate(23.916 24.024) rotate(90)" opacity="0.998" style="isolation: isolate">
                <g id="Grupo_1099844-16" data-name="Grupo 1099844" transform="translate(0 0)">
                  <g id="Grupo_1099843-16" data-name="Grupo 1099843" transform="translate(0 0)" clip-path="url(#clip-path)">
                    <g id="Grupo_1099842-16" data-name="Grupo 1099842" transform="translate(0 0)">
                      <g id="Grupo_1099841-16" data-name="Grupo 1099841" clip-path="url(#clip-path-2)">
                        <rect id="Rectángulo_401272-16" data-name="Rectángulo 401272" width="15.201" height="15.201" transform="translate(-3.683 10.689) rotate(-70.991)" fill="#f6f8de"/>
                      </g>
                    </g>
                  </g>
                </g>
              </g>
              <g id="Grupo_1101060-3" data-name="Grupo 1101060" transform="translate(23.916 11.958) rotate(90)" opacity="0.998" style="isolation: isolate">
                <g id="Grupo_1099844-17" data-name="Grupo 1099844" transform="translate(0 0)">
                  <g id="Grupo_1099843-17" data-name="Grupo 1099843" transform="translate(0 0)" clip-path="url(#clip-path)">
                    <g id="Grupo_1099842-17" data-name="Grupo 1099842" transform="translate(0 0)">
                      <g id="Grupo_1099841-17" data-name="Grupo 1099841" clip-path="url(#clip-path-2)">
                        <rect id="Rectángulo_401272-17" data-name="Rectángulo 401272" width="15.201" height="15.201" transform="translate(-3.683 10.689) rotate(-70.991)" fill="#f6f8de"/>
                      </g>
                    </g>
                  </g>
                </g>
              </g>
              <g id="Grupo_1101061-3" data-name="Grupo 1101061" transform="translate(35.874 24.024) rotate(90)" opacity="0.998" style="isolation: isolate">
                <g id="Grupo_1099844-18" data-name="Grupo 1099844" transform="translate(0 0)">
                  <g id="Grupo_1099843-18" data-name="Grupo 1099843" transform="translate(0 0)" clip-path="url(#clip-path)">
                    <g id="Grupo_1099842-18" data-name="Grupo 1099842" transform="translate(0 0)">
                      <g id="Grupo_1099841-18" data-name="Grupo 1099841" clip-path="url(#clip-path-2)">
                        <rect id="Rectángulo_401272-18" data-name="Rectángulo 401272" width="15.201" height="15.201" transform="translate(-3.683 10.689) rotate(-70.991)" fill="#f6f8de"/>
                      </g>
                    </g>
                  </g>
                </g>
              </g>
            </g>
            <g id="Grupo_1099776-2" data-name="Grupo 1099776" transform="translate(9.597 0)">
              <g id="Grupo_1099618-2" data-name="Grupo 1099618" transform="translate(0 0)">
                <rect id="Rectángulo_401104-2" data-name="Rectángulo 401104" width="45.951" height="46.505" transform="translate(0)" fill="none"/>
              </g>
              <g id="Grupo_1122130" data-name="Grupo 1122130" transform="translate(0 0.277)">
                <path id="Trazado_911833" data-name="Trazado 911833" d="M84.133,142.379a.673.673,0,0,0-1.216.578A21.638,21.638,0,0,1,53.63,171.545a21.84,21.84,0,0,1-6.67-5.228l2.656.885a.673.673,0,1,0,.426-1.277l-4.779-1.593a.673.673,0,0,0-.879.734l.8,5.576a.673.673,0,0,0,.666.578.684.684,0,0,0,.1-.007.673.673,0,0,0,.571-.762l-.444-3.111a23.19,23.19,0,0,0,6.956,5.406,22.985,22.985,0,0,0,31.11-30.367Z" transform="translate(-40.393 -129.251)" fill="#474d41"/>
                <path id="Trazado_911834" data-name="Trazado 911834" d="M1.346,22.976A21.628,21.628,0,0,1,39.383,8.884L36.729,8A.673.673,0,1,0,36.3,9.277l4.779,1.593a.673.673,0,0,0,.879-.734l-.8-5.576a.673.673,0,1,0-1.333.19l.444,3.108A22.975,22.975,0,0,0,0,22.976a22.772,22.772,0,0,0,2.211,9.847.673.673,0,0,0,1.216-.578,21.434,21.434,0,0,1-2.081-9.27Z" transform="translate(0)" fill="#474d41"/>
                <path id="Trazado_911835" data-name="Trazado 911835" d="M96.864,141.106a.673.673,0,1,0,0,1.346H124.2a.673.673,0,0,0,0-1.346h-1.485V128.063H124.2a.673.673,0,0,0,.56-1.046l-4.317-6.475a.673.673,0,0,0-1.12,0l-4.317,6.475a.673.673,0,0,0,.56,1.046h1.485v.766a.673.673,0,1,0,1.346,0V127.39a.673.673,0,0,0-.673-.673h-.9l3.059-4.588,3.059,4.588h-.9a.673.673,0,0,0-.673.673v13.716H118.4v-9.4a.673.673,0,1,0-1.346,0v9.4h-3.69v-7.287h1.485a.673.673,0,0,0,.56-1.046l-4.317-6.475a.673.673,0,0,0-1.12,0l-4.317,6.475a.673.673,0,0,0,.56,1.046H107.7v7.287h-3.69v-1.531H105.5a.673.673,0,0,0,.56-1.046l-4.317-6.475a.673.673,0,0,0-1.12,0l-1.8,2.7a.673.673,0,1,0,1.12.747l1.24-1.859,3.059,4.588h-.9a.673.673,0,0,0-.673.673v2.2H99.7v-2.2a.673.673,0,0,0-.673-.673h-.9l.262-.392a.673.673,0,1,0-1.12-.747l-.959,1.439a.673.673,0,0,0,.56,1.046h1.485v1.531Zm11.511-8.633h-.9l3.059-4.588,3.059,4.588h-.9a.673.673,0,0,0-.673.673v7.96h-2.97v-7.96A.673.673,0,0,0,108.375,132.472Z" transform="translate(-87.558 -109.45)" fill="#474d41"/>
              </g>
            </g>
          </g>
        </g>
      </g>
    </g>
  </g>
</svg>
