<svg xmlns="http://www.w3.org/2000/svg" xmlns:xlink="http://www.w3.org/1999/xlink" width="120" height="120" viewBox="0 0 120 120">
  <defs>
    <clipPath id="clip-path">
      <rect id="Rectángulo_400938" data-name="Rectángulo 400938" width="113" height="113" fill="none"/>
    </clipPath>
    <clipPath id="clip-path-2">
      <rect id="Rectángulo_401742" data-name="Rectángulo 401742" width="120" height="120" fill="none"/>
    </clipPath>
    <clipPath id="clip-path-3">
      <rect id="Rectángulo_401301" data-name="Rectángulo 401301" width="64.317" height="193.113" fill="#d4e157"/>
    </clipPath>
    <clipPath id="clip-path-5">
      <rect id="Rectángulo_401247" data-name="Rectángulo 401247" width="15.921" height="15.92" fill="#d4e157"/>
    </clipPath>
    <clipPath id="clip-path-6">
      <path id="Trazado_873506" data-name="Trazado 873506" d="M15.921,7.96A7.96,7.96,0,1,1,7.96,0a7.961,7.961,0,0,1,7.961,7.96" fill="#d4e157"/>
    </clipPath>
    <clipPath id="clip-path-8">
      <path id="Trazado_873507" data-name="Trazado 873507" d="M15.921,7.96A7.96,7.96,0,1,1,7.96,0a7.96,7.96,0,0,1,7.961,7.96" fill="#d4e157"/>
    </clipPath>
    <clipPath id="clip-path-13">
      <rect id="Rectángulo_401261" data-name="Rectángulo 401261" width="15.92" height="15.92" fill="#d4e157"/>
    </clipPath>
    <clipPath id="clip-path-14">
      <path id="Trazado_873513" data-name="Trazado 873513" d="M15.92,7.96A7.96,7.96,0,1,1,7.96,0a7.96,7.96,0,0,1,7.96,7.96" fill="#d4e157"/>
    </clipPath>
    <clipPath id="clip-path-15">
      <rect id="Rectángulo_401263" data-name="Rectángulo 401263" width="15.921" height="15.921" fill="#d4e157"/>
    </clipPath>
    <clipPath id="clip-path-16">
      <path id="Trazado_873514" data-name="Trazado 873514" d="M15.921,7.961A7.96,7.96,0,1,1,7.96,0a7.961,7.961,0,0,1,7.961,7.961" fill="#d4e157"/>
    </clipPath>
    <clipPath id="clip-path-21">
      <rect id="Rectángulo_401273" data-name="Rectángulo 401273" width="15.92" height="15.921" fill="#d4e157"/>
    </clipPath>
    <clipPath id="clip-path-22">
      <path id="Trazado_873519" data-name="Trazado 873519" d="M15.92,7.961A7.96,7.96,0,1,1,7.96,0a7.96,7.96,0,0,1,7.96,7.961" fill="#d4e157"/>
    </clipPath>
    <clipPath id="clip-path-24">
      <path id="Trazado_873521" data-name="Trazado 873521" d="M15.921,7.96A7.96,7.96,0,1,1,7.961,0a7.96,7.96,0,0,1,7.96,7.96" fill="#d4e157"/>
    </clipPath>
    <clipPath id="clip-path-32">
      <path id="Trazado_873532" data-name="Trazado 873532" d="M15.921,7.961A7.96,7.96,0,1,1,7.961,0a7.96,7.96,0,0,1,7.96,7.961" fill="#d4e157"/>
    </clipPath>
  </defs>
  <g id="Grupo_1119770" data-name="Grupo 1119770" transform="translate(-810.711 -1630)">
    <g id="Grupo_1101088" data-name="Grupo 1101088" transform="translate(810.711 1630.434)">
      <g id="Grupo_1099379" data-name="Grupo 1099379" transform="translate(0 -0.434)">
        <rect id="Rectángulo_401103" data-name="Rectángulo 401103" width="120" height="120" transform="translate(0 0)" fill="none"/>
        <path id="Trazado_873425" data-name="Trazado 873425" d="M49.147,0C76.29,0,98.293,23.571,98.293,52.647s-22,52.647-49.147,52.647S0,81.723,0,52.647,22,0,49.147,0Z" transform="translate(15.677 12.583)" fill="#b9bfe2"/>
        <g id="Enmascarar_grupo_1100032" data-name="Enmascarar grupo 1100032" transform="translate(0 0)" clip-path="url(#clip-path-2)">
          <g id="Grupo_1101051" data-name="Grupo 1101051" transform="translate(148.45 -27.966) rotate(90)" style="isolation: isolate">
            <g id="Grupo_1099913" data-name="Grupo 1099913" clip-path="url(#clip-path-3)" style="isolation: isolate">
              <g id="Grupo_1099912" data-name="Grupo 1099912">
                <g id="Grupo_1099911" data-name="Grupo 1099911" clip-path="url(#clip-path-3)">
                  <g id="Grupo_1099780" data-name="Grupo 1099780" transform="translate(48.396 81.162)" style="isolation: isolate">
                    <g id="Grupo_1099779" data-name="Grupo 1099779">
                      <g id="Grupo_1099778" data-name="Grupo 1099778" transform="translate(0 0)" clip-path="url(#clip-path-5)">
                        <g id="Grupo_1099777" data-name="Grupo 1099777" transform="translate(0 0)">
                          <g id="Grupo_1099776" data-name="Grupo 1099776" clip-path="url(#clip-path-6)">
                            <path id="Trazado_875145" data-name="Trazado 875145" d="M0,0H20.238V20.238H0Z" transform="translate(-4.903 14.231) rotate(-70.991)" fill="#d4e157"/>
                          </g>
                        </g>
                      </g>
                    </g>
                  </g>
                  <g id="Grupo_1099785" data-name="Grupo 1099785" transform="translate(48.396 97.082)" style="isolation: isolate">
                    <g id="Grupo_1099784" data-name="Grupo 1099784">
                      <g id="Grupo_1099783" data-name="Grupo 1099783" clip-path="url(#clip-path-5)">
                        <g id="Grupo_1099782" data-name="Grupo 1099782" transform="translate(0)">
                          <g id="Grupo_1099781" data-name="Grupo 1099781" clip-path="url(#clip-path-8)">
                            <path id="Trazado_875146" data-name="Trazado 875146" d="M0,0H20.238V20.238H0Z" transform="translate(-4.903 14.231) rotate(-70.991)" fill="#d4e157"/>
                          </g>
                        </g>
                      </g>
                    </g>
                  </g>
                  <g id="Grupo_1099790" data-name="Grupo 1099790" transform="translate(48.396 113.052)" style="isolation: isolate">
                    <g id="Grupo_1099789" data-name="Grupo 1099789">
                      <g id="Grupo_1099788" data-name="Grupo 1099788" transform="translate(0 0)" clip-path="url(#clip-path-5)">
                        <g id="Grupo_1099787" data-name="Grupo 1099787" transform="translate(0 0)">
                          <g id="Grupo_1099786" data-name="Grupo 1099786" clip-path="url(#clip-path-6)">
                            <path id="Trazado_875147" data-name="Trazado 875147" d="M0,0H20.238V20.238H0Z" transform="translate(-4.903 14.231) rotate(-70.991)" fill="#d4e157"/>
                          </g>
                        </g>
                      </g>
                    </g>
                  </g>
                  <g id="Grupo_1099795" data-name="Grupo 1099795" transform="translate(48.396 128.972)" style="isolation: isolate">
                    <g id="Grupo_1099794" data-name="Grupo 1099794">
                      <g id="Grupo_1099793" data-name="Grupo 1099793" transform="translate(0 0)" clip-path="url(#clip-path-5)">
                        <g id="Grupo_1099792" data-name="Grupo 1099792" transform="translate(0 0)">
                          <g id="Grupo_1099791" data-name="Grupo 1099791" clip-path="url(#clip-path-8)">
                            <path id="Trazado_875148" data-name="Trazado 875148" d="M0,0H20.238V20.238H0Z" transform="translate(-4.903 14.231) rotate(-70.991)" fill="#d4e157"/>
                          </g>
                        </g>
                      </g>
                    </g>
                  </g>
                  <g id="Grupo_1099815" data-name="Grupo 1099815" transform="translate(32.476 81.162)" style="isolation: isolate">
                    <g id="Grupo_1099814" data-name="Grupo 1099814">
                      <g id="Grupo_1099813" data-name="Grupo 1099813" transform="translate(0 0)" clip-path="url(#clip-path-13)">
                        <g id="Grupo_1099812" data-name="Grupo 1099812" transform="translate(0 0)">
                          <g id="Grupo_1099811" data-name="Grupo 1099811" clip-path="url(#clip-path-14)">
                            <path id="Trazado_875149" data-name="Trazado 875149" d="M0,0H20.238V20.238H0Z" transform="translate(-4.903 14.231) rotate(-70.991)" fill="#d4e157"/>
                          </g>
                        </g>
                      </g>
                    </g>
                  </g>
                  <g id="Grupo_1099820" data-name="Grupo 1099820" transform="translate(48.396 64.723)" style="isolation: isolate">
                    <g id="Grupo_1099819" data-name="Grupo 1099819">
                      <g id="Grupo_1099818" data-name="Grupo 1099818" transform="translate(0 0)" clip-path="url(#clip-path-15)">
                        <g id="Grupo_1099817" data-name="Grupo 1099817" transform="translate(0 0)">
                          <g id="Grupo_1099816" data-name="Grupo 1099816" clip-path="url(#clip-path-16)">
                            <path id="Trazado_875150" data-name="Trazado 875150" d="M0,0H20.238V20.238H0Z" transform="matrix(0.326, -0.945, 0.945, 0.326, -4.903, 14.232)" fill="#d4e157"/>
                          </g>
                        </g>
                      </g>
                    </g>
                  </g>
                  <g id="Grupo_1099825" data-name="Grupo 1099825" transform="translate(48.396 48.715)" style="isolation: isolate">
                    <g id="Grupo_1099824" data-name="Grupo 1099824">
                      <g id="Grupo_1099823" data-name="Grupo 1099823" transform="translate(0 0)" clip-path="url(#clip-path-5)">
                        <g id="Grupo_1099822" data-name="Grupo 1099822" transform="translate(0 0)">
                          <g id="Grupo_1099821" data-name="Grupo 1099821" clip-path="url(#clip-path-6)">
                            <path id="Trazado_875151" data-name="Trazado 875151" d="M0,0H20.238V20.238H0Z" transform="translate(-4.903 14.231) rotate(-70.991)" fill="#d4e157"/>
                          </g>
                        </g>
                      </g>
                    </g>
                  </g>
                  <g id="Grupo_1099830" data-name="Grupo 1099830" transform="translate(48.396 32.501)" style="isolation: isolate">
                    <g id="Grupo_1099829" data-name="Grupo 1099829">
                      <g id="Grupo_1099828" data-name="Grupo 1099828" transform="translate(0 0)" clip-path="url(#clip-path-15)">
                        <g id="Grupo_1099827" data-name="Grupo 1099827" transform="translate(0 0)">
                          <g id="Grupo_1099826" data-name="Grupo 1099826" clip-path="url(#clip-path-16)">
                            <path id="Trazado_875152" data-name="Trazado 875152" d="M0,0H20.238V20.238H0Z" transform="translate(-4.903 14.232) rotate(-70.991)" fill="#d4e157"/>
                          </g>
                        </g>
                      </g>
                    </g>
                  </g>
                  <g id="Grupo_1099845" data-name="Grupo 1099845" transform="translate(32.476 64.723)" style="isolation: isolate">
                    <g id="Grupo_1099844" data-name="Grupo 1099844">
                      <g id="Grupo_1099843" data-name="Grupo 1099843" transform="translate(0 0)" clip-path="url(#clip-path-21)">
                        <g id="Grupo_1099842" data-name="Grupo 1099842" transform="translate(0 0)">
                          <g id="Grupo_1099841" data-name="Grupo 1099841" clip-path="url(#clip-path-22)">
                            <path id="Trazado_875153" data-name="Trazado 875153" d="M0,0H20.238V20.238H0Z" transform="translate(-4.903 14.232) rotate(-70.991)" fill="#d4e157"/>
                          </g>
                        </g>
                      </g>
                    </g>
                  </g>
                  <g id="Grupo_1099855" data-name="Grupo 1099855" transform="translate(32.11 97.082)" style="isolation: isolate">
                    <g id="Grupo_1099854" data-name="Grupo 1099854">
                      <g id="Grupo_1099853" data-name="Grupo 1099853" clip-path="url(#clip-path-5)">
                        <g id="Grupo_1099852" data-name="Grupo 1099852" transform="translate(0)">
                          <g id="Grupo_1099851" data-name="Grupo 1099851" clip-path="url(#clip-path-24)">
                            <path id="Trazado_875154" data-name="Trazado 875154" d="M0,0H20.238V20.238H0Z" transform="translate(-4.903 14.231) rotate(-70.991)" fill="#d4e157"/>
                          </g>
                        </g>
                      </g>
                    </g>
                  </g>
                  <g id="Grupo_1099870" data-name="Grupo 1099870" transform="translate(32.11 113.052)" style="isolation: isolate">
                    <g id="Grupo_1099869" data-name="Grupo 1099869">
                      <g id="Grupo_1099868" data-name="Grupo 1099868" transform="translate(0 0)" clip-path="url(#clip-path-5)">
                        <g id="Grupo_1099867" data-name="Grupo 1099867" transform="translate(0 0)">
                          <g id="Grupo_1099866" data-name="Grupo 1099866" clip-path="url(#clip-path-24)">
                            <path id="Trazado_875155" data-name="Trazado 875155" d="M0,0H20.238V20.238H0Z" transform="translate(-4.903 14.231) rotate(-70.991)" fill="#d4e157"/>
                          </g>
                        </g>
                      </g>
                    </g>
                  </g>
                  <g id="Grupo_1099885" data-name="Grupo 1099885" transform="translate(32.11 128.972)" style="isolation: isolate">
                    <g id="Grupo_1099884" data-name="Grupo 1099884">
                      <g id="Grupo_1099883" data-name="Grupo 1099883" transform="translate(0 0)" clip-path="url(#clip-path-5)">
                        <g id="Grupo_1099882" data-name="Grupo 1099882" transform="translate(0 0)">
                          <g id="Grupo_1099881" data-name="Grupo 1099881" clip-path="url(#clip-path-24)">
                            <path id="Trazado_875156" data-name="Trazado 875156" d="M0,0H20.238V20.238H0Z" transform="translate(-4.903 14.231) rotate(-70.991)" fill="#d4e157"/>
                          </g>
                        </g>
                      </g>
                    </g>
                  </g>
                  <g id="Grupo_1099900" data-name="Grupo 1099900" transform="translate(32.476 48.788)" style="isolation: isolate">
                    <g id="Grupo_1099899" data-name="Grupo 1099899">
                      <g id="Grupo_1099898" data-name="Grupo 1099898" transform="translate(0 0)" clip-path="url(#clip-path-21)">
                        <g id="Grupo_1099897" data-name="Grupo 1099897" transform="translate(0 0)">
                          <g id="Grupo_1099896" data-name="Grupo 1099896" clip-path="url(#clip-path-22)">
                            <path id="Trazado_875157" data-name="Trazado 875157" d="M0,0H20.238V20.238H0Z" transform="translate(-4.903 14.232) rotate(-70.991)" fill="#d4e157"/>
                          </g>
                        </g>
                      </g>
                    </g>
                  </g>
                  <g id="Grupo_1099910" data-name="Grupo 1099910" transform="translate(32.11 32.501)" style="isolation: isolate">
                    <g id="Grupo_1099909" data-name="Grupo 1099909">
                      <g id="Grupo_1099908" data-name="Grupo 1099908" transform="translate(0 0)" clip-path="url(#clip-path-15)">
                        <g id="Grupo_1099907" data-name="Grupo 1099907" transform="translate(0 0)">
                          <g id="Grupo_1099906" data-name="Grupo 1099906" clip-path="url(#clip-path-32)">
                            <path id="Trazado_875158" data-name="Trazado 875158" d="M0,0H20.238V20.238H0Z" transform="matrix(0.326, -0.945, 0.945, 0.326, -4.903, 14.232)" fill="#d4e157"/>
                          </g>
                        </g>
                      </g>
                    </g>
                  </g>
                </g>
              </g>
            </g>
          </g>
        </g>
        <circle id="Elipse_11503" data-name="Elipse 11503" cx="51.5" cy="51.5" r="51.5" transform="translate(8 9)" fill="#f3f9ff"/>
      </g>
    </g>
    <g id="Grupo_1101089" data-name="Grupo 1101089" transform="translate(837.504 1655.256)">
      <g id="Grupo_1099389" data-name="Grupo 1099389" transform="translate(0.293 -0.141)">
        <rect id="Rectángulo_401104" data-name="Rectángulo 401104" width="67" height="68" transform="translate(-0.086 -0.116)" fill="none"/>
      </g>
      <g id="Grupo_1120642" data-name="Grupo 1120642" transform="translate(-348.563 -6422.587)">
        <g id="Grupo_1099389-2" data-name="Grupo 1099389" transform="translate(347.969 6423)">
          <rect id="Rectángulo_401104-2" data-name="Rectángulo 401104" width="65.82" height="66.663" transform="translate(0 0)" fill="none"/>
        </g>
        <g id="Grupo_1122125" data-name="Grupo 1122125" transform="translate(347.878 6423.335)">
          <path id="Trazado_911802" data-name="Trazado 911802" d="M51.12,36.25v-6.5l-4.2-.8a14.38,14.38,0,0,0-1.21-2.92l2.4-3.54-4.6-4.6-3.54,2.4a14.641,14.641,0,0,0-2.93-1.22l-.8-4.19h-6.5l-.8,4.2a14.38,14.38,0,0,0-2.92,1.21l-3.54-2.4-4.6,4.6,2.4,3.54a14.38,14.38,0,0,0-1.21,2.92l-4.2.8v6.5l4.19.8a14.08,14.08,0,0,0,1.22,2.93l-2.4,3.54,4.6,4.6,3.54-2.4a14.055,14.055,0,0,0,2.92,1.21l.8,4.2h6.5l.8-4.19a14.08,14.08,0,0,0,2.93-1.22l3.54,2.4,4.6-4.6-2.4-3.54a14.642,14.642,0,0,0,1.22-2.93Zm-5.59,7.03-2.26,2.26-3.22-2.19-.55.34a12.189,12.189,0,0,1-3.55,1.47l-.63.15-.73,3.82H31.4l-.73-3.82-.62-.15a12.39,12.39,0,0,1-3.54-1.47l-.55-.34-3.22,2.19-2.26-2.26,2.19-3.22-.34-.55a12.189,12.189,0,0,1-1.47-3.55l-.15-.63-3.82-.73V31.4l3.82-.73.15-.62a12.39,12.39,0,0,1,1.47-3.54l.34-.55-2.19-3.22,2.26-2.26,3.22,2.19.55-.34a12.509,12.509,0,0,1,3.54-1.47l.62-.15.73-3.82h3.19l.73,3.82.63.15a12.189,12.189,0,0,1,3.55,1.47l.55.34,3.22-2.19,2.26,2.26-2.19,3.22.34.55a12.509,12.509,0,0,1,1.47,3.54l.15.62,3.82.73v3.19l-3.82.73-.15.63a12.189,12.189,0,0,1-1.47,3.55l-.34.55Z" fill="#474d41"/>
          <path id="Trazado_911803" data-name="Trazado 911803" d="M33,26.05a6.96,6.96,0,1,0,6.96,6.96A6.965,6.965,0,0,0,33,26.05Zm0,11.91A4.96,4.96,0,1,1,37.96,33,4.966,4.966,0,0,1,33,37.96Z" fill="#474d41"/>
          <path id="Trazado_911804" data-name="Trazado 911804" d="M2.97,33.27A30.064,30.064,0,0,0,33,63.31a29.657,29.657,0,0,0,4.44-.33l.21,1.15a1.053,1.053,0,0,0,.67.8l.59.19,8.55-6.43a1.057,1.057,0,0,0,.42-1.03L47.73,57,37.39,54a1.082,1.082,0,0,0-1.02.23l-.44.44.39,2.16a24.585,24.585,0,0,1-3.32.23A23.812,23.812,0,0,1,9.22,33.27c0-.64.03-1.29.08-1.92l-2-.16c-.05.68-.08,1.38-.08,2.08A25.818,25.818,0,0,0,33,59.06a26.136,26.136,0,0,0,4.66-.42l.99-.18-.39-2.13,6.5,1.88-5.41,4.07-.29-1.63-.99.18a27.291,27.291,0,0,1-5.06.46A28.065,28.065,0,0,1,4.98,33.25c0-.64.02-1.29.07-1.93l-2-.14c-.06.7-.08,1.4-.08,2.09Z" fill="#474d41"/>
          <path id="Trazado_911805" data-name="Trazado 911805" d="M5.71,20.71l1.82.84A27.3,27.3,0,0,1,9.49,18L7.81,16.9A31.411,31.411,0,0,0,5.71,20.71Z" fill="#474d41"/>
          <path id="Trazado_911806" data-name="Trazado 911806" d="M3.44,27.96l1.97.35a27.939,27.939,0,0,1,1-3.93l-1.9-.63a28.852,28.852,0,0,0-1.07,4.21Z" fill="#474d41"/>
          <path id="Trazado_911807" data-name="Trazado 911807" d="M11.29,15.53c.4-.49.83-.98,1.27-1.45L11.1,12.71c-.47.5-.93,1.03-1.36,1.55Z" fill="#474d41"/>
          <path id="Trazado_911808" data-name="Trazado 911808" d="M14.4,18.44c.4-.5.82-.99,1.26-1.45L14.2,15.62c-.47.5-.93,1.03-1.36,1.57Z" fill="#474d41"/>
          <path id="Trazado_911809" data-name="Trazado 911809" d="M11.37,23.36a23.462,23.462,0,0,1,1.59-2.91l-1.68-1.08a26.022,26.022,0,0,0-1.72,3.15Z" fill="#474d41"/>
          <path id="Trazado_911810" data-name="Trazado 911810" d="M7.65,28.51l1.97.37a23.5,23.5,0,0,1,.83-3.2l-1.9-.64A27.623,27.623,0,0,0,7.65,28.51Z" fill="#474d41"/>
          <path id="Trazado_911811" data-name="Trazado 911811" d="M63.03,33.27A30.042,30.042,0,0,0,29.99,3.38L29.8,1.93a1.073,1.073,0,0,0-.63-.84L28.59.87,19.75,6.86a1.049,1.049,0,0,0-.46,1.03l.13.67,10.14,3.5a1.067,1.067,0,0,0,1.03-.18l.46-.42-.25-1.9c.73-.07,1.46-.1,2.19-.1A23.81,23.81,0,0,1,56.77,33.24c0,.48-.01.96-.04,1.44l2,.12c.03-.52.04-1.04.04-1.56A25.79,25.79,0,0,0,33,7.48a26.537,26.537,0,0,0-3.45.23l-.98.13.24,1.85-6.4-2.21,5.61-3.8.25,1.92,1-.13a28.884,28.884,0,0,1,3.74-.25A28.063,28.063,0,0,1,61.04,33.25c0,.65-.02,1.3-.06,1.93l2,.13c.03-.66.05-1.35.05-2.04Z" fill="#474d41"/>
          <path id="Trazado_911812" data-name="Trazado 911812" d="M60.92,44.38l-1.86-.74a29.972,29.972,0,0,1-1.48,3.14l1.75.97A29.51,29.51,0,0,0,60.92,44.38Z" fill="#474d41"/>
          <path id="Trazado_911813" data-name="Trazado 911813" d="M62.65,38.11l-1.97-.32a28.128,28.128,0,0,1-.76,3.39l1.92.56A32.233,32.233,0,0,0,62.65,38.11Z" fill="#474d41"/>
          <path id="Trazado_911814" data-name="Trazado 911814" d="M57.87,50.12,56.21,49c-.36.53-.74,1.06-1.14,1.56l1.57,1.23c.43-.54.84-1.1,1.23-1.67Z" fill="#474d41"/>
          <path id="Trazado_911815" data-name="Trazado 911815" d="M51.73,47.93l1.57,1.23c.32-.41.63-.83.93-1.25l-1.64-1.14C52.31,47.17,52.03,47.55,51.73,47.93Z" fill="#474d41"/>
          <path id="Trazado_911816" data-name="Trazado 911816" d="M56.9,43l-1.85-.75a20.677,20.677,0,0,1-1.11,2.33l1.76.96C56.14,44.71,56.55,43.85,56.9,43Z" fill="#474d41"/>
          <path id="Trazado_911817" data-name="Trazado 911817" d="M58.43,37.61l-1.97-.33a21.383,21.383,0,0,1-.57,2.52l1.92.54a27.054,27.054,0,0,0,.62-2.73Z" fill="#474d41"/>
        </g>
      </g>
    </g>
  </g>
</svg>
