<svg xmlns="http://www.w3.org/2000/svg" width="107" height="107" viewBox="0 0 107 107">
  <g id="Grupo_1122214" data-name="Grupo 1122214" transform="translate(-285 -9317)">
    <g id="Grupo_156312" data-name="Grupo 156312" transform="translate(-3.668 4868.563)">
      <path id="Elipse_5845" data-name="Elipse 5845" d="M53.5,0A53.5,53.5,0,1,1,0,53.5,53.5,53.5,0,0,1,53.5,0Z" transform="translate(288.668 4448.437)" fill="#d4e157"/>
    </g>
    <g id="Grupo_1098918" data-name="Grupo 1098918" transform="translate(-101.527 3298.787)">
      <path id="Trazado_873216" data-name="Trazado 873216" d="M0,0H63.184V63.186H0Z" transform="translate(408.527 6040.213)" fill="none"/>
      <g id="Grupo_1122133" data-name="Grupo 1122133" transform="translate(409.527 6040.213)">
        <path id="Trazado_911837" data-name="Trazado 911837" d="M25,28V24a2,2,0,0,0-2-2H21a2,2,0,0,0-2,2v4H17V20a2,2,0,0,0-2-2H13a2,2,0,0,0-2,2v8H9V24a2,2,0,0,0-2-2H5a2,2,0,0,0-2,2v4a2,2,0,0,0,2,2H23A2,2,0,0,0,25,28ZM7,28H5V24H7Zm6-8h2v8H13Zm8,4h2v4H21Z" transform="translate(0 0)" fill="#474d41"/>
        <path id="Trazado_911838" data-name="Trazado 911838" d="M59,14H50.787a20.983,20.983,0,0,0-39.574,0H3a3,3,0,0,0-3,3V31a3,3,0,0,0,3,3h8.22l.568,2.273a2.28,2.28,0,0,0,4.424,0l.075-.3a21,21,0,0,0,6.325,4.273A11.381,11.381,0,0,0,16.867,43.3,2,2,0,0,0,15,42H11a2,2,0,0,0-2,2H0V58H9a2,2,0,0,0,2,2h4a2,2,0,0,0,1.99-1.9A11.151,11.151,0,0,0,23.242,60h3.942A3,3,0,0,0,30,62h2a3,3,0,0,0,3-3V58h1a2.987,2.987,0,0,0,2.22-5,2.908,2.908,0,0,0,.6-3H40a3,3,0,0,0,0-6H36.444A3.959,3.959,0,0,0,37,42a1.979,1.979,0,0,0-.183-.824,20.959,20.959,0,0,0,8.9-5.2l.075.3a2.28,2.28,0,0,0,4.424,0L50.78,34H59a3,3,0,0,0,3-3V17a3,3,0,0,0-3-3ZM2,56V46H9v3.171A2.978,2.978,0,0,0,9.621,51,2.978,2.978,0,0,0,9,52.829V56Zm13,2H11V52.829a1,1,0,0,1,.293-.708L12.414,51l-1.121-1.121A1,1,0,0,1,11,49.171V44h4ZM31,2A18.91,18.91,0,0,1,48.664,14H46.483a16.987,16.987,0,0,0-30.967,0H13.334A18.9,18.9,0,0,1,31,2Zm6,32h1.464a14.93,14.93,0,0,1-14.929,0H25a3,3,0,0,0,3-3V17a3,3,0,0,0-3-3H17.738a14.993,14.993,0,0,1,26.524,0H37a3,3,0,0,0-3,3V31A3,3,0,0,0,37,34ZM13.728,35.788,12.78,32H3a1,1,0,0,1-1-1V17a1,1,0,0,1,1-1H25a1,1,0,0,1,1,1V31a1,1,0,0,1-1,1H15.22l-.947,3.788A.292.292,0,0,1,13.728,35.788ZM32,60H30a1,1,0,0,1-1-1V47.7A6.324,6.324,0,0,0,30.584,46H33v2.184A2.972,2.972,0,0,0,31.78,53,2.972,2.972,0,0,0,33,57.816V59A1,1,0,0,1,32,60Zm4-4H34a1,1,0,0,1,0-2h2a1,1,0,0,1,0,2Zm1-5a1,1,0,0,1-1,1H34a1,1,0,0,1,0-2h2A1,1,0,0,1,37,51Zm4-4a1,1,0,0,1-1,1H35V46h5A1,1,0,0,1,41,47Zm-6-5a2,2,0,0,1-2,2H29.382l-.276.553a4.371,4.371,0,0,1-2.543,2.206l-.879.293.633,1.9L27,48.721v4.51a10.238,10.238,0,0,0-3.684-2.179l-.633,1.9a8.256,8.256,0,0,1,4.238,3.238L27,56.3V58H23.242A9.17,9.17,0,0,1,17,55.559v-9.25A9.34,9.34,0,0,1,24.831,42Zm-4-2a18.974,18.974,0,0,1-13.853-6h2.919a16.945,16.945,0,0,0,21.869,0h2.919A18.979,18.979,0,0,1,31,40Zm29-9a1,1,0,0,1-1,1H49.22l-.947,3.788a.292.292,0,0,1-.545,0L46.78,32H37a1,1,0,0,1-1-1V17a1,1,0,0,1,1-1H59a1,1,0,0,1,1,1Z" fill="#474d41"/>
        <path id="Trazado_911839" data-name="Trazado 911839" d="M57,22H55a2,2,0,0,0-2,2v4H51V20a2,2,0,0,0-2-2H47a2,2,0,0,0-2,2v8H43V24a2,2,0,0,0-2-2H39a2,2,0,0,0-2,2v4a2,2,0,0,0,2,2H57a2,2,0,0,0,2-2V24A2,2,0,0,0,57,22ZM41,28H39V24h2Zm6-8h2v8H47Zm10,8H55V24h2Z" transform="translate(0 0)" fill="#474d41"/>
        <path id="Trazado_911840" data-name="Trazado 911840" d="M47,42h2v2H47Z" transform="translate(0 0)" fill="#474d41"/>
        <path id="Trazado_911841" data-name="Trazado 911841" d="M51,42h6v2H51Z" transform="translate(0 0)" fill="#474d41"/>
        <path id="Trazado_911842" data-name="Trazado 911842" d="M47,46H57v2H47Z" transform="translate(0 0)" fill="#474d41"/>
        <path id="Trazado_911843" data-name="Trazado 911843" d="M47,50H57v2H47Z" transform="translate(0 0)" fill="#474d41"/>
        <path id="Trazado_911844" data-name="Trazado 911844" d="M47,54h2v2H47Z" transform="translate(0 0)" fill="#474d41"/>
        <path id="Trazado_911845" data-name="Trazado 911845" d="M51,54h2v2H51Z" transform="translate(0 0)" fill="#474d41"/>
        <path id="Trazado_911846" data-name="Trazado 911846" d="M55,54h2v2H55Z" transform="translate(0 0)" fill="#474d41"/>
      </g>
    </g>
  </g>
</svg>
