<svg xmlns="http://www.w3.org/2000/svg" width="70" height="70" viewBox="0 0 70 70">
  <g id="Grupo_1072267" data-name="Grupo 1072267" transform="translate(-269 -958)">
    <circle id="Elipse_5614" data-name="Elipse 5614" cx="35" cy="35" r="35" transform="translate(269 958)" fill="#fff"/>
    <g id="Grupo_1122162" data-name="Grupo 1122162" transform="translate(199.789 971.61)">
      <path id="Trazado_911911" data-name="Trazado 911911" d="M114.278,5.662h1.885a1.887,1.887,0,0,1,1.885,1.892V40.888a1.889,1.889,0,0,1-1.892,1.892H92.264a1.89,1.89,0,0,1-1.892-1.892V7.554a1.891,1.891,0,0,1,1.887-1.892h1.887V8.178a3.146,3.146,0,0,0,3.146,3.146h13.84a3.146,3.146,0,0,0,3.146-3.146ZM113.014,18.25a.633.633,0,0,0-.633-.635h-8.164a.631.631,0,0,0-.633.635V19.5a.633.633,0,0,0,.633.635h8.164a.631.631,0,0,0,.633-.635Zm0,8.178a.633.633,0,0,0-.633-.635H104.22a.631.631,0,0,0-.633.635v1.246a.633.633,0,0,0,.633.635h8.164a.631.631,0,0,0,.633-.635ZM97.364,17.8a.626.626,0,0,0-.89.009l-.881.881a.635.635,0,0,0,0,.9l1.44,1.44a1.258,1.258,0,0,0,1.779,0l2.7-2.7a.628.628,0,0,0-.005-.893l-.881-.881a.633.633,0,0,0-.895,0l-1.81,1.81Zm0,8.178a.626.626,0,0,0-.89.009l-.881.881a.635.635,0,0,0,0,.9l1.44,1.44a1.258,1.258,0,0,0,1.779,0l2.7-2.7a.628.628,0,0,0-.005-.893l-.881-.881a.633.633,0,0,0-.895,0l-1.81,1.81Zm0,8.178a.626.626,0,0,0-.89.009l-.881.881a.635.635,0,0,0,0,.9l1.44,1.44a1.258,1.258,0,0,0,1.779,0l2.7-2.7a.628.628,0,0,0-.005-.893l-.881-.881a.633.633,0,0,0-.895,0l-1.81,1.81Zm15.653.455a.633.633,0,0,0-.633-.635H104.22a.631.631,0,0,0-.633.635v1.246a.633.633,0,0,0,.633.635h8.164a.631.631,0,0,0,.633-.635ZM111.133,2.516a1.258,1.258,0,0,1,1.258,1.258v4.4a1.258,1.258,0,0,1-1.258,1.258H97.292a1.258,1.258,0,0,1-1.258-1.258v-4.4a1.258,1.258,0,0,1,1.258-1.258h2.922a5.385,5.385,0,0,1,.475-.755,4.4,4.4,0,0,1,7.046,0,5.391,5.391,0,0,1,.475.755h2.922Z" fill="#474d41" fill-rule="evenodd"/>
    </g>
  </g>
</svg>
