<svg xmlns="http://www.w3.org/2000/svg" xmlns:xlink="http://www.w3.org/1999/xlink" width="139" height="139" viewBox="0 0 139 139">
  <defs>
    <clipPath id="clip-path">
      <rect id="Rectángulo_400938" data-name="Rectángulo 400938" width="139" height="139" transform="translate(-0.043 -0.043)" fill="none"/>
    </clipPath>
    <clipPath id="clip-path-3">
      <rect id="Rectángulo_401301" data-name="Rectángulo 401301" width="74.96" height="225.068" fill="#4a4f1e"/>
    </clipPath>
    <clipPath id="clip-path-5">
      <rect id="Rectángulo_401247" data-name="Rectángulo 401247" width="18.555" height="18.555" fill="#4a4f1e"/>
    </clipPath>
    <clipPath id="clip-path-6">
      <path id="Trazado_873506" data-name="Trazado 873506" d="M18.555,9.277A9.278,9.278,0,1,1,9.277,0a9.278,9.278,0,0,1,9.278,9.277" fill="#4a4f1e"/>
    </clipPath>
    <clipPath id="clip-path-8">
      <path id="Trazado_873507" data-name="Trazado 873507" d="M18.555,9.277A9.278,9.278,0,1,1,9.277,0a9.277,9.277,0,0,1,9.278,9.277" fill="#4a4f1e"/>
    </clipPath>
    <clipPath id="clip-path-14">
      <path id="Trazado_873513" data-name="Trazado 873513" d="M18.555,9.277A9.277,9.277,0,1,1,9.277,0a9.277,9.277,0,0,1,9.277,9.277" fill="#4a4f1e"/>
    </clipPath>
    <clipPath id="clip-path-16">
      <path id="Trazado_873514" data-name="Trazado 873514" d="M18.555,9.278A9.278,9.278,0,1,1,9.277,0a9.278,9.278,0,0,1,9.278,9.278" fill="#4a4f1e"/>
    </clipPath>
    <clipPath id="clip-path-22">
      <path id="Trazado_873519" data-name="Trazado 873519" d="M18.555,9.278A9.277,9.277,0,1,1,9.277,0a9.277,9.277,0,0,1,9.277,9.278" fill="#4a4f1e"/>
    </clipPath>
    <clipPath id="clip-path-24">
      <path id="Trazado_873521" data-name="Trazado 873521" d="M18.555,9.277A9.278,9.278,0,1,1,9.278,0a9.277,9.277,0,0,1,9.277,9.277" fill="#4a4f1e"/>
    </clipPath>
    <clipPath id="clip-path-26">
      <path id="Trazado_873524" data-name="Trazado 873524" d="M18.555,9.277A9.278,9.278,0,1,1,9.278,0a9.278,9.278,0,0,1,9.277,9.277" fill="#4a4f1e"/>
    </clipPath>
    <clipPath id="clip-path-32">
      <path id="Trazado_873532" data-name="Trazado 873532" d="M18.555,9.278A9.278,9.278,0,1,1,9.278,0a9.278,9.278,0,0,1,9.277,9.278" fill="#4a4f1e"/>
    </clipPath>
  </defs>
  <g id="Grupo_1122218" data-name="Grupo 1122218" transform="translate(-1143 -5220.724)">
    <g id="Grupo_1101054" data-name="Grupo 1101054" transform="translate(878.043 -63.233)">
      <g id="Grupo_1099379" data-name="Grupo 1099379" transform="translate(265 5284)">
        <rect id="Rectángulo_401103" data-name="Rectángulo 401103" width="139" height="139" transform="translate(-0.043 -0.043)" fill="none"/>
        <path id="Trazado_873425" data-name="Trazado 873425" d="M57.977,0A57.977,57.977,0,1,1,0,57.977,57.977,57.977,0,0,1,57.977,0Z" transform="translate(17.221 20.665)" fill="#b9bfe2"/>
        <g id="Enmascarar_grupo_1100032" data-name="Enmascarar grupo 1100032" clip-path="url(#clip-path)">
          <g id="Grupo_1101051" data-name="Grupo 1101051" transform="translate(4603.382 -392.033) rotate(90)" style="isolation: isolate">
            <g id="Grupo_1099913" data-name="Grupo 1099913" transform="translate(358.539 4430.41)" clip-path="url(#clip-path-3)" style="isolation: isolate">
              <g id="Grupo_1099912" data-name="Grupo 1099912">
                <g id="Grupo_1099911" data-name="Grupo 1099911" clip-path="url(#clip-path-3)">
                  <g id="Grupo_1099780" data-name="Grupo 1099780" transform="translate(56.405 94.592)" opacity="0.8" style="mix-blend-mode: multiply;isolation: isolate">
                    <g id="Grupo_1099779" data-name="Grupo 1099779" transform="translate(0 0)">
                      <g id="Grupo_1099778" data-name="Grupo 1099778" transform="translate(0 0)" clip-path="url(#clip-path-5)">
                        <g id="Grupo_1099777" data-name="Grupo 1099777" transform="translate(0 0)">
                          <g id="Grupo_1099776" data-name="Grupo 1099776" clip-path="url(#clip-path-6)">
                            <rect id="Rectángulo_401246" data-name="Rectángulo 401246" width="23.587" height="23.587" transform="translate(-5.714 16.586) rotate(-70.991)" fill="#4a4f1e"/>
                          </g>
                        </g>
                      </g>
                    </g>
                  </g>
                  <g id="Grupo_1099785" data-name="Grupo 1099785" transform="translate(56.405 113.147)" opacity="0.8" style="mix-blend-mode: multiply;isolation: isolate">
                    <g id="Grupo_1099784" data-name="Grupo 1099784">
                      <g id="Grupo_1099783" data-name="Grupo 1099783" clip-path="url(#clip-path-5)">
                        <g id="Grupo_1099782" data-name="Grupo 1099782" transform="translate(0)">
                          <g id="Grupo_1099781" data-name="Grupo 1099781" clip-path="url(#clip-path-8)">
                            <rect id="Rectángulo_401248" data-name="Rectángulo 401248" width="23.587" height="23.587" transform="translate(-5.714 16.586) rotate(-70.991)" fill="#4a4f1e"/>
                          </g>
                        </g>
                      </g>
                    </g>
                  </g>
                  <g id="Grupo_1099790" data-name="Grupo 1099790" transform="translate(56.405 131.759)" opacity="0.8" style="mix-blend-mode: multiply;isolation: isolate">
                    <g id="Grupo_1099789" data-name="Grupo 1099789" transform="translate(0 0)">
                      <g id="Grupo_1099788" data-name="Grupo 1099788" transform="translate(0 0)" clip-path="url(#clip-path-5)">
                        <g id="Grupo_1099787" data-name="Grupo 1099787" transform="translate(0 0)">
                          <g id="Grupo_1099786" data-name="Grupo 1099786" clip-path="url(#clip-path-6)">
                            <rect id="Rectángulo_401250" data-name="Rectángulo 401250" width="23.587" height="23.587" transform="translate(-5.714 16.586) rotate(-70.991)" fill="#4a4f1e"/>
                          </g>
                        </g>
                      </g>
                    </g>
                  </g>
                  <g id="Grupo_1099795" data-name="Grupo 1099795" transform="translate(56.405 150.314)" opacity="0.8" style="mix-blend-mode: multiply;isolation: isolate">
                    <g id="Grupo_1099794" data-name="Grupo 1099794" transform="translate(0 0)">
                      <g id="Grupo_1099793" data-name="Grupo 1099793" transform="translate(0 0)" clip-path="url(#clip-path-5)">
                        <g id="Grupo_1099792" data-name="Grupo 1099792" transform="translate(0 0)">
                          <g id="Grupo_1099791" data-name="Grupo 1099791" clip-path="url(#clip-path-8)">
                            <rect id="Rectángulo_401252" data-name="Rectángulo 401252" width="23.587" height="23.587" transform="translate(-5.714 16.586) rotate(-70.991)" fill="#4a4f1e"/>
                          </g>
                        </g>
                      </g>
                    </g>
                  </g>
                  <g id="Grupo_1099815" data-name="Grupo 1099815" transform="translate(37.85 94.592)" opacity="0.8" style="mix-blend-mode: multiply;isolation: isolate">
                    <g id="Grupo_1099814" data-name="Grupo 1099814" transform="translate(0 0)">
                      <g id="Grupo_1099813" data-name="Grupo 1099813" transform="translate(0 0)" clip-path="url(#clip-path-5)">
                        <g id="Grupo_1099812" data-name="Grupo 1099812" transform="translate(0 0)">
                          <g id="Grupo_1099811" data-name="Grupo 1099811" clip-path="url(#clip-path-14)">
                            <rect id="Rectángulo_401260" data-name="Rectángulo 401260" width="23.587" height="23.587" transform="translate(-5.714 16.586) rotate(-70.991)" fill="#4a4f1e"/>
                          </g>
                        </g>
                      </g>
                    </g>
                  </g>
                  <g id="Grupo_1099820" data-name="Grupo 1099820" transform="translate(56.405 75.434)" opacity="0.8" style="mix-blend-mode: multiply;isolation: isolate">
                    <g id="Grupo_1099819" data-name="Grupo 1099819" transform="translate(0 0)">
                      <g id="Grupo_1099818" data-name="Grupo 1099818" transform="translate(0 0)" clip-path="url(#clip-path-5)">
                        <g id="Grupo_1099817" data-name="Grupo 1099817" transform="translate(0 0)">
                          <g id="Grupo_1099816" data-name="Grupo 1099816" clip-path="url(#clip-path-16)">
                            <rect id="Rectángulo_401262" data-name="Rectángulo 401262" width="23.587" height="23.587" transform="matrix(0.326, -0.945, 0.945, 0.326, -5.714, 16.587)" fill="#4a4f1e"/>
                          </g>
                        </g>
                      </g>
                    </g>
                  </g>
                  <g id="Grupo_1099825" data-name="Grupo 1099825" transform="translate(56.405 56.776)" opacity="0.8" style="mix-blend-mode: multiply;isolation: isolate">
                    <g id="Grupo_1099824" data-name="Grupo 1099824" transform="translate(0 0)">
                      <g id="Grupo_1099823" data-name="Grupo 1099823" transform="translate(0 0)" clip-path="url(#clip-path-5)">
                        <g id="Grupo_1099822" data-name="Grupo 1099822" transform="translate(0 0)">
                          <g id="Grupo_1099821" data-name="Grupo 1099821" clip-path="url(#clip-path-6)">
                            <rect id="Rectángulo_401264" data-name="Rectángulo 401264" width="23.587" height="23.587" transform="translate(-5.714 16.586) rotate(-70.991)" fill="#4a4f1e"/>
                          </g>
                        </g>
                      </g>
                    </g>
                  </g>
                  <g id="Grupo_1099830" data-name="Grupo 1099830" transform="translate(56.405 37.88)" opacity="0.8" style="mix-blend-mode: multiply;isolation: isolate">
                    <g id="Grupo_1099829" data-name="Grupo 1099829" transform="translate(0 0)">
                      <g id="Grupo_1099828" data-name="Grupo 1099828" transform="translate(0 0)" clip-path="url(#clip-path-5)">
                        <g id="Grupo_1099827" data-name="Grupo 1099827" transform="translate(0 0)">
                          <g id="Grupo_1099826" data-name="Grupo 1099826" clip-path="url(#clip-path-16)">
                            <rect id="Rectángulo_401266" data-name="Rectángulo 401266" width="23.587" height="23.587" transform="translate(-5.714 16.587) rotate(-70.991)" fill="#4a4f1e"/>
                          </g>
                        </g>
                      </g>
                    </g>
                  </g>
                  <g id="Grupo_1099845" data-name="Grupo 1099845" transform="translate(37.85 75.434)" opacity="0.8" style="mix-blend-mode: multiply;isolation: isolate">
                    <g id="Grupo_1099844" data-name="Grupo 1099844" transform="translate(0 0)">
                      <g id="Grupo_1099843" data-name="Grupo 1099843" transform="translate(0 0)" clip-path="url(#clip-path-5)">
                        <g id="Grupo_1099842" data-name="Grupo 1099842" transform="translate(0 0)">
                          <g id="Grupo_1099841" data-name="Grupo 1099841" clip-path="url(#clip-path-22)">
                            <rect id="Rectángulo_401272" data-name="Rectángulo 401272" width="23.587" height="23.587" transform="translate(-5.714 16.587) rotate(-70.991)" fill="#4a4f1e"/>
                          </g>
                        </g>
                      </g>
                    </g>
                  </g>
                  <g id="Grupo_1099855" data-name="Grupo 1099855" transform="translate(37.424 113.147)" opacity="0.8" style="mix-blend-mode: multiply;isolation: isolate">
                    <g id="Grupo_1099854" data-name="Grupo 1099854">
                      <g id="Grupo_1099853" data-name="Grupo 1099853" clip-path="url(#clip-path-5)">
                        <g id="Grupo_1099852" data-name="Grupo 1099852" transform="translate(0)">
                          <g id="Grupo_1099851" data-name="Grupo 1099851" transform="translate(0)" clip-path="url(#clip-path-24)">
                            <rect id="Rectángulo_401276" data-name="Rectángulo 401276" width="23.587" height="23.587" transform="translate(-5.714 16.586) rotate(-70.991)" fill="#4a4f1e"/>
                          </g>
                        </g>
                      </g>
                    </g>
                  </g>
                  <g id="Grupo_1099870" data-name="Grupo 1099870" transform="translate(37.424 131.759)" opacity="0.8" style="mix-blend-mode: multiply;isolation: isolate">
                    <g id="Grupo_1099869" data-name="Grupo 1099869" transform="translate(0 0)">
                      <g id="Grupo_1099868" data-name="Grupo 1099868" transform="translate(0 0)" clip-path="url(#clip-path-5)">
                        <g id="Grupo_1099867" data-name="Grupo 1099867" transform="translate(0 0)">
                          <g id="Grupo_1099866" data-name="Grupo 1099866" transform="translate(0)" clip-path="url(#clip-path-26)">
                            <rect id="Rectángulo_401282" data-name="Rectángulo 401282" width="23.587" height="23.587" transform="translate(-5.714 16.586) rotate(-70.991)" fill="#4a4f1e"/>
                          </g>
                        </g>
                      </g>
                    </g>
                  </g>
                  <g id="Grupo_1099885" data-name="Grupo 1099885" transform="translate(37.424 150.314)" opacity="0.8" style="mix-blend-mode: multiply;isolation: isolate">
                    <g id="Grupo_1099884" data-name="Grupo 1099884" transform="translate(0 0)">
                      <g id="Grupo_1099883" data-name="Grupo 1099883" transform="translate(0 0)" clip-path="url(#clip-path-5)">
                        <g id="Grupo_1099882" data-name="Grupo 1099882" transform="translate(0 0)">
                          <g id="Grupo_1099881" data-name="Grupo 1099881" transform="translate(0)" clip-path="url(#clip-path-24)">
                            <rect id="Rectángulo_401288" data-name="Rectángulo 401288" width="23.587" height="23.587" transform="translate(-5.714 16.586) rotate(-70.991)" fill="#4a4f1e"/>
                          </g>
                        </g>
                      </g>
                    </g>
                  </g>
                  <g id="Grupo_1099900" data-name="Grupo 1099900" transform="translate(37.85 56.861)" opacity="0.8" style="mix-blend-mode: multiply;isolation: isolate">
                    <g id="Grupo_1099899" data-name="Grupo 1099899" transform="translate(0 0)">
                      <g id="Grupo_1099898" data-name="Grupo 1099898" transform="translate(0 0)" clip-path="url(#clip-path-5)">
                        <g id="Grupo_1099897" data-name="Grupo 1099897" transform="translate(0 0)">
                          <g id="Grupo_1099896" data-name="Grupo 1099896" clip-path="url(#clip-path-22)">
                            <rect id="Rectángulo_401294" data-name="Rectángulo 401294" width="23.587" height="23.587" transform="translate(-5.714 16.587) rotate(-70.991)" fill="#4a4f1e"/>
                          </g>
                        </g>
                      </g>
                    </g>
                  </g>
                  <g id="Grupo_1099910" data-name="Grupo 1099910" transform="translate(37.424 37.88)" opacity="0.8" style="mix-blend-mode: multiply;isolation: isolate">
                    <g id="Grupo_1099909" data-name="Grupo 1099909" transform="translate(0 0)">
                      <g id="Grupo_1099908" data-name="Grupo 1099908" transform="translate(0 0)" clip-path="url(#clip-path-5)">
                        <g id="Grupo_1099907" data-name="Grupo 1099907" transform="translate(0 0)">
                          <g id="Grupo_1099906" data-name="Grupo 1099906" transform="translate(0)" clip-path="url(#clip-path-32)">
                            <rect id="Rectángulo_401298" data-name="Rectángulo 401298" width="23.587" height="23.587" transform="matrix(0.326, -0.945, 0.945, 0.326, -5.714, 16.587)" fill="#4a4f1e"/>
                          </g>
                        </g>
                      </g>
                    </g>
                  </g>
                </g>
              </g>
            </g>
          </g>
        </g>
        <circle id="Elipse_11503" data-name="Elipse 11503" cx="60.5" cy="60.5" r="60.5" transform="translate(8.957 8.957)" fill="#fff"/>
      </g>
    </g>
    <g id="Grupo_1101055" data-name="Grupo 1101055" transform="translate(819.572 -1172.276)">
      <g id="Grupo_1099389" data-name="Grupo 1099389" transform="translate(355.336 6422.744)">
        <rect id="Rectángulo_401104" data-name="Rectángulo 401104" width="78" height="79" transform="translate(0.107 0.256)" fill="none"/>
      </g>
      <g id="Grupo_1122205" data-name="Grupo 1122205" transform="translate(334.51 6424.467)">
        <path id="Trazado_912017" data-name="Trazado 912017" d="M125.564,59.381a2.185,2.185,0,0,0-2.183,2.183v2.387a2.185,2.185,0,0,0,2.183,2.183h12.582a1.114,1.114,0,1,0,0-2.229H125.61v-2.3h20.064v2.3h-2.52a1.114,1.114,0,0,0,0,2.229h2.566a2.185,2.185,0,0,0,2.183-2.183V61.564a2.185,2.185,0,0,0-2.183-2.183h-1.451V53.336h1.263a2.374,2.374,0,0,0,2.371-2.371,4.385,4.385,0,0,0-2.124-3.745l-8.12-4.856a3.923,3.923,0,0,0-4.033,0l-8.12,4.856a4.385,4.385,0,0,0-2.124,3.745,2.373,2.373,0,0,0,2.371,2.371h1.263v6.045Zm11.467-6.045v6.045h-2.78V53.336Zm5.008,6.045H139.26V53.336h2.779Zm-16.43-8.415a2.146,2.146,0,0,1,1.039-1.833l8.12-4.856a1.7,1.7,0,0,1,1.745,0l8.12,4.856a2.146,2.146,0,0,1,1.039,1.833.143.143,0,0,1-.142.142H125.752A.143.143,0,0,1,125.61,50.966Zm3.634,2.371h2.78v6.045h-2.78Z" transform="translate(-83.15 -35.595)" fill="#474d41"/>
        <path id="Trazado_912018" data-name="Trazado 912018" d="M88.765,32.246h-9.5V3.91A3.914,3.914,0,0,0,75.351,0H29.632a3.914,3.914,0,0,0-3.91,3.91V9.384a1.114,1.114,0,0,0,2.229,0V3.91a1.683,1.683,0,0,1,1.681-1.681H75.351A1.683,1.683,0,0,1,77.032,3.91V32.246H69.384A4.56,4.56,0,0,0,64.829,36.8v.118H44.882a1.114,1.114,0,0,0,0,2.229H64.829v8.459H44.882a1.114,1.114,0,0,0,0,2.229H64.829v4.424a7.849,7.849,0,0,0,1.11,4.035H44.882a1.114,1.114,0,0,0,0,2.229H67.925l1.453,1.153a1.114,1.114,0,0,0,1.386-1.745l-1.568-1.245a5.621,5.621,0,0,1-2.137-4.426V36.8a2.329,2.329,0,0,1,2.326-2.326H88.765a3.156,3.156,0,0,1,3.152,3.152V54.258a5.621,5.621,0,0,1-2.137,4.426l-7.928,6.294a3.787,3.787,0,0,1-4.729,0L74.94,63.245a1.114,1.114,0,1,0-1.386,1.745l2.183,1.733a6.1,6.1,0,0,0,1.295.788v4.645a1.683,1.683,0,0,1-1.681,1.681H29.632a1.683,1.683,0,0,1-1.681-1.681V14.78a1.114,1.114,0,1,0-2.229,0V72.157a3.914,3.914,0,0,0,3.91,3.91H75.351a3.914,3.914,0,0,0,3.909-3.91V68.034a6.246,6.246,0,0,0,3.977-1.31l7.928-6.294a7.838,7.838,0,0,0,2.98-6.171V37.627a5.387,5.387,0,0,0-5.381-5.381Z" transform="translate(0 0)" fill="#474d41"/>
        <path id="Trazado_912019" data-name="Trazado 912019" d="M331.409,296.385a5.531,5.531,0,0,0,3.922-1.622l6.178-6.178A3.241,3.241,0,0,0,336.926,284l-5.517,5.517-2.509-2.509a3.241,3.241,0,0,0-4.584,4.584l3.17,3.17A5.53,5.53,0,0,0,331.409,296.385Zm-5.517-7.8a1.012,1.012,0,0,1,1.432,0l2.689,2.688a1.974,1.974,0,0,0,2.792,0l5.7-5.7a1.013,1.013,0,1,1,1.432,1.432l-6.179,6.178a3.318,3.318,0,0,1-4.693,0l-3.17-3.17A1.014,1.014,0,0,1,325.892,288.585Z" transform="translate(-253.426 -241)" fill="#474d41"/>
        <path id="Trazado_912020" data-name="Trazado 912020" d="M75.272,229.112h-2.63a2.683,2.683,0,0,0-2.68,2.68v2.63a2.683,2.683,0,0,0,2.68,2.68h2.63a2.683,2.683,0,0,0,2.68-2.68v-2.63A2.683,2.683,0,0,0,75.272,229.112Zm.451,5.31a.452.452,0,0,1-.451.451h-2.63a.452.452,0,0,1-.451-.451v-2.63a.452.452,0,0,1,.451-.451h2.63a.452.452,0,0,1,.451.451Z" transform="translate(-37.667 -195.073)" fill="#474d41"/>
        <path id="Trazado_912021" data-name="Trazado 912021" d="M69.962,306.356a2.683,2.683,0,0,0,2.68,2.68h2.63a2.683,2.683,0,0,0,2.68-2.68v-2.63a2.683,2.683,0,0,0-2.68-2.68h-2.63a2.683,2.683,0,0,0-2.68,2.68Zm2.229-2.63a.452.452,0,0,1,.451-.451h2.63a.452.452,0,0,1,.451.451v2.63a.452.452,0,0,1-.451.451h-2.63a.452.452,0,0,1-.451-.451Z" transform="translate(-37.667 -256.32)" fill="#474d41"/>
        <path id="Trazado_912022" data-name="Trazado 912022" d="M69.962,378.289a2.683,2.683,0,0,0,2.68,2.68h2.63a2.683,2.683,0,0,0,2.68-2.68v-2.63a2.683,2.683,0,0,0-2.68-2.68h-2.63a2.683,2.683,0,0,0-2.68,2.68Zm2.229-2.63a.452.452,0,0,1,.451-.451h2.63a.452.452,0,0,1,.451.451v2.63a.452.452,0,0,1-.451.451h-2.63a.452.452,0,0,1-.451-.451Z" transform="translate(-37.667 -317.566)" fill="#474d41"/>
      </g>
    </g>
  </g>
</svg>
