<svg xmlns="http://www.w3.org/2000/svg" xmlns:xlink="http://www.w3.org/1999/xlink" width="139" height="139" viewBox="0 0 139 139">
  <defs>
    <clipPath id="clip-path">
      <rect id="Rectángulo_400938" data-name="Rectángulo 400938" width="139" height="139" transform="translate(-0.043 -0.043)" fill="none"/>
    </clipPath>
    <clipPath id="clip-path-3">
      <rect id="Rectángulo_401301" data-name="Rectángulo 401301" width="74.96" height="225.068" fill="#4a4f1e"/>
    </clipPath>
    <clipPath id="clip-path-5">
      <rect id="Rectángulo_401247" data-name="Rectángulo 401247" width="18.555" height="18.555" fill="#4a4f1e"/>
    </clipPath>
    <clipPath id="clip-path-6">
      <path id="Trazado_873506" data-name="Trazado 873506" d="M18.555,9.277A9.278,9.278,0,1,1,9.277,0a9.278,9.278,0,0,1,9.278,9.277" fill="#4a4f1e"/>
    </clipPath>
    <clipPath id="clip-path-8">
      <path id="Trazado_873507" data-name="Trazado 873507" d="M18.555,9.277A9.278,9.278,0,1,1,9.277,0a9.277,9.277,0,0,1,9.278,9.277" fill="#4a4f1e"/>
    </clipPath>
    <clipPath id="clip-path-14">
      <path id="Trazado_873513" data-name="Trazado 873513" d="M18.555,9.277A9.277,9.277,0,1,1,9.277,0a9.277,9.277,0,0,1,9.277,9.277" fill="#4a4f1e"/>
    </clipPath>
    <clipPath id="clip-path-16">
      <path id="Trazado_873514" data-name="Trazado 873514" d="M18.555,9.278A9.278,9.278,0,1,1,9.277,0a9.278,9.278,0,0,1,9.278,9.278" fill="#4a4f1e"/>
    </clipPath>
    <clipPath id="clip-path-22">
      <path id="Trazado_873519" data-name="Trazado 873519" d="M18.555,9.278A9.277,9.277,0,1,1,9.277,0a9.277,9.277,0,0,1,9.277,9.278" fill="#4a4f1e"/>
    </clipPath>
    <clipPath id="clip-path-24">
      <path id="Trazado_873521" data-name="Trazado 873521" d="M18.555,9.277A9.278,9.278,0,1,1,9.278,0a9.277,9.277,0,0,1,9.277,9.277" fill="#4a4f1e"/>
    </clipPath>
    <clipPath id="clip-path-26">
      <path id="Trazado_873524" data-name="Trazado 873524" d="M18.555,9.277A9.278,9.278,0,1,1,9.278,0a9.278,9.278,0,0,1,9.277,9.277" fill="#4a4f1e"/>
    </clipPath>
    <clipPath id="clip-path-32">
      <path id="Trazado_873532" data-name="Trazado 873532" d="M18.555,9.278A9.278,9.278,0,1,1,9.278,0a9.278,9.278,0,0,1,9.277,9.278" fill="#4a4f1e"/>
    </clipPath>
  </defs>
  <g id="Grupo_1122211" data-name="Grupo 1122211" transform="translate(-416 -1764.033)">
    <g id="Grupo_1101165" data-name="Grupo 1101165" transform="translate(151.043 -3519.924)">
      <g id="Grupo_1099379" data-name="Grupo 1099379" transform="translate(265 5284)">
        <rect id="Rectángulo_401103" data-name="Rectángulo 401103" width="139" height="139" transform="translate(-0.043 -0.043)" fill="none"/>
        <path id="Trazado_873425" data-name="Trazado 873425" d="M57.977,0A57.977,57.977,0,1,1,0,57.977,57.977,57.977,0,0,1,57.977,0Z" transform="translate(17.221 20.665)" fill="#b9bfe2"/>
        <g id="Enmascarar_grupo_1100032" data-name="Enmascarar grupo 1100032" clip-path="url(#clip-path)">
          <g id="Grupo_1101051" data-name="Grupo 1101051" transform="translate(4603.382 -392.033) rotate(90)" style="isolation: isolate">
            <g id="Grupo_1099913" data-name="Grupo 1099913" transform="translate(358.539 4430.41)" clip-path="url(#clip-path-3)" style="isolation: isolate">
              <g id="Grupo_1099912" data-name="Grupo 1099912">
                <g id="Grupo_1099911" data-name="Grupo 1099911" clip-path="url(#clip-path-3)">
                  <g id="Grupo_1099780" data-name="Grupo 1099780" transform="translate(56.405 94.592)" opacity="0.8" style="mix-blend-mode: multiply;isolation: isolate">
                    <g id="Grupo_1099779" data-name="Grupo 1099779" transform="translate(0 0)">
                      <g id="Grupo_1099778" data-name="Grupo 1099778" transform="translate(0 0)" clip-path="url(#clip-path-5)">
                        <g id="Grupo_1099777" data-name="Grupo 1099777" transform="translate(0 0)">
                          <g id="Grupo_1099776" data-name="Grupo 1099776" clip-path="url(#clip-path-6)">
                            <rect id="Rectángulo_401246" data-name="Rectángulo 401246" width="23.587" height="23.587" transform="translate(-5.714 16.586) rotate(-70.991)" fill="#4a4f1e"/>
                          </g>
                        </g>
                      </g>
                    </g>
                  </g>
                  <g id="Grupo_1099785" data-name="Grupo 1099785" transform="translate(56.405 113.147)" opacity="0.8" style="mix-blend-mode: multiply;isolation: isolate">
                    <g id="Grupo_1099784" data-name="Grupo 1099784">
                      <g id="Grupo_1099783" data-name="Grupo 1099783" clip-path="url(#clip-path-5)">
                        <g id="Grupo_1099782" data-name="Grupo 1099782" transform="translate(0)">
                          <g id="Grupo_1099781" data-name="Grupo 1099781" clip-path="url(#clip-path-8)">
                            <rect id="Rectángulo_401248" data-name="Rectángulo 401248" width="23.587" height="23.587" transform="translate(-5.714 16.586) rotate(-70.991)" fill="#4a4f1e"/>
                          </g>
                        </g>
                      </g>
                    </g>
                  </g>
                  <g id="Grupo_1099790" data-name="Grupo 1099790" transform="translate(56.405 131.759)" opacity="0.8" style="mix-blend-mode: multiply;isolation: isolate">
                    <g id="Grupo_1099789" data-name="Grupo 1099789" transform="translate(0 0)">
                      <g id="Grupo_1099788" data-name="Grupo 1099788" transform="translate(0 0)" clip-path="url(#clip-path-5)">
                        <g id="Grupo_1099787" data-name="Grupo 1099787" transform="translate(0 0)">
                          <g id="Grupo_1099786" data-name="Grupo 1099786" clip-path="url(#clip-path-6)">
                            <rect id="Rectángulo_401250" data-name="Rectángulo 401250" width="23.587" height="23.587" transform="translate(-5.714 16.586) rotate(-70.991)" fill="#4a4f1e"/>
                          </g>
                        </g>
                      </g>
                    </g>
                  </g>
                  <g id="Grupo_1099795" data-name="Grupo 1099795" transform="translate(56.405 150.314)" opacity="0.8" style="mix-blend-mode: multiply;isolation: isolate">
                    <g id="Grupo_1099794" data-name="Grupo 1099794" transform="translate(0 0)">
                      <g id="Grupo_1099793" data-name="Grupo 1099793" transform="translate(0 0)" clip-path="url(#clip-path-5)">
                        <g id="Grupo_1099792" data-name="Grupo 1099792" transform="translate(0 0)">
                          <g id="Grupo_1099791" data-name="Grupo 1099791" clip-path="url(#clip-path-8)">
                            <rect id="Rectángulo_401252" data-name="Rectángulo 401252" width="23.587" height="23.587" transform="translate(-5.714 16.586) rotate(-70.991)" fill="#4a4f1e"/>
                          </g>
                        </g>
                      </g>
                    </g>
                  </g>
                  <g id="Grupo_1099815" data-name="Grupo 1099815" transform="translate(37.85 94.592)" opacity="0.8" style="mix-blend-mode: multiply;isolation: isolate">
                    <g id="Grupo_1099814" data-name="Grupo 1099814" transform="translate(0 0)">
                      <g id="Grupo_1099813" data-name="Grupo 1099813" transform="translate(0 0)" clip-path="url(#clip-path-5)">
                        <g id="Grupo_1099812" data-name="Grupo 1099812" transform="translate(0 0)">
                          <g id="Grupo_1099811" data-name="Grupo 1099811" clip-path="url(#clip-path-14)">
                            <rect id="Rectángulo_401260" data-name="Rectángulo 401260" width="23.587" height="23.587" transform="translate(-5.714 16.586) rotate(-70.991)" fill="#4a4f1e"/>
                          </g>
                        </g>
                      </g>
                    </g>
                  </g>
                  <g id="Grupo_1099820" data-name="Grupo 1099820" transform="translate(56.405 75.434)" opacity="0.8" style="mix-blend-mode: multiply;isolation: isolate">
                    <g id="Grupo_1099819" data-name="Grupo 1099819" transform="translate(0 0)">
                      <g id="Grupo_1099818" data-name="Grupo 1099818" transform="translate(0 0)" clip-path="url(#clip-path-5)">
                        <g id="Grupo_1099817" data-name="Grupo 1099817" transform="translate(0 0)">
                          <g id="Grupo_1099816" data-name="Grupo 1099816" clip-path="url(#clip-path-16)">
                            <rect id="Rectángulo_401262" data-name="Rectángulo 401262" width="23.587" height="23.587" transform="matrix(0.326, -0.945, 0.945, 0.326, -5.714, 16.587)" fill="#4a4f1e"/>
                          </g>
                        </g>
                      </g>
                    </g>
                  </g>
                  <g id="Grupo_1099825" data-name="Grupo 1099825" transform="translate(56.405 56.776)" opacity="0.8" style="mix-blend-mode: multiply;isolation: isolate">
                    <g id="Grupo_1099824" data-name="Grupo 1099824" transform="translate(0 0)">
                      <g id="Grupo_1099823" data-name="Grupo 1099823" transform="translate(0 0)" clip-path="url(#clip-path-5)">
                        <g id="Grupo_1099822" data-name="Grupo 1099822" transform="translate(0 0)">
                          <g id="Grupo_1099821" data-name="Grupo 1099821" clip-path="url(#clip-path-6)">
                            <rect id="Rectángulo_401264" data-name="Rectángulo 401264" width="23.587" height="23.587" transform="translate(-5.714 16.586) rotate(-70.991)" fill="#4a4f1e"/>
                          </g>
                        </g>
                      </g>
                    </g>
                  </g>
                  <g id="Grupo_1099830" data-name="Grupo 1099830" transform="translate(56.405 37.88)" opacity="0.8" style="mix-blend-mode: multiply;isolation: isolate">
                    <g id="Grupo_1099829" data-name="Grupo 1099829" transform="translate(0 0)">
                      <g id="Grupo_1099828" data-name="Grupo 1099828" transform="translate(0 0)" clip-path="url(#clip-path-5)">
                        <g id="Grupo_1099827" data-name="Grupo 1099827" transform="translate(0 0)">
                          <g id="Grupo_1099826" data-name="Grupo 1099826" clip-path="url(#clip-path-16)">
                            <rect id="Rectángulo_401266" data-name="Rectángulo 401266" width="23.587" height="23.587" transform="translate(-5.714 16.587) rotate(-70.991)" fill="#4a4f1e"/>
                          </g>
                        </g>
                      </g>
                    </g>
                  </g>
                  <g id="Grupo_1099845" data-name="Grupo 1099845" transform="translate(37.85 75.434)" opacity="0.8" style="mix-blend-mode: multiply;isolation: isolate">
                    <g id="Grupo_1099844" data-name="Grupo 1099844" transform="translate(0 0)">
                      <g id="Grupo_1099843" data-name="Grupo 1099843" transform="translate(0 0)" clip-path="url(#clip-path-5)">
                        <g id="Grupo_1099842" data-name="Grupo 1099842" transform="translate(0 0)">
                          <g id="Grupo_1099841" data-name="Grupo 1099841" clip-path="url(#clip-path-22)">
                            <rect id="Rectángulo_401272" data-name="Rectángulo 401272" width="23.587" height="23.587" transform="translate(-5.714 16.587) rotate(-70.991)" fill="#4a4f1e"/>
                          </g>
                        </g>
                      </g>
                    </g>
                  </g>
                  <g id="Grupo_1099855" data-name="Grupo 1099855" transform="translate(37.424 113.147)" opacity="0.8" style="mix-blend-mode: multiply;isolation: isolate">
                    <g id="Grupo_1099854" data-name="Grupo 1099854">
                      <g id="Grupo_1099853" data-name="Grupo 1099853" clip-path="url(#clip-path-5)">
                        <g id="Grupo_1099852" data-name="Grupo 1099852" transform="translate(0)">
                          <g id="Grupo_1099851" data-name="Grupo 1099851" transform="translate(0)" clip-path="url(#clip-path-24)">
                            <rect id="Rectángulo_401276" data-name="Rectángulo 401276" width="23.587" height="23.587" transform="translate(-5.714 16.586) rotate(-70.991)" fill="#4a4f1e"/>
                          </g>
                        </g>
                      </g>
                    </g>
                  </g>
                  <g id="Grupo_1099870" data-name="Grupo 1099870" transform="translate(37.424 131.759)" opacity="0.8" style="mix-blend-mode: multiply;isolation: isolate">
                    <g id="Grupo_1099869" data-name="Grupo 1099869" transform="translate(0 0)">
                      <g id="Grupo_1099868" data-name="Grupo 1099868" transform="translate(0 0)" clip-path="url(#clip-path-5)">
                        <g id="Grupo_1099867" data-name="Grupo 1099867" transform="translate(0 0)">
                          <g id="Grupo_1099866" data-name="Grupo 1099866" transform="translate(0)" clip-path="url(#clip-path-26)">
                            <rect id="Rectángulo_401282" data-name="Rectángulo 401282" width="23.587" height="23.587" transform="translate(-5.714 16.586) rotate(-70.991)" fill="#4a4f1e"/>
                          </g>
                        </g>
                      </g>
                    </g>
                  </g>
                  <g id="Grupo_1099885" data-name="Grupo 1099885" transform="translate(37.424 150.314)" opacity="0.8" style="mix-blend-mode: multiply;isolation: isolate">
                    <g id="Grupo_1099884" data-name="Grupo 1099884" transform="translate(0 0)">
                      <g id="Grupo_1099883" data-name="Grupo 1099883" transform="translate(0 0)" clip-path="url(#clip-path-5)">
                        <g id="Grupo_1099882" data-name="Grupo 1099882" transform="translate(0 0)">
                          <g id="Grupo_1099881" data-name="Grupo 1099881" transform="translate(0)" clip-path="url(#clip-path-24)">
                            <rect id="Rectángulo_401288" data-name="Rectángulo 401288" width="23.587" height="23.587" transform="translate(-5.714 16.586) rotate(-70.991)" fill="#4a4f1e"/>
                          </g>
                        </g>
                      </g>
                    </g>
                  </g>
                  <g id="Grupo_1099900" data-name="Grupo 1099900" transform="translate(37.85 56.861)" opacity="0.8" style="mix-blend-mode: multiply;isolation: isolate">
                    <g id="Grupo_1099899" data-name="Grupo 1099899" transform="translate(0 0)">
                      <g id="Grupo_1099898" data-name="Grupo 1099898" transform="translate(0 0)" clip-path="url(#clip-path-5)">
                        <g id="Grupo_1099897" data-name="Grupo 1099897" transform="translate(0 0)">
                          <g id="Grupo_1099896" data-name="Grupo 1099896" clip-path="url(#clip-path-22)">
                            <rect id="Rectángulo_401294" data-name="Rectángulo 401294" width="23.587" height="23.587" transform="translate(-5.714 16.587) rotate(-70.991)" fill="#4a4f1e"/>
                          </g>
                        </g>
                      </g>
                    </g>
                  </g>
                  <g id="Grupo_1099910" data-name="Grupo 1099910" transform="translate(37.424 37.88)" opacity="0.8" style="mix-blend-mode: multiply;isolation: isolate">
                    <g id="Grupo_1099909" data-name="Grupo 1099909" transform="translate(0 0)">
                      <g id="Grupo_1099908" data-name="Grupo 1099908" transform="translate(0 0)" clip-path="url(#clip-path-5)">
                        <g id="Grupo_1099907" data-name="Grupo 1099907" transform="translate(0 0)">
                          <g id="Grupo_1099906" data-name="Grupo 1099906" transform="translate(0)" clip-path="url(#clip-path-32)">
                            <rect id="Rectángulo_401298" data-name="Rectángulo 401298" width="23.587" height="23.587" transform="matrix(0.326, -0.945, 0.945, 0.326, -5.714, 16.587)" fill="#4a4f1e"/>
                          </g>
                        </g>
                      </g>
                    </g>
                  </g>
                </g>
              </g>
            </g>
          </g>
        </g>
        <circle id="Elipse_11503" data-name="Elipse 11503" cx="60.5" cy="60.5" r="60.5" transform="translate(8.957 8.957)" fill="#fff"/>
      </g>
    </g>
    <g id="Grupo_1101166" data-name="Grupo 1101166" transform="translate(98 -4629.967)">
      <g id="Grupo_1099389" data-name="Grupo 1099389" transform="translate(347.893 6422.744)">
        <rect id="Rectángulo_401104" data-name="Rectángulo 401104" width="78" height="79" transform="translate(0.107 0.256)" fill="none"/>
      </g>
      <g id="_x31_7_Specific" transform="translate(329.988 6405.487)">
        <g id="Grupo_1122124" data-name="Grupo 1122124" transform="translate(18.012 18.014)">
          <path id="Trazado_911792" data-name="Trazado 911792" d="M213.167,223.324a7.832,7.832,0,1,0-4.4-10.167A7.823,7.823,0,0,0,213.167,223.324Zm-2.8-9.535a6.115,6.115,0,1,1,3.433,7.941,6.125,6.125,0,0,1-3.433-7.941Z" transform="translate(-177.051 -177.042)" fill="#474d41"/>
          <path id="Trazado_911793" data-name="Trazado 911793" d="M146.358,156.581a18.057,18.057,0,0,0,.213,13.909c6.414,14.842,27.632,14.451,33.567-.52a18.168,18.168,0,1,0-33.78-13.389Zm22.962-8.606a16.461,16.461,0,1,1-21.368,9.238A16.473,16.473,0,0,1,169.32,147.975Z" transform="translate(-124.248 -124.275)" fill="#474d41"/>
          <path id="Trazado_911794" data-name="Trazado 911794" d="M295.721,19.407l-3.207-1.271a1.743,1.743,0,0,0-2.259.976L286.8,27.77l-.959-.38a1.738,1.738,0,0,0-2.308,2.1l2.055,7.085a1.743,1.743,0,0,0,2.554,1.006l6.345-3.749a1.734,1.734,0,0,0-.239-3.107l-.973-.413,3.426-8.644A1.742,1.742,0,0,0,295.721,19.407Zm-4.042,10.269a1.737,1.737,0,0,0,.977,2.259l.97.408-.01.007,0,0-6.385,3.734-2.022-7.1.959.38a1.737,1.737,0,0,0,2.258-.976l3.46-8.658,3.221,1.3Z" transform="translate(-239.959 -18.014)" fill="#474d41"/>
          <path id="Trazado_911795" data-name="Trazado 911795" d="M148.109,391.544l3.207,1.271a1.743,1.743,0,0,0,2.259-.976l3.459-8.658.958.38a1.738,1.738,0,0,0,2.309-2.1l-2.055-7.084a1.743,1.743,0,0,0-2.554-1.008l-6.345,3.749a1.734,1.734,0,0,0,.239,3.107l.972.413-3.426,8.644A1.742,1.742,0,0,0,148.109,391.544Zm4.042-10.269a1.737,1.737,0,0,0-.977-2.259l-.97-.408.01-.007,0,0,6.384-3.734,2.022,7.1-.958-.38a1.736,1.736,0,0,0-2.258.976l-3.46,8.658-3.221-1.3Z" transform="translate(-125.871 -314.938)" fill="#474d41"/>
          <path id="Trazado_911796" data-name="Trazado 911796" d="M389.651,141.381a1.742,1.742,0,0,0-2.287-.907L378.8,144.15l-.409-.947a1.741,1.741,0,0,0-3.115-.151l-3.555,6.463a1.742,1.742,0,0,0,1.093,2.518l7.139,1.836a1.734,1.734,0,0,0,2.027-2.366l-.4-.98,8.534-3.69a1.743,1.743,0,0,0,.906-2.287Zm-8.751,7.57a1.742,1.742,0,0,0-.907,2.288l.4.975h0l-.012,0h0l-7.155-1.873,3.593-6.454.409.946a1.737,1.737,0,0,0,2.287.907l8.568-3.676,1.356,3.2Z" transform="translate(-313.576 -120.287)" fill="#474d41"/>
          <path id="Trazado_911797" data-name="Trazado 911797" d="M20.676,298.078l1.369,3.166a1.743,1.743,0,0,0,2.287.907l8.568-3.676.409.947a1.739,1.739,0,0,0,3.115.151l3.555-6.463a1.742,1.742,0,0,0-1.093-2.518l-7.139-1.836a1.733,1.733,0,0,0-2.027,2.366l.4.98-8.533,3.689a1.742,1.742,0,0,0-.907,2.288Zm10.12-4.4a1.742,1.742,0,0,0,.907-2.288l-.4-.975h0l.012,0h0l7.155,1.873-3.593,6.454-.409-.946a1.736,1.736,0,0,0-2.287-.907l-8.568,3.676-1.356-3.2Z" transform="translate(-20.12 -244.339)" fill="#474d41"/>
          <path id="Trazado_911798" data-name="Trazado 911798" d="M391.543,295.719l1.271-3.208a1.742,1.742,0,0,0-.977-2.258l-8.657-3.459.38-.959a1.738,1.738,0,0,0-2.1-2.309l-7.085,2.056a1.743,1.743,0,0,0-1.008,2.554l3.749,6.346a1.734,1.734,0,0,0,3.107-.239l.413-.973,8.643,3.426a1.743,1.743,0,0,0,2.259-.976Zm-10.909-4.165a1.744,1.744,0,0,0-1.619,1.1l-.408.971-.008-.01v0l-3.735-6.384,7.1-2.023-.38.958a1.736,1.736,0,0,0,.977,2.259l8.657,3.459-1.306,3.222C380.785,291.529,381.225,291.554,380.633,291.554Z" transform="translate(-314.936 -239.957)" fill="#474d41"/>
          <path id="Trazado_911799" data-name="Trazado 911799" d="M19.406,148.11l-1.271,3.208a1.742,1.742,0,0,0,.977,2.258l8.657,3.459-.38.959a1.739,1.739,0,0,0,2.1,2.309l7.085-2.056a1.743,1.743,0,0,0,1.008-2.554l-3.749-6.346a1.735,1.735,0,0,0-3.107.239l-.413.973-8.644-3.426a1.742,1.742,0,0,0-2.258.976Zm12.529,3.067.408-.971.008.01v0l3.735,6.384-7.1,2.023.38-.958a1.736,1.736,0,0,0-.977-2.259l-8.657-3.459,1.3-3.222,8.643,3.426A1.745,1.745,0,0,0,31.935,151.177Z" transform="translate(-18.012 -125.873)" fill="#474d41"/>
          <path id="Trazado_911800" data-name="Trazado 911800" d="M299.571,375.272l-6.464-3.556a1.743,1.743,0,0,0-2.518,1.094l-1.836,7.139a1.734,1.734,0,0,0,2.366,2.027l.981-.4,3.689,8.533a1.736,1.736,0,0,0,2.287.907l3.166-1.369a1.743,1.743,0,0,0,.907-2.288l-3.676-8.568.947-.409A1.739,1.739,0,0,0,299.571,375.272Zm-1.778,1.951a1.743,1.743,0,0,0-.906,2.287l3.676,8.568-3.2,1.355-3.689-8.533a1.737,1.737,0,0,0-2.287-.907l-.976.4a.05.05,0,0,1,0-.012,0,0,0,0,1,0,0l1.873-7.155,6.454,3.593Z" transform="translate(-244.337 -313.576)" fill="#474d41"/>
          <path id="Trazado_911801" data-name="Trazado 911801" d="M151.506,29.72l-.981.4-3.689-8.533a1.743,1.743,0,0,0-2.287-.907l-3.166,1.369a1.743,1.743,0,0,0-.907,2.288l3.676,8.568-.947.409a1.739,1.739,0,0,0-.151,3.115l6.464,3.556a1.743,1.743,0,0,0,2.518-1.094l1.836-7.139A1.734,1.734,0,0,0,151.506,29.72Zm.706,1.6a0,0,0,0,1,0,0l-1.873,7.155-6.454-3.593.947-.409a1.743,1.743,0,0,0,.906-2.287l-3.676-8.568,3.2-1.355,3.689,8.533a1.736,1.736,0,0,0,2.287.907l.976-.4a.035.035,0,0,1,0,.012Z" transform="translate(-120.288 -20.119)" fill="#474d41"/>
        </g>
      </g>
    </g>
  </g>
</svg>
