<svg xmlns="http://www.w3.org/2000/svg" xmlns:xlink="http://www.w3.org/1999/xlink" width="129" height="128" viewBox="0 0 129 128">
  <defs>
    <clipPath id="clip-path">
      <rect id="Rectángulo_400938" data-name="Rectángulo 400938" width="120" height="120" fill="none"/>
    </clipPath>
    <clipPath id="clip-path-2">
      <path id="Rectángulo_36179" data-name="Rectángulo 36179" d="M0,0H129V128H0Z" transform="translate(390 4467)" fill="#dcedc8"/>
    </clipPath>
    <clipPath id="clip-path-3">
      <rect id="Rectángulo_401301" data-name="Rectángulo 401301" width="74.96" height="225.068" fill="none"/>
    </clipPath>
    <clipPath id="clip-path-5">
      <rect id="Rectángulo_401247" data-name="Rectángulo 401247" width="18.555" height="18.555" fill="none"/>
    </clipPath>
    <clipPath id="clip-path-6">
      <path id="Trazado_873506" data-name="Trazado 873506" d="M18.555,9.277A9.278,9.278,0,1,1,9.277,0a9.278,9.278,0,0,1,9.278,9.277" fill="none"/>
    </clipPath>
    <linearGradient id="linear-gradient" x1="-2.285" y1="5.638" x2="-2.264" y2="5.638" gradientUnits="objectBoundingBox">
      <stop offset="0" stop-color="#fff"/>
      <stop offset="0.07" stop-color="#f7f8ee"/>
      <stop offset="0.208" stop-color="#e3e7c4"/>
      <stop offset="0.399" stop-color="#c4cb80"/>
      <stop offset="0.457" stop-color="#bac36a"/>
      <stop offset="0.532" stop-color="#c1cc64"/>
      <stop offset="0.637" stop-color="#d4e157"/>
      <stop offset="1" stop-color="#d4e157"/>
    </linearGradient>
    <clipPath id="clip-path-8">
      <path id="Trazado_873507" data-name="Trazado 873507" d="M18.555,9.277A9.278,9.278,0,1,1,9.277,0a9.277,9.277,0,0,1,9.278,9.277" fill="none"/>
    </clipPath>
    <linearGradient id="linear-gradient-2" x1="-2.285" y1="4.852" x2="-2.264" y2="4.852" xlink:href="#linear-gradient"/>
    <linearGradient id="linear-gradient-3" x1="-2.285" y1="4.063" x2="-2.264" y2="4.063" xlink:href="#linear-gradient"/>
    <linearGradient id="linear-gradient-4" x1="-2.285" y1="3.276" x2="-2.264" y2="3.276" xlink:href="#linear-gradient"/>
    <linearGradient id="linear-gradient-5" x1="-2.285" y1="2.467" x2="-2.264" y2="2.467" xlink:href="#linear-gradient"/>
    <linearGradient id="linear-gradient-6" x1="-2.285" y1="1.68" x2="-2.264" y2="1.68" xlink:href="#linear-gradient"/>
    <linearGradient id="linear-gradient-7" x1="-2.285" y1="0.893" x2="-2.264" y2="0.893" xlink:href="#linear-gradient"/>
    <clipPath id="clip-path-20">
      <path id="Trazado_873513" data-name="Trazado 873513" d="M18.555,9.277A9.277,9.277,0,1,1,9.277,0a9.277,9.277,0,0,1,9.277,9.277" fill="none"/>
    </clipPath>
    <linearGradient id="linear-gradient-8" x1="-1.498" y1="5.638" x2="-1.477" y2="5.638" xlink:href="#linear-gradient"/>
    <clipPath id="clip-path-22">
      <path id="Trazado_873514" data-name="Trazado 873514" d="M18.555,9.278A9.278,9.278,0,1,1,9.277,0a9.278,9.278,0,0,1,9.278,9.278" fill="none"/>
    </clipPath>
    <linearGradient id="linear-gradient-9" x1="-2.285" y1="6.451" x2="-2.264" y2="6.451" xlink:href="#linear-gradient"/>
    <linearGradient id="linear-gradient-10" x1="-2.285" y1="7.242" x2="-2.264" y2="7.242" xlink:href="#linear-gradient"/>
    <linearGradient id="linear-gradient-11" x1="-2.285" y1="8.043" x2="-2.264" y2="8.043" xlink:href="#linear-gradient"/>
    <linearGradient id="linear-gradient-12" x1="-2.285" y1="8.848" x2="-2.264" y2="8.848" xlink:href="#linear-gradient"/>
    <linearGradient id="linear-gradient-13" x1="-2.285" y1="9.649" x2="-2.264" y2="9.649" xlink:href="#linear-gradient"/>
    <clipPath id="clip-path-32">
      <path id="Trazado_873519" data-name="Trazado 873519" d="M18.555,9.278A9.277,9.277,0,1,1,9.277,0a9.277,9.277,0,0,1,9.277,9.278" fill="none"/>
    </clipPath>
    <linearGradient id="linear-gradient-14" x1="-1.498" y1="6.451" x2="-1.477" y2="6.451" xlink:href="#linear-gradient"/>
    <clipPath id="clip-path-34">
      <path id="Trazado_873520" data-name="Trazado 873520" d="M18.555,9.277A9.277,9.277,0,1,1,9.277,0a9.278,9.278,0,0,1,9.277,9.277" fill="none"/>
    </clipPath>
    <linearGradient id="linear-gradient-15" x1="-0.711" y1="5.638" x2="-0.691" y2="5.638" xlink:href="#linear-gradient"/>
    <clipPath id="clip-path-36">
      <path id="Trazado_873521" data-name="Trazado 873521" d="M18.555,9.277A9.278,9.278,0,1,1,9.278,0a9.277,9.277,0,0,1,9.277,9.277" fill="none"/>
    </clipPath>
    <linearGradient id="linear-gradient-16" x1="-1.48" y1="4.852" x2="-1.459" y2="4.852" xlink:href="#linear-gradient"/>
    <linearGradient id="linear-gradient-17" x1="0.087" y1="5.638" x2="0.108" y2="5.638" xlink:href="#linear-gradient"/>
    <linearGradient id="linear-gradient-18" x1="-0.682" y1="4.852" x2="-0.661" y2="4.852" xlink:href="#linear-gradient"/>
    <clipPath id="clip-path-42">
      <path id="Trazado_873524" data-name="Trazado 873524" d="M18.555,9.277A9.278,9.278,0,1,1,9.278,0a9.278,9.278,0,0,1,9.277,9.277" fill="none"/>
    </clipPath>
    <linearGradient id="linear-gradient-19" x1="-1.48" y1="4.063" x2="-1.459" y2="4.063" xlink:href="#linear-gradient"/>
    <linearGradient id="linear-gradient-20" x1="0.107" y1="4.852" x2="0.128" y2="4.852" xlink:href="#linear-gradient"/>
    <linearGradient id="linear-gradient-21" x1="-0.682" y1="4.061" x2="-0.661" y2="4.061" xlink:href="#linear-gradient"/>
    <linearGradient id="linear-gradient-22" x1="-1.48" y1="3.276" x2="-1.459" y2="3.276" xlink:href="#linear-gradient"/>
    <clipPath id="clip-path-50">
      <path id="Trazado_873528" data-name="Trazado 873528" d="M18.555,9.278A9.277,9.277,0,1,1,9.277,0a9.278,9.278,0,0,1,9.277,9.278" fill="none"/>
    </clipPath>
    <linearGradient id="linear-gradient-23" x1="-0.711" y1="6.451" x2="-0.691" y2="6.451" xlink:href="#linear-gradient"/>
    <linearGradient id="linear-gradient-24" x1="0.075" y1="6.451" x2="0.096" y2="6.451" xlink:href="#linear-gradient"/>
    <linearGradient id="linear-gradient-25" x1="-1.498" y1="7.238" x2="-1.477" y2="7.238" xlink:href="#linear-gradient"/>
    <linearGradient id="linear-gradient-26" x1="-0.711" y1="7.238" x2="-0.691" y2="7.238" xlink:href="#linear-gradient"/>
    <clipPath id="clip-path-58">
      <path id="Trazado_873532" data-name="Trazado 873532" d="M18.555,9.278A9.278,9.278,0,1,1,9.278,0a9.278,9.278,0,0,1,9.277,9.278" fill="none"/>
    </clipPath>
    <linearGradient id="linear-gradient-27" x1="-1.48" y1="8.043" x2="-1.459" y2="8.043" xlink:href="#linear-gradient"/>
    <clipPath id="clip-path-60">
      <rect id="Rectángulo_400938-3" data-name="Rectángulo 400938" width="113" height="113" transform="translate(0.211 0.211)" fill="none"/>
    </clipPath>
  </defs>
  <g id="Grupo_1119774" data-name="Grupo 1119774" transform="translate(-376 -1860)">
    <g id="Grupo_108927" data-name="Grupo 108927" transform="translate(-14 -2607)">
      <path id="Rectángulo_36179-2" data-name="Rectángulo 36179" d="M0,0H129V128H0Z" transform="translate(390 4467)" fill="#dcedc8"/>
      <g id="Enmascarar_grupo_1100031" data-name="Enmascarar grupo 1100031" clip-path="url(#clip-path-2)">
        <g id="Grupo_1099913" data-name="Grupo 1099913" transform="translate(454.5 4639.479) rotate(180)" clip-path="url(#clip-path-3)">
          <g id="Grupo_1099912" data-name="Grupo 1099912">
            <g id="Grupo_1099911" data-name="Grupo 1099911" clip-path="url(#clip-path-3)">
              <g id="Grupo_1099780" data-name="Grupo 1099780" transform="translate(56.405 94.592)" opacity="0.8" style="mix-blend-mode: multiply;isolation: isolate">
                <g id="Grupo_1099779" data-name="Grupo 1099779" transform="translate(0 0)">
                  <g id="Grupo_1099778" data-name="Grupo 1099778" transform="translate(0 0)" clip-path="url(#clip-path-5)">
                    <g id="Grupo_1099777" data-name="Grupo 1099777" transform="translate(0 0)">
                      <g id="Grupo_1099776" data-name="Grupo 1099776" clip-path="url(#clip-path-6)">
                        <rect id="Rectángulo_401246" data-name="Rectángulo 401246" width="23.587" height="23.587" transform="translate(-5.714 16.586) rotate(-70.991)" fill="url(#linear-gradient)"/>
                      </g>
                    </g>
                  </g>
                </g>
              </g>
              <g id="Grupo_1099785" data-name="Grupo 1099785" transform="translate(56.405 113.147)" opacity="0.8" style="mix-blend-mode: multiply;isolation: isolate">
                <g id="Grupo_1099784" data-name="Grupo 1099784">
                  <g id="Grupo_1099783" data-name="Grupo 1099783" clip-path="url(#clip-path-5)">
                    <g id="Grupo_1099782" data-name="Grupo 1099782" transform="translate(0)">
                      <g id="Grupo_1099781" data-name="Grupo 1099781" clip-path="url(#clip-path-8)">
                        <rect id="Rectángulo_401248" data-name="Rectángulo 401248" width="23.587" height="23.587" transform="translate(-5.714 16.586) rotate(-70.991)" fill="url(#linear-gradient-2)"/>
                      </g>
                    </g>
                  </g>
                </g>
              </g>
              <g id="Grupo_1099790" data-name="Grupo 1099790" transform="translate(56.405 131.759)" opacity="0.8" style="mix-blend-mode: multiply;isolation: isolate">
                <g id="Grupo_1099789" data-name="Grupo 1099789" transform="translate(0 0)">
                  <g id="Grupo_1099788" data-name="Grupo 1099788" transform="translate(0 0)" clip-path="url(#clip-path-5)">
                    <g id="Grupo_1099787" data-name="Grupo 1099787" transform="translate(0 0)">
                      <g id="Grupo_1099786" data-name="Grupo 1099786" clip-path="url(#clip-path-6)">
                        <rect id="Rectángulo_401250" data-name="Rectángulo 401250" width="23.587" height="23.587" transform="translate(-5.714 16.586) rotate(-70.991)" fill="url(#linear-gradient-3)"/>
                      </g>
                    </g>
                  </g>
                </g>
              </g>
              <g id="Grupo_1099795" data-name="Grupo 1099795" transform="translate(56.405 150.314)" opacity="0.8" style="mix-blend-mode: multiply;isolation: isolate">
                <g id="Grupo_1099794" data-name="Grupo 1099794" transform="translate(0 0)">
                  <g id="Grupo_1099793" data-name="Grupo 1099793" transform="translate(0 0)" clip-path="url(#clip-path-5)">
                    <g id="Grupo_1099792" data-name="Grupo 1099792" transform="translate(0 0)">
                      <g id="Grupo_1099791" data-name="Grupo 1099791" clip-path="url(#clip-path-8)">
                        <rect id="Rectángulo_401252" data-name="Rectángulo 401252" width="23.587" height="23.587" transform="translate(-5.714 16.586) rotate(-70.991)" fill="url(#linear-gradient-4)"/>
                      </g>
                    </g>
                  </g>
                </g>
              </g>
              <g id="Grupo_1099800" data-name="Grupo 1099800" transform="translate(56.405 169.403)" opacity="0.8" style="mix-blend-mode: multiply;isolation: isolate">
                <g id="Grupo_1099799" data-name="Grupo 1099799">
                  <g id="Grupo_1099798" data-name="Grupo 1099798" clip-path="url(#clip-path-5)">
                    <g id="Grupo_1099797" data-name="Grupo 1099797" transform="translate(0 0)">
                      <g id="Grupo_1099796" data-name="Grupo 1099796" clip-path="url(#clip-path-8)">
                        <rect id="Rectángulo_401254" data-name="Rectángulo 401254" width="23.587" height="23.587" transform="translate(-5.714 16.586) rotate(-70.991)" fill="url(#linear-gradient-5)"/>
                      </g>
                    </g>
                  </g>
                </g>
              </g>
              <g id="Grupo_1099805" data-name="Grupo 1099805" transform="translate(56.405 187.958)" opacity="0.8" style="mix-blend-mode: multiply;isolation: isolate">
                <g id="Grupo_1099804" data-name="Grupo 1099804" transform="translate(0 0)">
                  <g id="Grupo_1099803" data-name="Grupo 1099803" transform="translate(0 0)" clip-path="url(#clip-path-5)">
                    <g id="Grupo_1099802" data-name="Grupo 1099802" transform="translate(0 0)">
                      <g id="Grupo_1099801" data-name="Grupo 1099801" clip-path="url(#clip-path-6)">
                        <rect id="Rectángulo_401256" data-name="Rectángulo 401256" width="23.587" height="23.587" transform="translate(-5.714 16.587) rotate(-70.991)" fill="url(#linear-gradient-6)"/>
                      </g>
                    </g>
                  </g>
                </g>
              </g>
              <g id="Grupo_1099810" data-name="Grupo 1099810" transform="translate(56.405 206.513)" opacity="0.8" style="mix-blend-mode: multiply;isolation: isolate">
                <g id="Grupo_1099809" data-name="Grupo 1099809" transform="translate(0 0)">
                  <g id="Grupo_1099808" data-name="Grupo 1099808" transform="translate(0 0)" clip-path="url(#clip-path-5)">
                    <g id="Grupo_1099807" data-name="Grupo 1099807" transform="translate(0 0)">
                      <g id="Grupo_1099806" data-name="Grupo 1099806" clip-path="url(#clip-path-6)">
                        <rect id="Rectángulo_401258" data-name="Rectángulo 401258" width="23.587" height="23.587" transform="translate(-5.714 16.586) rotate(-70.991)" fill="url(#linear-gradient-7)"/>
                      </g>
                    </g>
                  </g>
                </g>
              </g>
              <g id="Grupo_1099815" data-name="Grupo 1099815" transform="translate(37.85 94.592)" opacity="0.8" style="mix-blend-mode: multiply;isolation: isolate">
                <g id="Grupo_1099814" data-name="Grupo 1099814" transform="translate(0 0)">
                  <g id="Grupo_1099813" data-name="Grupo 1099813" transform="translate(0 0)" clip-path="url(#clip-path-5)">
                    <g id="Grupo_1099812" data-name="Grupo 1099812" transform="translate(0 0)">
                      <g id="Grupo_1099811" data-name="Grupo 1099811" clip-path="url(#clip-path-20)">
                        <rect id="Rectángulo_401260" data-name="Rectángulo 401260" width="23.587" height="23.587" transform="translate(-5.714 16.586) rotate(-70.991)" fill="url(#linear-gradient-8)"/>
                      </g>
                    </g>
                  </g>
                </g>
              </g>
              <g id="Grupo_1099820" data-name="Grupo 1099820" transform="translate(56.405 75.434)" opacity="0.8" style="mix-blend-mode: multiply;isolation: isolate">
                <g id="Grupo_1099819" data-name="Grupo 1099819" transform="translate(0 0)">
                  <g id="Grupo_1099818" data-name="Grupo 1099818" transform="translate(0 0)" clip-path="url(#clip-path-5)">
                    <g id="Grupo_1099817" data-name="Grupo 1099817" transform="translate(0 0)">
                      <g id="Grupo_1099816" data-name="Grupo 1099816" clip-path="url(#clip-path-22)">
                        <rect id="Rectángulo_401262" data-name="Rectángulo 401262" width="23.587" height="23.587" transform="matrix(0.326, -0.945, 0.945, 0.326, -5.714, 16.587)" fill="url(#linear-gradient-9)"/>
                      </g>
                    </g>
                  </g>
                </g>
              </g>
              <g id="Grupo_1099825" data-name="Grupo 1099825" transform="translate(56.405 56.776)" opacity="0.8" style="mix-blend-mode: multiply;isolation: isolate">
                <g id="Grupo_1099824" data-name="Grupo 1099824" transform="translate(0 0)">
                  <g id="Grupo_1099823" data-name="Grupo 1099823" transform="translate(0 0)" clip-path="url(#clip-path-5)">
                    <g id="Grupo_1099822" data-name="Grupo 1099822" transform="translate(0 0)">
                      <g id="Grupo_1099821" data-name="Grupo 1099821" clip-path="url(#clip-path-6)">
                        <rect id="Rectángulo_401264" data-name="Rectángulo 401264" width="23.587" height="23.587" transform="translate(-5.714 16.586) rotate(-70.991)" fill="url(#linear-gradient-10)"/>
                      </g>
                    </g>
                  </g>
                </g>
              </g>
              <g id="Grupo_1099830" data-name="Grupo 1099830" transform="translate(56.405 37.88)" opacity="0.8" style="mix-blend-mode: multiply;isolation: isolate">
                <g id="Grupo_1099829" data-name="Grupo 1099829" transform="translate(0 0)">
                  <g id="Grupo_1099828" data-name="Grupo 1099828" transform="translate(0 0)" clip-path="url(#clip-path-5)">
                    <g id="Grupo_1099827" data-name="Grupo 1099827" transform="translate(0 0)">
                      <g id="Grupo_1099826" data-name="Grupo 1099826" clip-path="url(#clip-path-22)">
                        <rect id="Rectángulo_401266" data-name="Rectángulo 401266" width="23.587" height="23.587" transform="translate(-5.714 16.587) rotate(-70.991)" fill="url(#linear-gradient-11)"/>
                      </g>
                    </g>
                  </g>
                </g>
              </g>
              <g id="Grupo_1099835" data-name="Grupo 1099835" transform="translate(56.405 18.896)" opacity="0.8" style="mix-blend-mode: multiply;isolation: isolate">
                <g id="Grupo_1099834" data-name="Grupo 1099834">
                  <g id="Grupo_1099833" data-name="Grupo 1099833" clip-path="url(#clip-path-5)">
                    <g id="Grupo_1099832" data-name="Grupo 1099832" transform="translate(0 0)">
                      <g id="Grupo_1099831" data-name="Grupo 1099831" clip-path="url(#clip-path-6)">
                        <rect id="Rectángulo_401268" data-name="Rectángulo 401268" width="23.587" height="23.587" transform="translate(-5.714 16.586) rotate(-70.991)" fill="url(#linear-gradient-12)"/>
                      </g>
                    </g>
                  </g>
                </g>
              </g>
              <g id="Grupo_1099840" data-name="Grupo 1099840" transform="translate(56.405)" opacity="0.8" style="mix-blend-mode: multiply;isolation: isolate">
                <g id="Grupo_1099839" data-name="Grupo 1099839">
                  <g id="Grupo_1099838" data-name="Grupo 1099838" clip-path="url(#clip-path-5)">
                    <g id="Grupo_1099837" data-name="Grupo 1099837" transform="translate(0)">
                      <g id="Grupo_1099836" data-name="Grupo 1099836" clip-path="url(#clip-path-6)">
                        <rect id="Rectángulo_401270" data-name="Rectángulo 401270" width="23.587" height="23.587" transform="translate(-5.714 16.586) rotate(-70.991)" fill="url(#linear-gradient-13)"/>
                      </g>
                    </g>
                  </g>
                </g>
              </g>
              <g id="Grupo_1099845" data-name="Grupo 1099845" transform="translate(37.85 75.434)" opacity="0.8" style="mix-blend-mode: multiply;isolation: isolate">
                <g id="Grupo_1099844" data-name="Grupo 1099844" transform="translate(0 0)">
                  <g id="Grupo_1099843" data-name="Grupo 1099843" transform="translate(0 0)" clip-path="url(#clip-path-5)">
                    <g id="Grupo_1099842" data-name="Grupo 1099842" transform="translate(0 0)">
                      <g id="Grupo_1099841" data-name="Grupo 1099841" clip-path="url(#clip-path-32)">
                        <rect id="Rectángulo_401272" data-name="Rectángulo 401272" width="23.587" height="23.587" transform="translate(-5.714 16.587) rotate(-70.991)" fill="url(#linear-gradient-14)"/>
                      </g>
                    </g>
                  </g>
                </g>
              </g>
              <g id="Grupo_1099850" data-name="Grupo 1099850" transform="translate(19.295 94.592)" opacity="0.8" style="mix-blend-mode: multiply;isolation: isolate">
                <g id="Grupo_1099849" data-name="Grupo 1099849" transform="translate(0 0)">
                  <g id="Grupo_1099848" data-name="Grupo 1099848" transform="translate(0 0)" clip-path="url(#clip-path-5)">
                    <g id="Grupo_1099847" data-name="Grupo 1099847" transform="translate(0 0)">
                      <g id="Grupo_1099846" data-name="Grupo 1099846" clip-path="url(#clip-path-34)">
                        <rect id="Rectángulo_401274" data-name="Rectángulo 401274" width="23.587" height="23.587" transform="translate(-5.714 16.586) rotate(-70.991)" fill="url(#linear-gradient-15)"/>
                      </g>
                    </g>
                  </g>
                </g>
              </g>
              <g id="Grupo_1099855" data-name="Grupo 1099855" transform="translate(37.424 113.147)" opacity="0.8" style="mix-blend-mode: multiply;isolation: isolate">
                <g id="Grupo_1099854" data-name="Grupo 1099854">
                  <g id="Grupo_1099853" data-name="Grupo 1099853" clip-path="url(#clip-path-5)">
                    <g id="Grupo_1099852" data-name="Grupo 1099852" transform="translate(0)">
                      <g id="Grupo_1099851" data-name="Grupo 1099851" transform="translate(0)" clip-path="url(#clip-path-36)">
                        <rect id="Rectángulo_401276" data-name="Rectángulo 401276" width="23.587" height="23.587" transform="translate(-5.714 16.586) rotate(-70.991)" fill="url(#linear-gradient-16)"/>
                      </g>
                    </g>
                  </g>
                </g>
              </g>
              <g id="Grupo_1099860" data-name="Grupo 1099860" transform="translate(0.462 94.592)" opacity="0.8" style="mix-blend-mode: multiply;isolation: isolate">
                <g id="Grupo_1099859" data-name="Grupo 1099859" transform="translate(0 0)">
                  <g id="Grupo_1099858" data-name="Grupo 1099858" transform="translate(0 0)" clip-path="url(#clip-path-5)">
                    <g id="Grupo_1099857" data-name="Grupo 1099857" transform="translate(0 0)">
                      <g id="Grupo_1099856" data-name="Grupo 1099856" clip-path="url(#clip-path-6)">
                        <rect id="Rectángulo_401278" data-name="Rectángulo 401278" width="23.587" height="23.587" transform="translate(-5.714 16.586) rotate(-70.991)" fill="url(#linear-gradient-17)"/>
                      </g>
                    </g>
                  </g>
                </g>
              </g>
              <g id="Grupo_1099865" data-name="Grupo 1099865" transform="translate(18.591 113.147)" opacity="0.8" style="mix-blend-mode: multiply;isolation: isolate">
                <g id="Grupo_1099864" data-name="Grupo 1099864">
                  <g id="Grupo_1099863" data-name="Grupo 1099863" clip-path="url(#clip-path-5)">
                    <g id="Grupo_1099862" data-name="Grupo 1099862" transform="translate(0)">
                      <g id="Grupo_1099861" data-name="Grupo 1099861" clip-path="url(#clip-path-20)">
                        <rect id="Rectángulo_401280" data-name="Rectángulo 401280" width="23.587" height="23.587" transform="translate(-5.714 16.586) rotate(-70.991)" fill="url(#linear-gradient-18)"/>
                      </g>
                    </g>
                  </g>
                </g>
              </g>
              <g id="Grupo_1099870" data-name="Grupo 1099870" transform="translate(37.424 131.759)" opacity="0.8" style="mix-blend-mode: multiply;isolation: isolate">
                <g id="Grupo_1099869" data-name="Grupo 1099869" transform="translate(0 0)">
                  <g id="Grupo_1099868" data-name="Grupo 1099868" transform="translate(0 0)" clip-path="url(#clip-path-5)">
                    <g id="Grupo_1099867" data-name="Grupo 1099867" transform="translate(0 0)">
                      <g id="Grupo_1099866" data-name="Grupo 1099866" transform="translate(0)" clip-path="url(#clip-path-42)">
                        <rect id="Rectángulo_401282" data-name="Rectángulo 401282" width="23.587" height="23.587" transform="translate(-5.714 16.586) rotate(-70.991)" fill="url(#linear-gradient-19)"/>
                      </g>
                    </g>
                  </g>
                </g>
              </g>
              <g id="Grupo_1099875" data-name="Grupo 1099875" transform="translate(0 113.147)" opacity="0.8" style="mix-blend-mode: multiply;isolation: isolate">
                <g id="Grupo_1099874" data-name="Grupo 1099874">
                  <g id="Grupo_1099873" data-name="Grupo 1099873" clip-path="url(#clip-path-5)">
                    <g id="Grupo_1099872" data-name="Grupo 1099872">
                      <g id="Grupo_1099871" data-name="Grupo 1099871" clip-path="url(#clip-path-20)">
                        <rect id="Rectángulo_401284" data-name="Rectángulo 401284" width="23.587" height="23.587" transform="translate(-5.714 16.586) rotate(-70.991)" fill="url(#linear-gradient-20)"/>
                      </g>
                    </g>
                  </g>
                </g>
              </g>
              <g id="Grupo_1099880" data-name="Grupo 1099880" transform="translate(18.591 131.8)" opacity="0.8" style="mix-blend-mode: multiply;isolation: isolate">
                <g id="Grupo_1099879" data-name="Grupo 1099879" transform="translate(0)">
                  <g id="Grupo_1099878" data-name="Grupo 1099878" transform="translate(0)" clip-path="url(#clip-path-5)">
                    <g id="Grupo_1099877" data-name="Grupo 1099877" transform="translate(0 0)">
                      <g id="Grupo_1099876" data-name="Grupo 1099876" clip-path="url(#clip-path-20)">
                        <rect id="Rectángulo_401286" data-name="Rectángulo 401286" width="23.587" height="23.587" transform="translate(-5.714 16.586) rotate(-70.991)" fill="url(#linear-gradient-21)"/>
                      </g>
                    </g>
                  </g>
                </g>
              </g>
              <g id="Grupo_1099885" data-name="Grupo 1099885" transform="translate(37.424 150.314)" opacity="0.8" style="mix-blend-mode: multiply;isolation: isolate">
                <g id="Grupo_1099884" data-name="Grupo 1099884" transform="translate(0 0)">
                  <g id="Grupo_1099883" data-name="Grupo 1099883" transform="translate(0 0)" clip-path="url(#clip-path-5)">
                    <g id="Grupo_1099882" data-name="Grupo 1099882" transform="translate(0 0)">
                      <g id="Grupo_1099881" data-name="Grupo 1099881" transform="translate(0)" clip-path="url(#clip-path-36)">
                        <rect id="Rectángulo_401288" data-name="Rectángulo 401288" width="23.587" height="23.587" transform="translate(-5.714 16.586) rotate(-70.991)" fill="url(#linear-gradient-22)"/>
                      </g>
                    </g>
                  </g>
                </g>
              </g>
              <g id="Grupo_1099890" data-name="Grupo 1099890" transform="translate(19.295 75.434)" opacity="0.8" style="mix-blend-mode: multiply;isolation: isolate">
                <g id="Grupo_1099889" data-name="Grupo 1099889" transform="translate(0 0)">
                  <g id="Grupo_1099888" data-name="Grupo 1099888" transform="translate(0 0)" clip-path="url(#clip-path-5)">
                    <g id="Grupo_1099887" data-name="Grupo 1099887" transform="translate(0 0)">
                      <g id="Grupo_1099886" data-name="Grupo 1099886" clip-path="url(#clip-path-50)">
                        <rect id="Rectángulo_401290" data-name="Rectángulo 401290" width="23.587" height="23.587" transform="translate(-5.714 16.587) rotate(-70.991)" fill="url(#linear-gradient-23)"/>
                      </g>
                    </g>
                  </g>
                </g>
              </g>
              <g id="Grupo_1099895" data-name="Grupo 1099895" transform="translate(0.74 75.434)" opacity="0.8" style="mix-blend-mode: multiply;isolation: isolate">
                <g id="Grupo_1099894" data-name="Grupo 1099894" transform="translate(0 0)">
                  <g id="Grupo_1099893" data-name="Grupo 1099893" transform="translate(0 0)" clip-path="url(#clip-path-5)">
                    <g id="Grupo_1099892" data-name="Grupo 1099892" transform="translate(0 0)">
                      <g id="Grupo_1099891" data-name="Grupo 1099891" transform="translate(0)" clip-path="url(#clip-path-22)">
                        <rect id="Rectángulo_401292" data-name="Rectángulo 401292" width="23.587" height="23.587" transform="matrix(0.326, -0.945, 0.945, 0.326, -5.714, 16.587)" fill="url(#linear-gradient-24)"/>
                      </g>
                    </g>
                  </g>
                </g>
              </g>
              <g id="Grupo_1099900" data-name="Grupo 1099900" transform="translate(37.85 56.861)" opacity="0.8" style="mix-blend-mode: multiply;isolation: isolate">
                <g id="Grupo_1099899" data-name="Grupo 1099899" transform="translate(0 0)">
                  <g id="Grupo_1099898" data-name="Grupo 1099898" transform="translate(0 0)" clip-path="url(#clip-path-5)">
                    <g id="Grupo_1099897" data-name="Grupo 1099897" transform="translate(0 0)">
                      <g id="Grupo_1099896" data-name="Grupo 1099896" clip-path="url(#clip-path-32)">
                        <rect id="Rectángulo_401294" data-name="Rectángulo 401294" width="23.587" height="23.587" transform="translate(-5.714 16.587) rotate(-70.991)" fill="url(#linear-gradient-25)"/>
                      </g>
                    </g>
                  </g>
                </g>
              </g>
              <g id="Grupo_1099905" data-name="Grupo 1099905" transform="translate(19.295 56.861)" opacity="0.8" style="mix-blend-mode: multiply;isolation: isolate">
                <g id="Grupo_1099904" data-name="Grupo 1099904" transform="translate(0 0)">
                  <g id="Grupo_1099903" data-name="Grupo 1099903" transform="translate(0 0)" clip-path="url(#clip-path-5)">
                    <g id="Grupo_1099902" data-name="Grupo 1099902" transform="translate(0 0)">
                      <g id="Grupo_1099901" data-name="Grupo 1099901" clip-path="url(#clip-path-50)">
                        <rect id="Rectángulo_401296" data-name="Rectángulo 401296" width="23.587" height="23.587" transform="translate(-5.714 16.587) rotate(-70.991)" fill="url(#linear-gradient-26)"/>
                      </g>
                    </g>
                  </g>
                </g>
              </g>
              <g id="Grupo_1099910" data-name="Grupo 1099910" transform="translate(37.424 37.88)" opacity="0.8" style="mix-blend-mode: multiply;isolation: isolate">
                <g id="Grupo_1099909" data-name="Grupo 1099909" transform="translate(0 0)">
                  <g id="Grupo_1099908" data-name="Grupo 1099908" transform="translate(0 0)" clip-path="url(#clip-path-5)">
                    <g id="Grupo_1099907" data-name="Grupo 1099907" transform="translate(0 0)">
                      <g id="Grupo_1099906" data-name="Grupo 1099906" transform="translate(0)" clip-path="url(#clip-path-58)">
                        <rect id="Rectángulo_401298" data-name="Rectángulo 401298" width="23.587" height="23.587" transform="matrix(0.326, -0.945, 0.945, 0.326, -5.714, 16.587)" fill="url(#linear-gradient-27)"/>
                      </g>
                    </g>
                  </g>
                </g>
              </g>
            </g>
          </g>
        </g>
      </g>
    </g>
    <g id="Grupo_1119241" data-name="Grupo 1119241" transform="translate(118.789 -3416.211)">
      <g id="Grupo_1099379" data-name="Grupo 1099379" transform="translate(265 5284)">
        <rect id="Rectángulo_401103" data-name="Rectángulo 401103" width="113" height="113" transform="translate(0.211 0.211)" fill="none"/>
        <path id="Trazado_873425" data-name="Trazado 873425" d="M47.337,0A47.337,47.337,0,1,1,0,47.337,47.337,47.337,0,0,1,47.337,0Z" transform="translate(14.061 16.873)" fill="#4c5066"/>
        <circle id="Elipse_11503" data-name="Elipse 11503" cx="49.5" cy="49.5" r="49.5" transform="translate(7.211 7.211)" fill="#fff"/>
      </g>
      <g id="Grupo_1099380" data-name="Grupo 1099380" transform="translate(289.372 5307.434)">
        <rect id="Rectángulo_401104" data-name="Rectángulo 401104" width="64" height="65" transform="translate(-0.16 -0.223)" fill="none"/>
        <g id="Grupo_1122200" data-name="Grupo 1122200" transform="translate(-3.373 -0.137)">
          <path id="Trazado_911983" data-name="Trazado 911983" d="M213.819,460.583v1.642a3.931,3.931,0,0,1-.023.429,3.866,3.866,0,0,1-3.841,3.435h-5.925a3.866,3.866,0,0,1-3.841-3.435,3.939,3.939,0,0,1-.023-.429v-1.642a4.1,4.1,0,0,0,1.674.354h10.3A4.1,4.1,0,0,0,213.819,460.583Z" transform="translate(-171.587 -401.261)" fill="#50758d"/>
          <g id="Grupo_1122199" data-name="Grupo 1122199" transform="translate(3.213 0)">
            <path id="Trazado_911984" data-name="Trazado 911984" d="M245.133,8.444a.966.966,0,0,1-.966-.966V.966a.966.966,0,1,1,1.932,0V7.478A.966.966,0,0,1,245.133,8.444Z" transform="translate(-213.133 0)" fill="#ffe7c9"/>
            <path id="Trazado_911985" data-name="Trazado 911985" d="M79.357,77.111a.963.963,0,0,1-.683-.283l-4.605-4.605a.966.966,0,0,1,1.366-1.366l4.605,4.605a.966.966,0,0,1-.683,1.649Z" transform="translate(-64.697 -61.484)" fill="#ffe7c9"/>
            <path id="Trazado_911986" data-name="Trazado 911986" d="M10.691,242.885H4.179a.966.966,0,0,1,0-1.932h6.512a.966.966,0,0,1,0,1.932Z" transform="translate(-3.213 -209.919)" fill="#ffe7c9"/>
            <path id="Trazado_911987" data-name="Trazado 911987" d="M74.752,382.117a.966.966,0,0,1-.683-1.649l4.605-4.6a.966.966,0,0,1,1.366,1.366l-4.605,4.605A.963.963,0,0,1,74.752,382.117Z" transform="translate(-64.697 -327.206)" fill="#ffe7c9"/>
            <path id="Trazado_911988" data-name="Trazado 911988" d="M384.362,382.117a.964.964,0,0,1-.683-.283l-4.6-4.605a.966.966,0,0,1,1.366-1.366l4.605,4.6a.966.966,0,0,1-.683,1.649Z" transform="translate(-330.418 -327.206)" fill="#ffe7c9"/>
            <path id="Trazado_911989" data-name="Trazado 911989" d="M442.035,242.885h-6.512a.966.966,0,0,1,0-1.932h6.512a.966.966,0,0,1,0,1.932Z" transform="translate(-379.001 -209.919)" fill="#ffe7c9"/>
            <path id="Trazado_911990" data-name="Trazado 911990" d="M379.757,77.111a.966.966,0,0,1-.683-1.649l4.6-4.605a.966.966,0,0,1,1.366,1.366l-4.605,4.605A.963.963,0,0,1,379.757,77.111Z" transform="translate(-330.418 -61.484)" fill="#ffe7c9"/>
          </g>
          <path id="Trazado_911991" data-name="Trazado 911991" d="M206.993,453.333s-6.315,1.162-6.826.934v1.642a3.938,3.938,0,0,0,.023.429,3.866,3.866,0,0,0,3.841,3.435h1.674a3.866,3.866,0,0,1-3.642-2.571.388.388,0,0,1,.363-.52h9.719a4.1,4.1,0,0,0,1.651-.344,3.938,3.938,0,0,0,.023-.429v-1.642C213.308,454.495,206.993,453.333,206.993,453.333Z" transform="translate(-171.587 -394.945)" fill="#2b597f"/>
          <path id="Trazado_911992" data-name="Trazado 911992" d="M199.226,380.8a4.118,4.118,0,0,1-4.122,4.122H184.8a4.118,4.118,0,0,1-4.122-4.122s-.061-6.02-.072-6.177v-.005l9.346-1.288,9.239,1.288Z" transform="translate(-154.546 -325.249)" fill="#50758d"/>
          <path id="Trazado_911993" data-name="Trazado 911993" d="M186.99,393.637H184.8a4.118,4.118,0,0,1-4.121-4.122s-.061-6.02-.072-6.177v-.005h2.19v.005c.012.157.072,6.177.072,6.177a4.118,4.118,0,0,0,4.122,4.122Z" transform="translate(-154.546 -333.961)" fill="#2b597f"/>
          <path id="Trazado_911994" data-name="Trazado 911994" d="M296.417,417.765h-3.284a.966.966,0,1,1,0-1.932h3.274l.005.966Z" transform="translate(-251.737 -362.275)" fill="#2b597f"/>
          <path id="Trazado_911995" data-name="Trazado 911995" d="M192.731,416.8a.966.966,0,0,1-.966.966H181.009l-.022-1.932h10.778A.966.966,0,0,1,192.731,416.8Z" transform="translate(-154.877 -362.275)" fill="#2b597f"/>
          <path id="Trazado_911996" data-name="Trazado 911996" d="M129.121,90.487h0c-9.947-.153-18.312,8.517-18.133,18.391a18.475,18.475,0,0,0,5.228,12.925c1.9,1.959,3.554,3.77,3.736,6.4l18.584.031c.1-2.707,1.643-4.536,3.561-6.539a18.473,18.473,0,0,0,5.124-12.817,18.255,18.255,0,0,0-18.1-18.391Z" transform="translate(-93.891 -78.83)" fill="#fad207"/>
          <path id="Trazado_911997" data-name="Trazado 911997" d="M138.535,128.232v0l-18.584-.031c-.183-2.63-1.832-4.441-3.736-6.4a18.475,18.475,0,0,1-5.228-12.925c-.179-9.875,8.186-18.544,18.133-18.391q.481,0,.957.026a18.478,18.478,0,0,0-11.673,31.29c1.9,1.959,3.554,3.77,3.736,6.4Z" transform="translate(-93.89 -78.833)" fill="#faa515"/>
          <path id="Trazado_911998" data-name="Trazado 911998" d="M188.523,207.52a2.125,2.125,0,0,1-1.6.82l-.079,0a2.125,2.125,0,0,1-1.576-.7l-6.053-6.7a2.125,2.125,0,0,1,3.153-2.85l4.353,4.816,6.946-8.945a2.125,2.125,0,1,1,3.357,2.607Z" transform="translate(-152.855 -168.267)" fill="#faa515"/>
        </g>
      </g>
    </g>
  </g>
</svg>
