<svg xmlns="http://www.w3.org/2000/svg" xmlns:xlink="http://www.w3.org/1999/xlink" width="295" height="163.946" viewBox="0 0 295 163.946">
  <defs>
    <clipPath id="clip-path">
      <rect id="Rectángulo_410386" data-name="Rectángulo 410386" width="254.469" height="159.668" fill="none"/>
    </clipPath>
    <clipPath id="clip-path-3">
      <rect id="Rectángulo_410365" data-name="Rectángulo 410365" width="54.964" height="47.551" fill="none"/>
    </clipPath>
    <clipPath id="clip-path-4">
      <rect id="Rectángulo_410366" data-name="Rectángulo 410366" width="24.784" height="9.816" fill="none"/>
    </clipPath>
    <clipPath id="clip-path-5">
      <rect id="Rectángulo_410369" data-name="Rectángulo 410369" width="112.289" height="53.948" rx="10.68" fill="none"/>
    </clipPath>
  </defs>
  <g id="Grupo_1121564" data-name="Grupo 1121564" transform="translate(-285.332 -3600.509)">
    <rect id="Rectángulo_401121" data-name="Rectángulo 401121" width="295" height="112.187" rx="30" transform="translate(285.332 3652.269)" fill="#bfc9ff"/>
    <g id="Grupo_1122086" data-name="Grupo 1122086" transform="translate(309.72 3600.509)">
      <g id="Grupo_1122085" data-name="Grupo 1122085" clip-path="url(#clip-path)">
        <g id="Grupo_1122080" data-name="Grupo 1122080">
          <g id="Grupo_1122079" data-name="Grupo 1122079" clip-path="url(#clip-path)">
            <path id="Trazado_911474" data-name="Trazado 911474" d="M5.034,175.993h56.06c-.3-3.891-5.014-5.987-9.6-4.24-1.075-5.1-6.593-6.584-10.175-3-3.248-5.809-13.257-5.1-14.762.978-4.944-4.611-11.036-2.864-13.687,2.864-4.725-.72-7.309.21-7.836,3.4" transform="translate(-2.494 -81.632)" fill="#f1f8e9"/>
            <path id="Trazado_911475" data-name="Trazado 911475" d="M224.38,55.831h63.472c-.345-4.406-5.676-6.779-10.869-4.8-1.217-5.774-7.464-7.453-11.521-3.4-3.678-6.577-15.01-5.774-16.714,1.108-5.6-5.221-12.494-3.244-15.5,3.243-5.35-.815-8.275.238-8.873,3.852" transform="translate(-111.173 -21.36)" fill="#dcedc8"/>
            <path id="Trazado_911476" data-name="Trazado 911476" d="M407.03,232.832h49.108c-.267-3.409-4.392-5.245-8.41-3.714a5.122,5.122,0,0,0-8.914-2.632c-2.845-5.089-11.613-4.467-12.931.857-4.331-4.039-9.667-2.509-11.99,2.509-4.139-.631-6.4.184-6.865,2.98" transform="translate(-201.669 -110.484)" fill="#f1f8e9"/>
            <path id="Trazado_911477" data-name="Trazado 911477" d="M35.065,267.033H89.037a.957.957,0,0,0,.957-.957V218.655a.957.957,0,0,0-.957-.957H35.065a1.819,1.819,0,0,0-1.819,1.819v45.7a1.819,1.819,0,0,0,1.819,1.819" transform="translate(-16.472 -107.862)" fill="#8a6a46"/>
            <g id="Grupo_1122075" data-name="Grupo 1122075" transform="translate(17.666 110.728)" style="mix-blend-mode: screen;isolation: isolate">
              <g id="Grupo_1122074" data-name="Grupo 1122074">
                <g id="Grupo_1122073" data-name="Grupo 1122073" clip-path="url(#clip-path-3)">
                  <path id="Trazado_911478" data-name="Trazado 911478" d="M142.654,312.6H141.9a.189.189,0,1,1,0-.377h.567v-.566a.189.189,0,0,1,.377,0v.755a.189.189,0,0,1-.189.189" transform="translate(-87.878 -265.05)" fill="#75676a"/>
                  <path id="Trazado_911479" data-name="Trazado 911479" d="M143.4,266.976a.188.188,0,0,1-.189-.189v-1.473a.189.189,0,0,1,.377,0v1.473a.189.189,0,0,1-.189.189m0-2.946a.188.188,0,0,1-.189-.189v-1.473a.189.189,0,1,1,.377,0v1.473a.189.189,0,0,1-.189.189m0-2.946a.188.188,0,0,1-.189-.189v-1.473a.189.189,0,0,1,.377,0V260.9a.189.189,0,0,1-.189.189m0-2.946a.188.188,0,0,1-.189-.189v-1.473a.189.189,0,1,1,.377,0v1.473a.189.189,0,0,1-.189.189m0-2.945a.188.188,0,0,1-.189-.189V253.53a.189.189,0,0,1,.377,0V255a.189.189,0,0,1-.189.189m0-2.946a.188.188,0,0,1-.189-.189v-1.473a.189.189,0,1,1,.377,0v1.473a.189.189,0,0,1-.189.189m0-2.946a.188.188,0,0,1-.189-.189v-1.473a.189.189,0,0,1,.377,0v1.473a.189.189,0,0,1-.189.189m0-2.946a.188.188,0,0,1-.189-.189v-1.473a.189.189,0,0,1,.377,0v1.473a.189.189,0,0,1-.189.189m0-2.946a.188.188,0,0,1-.189-.189v-1.473a.189.189,0,1,1,.377,0v1.473a.189.189,0,0,1-.189.189m0-2.946a.188.188,0,0,1-.189-.189V238.8a.189.189,0,0,1,.377,0v1.473a.189.189,0,0,1-.189.189m0-2.946a.188.188,0,0,1-.189-.189v-1.473a.189.189,0,1,1,.377,0v1.473a.189.189,0,0,1-.189.189m0-2.946a.188.188,0,0,1-.189-.189v-1.473a.189.189,0,1,1,.377,0v1.473a.189.189,0,0,1-.189.189m0-2.946a.188.188,0,0,1-.189-.189v-1.473a.189.189,0,1,1,.377,0v1.473a.189.189,0,0,1-.189.189m0-2.946a.188.188,0,0,1-.189-.189v-1.473a.189.189,0,1,1,.377,0v1.473a.189.189,0,0,1-.189.189m0-2.947a.188.188,0,0,1-.189-.189V224.07a.189.189,0,1,1,.377,0v1.473a.189.189,0,0,1-.189.189" transform="translate(-88.62 -221.653)" fill="#75676a"/>
                  <path id="Trazado_911480" data-name="Trazado 911480" d="M142.654,220.6a.188.188,0,0,1-.189-.189v-.566H141.9a.189.189,0,1,1,0-.377h.755a.189.189,0,0,1,.189.189v.755a.189.189,0,0,1-.189.189" transform="translate(-87.878 -219.465)" fill="#75676a"/>
                  <path id="Trazado_911481" data-name="Trazado 911481" d="M87.533,267.016h-1.5a.189.189,0,0,1,0-.377h1.5a.189.189,0,0,1,0,.377m-2.994,0h-1.5a.189.189,0,0,1,0-.377h1.5a.189.189,0,0,1,0,.377m-2.994,0h-1.5a.189.189,0,0,1,0-.377h1.5a.189.189,0,0,1,0,.377m-2.994,0h-1.5a.189.189,0,0,1,0-.377h1.5a.189.189,0,0,1,0,.377m-2.994,0h-1.5a.189.189,0,1,1,0-.377h1.5a.189.189,0,0,1,0,.377m-2.994,0h-1.5a.189.189,0,0,1,0-.377h1.5a.189.189,0,0,1,0,.377m-2.994,0h-1.5a.189.189,0,0,1,0-.377h1.5a.189.189,0,0,1,0,.377m-2.994,0h-1.5a.189.189,0,0,1,0-.377h1.5a.189.189,0,0,1,0,.377m-2.994,0h-1.5a.189.189,0,0,1,0-.377h1.5a.189.189,0,0,1,0,.377m-2.994,0h-1.5a.189.189,0,0,1,0-.377h1.5a.189.189,0,0,1,0,.377m-2.994,0h-1.5a.189.189,0,0,1,0-.377h1.5a.189.189,0,0,1,0,.377m-2.994,0H53.1a.189.189,0,0,1,0-.377h1.5a.189.189,0,0,1,0,.377m-2.994,0h-1.5a.189.189,0,0,1,0-.377h1.5a.189.189,0,0,1,0,.377m-2.994,0h-1.5a.189.189,0,0,1,0-.377h1.5a.189.189,0,0,1,0,.377m-2.994,0h-1.5a.189.189,0,0,1,0-.377h1.5a.189.189,0,0,1,0,.377m-2.994,0h-1.5a.189.189,0,0,1,0-.377h1.5a.189.189,0,0,1,0,.377m-2.994,0h-1.5a.189.189,0,0,1,0-.377h1.5a.189.189,0,0,1,0,.377m-2.994,0h-.691a.925.925,0,0,1-.823-.5.189.189,0,1,1,.335-.175.549.549,0,0,0,.488.3h.691a.189.189,0,0,1,0,.377m-1.43-1.881a.188.188,0,0,1-.189-.188v-1.5a.189.189,0,0,1,.377,0v1.5a.188.188,0,0,1-.189.188m0-2.994a.188.188,0,0,1-.189-.189v-1.5a.189.189,0,0,1,.377,0v1.5a.188.188,0,0,1-.189.189m0-2.994a.188.188,0,0,1-.189-.189v-1.5a.189.189,0,0,1,.377,0v1.5a.188.188,0,0,1-.189.189m0-2.994a.188.188,0,0,1-.189-.189v-1.5a.189.189,0,0,1,.377,0v1.5a.188.188,0,0,1-.189.189m0-2.994a.188.188,0,0,1-.189-.189v-1.5a.189.189,0,0,1,.377,0v1.5a.188.188,0,0,1-.189.189m0-2.994a.188.188,0,0,1-.189-.189v-1.5a.189.189,0,0,1,.377,0v1.5a.188.188,0,0,1-.189.189m0-2.994a.188.188,0,0,1-.189-.189v-1.5a.189.189,0,1,1,.377,0v1.5a.188.188,0,0,1-.189.189m0-2.994a.189.189,0,0,1-.189-.189v-1.5a.189.189,0,0,1,.377,0v1.5a.189.189,0,0,1-.189.189m0-2.994a.188.188,0,0,1-.189-.189v-1.5a.189.189,0,0,1,.377,0v1.5a.188.188,0,0,1-.189.189m0-2.994a.188.188,0,0,1-.189-.189v-1.5a.189.189,0,1,1,.377,0V238a.188.188,0,0,1-.189.189m0-2.994a.188.188,0,0,1-.189-.189v-1.5a.189.189,0,1,1,.377,0V235a.188.188,0,0,1-.189.189m0-2.994a.188.188,0,0,1-.189-.189v-1.5a.189.189,0,1,1,.377,0v1.5a.188.188,0,0,1-.189.189m0-2.994a.188.188,0,0,1-.189-.189v-1.5a.189.189,0,1,1,.377,0v1.5a.188.188,0,0,1-.189.189m0-2.994a.188.188,0,0,1-.189-.189v-1.5a.189.189,0,0,1,.377,0v1.5a.188.188,0,0,1-.189.189m0-2.994a.188.188,0,0,1-.189-.188v-1.5a.189.189,0,0,1,.377,0v1.5a.188.188,0,0,1-.189.188m.085-2.98a.185.185,0,0,1-.088-.022.189.189,0,0,1-.079-.255.927.927,0,0,1,.82-.494h.695a.189.189,0,0,1,0,.377h-.695a.549.549,0,0,0-.486.294.189.189,0,0,1-.168.1m52.25-.394h-1.5a.189.189,0,1,1,0-.377h1.5a.189.189,0,1,1,0,.377m-2.994,0h-1.5a.189.189,0,0,1,0-.377h1.5a.189.189,0,1,1,0,.377m-2.994,0h-1.5a.189.189,0,0,1,0-.377h1.5a.189.189,0,0,1,0,.377m-2.994,0h-1.5a.189.189,0,1,1,0-.377h1.5a.189.189,0,1,1,0,.377m-2.994,0h-1.5a.189.189,0,1,1,0-.377h1.5a.189.189,0,1,1,0,.377m-2.994,0h-1.5a.189.189,0,0,1,0-.377h1.5a.189.189,0,1,1,0,.377m-2.994,0h-1.5a.189.189,0,1,1,0-.377h1.5a.189.189,0,0,1,0,.377m-2.994,0h-1.5a.189.189,0,0,1,0-.377h1.5a.189.189,0,1,1,0,.377m-2.994,0h-1.5a.189.189,0,0,1,0-.377h1.5a.189.189,0,1,1,0,.377m-2.994,0h-1.5a.189.189,0,1,1,0-.377h1.5a.189.189,0,0,1,0,.377m-2.994,0H56.1a.189.189,0,1,1,0-.377h1.5a.189.189,0,0,1,0,.377m-2.994,0H53.1a.189.189,0,1,1,0-.377h1.5a.189.189,0,0,1,0,.377m-2.994,0h-1.5a.189.189,0,1,1,0-.377h1.5a.189.189,0,1,1,0,.377m-2.994,0h-1.5a.189.189,0,0,1,0-.377h1.5a.189.189,0,1,1,0,.377m-2.994,0h-1.5a.189.189,0,1,1,0-.377h1.5a.189.189,0,0,1,0,.377m-2.994,0h-1.5a.189.189,0,1,1,0-.377h1.5a.189.189,0,1,1,0,.377m-2.994,0h-1.5a.189.189,0,1,1,0-.377h1.5a.189.189,0,0,1,0,.377" transform="translate(-35.014 -219.465)" fill="#75676a"/>
                </g>
              </g>
            </g>
            <path id="Trazado_911482" data-name="Trazado 911482" d="M31.57,265.55H53.531a3.253,3.253,0,0,0,3.253-3.253V257.2a3.253,3.253,0,0,0-3.253-3.253H31.57a.7.7,0,0,0-.7.7v10.19a.7.7,0,0,0,.7.7" transform="translate(-15.293 -125.824)" fill="#8a6a46"/>
            <path id="Trazado_911483" data-name="Trazado 911483" d="M54.484,265.554H33.015a.226.226,0,1,1,0-.452H54.484a3.031,3.031,0,0,0,3.027-3.027v-5.092a3.031,3.031,0,0,0-3.027-3.028H33.015a.226.226,0,0,1,0-.453H54.484a3.484,3.484,0,0,1,3.48,3.48v5.092a3.484,3.484,0,0,1-3.48,3.479" transform="translate(-16.246 -125.602)" fill="#664634"/>
            <g id="Grupo_1122078" data-name="Grupo 1122078" transform="translate(15.816 129.018)" style="mix-blend-mode: screen;isolation: isolate">
              <g id="Grupo_1122077" data-name="Grupo 1122077">
                <g id="Grupo_1122076" data-name="Grupo 1122076" clip-path="url(#clip-path-4)">
                  <path id="Trazado_911484" data-name="Trazado 911484" d="M32.292,274.8h-.755a.189.189,0,0,1,0-.377h.755a.189.189,0,0,1,0,.377" transform="translate(-31.348 -264.987)" fill="#75676a"/>
                  <path id="Trazado_911485" data-name="Trazado 911485" d="M55.249,265.534H53.767a.189.189,0,0,1,0-.377h1.483a.189.189,0,0,1,0,.377m-2.966,0H50.8a.189.189,0,0,1,0-.377h1.483a.189.189,0,0,1,0,.377m-2.966,0H47.835a.189.189,0,0,1,0-.377h1.483a.189.189,0,0,1,0,.377m-2.966,0H44.87a.189.189,0,0,1,0-.377h1.483a.189.189,0,0,1,0,.377m-2.966,0H41.9a.189.189,0,0,1,0-.377h1.483a.189.189,0,0,1,0,.377m-2.966,0H38.938a.189.189,0,1,1,0-.377h1.483a.189.189,0,0,1,0,.377m-2.966,0H35.973a.189.189,0,0,1,0-.377h1.483a.189.189,0,0,1,0,.377m19.261-.133a.189.189,0,0,1-.065-.366,2,2,0,0,0,1.022-.848.189.189,0,1,1,.324.193,2.373,2.373,0,0,1-1.215,1.01.2.2,0,0,1-.065.011m1.425-2.356a.189.189,0,0,1-.189-.189v-1.483a.189.189,0,0,1,.377,0v1.483a.188.188,0,0,1-.189.189m0-2.966a.189.189,0,0,1-.189-.189v-1.483a.189.189,0,0,1,.377,0v1.483a.188.188,0,0,1-.189.189m-.3-2.912a.189.189,0,0,1-.163-.093,2,2,0,0,0-1.017-.855.189.189,0,1,1,.133-.354A2.384,2.384,0,0,1,58,256.883a.189.189,0,0,1-.162.285m-2.58-1.072H53.779a.189.189,0,1,1,0-.377h1.483a.189.189,0,1,1,0,.377m-2.966,0H50.813a.189.189,0,1,1,0-.377H52.3a.189.189,0,1,1,0,.377m-2.966,0H47.847a.189.189,0,1,1,0-.377H49.33a.189.189,0,1,1,0,.377m-2.966,0H44.882a.189.189,0,1,1,0-.377h1.483a.189.189,0,1,1,0,.377m-2.966,0H41.916a.189.189,0,1,1,0-.377H43.4a.189.189,0,1,1,0,.377m-2.966,0H38.95a.189.189,0,1,1,0-.377h1.483a.189.189,0,1,1,0,.377m-2.966,0H35.985a.189.189,0,1,1,0-.377h1.483a.189.189,0,1,1,0,.377" transform="translate(-33.546 -255.718)" fill="#75676a"/>
                  <path id="Trazado_911486" data-name="Trazado 911486" d="M32.292,256.1h-.755a.189.189,0,1,1,0-.377h.755a.189.189,0,1,1,0,.377" transform="translate(-31.348 -255.718)" fill="#75676a"/>
                </g>
              </g>
            </g>
            <path id="Trazado_911487" data-name="Trazado 911487" d="M65.04,262.274a2.981,2.981,0,1,0,2.981-2.981,2.981,2.981,0,0,0-2.981,2.981" transform="translate(-32.225 -128.471)" fill="#664634"/>
            <path id="Trazado_911488" data-name="Trazado 911488" d="M66.38,262.937a2.305,2.305,0,1,0,2.305-2.305,2.3,2.3,0,0,0-2.305,2.305" transform="translate(-32.889 -129.134)" fill="#f2e5dc"/>
            <path id="Rectángulo_410367" data-name="Rectángulo 410367" d="M18.522,0H121.183A18.522,18.522,0,0,1,139.7,18.522V92.944a18.523,18.523,0,0,1-18.523,18.523H18.522A18.522,18.522,0,0,1,0,92.945V18.522A18.522,18.522,0,0,1,18.522,0Z" transform="translate(55.194 42.591)" fill="#d4e157"/>
            <path id="Trazado_911489" data-name="Trazado 911489" d="M242.51,195.832H121.5a6.548,6.548,0,0,1-6.541-6.541V96.516a6.548,6.548,0,0,1,6.541-6.541H242.51a6.548,6.548,0,0,1,6.541,6.541v92.776a6.548,6.548,0,0,1-6.541,6.541M121.5,91.049a5.473,5.473,0,0,0-5.467,5.467v92.776a5.473,5.473,0,0,0,5.467,5.467H242.51a5.472,5.472,0,0,0,5.467-5.467V96.516a5.473,5.473,0,0,0-5.467-5.467Z" transform="translate(-56.956 -44.58)" fill="#fff"/>
          </g>
        </g>
        <g id="Grupo_1122082" data-name="Grupo 1122082" transform="translate(68.902 54.913)">
          <g id="Grupo_1122081" data-name="Grupo 1122081" clip-path="url(#clip-path-5)">
            <path id="Trazado_911490" data-name="Trazado 911490" d="M243.466,162.788H141.954a5.389,5.389,0,0,1-5.388-5.388V114.228a5.389,5.389,0,0,1,5.388-5.388H243.466a5.389,5.389,0,0,1,5.388,5.388V157.4a5.389,5.389,0,0,1-5.388,5.388" transform="translate(-136.566 -108.84)" fill="#fff"/>
            <path id="Trazado_911491" data-name="Trazado 911491" d="M148.512,162.844a.346.346,0,0,1-.346-.346V102.561a.346.346,0,1,1,.692,0V162.5a.346.346,0,0,1-.346.346" transform="translate(-142.313 -105.558)" fill="#d3dfed"/>
            <path id="Trazado_911492" data-name="Trazado 911492" d="M168.3,162.844a.346.346,0,0,1-.346-.346V102.561a.346.346,0,1,1,.692,0V162.5a.346.346,0,0,1-.346.346" transform="translate(-152.12 -105.558)" fill="#d3dfed"/>
            <path id="Trazado_911493" data-name="Trazado 911493" d="M188.118,162.844a.346.346,0,0,1-.347-.346V102.561a.346.346,0,0,1,.693,0V162.5a.346.346,0,0,1-.346.346" transform="translate(-161.936 -105.558)" fill="#d3dfed"/>
            <path id="Trazado_911494" data-name="Trazado 911494" d="M207.909,162.844a.346.346,0,0,1-.346-.346V102.561a.346.346,0,0,1,.693,0V162.5a.346.346,0,0,1-.347.346" transform="translate(-171.743 -105.558)" fill="#d3dfed"/>
            <path id="Trazado_911495" data-name="Trazado 911495" d="M227.7,162.844a.346.346,0,0,1-.346-.346V102.561a.346.346,0,1,1,.692,0V162.5a.346.346,0,0,1-.346.346" transform="translate(-181.549 -105.558)" fill="#d3dfed"/>
            <path id="Trazado_911496" data-name="Trazado 911496" d="M247.515,162.844a.346.346,0,0,1-.346-.346V102.561a.346.346,0,0,1,.693,0V162.5a.346.346,0,0,1-.347.346" transform="translate(-191.366 -105.558)" fill="#d3dfed"/>
            <path id="Trazado_911497" data-name="Trazado 911497" d="M267.307,162.844a.346.346,0,0,1-.346-.346V102.561a.346.346,0,0,1,.692,0V162.5a.346.346,0,0,1-.346.346" transform="translate(-201.172 -105.558)" fill="#d3dfed"/>
            <path id="Trazado_911498" data-name="Trazado 911498" d="M287.1,162.844a.346.346,0,0,1-.346-.346V102.561a.346.346,0,1,1,.692,0V162.5a.346.346,0,0,1-.346.346" transform="translate(-210.979 -105.558)" fill="#d3dfed"/>
            <path id="Trazado_911499" data-name="Trazado 911499" d="M306.893,162.844a.346.346,0,0,1-.346-.346V102.561a.346.346,0,1,1,.692,0V162.5a.346.346,0,0,1-.346.346" transform="translate(-220.786 -105.558)" fill="#d3dfed"/>
            <path id="Trazado_911500" data-name="Trazado 911500" d="M326.707,162.844a.346.346,0,0,1-.346-.346V102.561a.346.346,0,1,1,.692,0V162.5a.346.346,0,0,1-.346.346" transform="translate(-230.603 -105.558)" fill="#d3dfed"/>
            <path id="Trazado_911501" data-name="Trazado 911501" d="M346.5,162.844a.346.346,0,0,1-.346-.346V102.561a.346.346,0,1,1,.692,0V162.5a.346.346,0,0,1-.346.346" transform="translate(-240.409 -105.558)" fill="#d3dfed"/>
            <path id="Trazado_911502" data-name="Trazado 911502" d="M248.534,201.906H131.982a.366.366,0,0,1,0-.732H248.534a.366.366,0,1,1,0,.732" transform="translate(-134.113 -154.588)" fill="#d3dfed"/>
            <path id="Trazado_911503" data-name="Trazado 911503" d="M248.534,182.107H131.982a.366.366,0,0,1,0-.732H248.534a.366.366,0,1,1,0,.732" transform="translate(-134.113 -144.779)" fill="#d3dfed"/>
            <path id="Trazado_911504" data-name="Trazado 911504" d="M248.534,162.31H131.982a.366.366,0,0,1,0-.733H248.534a.366.366,0,0,1,0,.733" transform="translate(-134.113 -134.969)" fill="#d3dfed"/>
            <path id="Trazado_911505" data-name="Trazado 911505" d="M248.534,142.511H131.982a.366.366,0,0,1,0-.732H248.534a.366.366,0,1,1,0,.732" transform="translate(-134.113 -125.16)" fill="#d3dfed"/>
            <path id="Trazado_911506" data-name="Trazado 911506" d="M248.534,122.713H131.982a.366.366,0,0,1,0-.732H248.534a.366.366,0,1,1,0,.732" transform="translate(-134.113 -115.351)" fill="#d3dfed"/>
          </g>
        </g>
        <g id="Grupo_1122084" data-name="Grupo 1122084">
          <g id="Grupo_1122083" data-name="Grupo 1122083" clip-path="url(#clip-path)">
            <path id="Trazado_911507" data-name="Trazado 911507" d="M155.092,245.235l-14.033-4.676a14.793,14.793,0,0,1,25.656-4.472Z" transform="translate(-69.89 -114.192)" fill="#679ed1"/>
            <path id="Trazado_911508" data-name="Trazado 911508" d="M154.348,250.528l11.443-9.372a14.791,14.791,0,1,1-25.858,6.061Z" transform="translate(-69.146 -119.485)" fill="#f76c59"/>
            <path id="Trazado_911509" data-name="Trazado 911509" d="M154.35,254.6l-4.8,13.989a14.792,14.792,0,0,1-9.033-19.217Z" transform="translate(-69.148 -123.555)" fill="#eda351"/>
            <path id="Trazado_911510" data-name="Trazado 911510" d="M149.239,169.063a.55.55,0,0,1-.283-1.022l8.217-4.916a.551.551,0,0,1,.557,0l8.065,4.65,14.883-11.7a.538.538,0,0,1,.412-.112.548.548,0,0,1,.368.215l7.693,10.266,12.793-20.843a.55.55,0,0,1,.844-.114l6.975,6.507,12.017-12.627a.549.549,0,0,1,.873.1l8.34,14.3,11.649-20.469a.55.55,0,1,1,.956.544l-12.121,21.3a.55.55,0,0,1-.475.278.536.536,0,0,1-.478-.273l-8.452-14.489-11.887,12.491a.549.549,0,0,1-.773.023l-6.881-6.42L189.664,167.7a.55.55,0,0,1-.909.042l-7.84-10.464-14.732,11.586a.55.55,0,0,1-.615.044l-8.108-4.675-7.939,4.75a.554.554,0,0,1-.282.078" transform="translate(-73.67 -65.903)" fill="#f76c59"/>
            <path id="Trazado_911511" data-name="Trazado 911511" d="M332.1,137.122a.552.552,0,0,1-.544-.629l.473-3.245-2.7,1.935a.55.55,0,1,1-.639-.895l3.755-2.687a.55.55,0,0,1,.864.527l-.66,4.522a.55.55,0,0,1-.543.471" transform="translate(-162.739 -65.154)" fill="#f76c59"/>
            <path id="Trazado_911512" data-name="Trazado 911512" d="M219.758,235.007a2.228,2.228,0,1,1-2.228-2.228,2.228,2.228,0,0,1,2.228,2.228" transform="translate(-106.675 -115.334)" fill="#f76c59"/>
            <path id="Trazado_911513" data-name="Trazado 911513" d="M219.758,257.544a2.228,2.228,0,1,1-2.228-2.228,2.228,2.228,0,0,1,2.228,2.228" transform="translate(-106.675 -126.501)" fill="#eda351"/>
            <path id="Trazado_911514" data-name="Trazado 911514" d="M219.758,280.082a2.228,2.228,0,1,1-2.228-2.227,2.227,2.227,0,0,1,2.228,2.227" transform="translate(-106.675 -137.668)" fill="#679ed1"/>
            <path id="Trazado_911515" data-name="Trazado 911515" d="M289.417,234.571H232.193a.608.608,0,1,1,0-1.216h57.224a.608.608,0,0,1,0,1.216" transform="translate(-114.742 -115.619)" fill="#fff"/>
            <path id="Trazado_911516" data-name="Trazado 911516" d="M289.417,257.109H232.193a.608.608,0,0,1,0-1.216h57.224a.608.608,0,0,1,0,1.216" transform="translate(-114.742 -126.786)" fill="#fff"/>
            <path id="Trazado_911517" data-name="Trazado 911517" d="M289.417,279.646H232.193a.608.608,0,1,1,0-1.216h57.224a.608.608,0,0,1,0,1.216" transform="translate(-114.742 -137.953)" fill="#fff"/>
            <path id="Trazado_911518" data-name="Trazado 911518" d="M282.222,239.788H232.193a.608.608,0,1,1,0-1.216h50.029a.608.608,0,1,1,0,1.216" transform="translate(-114.742 -118.204)" fill="#fff"/>
            <path id="Trazado_911519" data-name="Trazado 911519" d="M256.1,262.326h-23.9a.608.608,0,0,1,0-1.216h23.9a.608.608,0,1,1,0,1.216" transform="translate(-114.743 -129.371)" fill="#fff"/>
            <path id="Trazado_911520" data-name="Trazado 911520" d="M270.663,284.863h-38.47a.608.608,0,1,1,0-1.216h38.47a.608.608,0,1,1,0,1.216" transform="translate(-114.742 -140.538)" fill="#fff"/>
            <path id="Trazado_911521" data-name="Trazado 911521" d="M213.486,170.412a1.623,1.623,0,1,1-1.623-1.623,1.623,1.623,0,0,1,1.623,1.623" transform="translate(-104.167 -83.629)" fill="#679ed1"/>
            <path id="Trazado_911522" data-name="Trazado 911522" d="M166.333,185.34a1.623,1.623,0,1,1-1.623-1.623,1.623,1.623,0,0,1,1.623,1.623" transform="translate(-80.804 -91.026)" fill="#679ed1"/>
            <path id="Trazado_911523" data-name="Trazado 911523" d="M253.563,149.005a1.623,1.623,0,1,1-1.623-1.623,1.623,1.623,0,0,1,1.623,1.623" transform="translate(-124.024 -73.023)" fill="#679ed1"/>
            <path id="Trazado_911524" data-name="Trazado 911524" d="M412,156.151l-.83-1.288.287-2.606-3.153.648-2.834,3.4,1.423.916Z" transform="translate(-200.895 -75.439)" fill="#d0766d"/>
            <path id="Trazado_911525" data-name="Trazado 911525" d="M395.514,163.493c-.123.235-1.831,3.512-1.852,4.291s1.119,2.306,1.905,1.832,3.307-5.413,3.307-5.413Z" transform="translate(-195.046 -81.005)" fill="#d0766d"/>
            <path id="Trazado_911526" data-name="Trazado 911526" d="M419.963,241.932a7.906,7.906,0,0,1-.251-.969c-.05-.35-.616-4.676-.616-4.676l-2.176.436.842,3.94-.122,1.734Z" transform="translate(-206.57 -117.072)" fill="#d0766d"/>
            <path id="Trazado_911527" data-name="Trazado 911527" d="M389.765,241.719a20.537,20.537,0,0,0,.757-2.032c.05-.35.342-3.4.342-3.4l2.176.436-.8,3.648.076,2.026Z" transform="translate(-193.115 -117.072)" fill="#d0766d"/>
            <path id="Trazado_911528" data-name="Trazado 911528" d="M384.278,247.461a1.757,1.757,0,0,1,.359-.642c.193-.141,1.54-.333,1.81-.5a4.258,4.258,0,0,0,.737-.853.2.2,0,0,1,.163-.084h.8a.2.2,0,0,1,.2.228c-.014.1-.012.2.041.234a1.507,1.507,0,0,0,.718.038c.114-.024.412-.3.488-.269a4.678,4.678,0,0,1,.181,1.835Z" transform="translate(-190.397 -121.578)" fill="#d4e157"/>
            <path id="Trazado_911529" data-name="Trazado 911529" d="M389.652,249.859H384.2a.1.1,0,0,1-.1-.1v-.243a.1.1,0,0,1,.1-.1h5.456a.1.1,0,0,1,.1.1v.243a.1.1,0,0,1-.1.1" transform="translate(-190.307 -123.578)" fill="#3c4357"/>
            <path id="Trazado_911530" data-name="Trazado 911530" d="M422.115,247.567a2.96,2.96,0,0,0-.315-.775c-.14-.141-.836-.294-1.032-.461-.156-.133-.1-.668-.2-.872a.14.14,0,0,0-.119-.085l-1.3,0c-.089,0-.12.109-.144.229a.851.851,0,0,1-.109.3.291.291,0,0,1-.3.081c-.083-.024-.3-.3-.356-.269a6.147,6.147,0,0,0-.084,1.822Z" transform="translate(-207.166 -121.574)" fill="#d4e157"/>
            <path id="Trazado_911531" data-name="Trazado 911531" d="M421.95,249.859h-3.923a.118.118,0,0,1-.118-.118v-.2a.118.118,0,0,1,.118-.118h3.923a.118.118,0,0,1,.118.118v.2a.118.118,0,0,1-.118.118" transform="translate(-207.06 -123.578)" fill="#3c4357"/>
            <path id="Trazado_911532" data-name="Trazado 911532" d="M391.174,211.636l4.508.425,1.6-12.306,1.379-5.372s1.525,4.864,1.525,5.082,2.763,12.711,2.763,12.711l4.569-.079s-1.307-8.93-1.6-9.728-1.379-5.954-1.525-6.317-1.017-11.689-1.017-11.689l-9.8-.581Z" transform="translate(-193.813 -91.058)" fill="#679ed1"/>
            <path id="Trazado_911533" data-name="Trazado 911533" d="M379.885,177.17s4.094-4.139,4.473-4.407,2.261-2.139,2.881-2.217,3.177.98,1.761,2.718-7.977,4.834-7.977,4.834Z" transform="translate(-188.22 -84.498)" fill="#d0766d"/>
            <path id="Trazado_911534" data-name="Trazado 911534" d="M397.078,162.426c.316-1.311,2.519-6.4,2.519-6.4l1.807-.318,1.045-.283a5.517,5.517,0,0,0,.665,1.992,7.852,7.852,0,0,0,1.488-.27l1.137-.354q.428-.151.87-.327l.635,1.18,2.34,2-3.619,8.757.362,1.3-.577.607-9.8-.581s.812-6,1.129-7.309" transform="translate(-196.179 -77.01)" fill="#749e96"/>
            <path id="Trazado_911535" data-name="Trazado 911535" d="M408.811,162.92a.225.225,0,1,0,.225-.225.225.225,0,0,0-.225.225" transform="translate(-202.552 -80.61)" fill="#4f6b66"/>
            <path id="Trazado_911536" data-name="Trazado 911536" d="M407.587,165.711a.225.225,0,1,0,.225-.225.225.225,0,0,0-.225.225" transform="translate(-201.946 -81.993)" fill="#4f6b66"/>
            <path id="Trazado_911537" data-name="Trazado 911537" d="M416.131,173.933c-.052.259-.775,3.884-.578,4.637s1.719,1.9,2.342,1.227,1.66-6.123,1.66-6.123Z" transform="translate(-205.876 -86.05)" fill="#d0766d"/>
            <path id="Trazado_911538" data-name="Trazado 911538" d="M406.941,158.356a.141.141,0,0,1-.137-.107,4.688,4.688,0,0,1-.117-1.851.14.14,0,0,1,.277.045,4.272,4.272,0,0,0,.084,1.618l.905-.118a.136.136,0,0,1,.157.121.14.14,0,0,1-.121.157l-1.031.134h-.018" transform="translate(-201.477 -77.432)" fill="#4f6b66"/>
            <path id="Trazado_911539" data-name="Trazado 911539" d="M415.17,170.991l.982-5.74,2.955-1.458s.809.8.757,1.317.152,6.64.152,6.64Z" transform="translate(-205.703 -81.154)" fill="#749e96"/>
            <path id="Trazado_911540" data-name="Trazado 911540" d="M398.475,164.725l1.866-5.516-1.865-2.587s-1.56.513-1.843.953c-.327.51-2.946,5.074-2.946,5.074Z" transform="translate(-195.058 -77.601)" fill="#749e96"/>
            <path id="Trazado_911541" data-name="Trazado 911541" d="M357.44,169.589l1.379-2.927,1.357-2.937,42.645,18.41a1.749,1.749,0,0,1,1.031,1.723,17.23,17.23,0,0,1-2.919,6.258,1.749,1.749,0,0,1-1.983.317Z" transform="translate(-177.099 -81.12)" fill="#b54043"/>
            <path id="Trazado_911542" data-name="Trazado 911542" d="M398.95,190.43a1.737,1.737,0,0,0,1.983-.312,17.261,17.261,0,0,0,2.92-6.261,1.757,1.757,0,0,0-1.031-1.728l-41.1-17.742-1.546-.664-1.359,2.935-1.375,2.927,1.5.758Z" transform="translate(-177.102 -81.119)" fill="#3c4357"/>
            <path id="Trazado_911543" data-name="Trazado 911543" d="M303.663,101.8a25.428,25.428,0,1,0,12.3,33.794,25.429,25.429,0,0,0-12.3-33.794m7.633,31.619a20.283,20.283,0,1,1-9.807-26.956,20.282,20.282,0,0,1,9.807,26.956" transform="translate(-132.527 -49.256)" fill="#3c4357"/>
            <path id="Trazado_911544" data-name="Trazado 911544" d="M360.422,171a.213.213,0,0,1-.117-.034.216.216,0,0,1-.065-.3,23.182,23.182,0,0,0,2.554-5.476.216.216,0,0,1,.412.128,23.556,23.556,0,0,1-2.6,5.582.215.215,0,0,1-.181.1" transform="translate(-178.47 -81.773)" fill="#5b6685"/>
            <path id="Trazado_911545" data-name="Trazado 911545" d="M296.442,150.215a21.873,21.873,0,1,1,7.472-1.326,21.752,21.752,0,0,1-7.472,1.326m.026-43.22a21.406,21.406,0,1,0,9.026,2.016,21.393,21.393,0,0,0-9.026-2.016" transform="translate(-136.069 -52.798)" fill="#5b6685"/>
            <path id="Trazado_911546" data-name="Trazado 911546" d="M400.535,186.545s4.882-3.278,5.3-3.486,2.345-1.972,2.97-1.957,2.992,1.447,1.332,2.952-8.613,3.58-8.613,3.58Z" transform="translate(-198.451 -89.73)" fill="#d0766d"/>
            <path id="Trazado_911547" data-name="Trazado 911547" d="M415.234,171.037l-.025,0a.14.14,0,0,1-.113-.163c.119-.657.716-3.948.829-4.173a13.343,13.343,0,0,1,2.12-1.472.14.14,0,1,1,.146.24,16.459,16.459,0,0,0-2.018,1.362c-.076.178-.532,2.605-.8,4.093a.14.14,0,0,1-.138.115" transform="translate(-205.665 -81.854)" fill="#4f6b66"/>
            <path id="Trazado_911548" data-name="Trazado 911548" d="M398.122,165.659a.14.14,0,0,1-.137-.173c.432-1.809,1.076-4.559,1.1-4.788a.14.14,0,0,1,.273-.051,43.551,43.551,0,0,1-1.1,4.9.141.141,0,0,1-.137.107" transform="translate(-197.186 -79.548)" fill="#4f6b66"/>
            <path id="Trazado_911549" data-name="Trazado 911549" d="M406.315,163.935a.135.135,0,0,1-.037-.005.14.14,0,0,1-.1-.173,15.55,15.55,0,0,1,1.3-3.042.14.14,0,1,1,.248.129,15.36,15.36,0,0,0-1.275,2.988.14.14,0,0,1-.135.1" transform="translate(-201.246 -79.591)" fill="#4f6b66"/>
            <path id="Trazado_911550" data-name="Trazado 911550" d="M406.822,207.809a.146.146,0,0,1-.138-.1l-2.259-6.716a.146.146,0,0,1,.277-.092l2.259,6.716a.146.146,0,0,1-.092.185.152.152,0,0,1-.046.008" transform="translate(-200.375 -99.49)" fill="#3f6991"/>
            <path id="Trazado_911551" data-name="Trazado 911551" d="M410.22,161.28a.141.141,0,0,1-.124-.075l-.442-.849a.14.14,0,1,1,.248-.129l.4.759a14.291,14.291,0,0,0,3.516-.945.14.14,0,0,1,.114.256,14.836,14.836,0,0,1-3.685.982l-.022,0" transform="translate(-202.961 -79.289)" fill="#4f6b66"/>
            <path id="Trazado_911552" data-name="Trazado 911552" d="M413.129,147.893c.278.043,1.776-1.365,1.776-1.365l-.039-1.28s.722-.945.611-1.165-.455-.3-.516-.432a9.142,9.142,0,0,1,.227-1.173c0-.192-.944-.786-1.146-.956s-.232-.606-.434-.712a8.08,8.08,0,0,0-1.73.159s-1.451-.437-1.668-.455a2.7,2.7,0,0,0-.814.3s.05.849-.307.791-1.132-.367-1.412.229.472,3.188.472,3.188,4.7,2.828,4.981,2.872" transform="translate(-201.958 -69.619)" fill="#101924"/>
            <path id="Trazado_911553" data-name="Trazado 911553" d="M412.88,147.9a2.813,2.813,0,0,1-.677,1.221,4.294,4.294,0,0,1-2.186.893,1.436,1.436,0,0,1-1.43-.616,13.318,13.318,0,0,1-.007-3.846c.078-.208.034-1.785.865-2.064s3.8-1.084,4.527-.516a2.951,2.951,0,0,1,.642,3.1,8.28,8.28,0,0,1-1.734,1.825" transform="translate(-202.365 -70.741)" fill="#d0766d"/>
            <path id="Trazado_911554" data-name="Trazado 911554" d="M412.951,149.222a11.543,11.543,0,0,1-.2-1.314,14.406,14.406,0,0,0-.254-1.48s-.521.566-.683.383a4.778,4.778,0,0,1-.283-1.288,3.171,3.171,0,0,1-1.115-.3,5.68,5.68,0,0,1-.55-1.631l-.872-.554s4.454-1.411,5.4-.689,1.274,2.929,1.235,3.005-1.751,2.538-1.751,2.538Z" transform="translate(-202.641 -70.427)" fill="#101924"/>
            <path id="Trazado_911555" data-name="Trazado 911555" d="M410.321,155.814a2.144,2.144,0,0,1-1.039-.257.1.1,0,1,1,.1-.171,2.133,2.133,0,0,0,1.755.079,1.642,1.642,0,0,0,1-1.014.1.1,0,0,1,.123-.063.1.1,0,0,1,.063.123,1.831,1.831,0,0,1-1.116,1.137,2.419,2.419,0,0,1-.883.167" transform="translate(-202.761 -76.491)" fill="#a64e46"/>
            <path id="Trazado_911556" data-name="Trazado 911556" d="M415.709,150.376s1.129-.6,1.264-.005-.891,1.738-1.314,1.627.05-1.622.05-1.622" transform="translate(-205.857 -74.374)" fill="#d0766d"/>
            <path id="Trazado_911557" data-name="Trazado 911557" d="M399.947,191.731c-.043.093-1.091,1.509-1.217,1.607a7.137,7.137,0,0,1-.96.509.544.544,0,0,1-.345-.084.477.477,0,0,1-.05-.107,2.836,2.836,0,0,1-.527.151,1.805,1.805,0,0,1-.328-.216,1.22,1.22,0,0,1-.324.043.393.393,0,0,1-.2-.312c.016-.082.306-.1.306-.1l.551-.336.628-.48-.821.44-.565.3a1.068,1.068,0,0,1-.3.064c-.067,0-.14-.092-.153-.159-.023-.114.266-.311.3-.339s.606-.37.606-.37l.667-.527s.552-.434.507-.486-.359.117-.479.177a2.373,2.373,0,0,1-.855.309c-.253-.015-.283-.141-.266-.195a5.932,5.932,0,0,1,.582-.37c.095-.072.435-.327.541-.39s1.785-.377,1.987-.42.738,1.252.717,1.3" transform="translate(-196.025 -94.354)" fill="#d0766d"/>
            <path id="Trazado_911558" data-name="Trazado 911558" d="M397.43,195.853a.1.1,0,0,1-.043-.186l.6-.291.774-.505a.1.1,0,0,1,.107.164l-.786.511-.606.3a.094.094,0,0,1-.043.01" transform="translate(-196.864 -96.544)" fill="#a64e46"/>
            <path id="Trazado_911559" data-name="Trazado 911559" d="M399.106,196.209a.1.1,0,0,1-.05-.182l.915-.539a.1.1,0,0,1,.134.035.1.1,0,0,1-.034.134l-.914.539a.1.1,0,0,1-.05.014" transform="translate(-197.695 -96.851)" fill="#a64e46"/>
            <path id="Trazado_911560" data-name="Trazado 911560" d="M375.272,184.743c-.074-.049-.177-.2-.3-.294a1.527,1.527,0,0,1-.211-.263.485.485,0,0,1-.1-.4c.027-.2.189-.574.27-.6a.373.373,0,0,1,.35.144c.02.043-.075.222-.075.222a1.7,1.7,0,0,1,.169-.26c.128-.005.37.055.415.214a1.66,1.66,0,0,1-.056.286,1.1,1.1,0,0,1,.1-.175.563.563,0,0,1,.483.224.777.777,0,0,1,.029.134.691.691,0,0,1,.534.252,4.1,4.1,0,0,1,.135.552,3.982,3.982,0,0,1,.481.252c-.087.087-.616.489-.734.4a2.792,2.792,0,0,0-.539-.194c-.036-.018-.3-.207-.4-.25a4.618,4.618,0,0,1-.552-.254" transform="translate(-185.626 -90.763)" fill="#d0766d"/>
            <path id="Trazado_911561" data-name="Trazado 911561" d="M378.054,185.828a.1.1,0,0,1-.087-.052l-.2-.376a.1.1,0,0,1-.012-.052l.034-.578a.1.1,0,0,1,.1-.092.1.1,0,0,1,.092.1l-.032.55.188.351a.1.1,0,0,1-.04.133.1.1,0,0,1-.046.011" transform="translate(-187.165 -91.502)" fill="#a64e46"/>
            <path id="Trazado_911562" data-name="Trazado 911562" d="M376.96,185.587a.1.1,0,0,1-.087-.053l-.282-.557a.1.1,0,0,1-.011-.049l.025-.555a.1.1,0,0,1,.1-.094.1.1,0,0,1,.094.1l-.024.53.271.534a.1.1,0,0,1-.043.132.1.1,0,0,1-.044.011" transform="translate(-186.582 -91.304)" fill="#a64e46"/>
            <path id="Trazado_911563" data-name="Trazado 911563" d="M375.848,185.121a.1.1,0,0,1-.086-.051l-.285-.516a.1.1,0,0,1-.013-.052l.027-.6a.1.1,0,0,1,.1-.094.1.1,0,0,1,.094.1l-.026.569.272.492a.1.1,0,0,1-.038.133.1.1,0,0,1-.047.012" transform="translate(-186.03 -91.073)" fill="#a64e46"/>
            <path id="Trazado_911564" data-name="Trazado 911564" d="M438.635,131.755c-9.477-7.8-14.87-19.366-16.059-34.45a41.335,41.335,0,0,1,32.119,0c-1.19,15.083-6.584,26.654-16.06,34.45" transform="translate(-209.372 -46.603)" fill="#b1c5de"/>
            <path id="Trazado_911565" data-name="Trazado 911565" d="M454.488,121.093c-.068-1.662-1.846-3.316-3.225-4.376v-5.424a3.362,3.362,0,0,1,1.045,3.229l1.816-.006c.032-2.471-.4-4.666-2.862-5.383v-1.607h-1.143v1.4q-.366-.035-.777-.037v-1.364H448.2v1.462a3.752,3.752,0,0,0-3.226,3.862c.037,1.62,1.326,2.855,2.657,3.777.2.137.381.261.569.388v5.477a3.628,3.628,0,0,1-1.007-3.206l-1.819-.076c-.563,3,.877,4.892,2.826,5.573v1.646h1.142v-1.393a5.366,5.366,0,0,0,.77.031c.008,0,.008,1.361.008,1.361h1.143V124.9a3.8,3.8,0,0,0,3.225-3.809M450.121,110.8v5.09c-.151-.1-.276-.186-.355-.241-.144-.1-.284-.2-.423-.3v-4.592a3.056,3.056,0,0,1,.777.038m-2.976,1.857a1.662,1.662,0,0,1,1.056-1.606v3.411a2.623,2.623,0,0,1-1.056-1.8m2.841,10.562a2.63,2.63,0,0,1-.642-.1v-5.334c.276.186.536.364.777.534v4.9c-.046,0-.092.006-.135,0m1.278-.368v-3.647a2.759,2.759,0,0,1,.969,1.43,1.958,1.958,0,0,1-.969,2.217" transform="translate(-220.469 -53.275)" fill="#647291"/>
            <path id="Trazado_911566" data-name="Trazado 911566" d="M440.908,130.915a.309.309,0,0,1-.209-.081c-7.655-7.036-12.209-17.051-13.535-29.767a.309.309,0,0,1,.2-.321,39.212,39.212,0,0,1,27.087,0,.309.309,0,0,1,.2.321c-1.326,12.714-5.879,22.729-13.534,29.767a.309.309,0,0,1-.209.081m-13.1-29.673c1.329,12.331,5.737,22.067,13.1,28.944,7.367-6.878,11.775-16.614,13.1-28.944a38.612,38.612,0,0,0-26.208,0" transform="translate(-211.645 -48.721)" fill="#647291"/>
            <path id="Trazado_911567" data-name="Trazado 911567" d="M130.908,216.985s-1.771-.06-1.89-.809a14.164,14.164,0,0,1,.21-2.633c.016-.383-.636-1.466-.353-2.342.294-.911,1.233-2.055,1.281-2.677s-.1-1.625.41-2.155,1.648-1.664,2.169-1.608,1.235.207,1.572-.009a2.526,2.526,0,0,1,2.2.416c.329.489.262,1.467.436,1.916s1.047,2.068.717,2.526c-.41.566-.07,1.912-.1,2.319-.029.437-.239,2.6-.84,2.786-.553.175-5.813,2.27-5.813,2.27" transform="translate(-63.818 -101.399)" fill="#323747"/>
            <path id="Trazado_911568" data-name="Trazado 911568" d="M137.591,218.068a5.955,5.955,0,0,1-.168-1.811l-2.3-1.648a21.23,21.23,0,0,1-.2,3.424,10.426,10.426,0,0,1-1.51,1.866c3.909,3.061,8.027,4.091,5.935-1.077a7.353,7.353,0,0,1-1.766-.754" transform="translate(-66.106 -106.331)" fill="#f28f7c"/>
            <path id="Trazado_911569" data-name="Trazado 911569" d="M137.835,216.269a2.291,2.291,0,0,0,1.776,1.536c0-.162-.007-.511-.01-.851Z" transform="translate(-68.293 -107.154)" fill="#d95b41"/>
            <path id="Trazado_911570" data-name="Trazado 911570" d="M137.8,206.408c-.806-.251-3.179-.169-3.3.989a3.282,3.282,0,0,0,1.13,3.153c.3,1.2,2.345,2.5,3.2,1.737a3.662,3.662,0,0,0,.548-2.789c-.173-.983,0-1.5-.136-1.979-.164-.577-.6-.851-1.439-1.11" transform="translate(-66.621 -102.211)" fill="#f28f7c"/>
            <path id="Trazado_911571" data-name="Trazado 911571" d="M137.817,205.771a8.064,8.064,0,0,1-.144,2.119c-.225.744-1,1.322-1.009,1.456s.275,1.123-.141,1.416-.608.258-.322,1,.838,1,.174,1.878-2.425.644-2.425.644l.18-7.82a8.613,8.613,0,0,1,3.687-.69" transform="translate(-66.368 -101.951)" fill="#323747"/>
            <path id="Trazado_911572" data-name="Trazado 911572" d="M138.889,225.185a3.3,3.3,0,0,0,2.235.874c1.07-.175,6.636-.078,7.594-.885a1.515,1.515,0,0,0-1.281-2.25c0,.152-5.5-.453-6.827-.079-1.357.383-1.721,2.339-1.721,2.339" transform="translate(-68.815 -110.351)" fill="#f28f7c"/>
            <path id="Trazado_911573" data-name="Trazado 911573" d="M146.774,229.088l2.124-.764a29.307,29.307,0,0,0,.521-5.711l-2.593-.1-2.164-.183Z" transform="translate(-71.675 -110.155)" fill="#b1c5de"/>
            <path id="Trazado_911574" data-name="Trazado 911574" d="M156.038,209.316l1.419.406s-.145,7.13-.418,8.23a1.235,1.235,0,0,1-2.37-.319c-.043-1.357,1.369-8.317,1.369-8.317" transform="translate(-76.633 -103.709)" fill="#f28f7c"/>
            <path id="Trazado_911575" data-name="Trazado 911575" d="M141.335,287.677c.04.173.2,9.25.2,9.25l1.571-.178,1.066-10.32Z" transform="translate(-70.027 -141.916)" fill="#f28f7c"/>
            <path id="Trazado_911576" data-name="Trazado 911576" d="M114.776,279.838c-.125.124-6.08,4.722-6.08,4.722l1.108,1.172,7.479-4.08Z" transform="translate(-53.855 -138.65)" fill="#f28f7c"/>
            <path id="Trazado_911577" data-name="Trazado 911577" d="M120.041,257.981s1.29-7.713,1.655-8.588,2.346-4.537,2.7-5.185l7.065,1.519c-.143.321-.233.514-.233.514s.44,24.376-.013,24.538a16.281,16.281,0,0,1-4.693.392c-.1-8.269-.267-15.93-.267-15.93a39.167,39.167,0,0,1-1.909,5.424c-.888,1.727-7.148,7.46-7.251,7.356a6.821,6.821,0,0,1-1.655-3.883c.026-.231,4.6-6.157,4.6-6.157" transform="translate(-57.194 -120.997)" fill="#5e2d37"/>
            <path id="Trazado_911578" data-name="Trazado 911578" d="M118.158,286.677a.139.139,0,0,1-.11-.053,10.479,10.479,0,0,1-1.466-3.4.14.14,0,0,1,.1-.174.138.138,0,0,1,.173.1,10.252,10.252,0,0,0,1.418,3.3.14.14,0,0,1-.025.2.134.134,0,0,1-.086.03" transform="translate(-57.759 -140.24)" fill="#401f25"/>
            <path id="Trazado_911579" data-name="Trazado 911579" d="M138.693,295.608q-.343,0-.714-.008a.14.14,0,0,1-.137-.143.141.141,0,0,1,.143-.137,12.407,12.407,0,0,0,3.908-.333.14.14,0,1,1,.1.262,10.507,10.507,0,0,1-3.3.359" transform="translate(-68.296 -146.152)" fill="#401f25"/>
            <path id="Trazado_911580" data-name="Trazado 911580" d="M129.188,236.649l2.142-4.454-.1-9.314.837-.459c1.143.437,5.964,3.485,3.972-.359l.961.133s.717.85.94,1.206a25.993,25.993,0,0,1,1.777,5.263,34.271,34.271,0,0,1-.754,4.233l.562,2.466c-2.675.794-6.906,1.941-10.332,1.285" transform="translate(-64.008 -110.025)" fill="#b1c5de"/>
            <path id="Trazado_911581" data-name="Trazado 911581" d="M136.089,261.566a.14.14,0,0,1-.135-.178l1.389-4.988a.139.139,0,0,1,.049-.074l1.063-.818a.14.14,0,1,1,.171.222l-1.026.79-1.376,4.943a.14.14,0,0,1-.135.1" transform="translate(-67.358 -126.581)" fill="#401f25"/>
            <path id="Trazado_911582" data-name="Trazado 911582" d="M140.1,246.072a.14.14,0,0,1-.027-.277,7.011,7.011,0,0,0,3.348-2,.14.14,0,0,1,.193.2,7.27,7.27,0,0,1-3.485,2.07.135.135,0,0,1-.028,0" transform="translate(-69.345 -120.773)" fill="#647291"/>
            <path id="Trazado_911583" data-name="Trazado 911583" d="M129.491,223.685a3.918,3.918,0,0,0-1.709,1.643c-.41,1.008-2.271,7.2-2.081,8.441.062.4,1.456,1.036,2.363-.406a58.99,58.99,0,0,0,2.53-6.98,3.764,3.764,0,0,0-1.1-2.7" transform="translate(-62.274 -110.828)" fill="#f28f7c"/>
            <path id="Trazado_911584" data-name="Trazado 911584" d="M125.974,230.46c1.978.05,3.895,2.526,4.459,1.958l1.333-6.217a14.266,14.266,0,0,0-2.133-2.517,3.57,3.57,0,0,0-1.559,1.18c-.351.69-2.1,5.6-2.1,5.6" transform="translate(-62.416 -110.828)" fill="#b1c5de"/>
            <path id="Trazado_911585" data-name="Trazado 911585" d="M143.395,305.967s.618,1.985.209,2.376-1.537-1.11-1.537-1.11l-.236-1.147Z" transform="translate(-70.272 -151.596)" fill="#f28f7c"/>
            <path id="Trazado_911586" data-name="Trazado 911586" d="M142.222,305.736s.4,1.52.546,1.863a17.422,17.422,0,0,1,.9,1.885.641.641,0,0,1-.946.346,14.25,14.25,0,0,1-2.2-2.2c-.032-.066-.055-.672-.167-.708s-.391.046-.48-.031a3.942,3.942,0,0,1-.609-1.1c.026-.145.5-.4.577-.473s.649-.52.649-.52a4.066,4.066,0,0,0,.114.62c.075.24,1.3,2.155,1.657,1.953s-.034-1.643-.034-1.643" transform="translate(-68.998 -151.021)" fill="#323747"/>
            <path id="Trazado_911587" data-name="Trazado 911587" d="M109.346,289.612s-1.544,1.38-2.059,1.158.391-1.88.391-1.88l.94-.685Z" transform="translate(-53.078 -142.796)" fill="#f28f7c"/>
            <path id="Trazado_911588" data-name="Trazado 911588" d="M107.557,288.775s-1.215.907-1.467,1.181a19.821,19.821,0,0,1-1.339,1.68.643.643,0,0,1-.688-.74,14.632,14.632,0,0,1,1.1-2.938c.047-.057.584-.323.573-.442s-.2-.345-.162-.46a3.953,3.953,0,0,1,.745-1.011c.141-.034.559.308.656.345s.65.3.65.3-.251.279-.437.445-1.475,2.008-1.15,2.261,1.516-.626,1.516-.626" transform="translate(-51.559 -141.724)" fill="#323747"/>
            <path id="Trazado_911589" data-name="Trazado 911589" d="M149.146,231.786a.143.143,0,0,1-.14-.154,4.843,4.843,0,0,0-.758-3.335.14.14,0,1,1,.237-.151,5.107,5.107,0,0,1,.8,3.515.14.14,0,0,1-.139.126" transform="translate(-73.441 -113.007)" fill="#647291"/>
            <path id="Trazado_911590" data-name="Trazado 911590" d="M135.333,235.783a.143.143,0,0,1-.139-.157l.676-5.246a.141.141,0,0,1,.157-.121.14.14,0,0,1,.121.156l-.676,5.246a.14.14,0,0,1-.139.122" transform="translate(-66.983 -114.085)" fill="#647291"/>
            <path id="Trazado_911591" data-name="Trazado 911591" d="M138.858,224.887c-.867,0-2.3-.568-4.4-1.73a.14.14,0,0,1,.136-.245c3.326,1.844,4.448,1.854,4.806,1.54.273-.243.23-.838-.128-1.721a.14.14,0,1,1,.26-.105c.418,1.033.435,1.7.054,2.037a1.062,1.062,0,0,1-.728.226" transform="translate(-66.584 -110.26)" fill="#647291"/>
            <path id="Trazado_911592" data-name="Trazado 911592" d="M121.276,226.6l-1.255.587s2.065,6.853,2.626,7.843a1.24,1.24,0,0,0,2.2-.949,81.368,81.368,0,0,0-3.576-7.482" transform="translate(-59.466 -112.273)" fill="#f28f7c"/>
            <path id="Trazado_911593" data-name="Trazado 911593" d="M120.036,225.117l-.64-.091a8.978,8.978,0,0,1-.7-1.726c.144-.221.37-.242.411-.336a1.3,1.3,0,0,1,.181-.358c.062-.044.251-.031.295-.092s.109-.242.174-.264a2.019,2.019,0,0,1,.42.051s.413-.367.456-.378a.942.942,0,0,1,.384.139,1.022,1.022,0,0,1,.066.22,1.456,1.456,0,0,1,.253.271c.036.083-.133.683-.118.777a1.94,1.94,0,0,1,.006.678c-.065.132-1.188,1.108-1.188,1.108" transform="translate(-58.807 -109.955)" fill="#f28f7c"/>
            <path id="Trazado_911594" data-name="Trazado 911594" d="M120.011,225.348a.079.079,0,0,1-.033-.007c-.047-.021-.3-.248-.277-.359,0-.017.016-.065.232-.282l-.046-.066-.409.014a.069.069,0,0,1-.075-.07.073.073,0,0,1,.07-.076l.449-.015a.079.079,0,0,1,.062.031l.1.148a.072.072,0,0,1-.009.094,3,3,0,0,0-.23.248.964.964,0,0,0,.17.188,3.688,3.688,0,0,0,.534-.418,3.836,3.836,0,0,0-.259-.722,4.044,4.044,0,0,0-.678.035.075.075,0,0,1-.08-.065.073.073,0,0,1,.065-.08c.7-.077.771-.016.794,0a2.71,2.71,0,0,1,.3.869,2.7,2.7,0,0,1-.628.514.152.152,0,0,1-.059.015" transform="translate(-59.161 -110.939)" fill="#d6634b"/>
            <path id="Trazado_911595" data-name="Trazado 911595" d="M120.793,224.72a.082.082,0,0,1-.034-.007.073.073,0,0,1-.038-.1.063.063,0,0,1,.07-.044,2.765,2.765,0,0,0,.52-.361,4.621,4.621,0,0,0-.328-.917,3.481,3.481,0,0,0-.616-.061.073.073,0,0,1-.07-.076.072.072,0,0,1,.073-.07,2,2,0,0,1,.713.1,3.241,3.241,0,0,1,.365,1.076,2.275,2.275,0,0,1-.6.44.152.152,0,0,1-.054.012" transform="translate(-59.603 -110.533)" fill="#d6634b"/>
            <path id="Trazado_911596" data-name="Trazado 911596" d="M121.735,224.28a.077.077,0,0,1-.035-.008.073.073,0,0,1-.038-.1.072.072,0,0,1,.074-.043,1.686,1.686,0,0,0,.533-.35,5.168,5.168,0,0,0-.338-.974,1.278,1.278,0,0,0-.343-.07.073.073,0,0,1-.065-.08.076.076,0,0,1,.08-.065,1.058,1.058,0,0,1,.429.111,3.885,3.885,0,0,1,.378,1.112c-.034.154-.5.4-.507.4a.43.43,0,0,1-.17.062" transform="translate(-60.211 -110.288)" fill="#d6634b"/>
            <path id="Trazado_911597" data-name="Trazado 911597" d="M122.9,223.519a.073.073,0,0,1-.035-.137.715.715,0,0,0,.237-.184,2.167,2.167,0,0,0-.046-.511.072.072,0,0,1,.059-.084.074.074,0,0,1,.084.06,1.882,1.882,0,0,1,.039.588c-.042.109-.243.226-.3.259a.073.073,0,0,1-.035.009" transform="translate(-60.858 -110.292)" fill="#d6634b"/>
            <path id="Trazado_911598" data-name="Trazado 911598" d="M157.286,208.492l.631-.142a9,9,0,0,0,.556-1.777c-.162-.209-.389-.211-.436-.3a1.3,1.3,0,0,0-.209-.342c-.066-.038-.253-.011-.3-.068s-.129-.232-.195-.249a2,2,0,0,0-.415.085s-.441-.333-.485-.341a.937.937,0,0,0-.372.17,1.017,1.017,0,0,0-.047.226,1.453,1.453,0,0,0-.231.291c-.029.085.188.67.181.764a1.932,1.932,0,0,0,.05.676c.075.127,1.273,1.009,1.273,1.009" transform="translate(-77.183 -101.748)" fill="#f28f7c"/>
            <path id="Trazado_911599" data-name="Trazado 911599" d="M158.666,208.616a.169.169,0,0,1-.052-.011,2.716,2.716,0,0,1-.667-.46,2.694,2.694,0,0,1,.231-.892c.021-.022.083-.087.791-.069a.073.073,0,0,1,.071.075.078.078,0,0,1-.075.071,3.2,3.2,0,0,0-.69.029,4.455,4.455,0,0,0-.189.732,3.693,3.693,0,0,0,.567.373,1.008,1.008,0,0,0,.154-.2c-.031-.036-.149-.142-.25-.227a.072.072,0,0,1-.017-.092l.091-.156a.073.073,0,0,1,.06-.036l.448-.021a.068.068,0,0,1,.076.07.072.072,0,0,1-.069.076l-.409.019-.04.069c.234.2.25.246.255.262.035.11-.2.357-.246.38a.081.081,0,0,1-.04.01" transform="translate(-78.255 -102.651)" fill="#d6634b"/>
            <path id="Trazado_911600" data-name="Trazado 911600" d="M157.99,208.009a.17.17,0,0,1-.047-.008,2.285,2.285,0,0,1-.635-.39,3.252,3.252,0,0,1,.276-1.1,2.007,2.007,0,0,1,.7-.159.075.075,0,0,1,.081.064.073.073,0,0,1-.064.081,3.03,3.03,0,0,0-.615.118,4.909,4.909,0,0,0-.246.934,2.737,2.737,0,0,0,.547.317.078.078,0,0,1,.073.038.073.073,0,0,1-.03.1.085.085,0,0,1-.042.01" transform="translate(-77.936 -102.239)" fill="#d6634b"/>
            <path id="Trazado_911601" data-name="Trazado 911601" d="M157.282,207.647a.48.48,0,0,1-.163-.047c-.005,0-.493-.207-.539-.359a3.856,3.856,0,0,1,.287-1.139,1.042,1.042,0,0,1,.419-.145.071.071,0,0,1,.085.058.073.073,0,0,1-.059.085,1.152,1.152,0,0,0-.339.1,5.085,5.085,0,0,0-.252,1,1.763,1.763,0,0,0,.558.3.072.072,0,0,1,.047.135.082.082,0,0,1-.042.011" transform="translate(-77.578 -102.044)" fill="#d6634b"/>
            <path id="Trazado_911602" data-name="Trazado 911602" d="M156.458,207a.069.069,0,0,1-.03-.007c-.063-.028-.272-.128-.323-.234a1.9,1.9,0,0,1-.009-.588.074.074,0,0,1,.079-.066.072.072,0,0,1,.066.079,2.224,2.224,0,0,0-.005.513.7.7,0,0,0,.252.164.073.073,0,0,1-.03.139" transform="translate(-77.331 -102.118)" fill="#d6634b"/>
            <path id="Trazado_911603" data-name="Trazado 911603" d="M128.372,238.819a.072.072,0,0,1-.069-.05,8.765,8.765,0,0,0-1.033-2.1.073.073,0,0,1,.122-.081,8.931,8.931,0,0,1,1.05,2.139.073.073,0,0,1-.046.092.072.072,0,0,1-.023,0" transform="translate(-63.052 -117.203)" fill="#d6634b"/>
            <path id="Trazado_911604" data-name="Trazado 911604" d="M89.586,109.257c.039.212,1,.361,1,.361a2.886,2.886,0,0,0,.744-.287,7.993,7.993,0,0,0,.2-1.749c-.05-.117-.1-.184-.215-.2a.951.951,0,0,1-.307-.043c-.087-.044-.172-.143-.265-.14a.654.654,0,0,1-.264-.015c-.064-.031-.13-.131-.214-.145-.1-.017-.2.034-.272.015s-.206-.144-.309-.156a.709.709,0,0,0-.3.1,15.67,15.67,0,0,0,.2,2.26" transform="translate(-44.278 -52.966)" fill="#f28f7c"/>
            <path id="Trazado_911605" data-name="Trazado 911605" d="M89.156,69.565a2.888,2.888,0,0,1-2.883-2.89l0-2.008a.27.27,0,0,1,.281-.28.28.28,0,0,1,.28.281l-.005,2.008a2.323,2.323,0,1,0,4.646.012L91.591,28.7a.28.28,0,1,1,.56,0l-.112,37.986a2.886,2.886,0,0,1-2.883,2.876" transform="translate(-42.745 -14.082)" fill="#323747"/>
            <path id="Trazado_911606" data-name="Trazado 911606" d="M65.754,35.269c-25.885-.063-32.177,17.54-32.177,17.54,5.833-1.473,14.4-.558,19.177,1.269A36.956,36.956,0,0,1,60.8,51.944c.483-.069.937-.121,1.391-.167.153-.016.307-.031.462-.044.349-.031.7-.054,1.047-.075.156-.009.309-.02.467-.027.493-.021.987-.034,1.481-.034.535,0,1.062.015,1.588.04.059,0,.116.008.174.011q.7.038,1.4.1l.183.019a36.743,36.743,0,0,1,9.662,2.37c4.785-1.8,13.358-2.678,19.183-1.177,0,0-6.206-17.632-32.091-17.7" transform="translate(-16.636 -17.474)" fill="#b1c5de"/>
            <path id="Trazado_911607" data-name="Trazado 911607" d="M71.244,53.792a.285.285,0,0,1-.054-.006.279.279,0,0,1-.22-.329c.143-.724,3.614-17.736,13.258-18.392a.283.283,0,0,1,.3.261.28.28,0,0,1-.26.3c-9.217.627-12.712,17.768-12.747,17.941a.28.28,0,0,1-.274.226" transform="translate(-35.16 -17.373)" fill="#647291"/>
            <path id="Trazado_911608" data-name="Trazado 911608" d="M110.053,53.856a.28.28,0,0,1-.275-.228c-.033-.173-3.445-17.331-12.659-18a.28.28,0,0,1,.041-.559c9.641.7,13.029,17.731,13.168,18.456a.28.28,0,0,1-.222.328.269.269,0,0,1-.053.005" transform="translate(-47.991 -17.374)" fill="#647291"/>
            <path id="Trazado_911609" data-name="Trazado 911609" d="M139.99,39.379h3.621L141.8,43.526Z" transform="translate(-69.36 -19.511)" fill="#323747"/>
            <rect id="Rectángulo_410370" data-name="Rectángulo 410370" width="1.291" height="5.973" transform="translate(71.795 14.231)" fill="#323747"/>
            <rect id="Rectángulo_410371" data-name="Rectángulo 410371" width="1.291" height="1.229" transform="translate(71.795 12.302)" fill="#323747"/>
            <rect id="Rectángulo_410372" data-name="Rectángulo 410372" width="1.291" height="1.229" transform="translate(71.795 10.393)" fill="#323747"/>
            <path id="Trazado_911610" data-name="Trazado 911610" d="M78.865,22.136h3.621l-1.811,4.147Z" transform="translate(-39.075 -10.968)" fill="#323747"/>
            <rect id="Rectángulo_410373" data-name="Rectángulo 410373" width="1.291" height="5.973" transform="translate(40.955 5.532)" fill="#323747"/>
            <rect id="Rectángulo_410374" data-name="Rectángulo 410374" width="1.291" height="1.229" transform="translate(40.955 3.602)" fill="#323747"/>
            <rect id="Rectángulo_410375" data-name="Rectángulo 410375" width="1.291" height="1.229" transform="translate(40.955 1.694)" fill="#323747"/>
            <path id="Trazado_911611" data-name="Trazado 911611" d="M51.037,46.024h3.621l-1.811,4.147Z" transform="translate(-25.287 -22.803)" fill="#323747"/>
            <rect id="Rectángulo_410376" data-name="Rectángulo 410376" width="1.291" height="5.973" transform="translate(26.915 17.584)" fill="#323747"/>
            <rect id="Rectángulo_410377" data-name="Rectángulo 410377" width="1.291" height="1.229" transform="translate(26.915 15.655)" fill="#323747"/>
            <rect id="Rectángulo_410378" data-name="Rectángulo 410378" width="1.291" height="1.229" transform="translate(26.915 13.746)" fill="#323747"/>
            <path id="Trazado_911612" data-name="Trazado 911612" d="M113.987,31.534h3.621L115.8,35.681Z" transform="translate(-56.477 -15.624)" fill="#323747"/>
            <rect id="Rectángulo_410379" data-name="Rectángulo 410379" width="1.291" height="5.973" transform="translate(58.675 10.273)" fill="#323747"/>
            <rect id="Rectángulo_410380" data-name="Rectángulo 410380" width="1.291" height="1.229" transform="translate(58.675 8.344)" fill="#323747"/>
            <rect id="Rectángulo_410381" data-name="Rectángulo 410381" width="1.291" height="1.229" transform="translate(58.675 6.435)" fill="#323747"/>
            <path id="Trazado_911613" data-name="Trazado 911613" d="M106.514,18.779h3.621l-1.811,4.147Z" transform="translate(-52.774 -9.304)" fill="#323747"/>
            <rect id="Rectángulo_410382" data-name="Rectángulo 410382" width="1.291" height="5.973" transform="translate(54.905 3.837)" fill="#323747"/>
            <rect id="Rectángulo_410383" data-name="Rectángulo 410383" width="1.291" height="1.229" transform="translate(54.905 1.908)" fill="#323747"/>
            <rect id="Rectángulo_410384" data-name="Rectángulo 410384" width="1.291" height="1.229" transform="translate(54.905)" fill="#323747"/>
            <path id="Trazado_911614" data-name="Trazado 911614" d="M85.9,117.637s1.038-2.33,1.245-3.122c.248-.947.77-4.241.77-4.241l1.491-.068s.262,7.781-.947,8.418-2.56-.987-2.56-.987" transform="translate(-42.558 -54.603)" fill="#f28f7c"/>
            <path id="Trazado_911615" data-name="Trazado 911615" d="M66.761,122.352l-2.145-.78-2.653.312-1.443.936s1.912,2.341,3.862,2.068,2.379-2.536,2.379-2.536" transform="translate(-29.985 -60.235)" fill="#f28f7c"/>
            <path id="Trazado_911616" data-name="Trazado 911616" d="M82.144,122.622c.157-.051,3.877-.6,4.45.311a1.419,1.419,0,0,1-.692,2.19,20.48,20.48,0,0,1-4.1.684Z" transform="translate(-40.53 -60.65)" fill="#f28f7c"/>
            <path id="Trazado_911617" data-name="Trazado 911617" d="M66.259,119.407l-.477-3.841-3.118.1.19,4.287Z" transform="translate(-31.048 -57.259)" fill="#f28f7c"/>
            <path id="Trazado_911618" data-name="Trazado 911618" d="M62.328,112.429c.149,1.083,2.533,1.987,3.609,1.346.619-.368.178-3.42.089-3.928-.079-.449-.541-1.978-1.067-2.136-.631-.189-4.325-.105-4.6,1.462a3,3,0,0,0,1.967,3.255" transform="translate(-29.882 -53.332)" fill="#f28f7c"/>
            <path id="Trazado_911619" data-name="Trazado 911619" d="M69.241,115.635c.015.058-.134.166-.16.173a2.461,2.461,0,0,0-.321.087c-.159.057-.41.432-.41.432a1.24,1.24,0,0,0,.747.087c.08.476.256.983.07,1.264-.429.648-3.075-.532-3.131-.646-.034-.063.043-.777.037-1.239a2.423,2.423,0,0,0-.086-.654l.732.023s.4.982.672,1.148.365-.46.627-.615a7.294,7.294,0,0,1,1.025-.428,1.211,1.211,0,0,1,.2.368" transform="translate(-32.694 -57.047)" fill="#323747"/>
            <path id="Trazado_911620" data-name="Trazado 911620" d="M60.884,112.614a4.175,4.175,0,0,1-.792-1.619c-.187-.73-1.582-2.5-1.37-3.728.067-.386,1.167-.578,1.287-.646a12.974,12.974,0,0,1,2.36-1.139,4.862,4.862,0,0,1,1.517.008c.195-.019.772-.369,1.023-.031a2.38,2.38,0,0,1,.265.935c.055.123.525.374.461.615s-.547.528-.946.588-1.486-.176-1.636.211c-.125.32.47.663.3.893s-.528.494-.555.667a3.978,3.978,0,0,0,.32.938l-1.8.226a5.089,5.089,0,0,1,.063.941c-.028.376-.309,1.1-.49,1.141" transform="translate(-29.084 -52.178)" fill="#323747"/>
            <path id="Trazado_911621" data-name="Trazado 911621" d="M64.006,113.392c-.414-.389-1.265-.412-1.2.227s1.069,1.649,1.509,1.3-.108-1.337-.3-1.522" transform="translate(-31.114 -56.045)" fill="#f28f7c"/>
            <path id="Trazado_911622" data-name="Trazado 911622" d="M81.215,211.437l.052,1.576,2.136-.021-.018-1.555Z" transform="translate(-40.239 -104.76)" fill="#ffedda"/>
            <path id="Trazado_911623" data-name="Trazado 911623" d="M86.42,214.837a1.757,1.757,0,0,0-.359-.642c-.193-.141-1.54-.333-1.81-.5a4.258,4.258,0,0,1-.737-.853.2.2,0,0,0-.163-.084h-.8a.2.2,0,0,0-.2.228c.014.1.012.2-.041.234a1.507,1.507,0,0,1-.718.038c-.114-.024-.412-.3-.488-.269a4.678,4.678,0,0,0-.181,1.835Z" transform="translate(-40.082 -105.414)" fill="#a9c4d3"/>
            <path id="Trazado_911624" data-name="Trazado 911624" d="M80.916,217.235h5.456a.1.1,0,0,0,.1-.1v-.243a.1.1,0,0,0-.1-.1H80.916a.1.1,0,0,0-.1.1v.243a.1.1,0,0,0,.1.1" transform="translate(-40.042 -107.414)" fill="#223952"/>
            <path id="Trazado_911625" data-name="Trazado 911625" d="M60.428,211.437l-.02,1.7,2.135.021.058-1.72Z" transform="translate(-29.93 -104.76)" fill="#ffedda"/>
            <path id="Trazado_911626" data-name="Trazado 911626" d="M57.059,214.943a2.96,2.96,0,0,1,.315-.775c.14-.141.836-.294,1.032-.461.156-.133.1-.668.2-.872a.14.14,0,0,1,.119-.085l1.3,0c.089,0,.12.109.144.229a.851.851,0,0,0,.109.3.291.291,0,0,0,.3.081c.083-.024.3-.3.356-.269a6.146,6.146,0,0,1,.084,1.822Z" transform="translate(-28.271 -105.41)" fill="#a9c4d3"/>
            <path id="Trazado_911627" data-name="Trazado 911627" d="M57.057,217.235H60.98a.118.118,0,0,0,.118-.118v-.2a.118.118,0,0,0-.118-.118H57.057a.118.118,0,0,0-.118.118v.2a.118.118,0,0,0,.118.118" transform="translate(-28.211 -107.414)" fill="#223952"/>
            <path id="Trazado_911628" data-name="Trazado 911628" d="M62.56,180.942a64.276,64.276,0,0,1,2.1-16,93.644,93.644,0,0,0,3.367,16h4.373c-.331-1.611-1.526-7.567-2.332-13.546-.868-6.436-1.21-12.939-1.21-13.081,0-.3-1.168-4.56-1.168-4.56l-8.355.769s-.795,4.7-.795,5.588c0,.835-.355,22.125-.337,24.83Z" transform="translate(-28.834 -74.199)" fill="#3c4357"/>
            <path id="Trazado_911629" data-name="Trazado 911629" d="M70.036,172.585a.114.114,0,0,1-.026,0,.14.14,0,0,1-.111-.163l1.672-8.8a.14.14,0,0,1,.275.052l-1.672,8.8a.141.141,0,0,1-.138.114" transform="translate(-34.631 -81.009)" fill="#5b6685"/>
            <path id="Trazado_911630" data-name="Trazado 911630" d="M50.159,143.219s.812,1.965,1.116,2.725a22.056,22.056,0,0,0,2.411,3.048l-1.09,1.171s-5.46-4.893-5.019-6.187,2.582-.757,2.582-.757" transform="translate(-23.56 -70.905)" fill="#f28f7c"/>
            <path id="Trazado_911631" data-name="Trazado 911631" d="M56.873,134.517a4.783,4.783,0,0,0-.1,1.081,11.424,11.424,0,0,0,.664,1.346l8.355-.769c.436-2.576.271-7.587-.076-7.9a54.454,54.454,0,0,1-1.447-5.726l-1.477-.2c.484,2.6-1.7,2.574-4.759.248l-3.653,2.318.546,5.865Z" transform="translate(-26.944 -60.619)" fill="#d4e157"/>
            <path id="Trazado_911632" data-name="Trazado 911632" d="M73.849,122.682s4.674-.138,4.8-.026c.328.3.1,6.139-.181,6.034l-4.751,2.116Z" transform="translate(-36.523 -60.75)" fill="#d4e157"/>
            <path id="Trazado_911633" data-name="Trazado 911633" d="M51.551,138.362c-.04.16-1.548,3.6-2.628,3.6a1.418,1.418,0,0,1-1.487-1.749,20.477,20.477,0,0,1,1.6-3.837Z" transform="translate(-23.494 -67.572)" fill="#f28f7c"/>
            <path id="Trazado_911634" data-name="Trazado 911634" d="M48.12,133.76s2.255-5.544,2.424-5.753a4.62,4.62,0,0,1,.735-.573s2.806,2.112,2.806,3.415-1.66,5.28-1.66,5.28a10.176,10.176,0,0,1-4.3-2.369" transform="translate(-23.842 -63.139)" fill="#d4e157"/>
            <path id="Trazado_911635" data-name="Trazado 911635" d="M57.4,136.421a.15.15,0,0,1-.039-.006.14.14,0,0,1-.1-.174c.01-.033.985-3.37,1.105-4.294.112-.857-1.252-2-1.265-2.011a.14.14,0,1,1,.179-.215c.061.05,1.5,1.252,1.365,2.262-.124.945-1.074,4.2-1.114,4.336a.141.141,0,0,1-.135.1" transform="translate(-28.27 -64.257)" fill="#b58d80"/>
            <path id="Trazado_911636" data-name="Trazado 911636" d="M76.961,134.98a.141.141,0,0,1-.14-.137l-.116-4.785a.14.14,0,0,1,.28-.007l.117,4.785a.141.141,0,0,1-.137.144Z" transform="translate(-38.005 -64.368)" fill="#b58d80"/>
            <path id="Trazado_911637" data-name="Trazado 911637" d="M77.5,133.884a.137.137,0,0,1-.042-.007.14.14,0,0,1-.092-.176l.858-2.745a.14.14,0,0,1,.267.084l-.858,2.745a.14.14,0,0,1-.134.1" transform="translate(-38.331 -64.836)" fill="#b58d80"/>
            <path id="Trazado_911638" data-name="Trazado 911638" d="M61.409,146.912a2.946,2.946,0,0,1-1.656-.485.14.14,0,0,1,.155-.234,2.668,2.668,0,0,0,1.5.438.14.14,0,1,1,0,.281" transform="translate(-29.575 -72.422)" fill="#b58d80"/>
            <path id="Trazado_911639" data-name="Trazado 911639" d="M60.627,152.833c0-.226-1.178-.658-1.491-.777.108.04.367.066.6.128a2.052,2.052,0,0,0,.6.142c.089-.012.137-.118.143-.189.028-.381-1.294-.611-1.467-.612a3.5,3.5,0,0,0-.691.189l.2-.426s.763-.49.6-.659c-.107-.107-.773.162-.877.227a5.436,5.436,0,0,0-.723,1.109c-.018.015-1.05-.78-1.05-.78l-.041,1.339s.149,1.031.566,1.352a.548.548,0,0,0,.786.046,3.049,3.049,0,0,1,.649-.28,1.6,1.6,0,0,1,.6.119,3.945,3.945,0,0,0,.625.228c.207.025.316-.047.33-.091.073-.227-.91-.66-1.266-.762.209.06.624.173.834.228a3.734,3.734,0,0,0,.632.2.178.178,0,0,0,.183-.162c.035-.232-1.5-.764-1.5-.764a6.085,6.085,0,0,1,.785.161c.326.093.674.273.865.223a.2.2,0,0,0,.117-.186" transform="translate(-27.958 -74.62)" fill="#f28f7c"/>
            <path id="Trazado_911640" data-name="Trazado 911640" d="M67.592,149.324a25.2,25.2,0,0,0,4.336,1.062c.806-.07.939-.559.939-.559l-.634-1.852Z" transform="translate(-33.49 -73.317)" fill="#d4e157"/>
            <path id="Trazado_911641" data-name="Trazado 911641" d="M89.911,109.052a2.467,2.467,0,0,0-.708-1.139s.011-.5-.083-.579-.323-.263-.339-.148c-.007.05,0,.241-.028.447-.032.259-.09.469-.093.537a2.517,2.517,0,0,0,.576,1.21Z" transform="translate(-43.927 -53.088)" fill="#f28f7c"/>
            <path id="Trazado_911642" data-name="Trazado 911642" d="M91.663,107.853s-.044.639-.2.69a.327.327,0,0,1-.244-.047.242.242,0,0,1-.089-.122.283.283,0,0,1-.244.07.38.38,0,0,1-.186-.2.276.276,0,0,1-.119.08.436.436,0,0,1-.229-.046.312.312,0,0,1-.134-.212.275.275,0,0,1-.2.012.308.308,0,0,1-.182-.177c-.028-.054-.169-.586-.169-.586Z" transform="translate(-44.428 -53.173)" fill="#f28f7c"/>
            <path id="Trazado_911643" data-name="Trazado 911643" d="M92.487,108.574a.075.075,0,0,1-.074-.077l.023-.675a.069.069,0,0,1,.077-.072.075.075,0,0,1,.072.077l-.023.675a.074.074,0,0,1-.074.072" transform="translate(-45.787 -53.386)" fill="#d6634b"/>
            <path id="Trazado_911644" data-name="Trazado 911644" d="M91.648,108.326a.074.074,0,0,1-.074-.074l0-.655a.074.074,0,0,1,.148,0l0,.655a.074.074,0,0,1-.074.074" transform="translate(-45.372 -53.274)" fill="#d6634b"/>
            <path id="Trazado_911645" data-name="Trazado 911645" d="M90.623,107.993a.074.074,0,0,1-.074-.07l-.036-.648a.074.074,0,0,1,.07-.078.067.067,0,0,1,.078.07l.036.648a.074.074,0,0,1-.07.078h0" transform="translate(-44.846 -53.111)" fill="#d6634b"/>
            <path id="Trazado_911646" data-name="Trazado 911646" d="M89.7,107.913a.076.076,0,0,1-.073-.085,1.484,1.484,0,0,0-.042-.485.075.075,0,0,1,.053-.091.073.073,0,0,1,.09.053,1.6,1.6,0,0,1,.045.545.074.074,0,0,1-.073.063" transform="translate(-44.386 -53.139)" fill="#d6634b"/>
            <path id="Trazado_911647" data-name="Trazado 911647" d="M90.578,110.108a.076.076,0,0,1-.073-.086,1.3,1.3,0,0,0-.3-.714.074.074,0,0,1,.117-.091,1.406,1.406,0,0,1,.33.829.074.074,0,0,1-.073.062" transform="translate(-44.685 -54.099)" fill="#d6634b"/>
            <path id="Trazado_911648" data-name="Trazado 911648" d="M375.455,253.008h27.137a.45.45,0,0,0,.45-.45V250.74a.45.45,0,0,0-.45-.45H375.455a.45.45,0,0,0-.45.45v1.818a.45.45,0,0,0,.45.45" transform="translate(-185.802 -124.01)" fill="#eda351"/>
            <path id="Trazado_911649" data-name="Trazado 911649" d="M372.727,258.57h27.137a.45.45,0,0,0,.451-.45V256.3a.451.451,0,0,0-.451-.45H372.727a.45.45,0,0,0-.45.45v1.818a.45.45,0,0,0,.45.45" transform="translate(-184.451 -126.766)" fill="#eda351"/>
            <path id="Trazado_911650" data-name="Trazado 911650" d="M400.134,255.856H373a.176.176,0,1,1,0-.352h27.137a.176.176,0,1,1,0,.352" transform="translate(-184.72 -126.594)" fill="#8a3519"/>
            <path id="Trazado_911651" data-name="Trazado 911651" d="M374.772,263.932h27.137a.45.45,0,0,0,.45-.45v-1.818a.45.45,0,0,0-.45-.45H374.772a.45.45,0,0,0-.45.45v1.818a.45.45,0,0,0,.45.45" transform="translate(-185.464 -129.423)" fill="#eda351"/>
            <path id="Trazado_911652" data-name="Trazado 911652" d="M402.178,261.219H375.041a.176.176,0,1,1,0-.352h27.137a.176.176,0,1,1,0,.352" transform="translate(-185.733 -129.251)" fill="#8a3519"/>
            <path id="Trazado_911653" data-name="Trazado 911653" d="M378.249,269.432h27.137a.45.45,0,0,0,.45-.45v-1.818a.45.45,0,0,0-.45-.45H378.249a.45.45,0,0,0-.45.45v1.818a.45.45,0,0,0,.45.45" transform="translate(-187.187 -132.148)" fill="#eda351"/>
            <path id="Trazado_911654" data-name="Trazado 911654" d="M405.655,266.719H378.518a.176.176,0,1,1,0-.352h27.137a.176.176,0,1,1,0,.352" transform="translate(-187.455 -131.976)" fill="#8a3519"/>
            <path id="Trazado_911655" data-name="Trazado 911655" d="M376.533,274.794H403.67a.45.45,0,0,0,.45-.45v-1.818a.45.45,0,0,0-.45-.45H376.533a.45.45,0,0,0-.45.45v1.818a.45.45,0,0,0,.45.45" transform="translate(-186.336 -134.805)" fill="#eda351"/>
            <path id="Trazado_911656" data-name="Trazado 911656" d="M403.939,272.081H376.8a.176.176,0,1,1,0-.352h27.137a.176.176,0,1,1,0,.352" transform="translate(-186.605 -134.632)" fill="#8a3519"/>
            <path id="Trazado_911657" data-name="Trazado 911657" d="M374.817,280.157h27.137a.45.45,0,0,0,.45-.45v-1.818a.45.45,0,0,0-.45-.45H374.817a.45.45,0,0,0-.45.45v1.818a.45.45,0,0,0,.45.45" transform="translate(-185.486 -137.462)" fill="#eda351"/>
            <path id="Trazado_911658" data-name="Trazado 911658" d="M402.223,277.442H375.086a.176.176,0,1,1,0-.352h27.137a.176.176,0,1,1,0,.352" transform="translate(-185.755 -137.289)" fill="#8a3519"/>
            <path id="Trazado_911659" data-name="Trazado 911659" d="M379.329,285.618h27.137a.45.45,0,0,0,.45-.45V283.35a.45.45,0,0,0-.45-.45H379.329a.45.45,0,0,0-.45.45v1.818a.45.45,0,0,0,.45.45" transform="translate(-187.722 -140.167)" fill="#eda351"/>
            <path id="Trazado_911660" data-name="Trazado 911660" d="M376.6,291.18h27.137a.45.45,0,0,0,.45-.45v-1.818a.45.45,0,0,0-.45-.45H376.6a.45.45,0,0,0-.45.45v1.818a.45.45,0,0,0,.45.45" transform="translate(-186.371 -142.923)" fill="#eda351"/>
            <path id="Trazado_911661" data-name="Trazado 911661" d="M404.008,288.466H376.871a.176.176,0,1,1,0-.352h27.137a.176.176,0,1,1,0,.352" transform="translate(-186.64 -142.751)" fill="#8a3519"/>
            <path id="Trazado_911662" data-name="Trazado 911662" d="M403.613,283.107H376.871a.176.176,0,1,1,0-.352h26.742a.176.176,0,1,1,0,.352" transform="translate(-186.64 -140.096)" fill="#8a3519"/>
            <path id="Trazado_911663" data-name="Trazado 911663" d="M378.646,296.542h27.137a.45.45,0,0,0,.45-.45v-1.818a.45.45,0,0,0-.45-.45H378.646a.45.45,0,0,0-.45.45v1.818a.45.45,0,0,0,.45.45" transform="translate(-187.383 -145.58)" fill="#eda351"/>
            <path id="Trazado_911664" data-name="Trazado 911664" d="M406.053,293.828H378.916a.176.176,0,1,1,0-.352h27.137a.176.176,0,1,1,0,.352" transform="translate(-187.653 -145.407)" fill="#8a3519"/>
            <path id="Trazado_911665" data-name="Trazado 911665" d="M382.123,302.042H409.26a.45.45,0,0,0,.45-.45v-1.818a.45.45,0,0,0-.45-.45H382.123a.45.45,0,0,0-.45.45v1.818a.45.45,0,0,0,.45.45" transform="translate(-189.106 -148.305)" fill="#eda351"/>
            <path id="Trazado_911666" data-name="Trazado 911666" d="M409.53,299.328H382.393a.176.176,0,1,1,0-.352H409.53a.176.176,0,1,1,0,.352" transform="translate(-189.375 -148.132)" fill="#8a3519"/>
            <path id="Trazado_911667" data-name="Trazado 911667" d="M380.407,307.4h27.137a.45.45,0,0,0,.45-.45v-1.818a.451.451,0,0,0-.45-.45H380.407a.45.45,0,0,0-.45.45v1.818a.45.45,0,0,0,.45.45" transform="translate(-188.256 -150.962)" fill="#eda351"/>
            <path id="Trazado_911668" data-name="Trazado 911668" d="M407.814,304.69H380.677a.176.176,0,1,1,0-.352h27.137a.176.176,0,1,1,0,.352" transform="translate(-188.525 -150.789)" fill="#8a3519"/>
            <path id="Trazado_911669" data-name="Trazado 911669" d="M378.691,312.766h27.137a.45.45,0,0,0,.45-.45V310.5a.45.45,0,0,0-.45-.45H378.691a.45.45,0,0,0-.45.45v1.818a.45.45,0,0,0,.45.45" transform="translate(-187.406 -153.618)" fill="#eda351"/>
            <path id="Trazado_911670" data-name="Trazado 911670" d="M406.1,310.053H378.96a.176.176,0,1,1,0-.352H406.1a.176.176,0,1,1,0,.352" transform="translate(-187.675 -153.446)" fill="#8a3519"/>
            <path id="Trazado_911671" data-name="Trazado 911671" d="M351.24,285.618h27.137a.45.45,0,0,0,.45-.45V283.35a.45.45,0,0,0-.45-.45H351.24a.45.45,0,0,0-.45.45v1.818a.45.45,0,0,0,.45.45" transform="translate(-173.804 -140.167)" fill="#eda351"/>
            <path id="Trazado_911672" data-name="Trazado 911672" d="M348.513,291.18H375.65a.45.45,0,0,0,.45-.45v-1.818a.45.45,0,0,0-.45-.45H348.513a.45.45,0,0,0-.45.45v1.818a.45.45,0,0,0,.45.45" transform="translate(-172.453 -142.923)" fill="#eda351"/>
            <path id="Trazado_911673" data-name="Trazado 911673" d="M376.8,288.466H350.562a.176.176,0,0,1,0-.352H376.8a.176.176,0,1,1,0,.352" transform="translate(-173.604 -142.751)" fill="#8a3519"/>
            <path id="Trazado_911674" data-name="Trazado 911674" d="M350.557,296.542h27.137a.45.45,0,0,0,.45-.45v-1.818a.45.45,0,0,0-.45-.45H350.557a.45.45,0,0,0-.45.45v1.818a.45.45,0,0,0,.45.45" transform="translate(-173.466 -145.58)" fill="#eda351"/>
            <path id="Trazado_911675" data-name="Trazado 911675" d="M377.963,293.828H350.826a.176.176,0,1,1,0-.352h27.137a.176.176,0,1,1,0,.352" transform="translate(-173.735 -145.407)" fill="#8a3519"/>
            <path id="Trazado_911676" data-name="Trazado 911676" d="M354.034,302.042h27.137a.45.45,0,0,0,.45-.45v-1.818a.45.45,0,0,0-.45-.45H354.034a.45.45,0,0,0-.45.45v1.818a.45.45,0,0,0,.45.45" transform="translate(-175.189 -148.305)" fill="#eda351"/>
            <path id="Trazado_911677" data-name="Trazado 911677" d="M381.44,299.328H354.3a.176.176,0,1,1,0-.352H381.44a.176.176,0,1,1,0,.352" transform="translate(-175.458 -148.132)" fill="#8a3519"/>
            <path id="Trazado_911678" data-name="Trazado 911678" d="M352.318,307.4h27.137a.45.45,0,0,0,.45-.45v-1.818a.45.45,0,0,0-.45-.45H352.318a.45.45,0,0,0-.45.45v1.818a.45.45,0,0,0,.45.45" transform="translate(-174.339 -150.962)" fill="#eda351"/>
            <path id="Trazado_911679" data-name="Trazado 911679" d="M379.724,304.69H352.587a.176.176,0,1,1,0-.352h27.137a.176.176,0,1,1,0,.352" transform="translate(-174.608 -150.789)" fill="#8a3519"/>
            <path id="Trazado_911680" data-name="Trazado 911680" d="M350.6,312.766h27.137a.45.45,0,0,0,.45-.45V310.5a.45.45,0,0,0-.45-.45H350.6a.45.45,0,0,0-.45.45v1.818a.45.45,0,0,0,.45.45" transform="translate(-173.488 -153.618)" fill="#eda351"/>
            <path id="Trazado_911681" data-name="Trazado 911681" d="M378.008,310.053H350.871a.176.176,0,1,1,0-.352h27.137a.176.176,0,1,1,0,.352" transform="translate(-173.757 -153.446)" fill="#8a3519"/>
            <path id="Trazado_911682" data-name="Trazado 911682" d="M390.42,298.939a.175.175,0,0,1-.175-.175v-1.8a.267.267,0,0,0-.18-.251.175.175,0,0,1-.111-.2.3.3,0,0,1,.014-.042.176.176,0,0,1,.165-.116h.7a.273.273,0,0,0,.275-.271v-1.8a.27.27,0,0,0-.18-.251.175.175,0,0,1-.11-.2.247.247,0,0,1,.014-.041.175.175,0,0,1,.165-.117h.7a.273.273,0,0,0,.275-.271v-1.8a.268.268,0,0,0-.18-.251.175.175,0,0,1-.112-.2l-1.449.008a.175.175,0,0,1-.113-.309.266.266,0,0,0,.1-.2v-1.8a.268.268,0,0,0-.18-.251.176.176,0,0,1-.112-.2l-.663.008a.175.175,0,0,1-.139-.282.259.259,0,0,0,.062-.159v-1.8a.268.268,0,0,0-.18-.251.174.174,0,0,1-.11-.2.183.183,0,0,1,0-.169.166.166,0,0,1,.151-.088h1.244a.273.273,0,0,0,.275-.271v-1.8a.273.273,0,0,0-.275-.271H375.087a.175.175,0,0,1,0-.35h15.205a.623.623,0,0,1,.625.621v1.8a.623.623,0,0,1-.625.621h-.867a.607.607,0,0,1,.116.359v1.8a.557.557,0,0,1-.008.092h.414a.343.343,0,0,1,.336.267.612.612,0,0,1,.29.521v1.8a.607.607,0,0,1-.022.161H391.7a.343.343,0,0,1,.335.267.609.609,0,0,1,.29.521v1.8a.623.623,0,0,1-.625.621h-.3a.613.613,0,0,1,.057.259v1.8a.623.623,0,0,1-.625.621h-.3a.606.606,0,0,1,.057.259v1.8a.175.175,0,0,1-.175.175" transform="translate(-185.756 -140.099)" fill="#8a3519"/>
            <path id="Trazado_911683" data-name="Trazado 911683" d="M246.284,315.915H.281a.28.28,0,1,1,0-.561h246a.28.28,0,1,1,0,.561" transform="translate(0 -156.248)" fill="#3c4357"/>
          </g>
        </g>
      </g>
    </g>
  </g>
</svg>
