<svg xmlns="http://www.w3.org/2000/svg" xmlns:xlink="http://www.w3.org/1999/xlink" width="295.711" height="253.709" viewBox="0 0 295.711 253.709">
  <defs>
    <clipPath id="clip-path">
      <rect id="Rectángulo_410234" data-name="Rectángulo 410234" width="295" height="248.709" fill="none"/>
    </clipPath>
    <clipPath id="clip-path-3">
      <rect id="Rectángulo_410202" data-name="Rectángulo 410202" width="295" height="127.52" fill="none"/>
    </clipPath>
    <clipPath id="clip-path-4">
      <rect id="Rectángulo_410203" data-name="Rectángulo 410203" width="3.208" height="3.208" fill="none"/>
    </clipPath>
    <clipPath id="clip-path-5">
      <rect id="Rectángulo_410204" data-name="Rectángulo 410204" width="7.217" height="7.218" fill="none"/>
    </clipPath>
    <clipPath id="clip-path-6">
      <rect id="Rectángulo_410205" data-name="Rectángulo 410205" width="5.614" height="5.614" fill="none"/>
    </clipPath>
    <clipPath id="clip-path-10">
      <rect id="Rectángulo_410209" data-name="Rectángulo 410209" width="4.812" height="4.812" fill="none"/>
    </clipPath>
    <clipPath id="clip-path-11">
      <rect id="Rectángulo_410210" data-name="Rectángulo 410210" width="9.624" height="9.624" fill="none"/>
    </clipPath>
    <clipPath id="clip-path-14">
      <rect id="Rectángulo_410213" data-name="Rectángulo 410213" width="6.416" height="6.416" fill="none"/>
    </clipPath>
  </defs>
  <g id="Grupo_1121159" data-name="Grupo 1121159" transform="translate(-285 -2140.681)">
    <g id="Grupo_1119535" data-name="Grupo 1119535" transform="translate(285.711 2198.192)">
      <rect id="Rectángulo_401121" data-name="Rectángulo 401121" width="295" height="196.198" rx="30" fill="#f6f8de"/>
    </g>
    <g id="Grupo_1121638" data-name="Grupo 1121638" transform="translate(285 2140.681)">
      <g id="Grupo_1121637" data-name="Grupo 1121637" clip-path="url(#clip-path)">
        <g id="Grupo_1121634" data-name="Grupo 1121634">
          <g id="Grupo_1121633" data-name="Grupo 1121633" clip-path="url(#clip-path)">
            <g id="Grupo_1121599" data-name="Grupo 1121599" transform="translate(0 97.126)" opacity="0.54" style="mix-blend-mode: multiply;isolation: isolate">
              <g id="Grupo_1121598" data-name="Grupo 1121598">
                <g id="Grupo_1121597" data-name="Grupo 1121597" clip-path="url(#clip-path-3)">
                  <path id="Trazado_910556" data-name="Trazado 910556" d="M267.005,297.612q3.188,6.4,6.546,12.715,3.813,7.156,7.859,14.195a215.741,215.741,0,0,0-9.068,31.138l-25.49-.058a560.689,560.689,0,0,1,20.153-57.99" transform="translate(-109.064 -228.617)" fill="#bac36a"/>
                  <path id="Trazado_910557" data-name="Trazado 910557" d="M301.034,311.479q-1.189,2.844-2.3,5.719-7.483-13.052-14.14-26.554a.8.8,0,0,0-.222-.28q1.023-2.434,2.087-4.873,7.692,12.683,14.5,25.871a.9.9,0,0,0,.073.117" transform="translate(-125.642 -223.261)" fill="#bac36a"/>
                  <path id="Trazado_910558" data-name="Trazado 910558" d="M342.06,299.046a153.42,153.42,0,0,0-7.2,14.142c-1.806,4.272-3.385,8.92-3.332,13.616q-4.195-5.827-8.124-11.838-5.972-9.125-11.428-18.576a218.6,218.6,0,0,1,20.187-40.2,215.977,215.977,0,0,1,16-21.891c.028.006.054.014.084.017q5.842.609,11.643,1.548,4.564.743,9.089,1.695a26.761,26.761,0,0,1-3.456,7.4c-10.435,15.251,3.918,9.584,12.04,13.645a10.057,10.057,0,0,1,1.537.966c-6.087,2.407-11.2,6.562-15.834,11.106a121.341,121.341,0,0,0-21.206,28.374" transform="translate(-137.838 -200.644)" fill="#bac36a"/>
                  <path id="Trazado_910559" data-name="Trazado 910559" d="M301.022,357.6q1.376-4.289,2.932-8.518c5.872,10.081,12.152,19.926,18.97,29.387l-27.436-.063a213.571,213.571,0,0,1,5.534-20.807" transform="translate(-130.552 -251.355)" fill="#bac36a"/>
                  <path id="Trazado_910560" data-name="Trazado 910560" d="M379.041,216.425A212.856,212.856,0,0,1,397.516,197.2a37.218,37.218,0,0,1,1.524,22.4q-9.913-2.07-20-3.176" transform="translate(-167.468 -184.254)" fill="#bac36a"/>
                  <path id="Trazado_910561" data-name="Trazado 910561" d="M383.825,174.9c.264,2.329-1.795,4.777-4.254,4.413a4.011,4.011,0,0,1-3.066-4.963.908.908,0,0,0,.035-.209,18.62,18.62,0,0,1,7.293.529.82.82,0,0,0-.008.231" transform="translate(-166.284 -174.004)" fill="#bac36a"/>
                  <path id="Trazado_910562" data-name="Trazado 910562" d="M354.1,332.341c2.106-4.561,4.588-8.938,7.011-13.335a114.755,114.755,0,0,1,9.6-14.653A112.731,112.731,0,0,1,382.3,291.481c4.153-3.947,8.76-7.567,14.143-9.665a.828.828,0,0,0,.52-.587c5.714,5.342,10.584,18.28-2.634,29.41-15.251,12.843-12.04,14.448-9.632,24.08s-1.4,13.852-1.4,13.852l-33.34-.076c-.333-5.594,1.835-11.165,4.139-16.154" transform="translate(-154.604 -221.378)" fill="#bac36a"/>
                  <path id="Trazado_910563" data-name="Trazado 910563" d="M357.067,185.736a213.157,213.157,0,0,0-21.753,23.041,219.714,219.714,0,0,0-29.67,48.019q-.859,1.9-1.681,3.821-6.613-12.727-14.055-25a.757.757,0,0,0-.759-.382c12.685-28.795,29.353-56.876,47.133-60.5a5.4,5.4,0,1,0,10.667.823c4.515,1.825,7.9,5.53,10.147,10.148l-.029.023" transform="translate(-127.752 -174.33)" fill="#bac36a"/>
                  <path id="Trazado_910564" data-name="Trazado 910564" d="M407.606,376.578s11.434-17.3,23.76-32.7q5.21,6.252,10.064,12.787a.626.626,0,0,0,.046.054q-7.744,9.064-14.6,18.839a.426.426,0,0,0,.039.575Z" transform="translate(-180.088 -249.058)" fill="#bac36a"/>
                  <path id="Trazado_910565" data-name="Trazado 910565" d="M461.488,350.01q-4.887-6.573-10.135-12.866c1.845-2.289,3.705-4.527,5.547-6.651a74.531,74.531,0,0,1,7.057,16.692q-1.245,1.4-2.468,2.824" transform="translate(-199.417 -243.144)" fill="#bac36a"/>
                  <path id="Trazado_910566" data-name="Trazado 910566" d="M443.708,373.554q2.853-4.067,5.866-8.02.882-1.156,1.779-2.3a.6.6,0,0,0,.117.011c7.917-.012,15.9-.148,23.712,1.359.652.126.929-.872.276-1-7.678-1.482-15.513-1.414-23.3-1.4a248.117,248.117,0,0,1,18.174-20.537,2.273,2.273,0,0,0,1.144,1.786c6.119,3.569,6.629-9.179,17.337-4.079s-20.906,33.654-20.906,33.654l-24.225.557.026-.034" transform="translate(-196.027 -246.529)" fill="#bac36a"/>
                  <path id="Trazado_910567" data-name="Trazado 910567" d="M478.777,324.059c1.324-6.75,13.186-20.065,3.6-22.149-4.167-.906-11.748,5.916-19.789,15.087a78.366,78.366,0,0,1,7.158,16.6q1.784-1.989,3.61-3.941,2.663-2.843,5.417-5.6" transform="translate(-204.382 -230.48)" fill="#bac36a"/>
                  <path id="Trazado_910568" data-name="Trazado 910568" d="M237.051,297.612q-3.188,6.4-6.546,12.715-3.813,7.156-7.859,14.195a215.825,215.825,0,0,1,9.069,31.138l25.49-.058a560.671,560.671,0,0,0-20.153-57.99" transform="translate(-98.369 -228.617)" fill="#bac36a"/>
                  <path id="Trazado_910569" data-name="Trazado 910569" d="M217.187,311.479q1.189,2.844,2.3,5.719,7.484-13.052,14.14-26.554a.79.79,0,0,1,.223-.28q-1.024-2.434-2.087-4.873-7.692,12.683-14.5,25.871a.9.9,0,0,1-.073.117" transform="translate(-95.957 -223.261)" fill="#bac36a"/>
                  <path id="Trazado_910570" data-name="Trazado 910570" d="M136.22,299.046a153.561,153.561,0,0,1,7.2,14.142c1.806,4.272,3.385,8.92,3.332,13.616q4.195-5.827,8.124-11.838,5.972-9.125,11.428-18.576a218.592,218.592,0,0,0-20.187-40.2,215.974,215.974,0,0,0-16-21.891c-.028.006-.054.014-.084.017q-5.842.609-11.643,1.548-4.564.743-9.089,1.695a26.761,26.761,0,0,0,3.456,7.4c10.435,15.251-3.918,9.584-12.04,13.645a10.062,10.062,0,0,0-1.537.966c6.087,2.407,11.2,6.562,15.834,11.106a121.343,121.343,0,0,1,21.206,28.374" transform="translate(-43.819 -200.644)" fill="#bac36a"/>
                  <path id="Trazado_910571" data-name="Trazado 910571" d="M208.672,357.6q-1.376-4.289-2.932-8.518c-5.873,10.081-12.152,19.926-18.97,29.387l27.435-.063a213.394,213.394,0,0,0-5.533-20.807" transform="translate(-82.519 -251.355)" fill="#bac36a"/>
                  <path id="Trazado_910572" data-name="Trazado 910572" d="M135.71,216.425A212.853,212.853,0,0,0,117.235,197.2a37.214,37.214,0,0,0-1.524,22.4q9.913-2.07,20-3.176" transform="translate(-50.66 -184.254)" fill="#bac36a"/>
                  <path id="Trazado_910573" data-name="Trazado 910573" d="M141.659,174.9c-.264,2.329,1.795,4.777,4.254,4.413a4.012,4.012,0,0,0,3.067-4.963.883.883,0,0,1-.036-.209,18.62,18.62,0,0,0-7.293.529.82.82,0,0,1,.008.231" transform="translate(-62.578 -174.004)" fill="#bac36a"/>
                  <path id="Trazado_910574" data-name="Trazado 910574" d="M135.482,332.341c-2.106-4.561-4.588-8.938-7.011-13.335a114.753,114.753,0,0,0-9.6-14.653,112.727,112.727,0,0,0-11.592-12.872c-4.153-3.947-8.76-7.567-14.143-9.665a.828.828,0,0,1-.52-.587c-5.714,5.342-10.584,18.28,2.633,29.41,15.251,12.843,12.04,14.448,9.632,24.08s1.4,13.852,1.4,13.852l33.34-.076c.332-5.594-1.835-11.165-4.139-16.154" transform="translate(-38.354 -221.378)" fill="#bac36a"/>
                  <path id="Trazado_910575" data-name="Trazado 910575" d="M120.56,185.736a213.16,213.16,0,0,1,21.753,23.041,219.714,219.714,0,0,1,29.67,48.019q.859,1.9,1.681,3.821,6.613-12.727,14.055-25a.757.757,0,0,1,.759-.382c-12.685-28.795-29.353-56.876-47.133-60.5a5.4,5.4,0,1,1-10.667.823c-4.515,1.825-7.9,5.53-10.147,10.148l.028.023" transform="translate(-53.253 -174.33)" fill="#bac36a"/>
                  <path id="Trazado_910576" data-name="Trazado 910576" d="M94.088,376.578s-11.434-17.3-23.76-32.7q-5.21,6.252-10.064,12.787a.635.635,0,0,1-.046.054q7.744,9.064,14.6,18.839a.426.426,0,0,1-.039.575Z" transform="translate(-26.605 -249.058)" fill="#bac36a"/>
                  <path id="Trazado_910577" data-name="Trazado 910577" d="M57.038,350.01q4.887-6.573,10.135-12.866c-1.845-2.289-3.705-4.527-5.547-6.651a74.532,74.532,0,0,0-7.057,16.692q1.245,1.4,2.468,2.824" transform="translate(-24.11 -243.144)" fill="#bac36a"/>
                  <path id="Trazado_910578" data-name="Trazado 910578" d="M47.318,373.554q-2.853-4.067-5.866-8.02-.882-1.156-1.779-2.3a.6.6,0,0,1-.117.011c-7.917-.012-15.9-.148-23.712,1.359-.653.126-.929-.872-.276-1,7.678-1.482,15.513-1.414,23.3-1.4A248.128,248.128,0,0,0,20.695,341.67a2.273,2.273,0,0,1-1.144,1.786c-6.119,3.569-6.629-9.179-17.337-4.079S23.12,373.03,23.12,373.03l24.224.557-.026-.034" transform="translate(0 -246.529)" fill="#bac36a"/>
                  <path id="Trazado_910579" data-name="Trazado 910579" d="M36.545,329.657q1.828,1.95,3.61,3.941A78.352,78.352,0,0,1,47.313,317C39.272,307.826,31.691,301,27.524,301.91c-9.582,2.083,2.28,15.4,3.6,22.149q2.751,2.757,5.417,5.6" transform="translate(-10.522 -230.48)" fill="#bac36a"/>
                </g>
              </g>
            </g>
            <g id="Grupo_1121602" data-name="Grupo 1121602" transform="translate(285.777 178.472)" style="mix-blend-mode: multiply;isolation: isolate">
              <g id="Grupo_1121601" data-name="Grupo 1121601">
                <g id="Grupo_1121600" data-name="Grupo 1121600" clip-path="url(#clip-path-4)">
                  <path id="Trazado_910580" data-name="Trazado 910580" d="M515.188,321.343a1.6,1.6,0,1,0-1.6,1.6,1.6,1.6,0,0,0,1.6-1.6" transform="translate(-511.98 -319.739)" fill="#bac36a"/>
                </g>
              </g>
            </g>
            <g id="Grupo_1121605" data-name="Grupo 1121605" transform="translate(272.545 154.012)" style="mix-blend-mode: multiply;isolation: isolate">
              <g id="Grupo_1121604" data-name="Grupo 1121604">
                <g id="Grupo_1121603" data-name="Grupo 1121603" clip-path="url(#clip-path-5)">
                  <path id="Trazado_910581" data-name="Trazado 910581" d="M495.491,279.527a3.609,3.609,0,1,0-3.609,3.609,3.609,3.609,0,0,0,3.609-3.609" transform="translate(-488.274 -275.918)" fill="#bac36a"/>
                </g>
              </g>
            </g>
            <g id="Grupo_1121608" data-name="Grupo 1121608" transform="translate(30.093 141.194)" style="mix-blend-mode: multiply;isolation: isolate">
              <g id="Grupo_1121607" data-name="Grupo 1121607">
                <g id="Grupo_1121606" data-name="Grupo 1121606" clip-path="url(#clip-path-6)">
                  <path id="Trazado_910582" data-name="Trazado 910582" d="M59.528,255.761a2.807,2.807,0,1,0-2.807,2.807,2.807,2.807,0,0,0,2.807-2.807" transform="translate(-53.914 -252.954)" fill="#bac36a"/>
                </g>
              </g>
            </g>
            <g id="Grupo_1121611" data-name="Grupo 1121611" transform="translate(261.103 27.211)" style="mix-blend-mode: multiply;isolation: isolate">
              <g id="Grupo_1121610" data-name="Grupo 1121610">
                <g id="Grupo_1121609" data-name="Grupo 1121609" clip-path="url(#clip-path-6)">
                  <path id="Trazado_910583" data-name="Trazado 910583" d="M473.389,51.556a2.807,2.807,0,1,0-2.807,2.807,2.807,2.807,0,0,0,2.807-2.807" transform="translate(-467.775 -48.749)" fill="#bac36a"/>
                </g>
              </g>
            </g>
            <g id="Grupo_1121614" data-name="Grupo 1121614" transform="translate(171.332)" style="mix-blend-mode: multiply;isolation: isolate">
              <g id="Grupo_1121613" data-name="Grupo 1121613">
                <g id="Grupo_1121612" data-name="Grupo 1121612" clip-path="url(#clip-path-6)">
                  <path id="Trazado_910584" data-name="Trazado 910584" d="M312.562,2.807a2.807,2.807,0,1,0-2.807,2.807,2.807,2.807,0,0,0,2.807-2.807" transform="translate(-306.948)" fill="#bac36a"/>
                </g>
              </g>
            </g>
            <g id="Grupo_1121617" data-name="Grupo 1121617" transform="translate(58.981 15.558)" style="mix-blend-mode: multiply;isolation: isolate">
              <g id="Grupo_1121616" data-name="Grupo 1121616">
                <g id="Grupo_1121615" data-name="Grupo 1121615" clip-path="url(#clip-path-6)">
                  <path id="Trazado_910585" data-name="Trazado 910585" d="M111.28,30.68a2.807,2.807,0,1,0-2.807,2.807,2.807,2.807,0,0,0,2.807-2.807" transform="translate(-105.666 -27.873)" fill="#bac36a"/>
                </g>
              </g>
            </g>
            <g id="Grupo_1121620" data-name="Grupo 1121620" transform="translate(38.726 170.847)" style="mix-blend-mode: multiply;isolation: isolate">
              <g id="Grupo_1121619" data-name="Grupo 1121619">
                <g id="Grupo_1121618" data-name="Grupo 1121618" clip-path="url(#clip-path-10)">
                  <path id="Trazado_910586" data-name="Trazado 910586" d="M74.191,308.484a2.406,2.406,0,1,0-2.406,2.406,2.406,2.406,0,0,0,2.406-2.406" transform="translate(-69.379 -306.078)" fill="#bac36a"/>
                </g>
              </g>
            </g>
            <g id="Grupo_1121623" data-name="Grupo 1121623" transform="translate(17.92 82.236)" style="mix-blend-mode: multiply;isolation: isolate">
              <g id="Grupo_1121622" data-name="Grupo 1121622">
                <g id="Grupo_1121621" data-name="Grupo 1121621" clip-path="url(#clip-path-11)">
                  <path id="Trazado_910587" data-name="Trazado 910587" d="M41.729,152.141a4.812,4.812,0,1,0-4.812,4.812,4.812,4.812,0,0,0,4.812-4.812" transform="translate(-32.105 -147.329)" fill="#bac36a"/>
                </g>
              </g>
            </g>
            <g id="Grupo_1121626" data-name="Grupo 1121626" transform="translate(246.485 81.336)" style="mix-blend-mode: multiply;isolation: isolate">
              <g id="Grupo_1121625" data-name="Grupo 1121625">
                <g id="Grupo_1121624" data-name="Grupo 1121624" clip-path="url(#clip-path-11)">
                  <path id="Trazado_910588" data-name="Trazado 910588" d="M451.211,150.529a4.812,4.812,0,1,0-4.812,4.812,4.812,4.812,0,0,0,4.812-4.812" transform="translate(-441.587 -145.717)" fill="#bac36a"/>
                </g>
              </g>
            </g>
            <g id="Grupo_1121629" data-name="Grupo 1121629" transform="translate(88.978 5.068)" style="mix-blend-mode: multiply;isolation: isolate">
              <g id="Grupo_1121628" data-name="Grupo 1121628">
                <g id="Grupo_1121627" data-name="Grupo 1121627" clip-path="url(#clip-path-11)">
                  <path id="Trazado_910589" data-name="Trazado 910589" d="M169.031,13.892a4.812,4.812,0,1,0-4.812,4.812,4.812,4.812,0,0,0,4.812-4.812" transform="translate(-159.407 -9.08)" fill="#bac36a"/>
                </g>
              </g>
            </g>
            <g id="Grupo_1121632" data-name="Grupo 1121632" transform="translate(272.144 107.097)" style="mix-blend-mode: multiply;isolation: isolate">
              <g id="Grupo_1121631" data-name="Grupo 1121631">
                <g id="Grupo_1121630" data-name="Grupo 1121630" clip-path="url(#clip-path-14)">
                  <path id="Trazado_910590" data-name="Trazado 910590" d="M493.971,195.076a3.208,3.208,0,1,0-3.208,3.208,3.208,3.208,0,0,0,3.208-3.208" transform="translate(-487.555 -191.868)" fill="#bac36a"/>
                </g>
              </g>
            </g>
            <path id="Trazado_910591" data-name="Trazado 910591" d="M272,188.844H105.783a5.677,5.677,0,0,1-5.677-5.677V62.447a5.677,5.677,0,0,1,5.677-5.677H272a5.676,5.676,0,0,1,5.677,5.677v120.72A5.676,5.676,0,0,1,272,188.844" transform="translate(-44.229 -25.082)" fill="#1574dd"/>
            <path id="Trazado_910592" data-name="Trazado 910592" d="M282.168,182.742H115.953a5.676,5.676,0,0,1-5.677-5.677V56.345a5.677,5.677,0,0,1,5.677-5.677H282.168a5.677,5.677,0,0,1,5.677,5.677v120.72a5.677,5.677,0,0,1-5.677,5.677" transform="translate(-48.722 -22.386)" fill="#fcfbff"/>
          </g>
        </g>
        <text id="_50_100" data-name="50 / 100" transform="translate(121.997 65.487)" fill="#7040bf" font-size="7" font-family="Poppins-SemiBold, Poppins" font-weight="600"><tspan x="0" y="0">50 / 100</tspan></text>
        <g id="Grupo_1121636" data-name="Grupo 1121636">
          <g id="Grupo_1121635" data-name="Grupo 1121635" clip-path="url(#clip-path)">
            <rect id="Rectángulo_410215" data-name="Rectángulo 410215" width="18.448" height="28.871" transform="translate(192.395 86.132)" fill="#bfc9ff"/>
            <rect id="Rectángulo_410216" data-name="Rectángulo 410216" width="18.448" height="42.805" transform="translate(123.248 72.198)" fill="#bfc9ff"/>
            <rect id="Rectángulo_410217" data-name="Rectángulo 410217" width="18.448" height="37.174" transform="translate(158.998 77.829)" fill="#1574dd"/>
            <line id="Línea_3523" data-name="Línea 3523" x1="100.269" transform="translate(116.748 115.003)" fill="none" stroke="#1574dd" stroke-miterlimit="10" stroke-width="0.75"/>
            <path id="Trazado_910593" data-name="Trazado 910593" d="M187.987,95.156a19.583,19.583,0,0,0-17.731-11.267v19.584Z" transform="translate(-75.222 -37.064)" fill="#1574dd"/>
            <path id="Trazado_910594" data-name="Trazado 910594" d="M154.589,123.1a19.793,19.793,0,1,1,19.793-19.793A19.816,19.816,0,0,1,154.589,123.1m0-39.168a19.375,19.375,0,1,0,19.374,19.375,19.4,19.4,0,0,0-19.374-19.375" transform="translate(-59.555 -36.898)" fill="#bfc9ff"/>
            <rect id="Rectángulo_410218" data-name="Rectángulo 410218" width="19.373" height="2.98" transform="translate(121.997 42)" fill="#1574dd"/>
            <rect id="Rectángulo_410219" data-name="Rectángulo 410219" width="30.726" height="2.98" transform="translate(121.997 47.961)" fill="#bfc9ff"/>
            <rect id="Rectángulo_410220" data-name="Rectángulo 410220" width="30.726" height="2.98" transform="translate(121.997 52.928)" fill="#bfc9ff"/>
            <rect id="Rectángulo_410221" data-name="Rectángulo 410221" width="19.373" height="2.98" transform="translate(122.922 121.578)" fill="#1574dd"/>
            <rect id="Rectángulo_410222" data-name="Rectángulo 410222" width="30.726" height="2.98" transform="translate(122.921 127.539)" fill="#bfc9ff"/>
            <rect id="Rectángulo_410223" data-name="Rectángulo 410223" width="19.373" height="2.98" transform="translate(122.922 132.505)" fill="#bfc9ff"/>
            <rect id="Rectángulo_410224" data-name="Rectángulo 410224" width="19.373" height="2.98" transform="translate(170.567 121.578)" fill="#1574dd"/>
            <rect id="Rectángulo_410225" data-name="Rectángulo 410225" width="30.726" height="2.98" transform="translate(170.567 127.539)" fill="#bfc9ff"/>
            <rect id="Rectángulo_410226" data-name="Rectángulo 410226" width="19.373" height="2.98" transform="translate(170.567 132.505)" fill="#bfc9ff"/>
            <rect id="Rectángulo_410227" data-name="Rectángulo 410227" width="11.095" height="2.98" transform="translate(75.45 91.209)" fill="#bfc9ff"/>
            <rect id="Rectángulo_410228" data-name="Rectángulo 410228" width="17.597" height="2.98" transform="translate(75.45 97.169)" fill="#bfc9ff"/>
            <rect id="Rectángulo_410229" data-name="Rectángulo 410229" width="11.095" height="2.98" transform="translate(75.45 106.063)" fill="#bfc9ff"/>
            <rect id="Rectángulo_410230" data-name="Rectángulo 410230" width="17.597" height="2.98" transform="translate(75.45 112.023)" fill="#bfc9ff"/>
            <rect id="Rectángulo_410231" data-name="Rectángulo 410231" width="11.095" height="2.98" transform="translate(75.45 120.916)" fill="#bfc9ff"/>
            <rect id="Rectángulo_410232" data-name="Rectángulo 410232" width="17.597" height="2.98" transform="translate(75.45 126.877)" fill="#bfc9ff"/>
            <path id="Trazado_910595" data-name="Trazado 910595" d="M396.674,19.57V89.3a1.87,1.87,0,0,1-1.87,1.87H334.729a1.87,1.87,0,0,1-1.87-1.87V19.57a1.871,1.871,0,0,1,1.87-1.87H394.8a1.871,1.871,0,0,1,1.87,1.87" transform="translate(-147.064 -7.82)" fill="#00184c"/>
            <path id="Trazado_910596" data-name="Trazado 910596" d="M392.621,126.617H368.1a.761.761,0,1,0,0,1.522h24.56a.761.761,0,0,0,.76-.8.79.79,0,0,0-.8-.72" transform="translate(-162.299 -55.942)" fill="#fcfbff"/>
            <path id="Trazado_910597" data-name="Trazado 910597" d="M392.621,119.418H368.1a.761.761,0,1,0,0,1.522h24.56a.761.761,0,0,0,.76-.8.79.79,0,0,0-.8-.72" transform="translate(-162.299 -52.761)" fill="#fcfbff"/>
            <path id="Trazado_910598" data-name="Trazado 910598" d="M392.621,134.374H368.1a.761.761,0,1,0,0,1.523h24.56a.761.761,0,0,0,.76-.8.79.79,0,0,0-.8-.72" transform="translate(-162.299 -59.369)" fill="#fcfbff"/>
            <path id="Trazado_910599" data-name="Trazado 910599" d="M396.674,19.57v7.683H332.859V19.57a1.871,1.871,0,0,1,1.87-1.87H394.8a1.871,1.871,0,0,1,1.87,1.87" transform="translate(-147.064 -7.82)" fill="#fcfbff"/>
            <path id="Trazado_910600" data-name="Trazado 910600" d="M400.894,61.745a12.134,12.134,0,0,1-.437,3.223c2.337-.244,4.665-.564,6.987-.919a18.871,18.871,0,0,0-18.727-21.172c-.514,0-1.023.022-1.527.062-.017,2.248-.063,4.5-.121,6.744a12.156,12.156,0,0,1,13.824,12.061" transform="translate(-171.015 -18.944)" fill="#fcfbff"/>
            <path id="Trazado_910601" data-name="Trazado 910601" d="M386.587,65.848A12.175,12.175,0,1,1,372.7,49.915c.059-2.264.106-4.528.123-6.792a18.867,18.867,0,1,0,20.885,21.8c-2.366.36-4.736.682-7.117.924" transform="translate(-157.385 -19.053)" fill="#1574dd"/>
            <path id="Trazado_910602" data-name="Trazado 910602" d="M89.726,129.035S73.92,153.214,73.692,164.159s14.734,12.4,14.734,12.4Z" transform="translate(-32.557 -57.01)" fill="#00184c"/>
            <path id="Trazado_910603" data-name="Trazado 910603" d="M106.393,408.195l-.014,13.09,6.583.472,2.314-12.3c-3.011-2.008-5.973-2.487-8.882-1.265" transform="translate(-47 -180.054)" fill="#ffa189"/>
            <path id="Trazado_910604" data-name="Trazado 910604" d="M106.242,428.487c-.647,1.728-.69,8.8-.69,8.8l13.953.015c.829-2.557-.454-4.3-2.081-4.533a4.523,4.523,0,0,1-2.122-1.444c0-.081-.858-4.008-1.385-4.2,0,0-.363-.409-.673,0a6.542,6.542,0,0,0-.578,1.735c-2.179-2.7-4.313-2.343-6.425-.373" transform="translate(-46.635 -188.622)" fill="#00184c"/>
            <path id="Trazado_910605" data-name="Trazado 910605" d="M106.268,432.788a4.979,4.979,0,0,1,4.643.605c.241.169.469-.226.231-.393a5.4,5.4,0,0,0-4.995-.651c-.273.1-.155.541.121.44" transform="translate(-46.829 -190.871)" fill="#fff"/>
            <path id="Trazado_910606" data-name="Trazado 910606" d="M119.413,443.288h0l-13.749-.015a.228.228,0,1,1,0-.455l13.748.014a.228.228,0,1,1,0,.456" transform="translate(-46.584 -195.645)" fill="#fff"/>
            <path id="Trazado_910607" data-name="Trazado 910607" d="M100.408,337.415l14.028.692c3.147-9.453,6.258-43.346,6.579-53.522.384-12.158,5.081-42.673.928-49.023s-23.584-.026-23.584-.026,2.985,35.888,2.05,47.738c-.811,10.27-2.066,40.459,0,54.14" transform="translate(-43.457 -102.826)" fill="#0055b3"/>
            <path id="Trazado_910608" data-name="Trazado 910608" d="M116.678,415.178l-.912,4.327-15.2-.456-.557-4.155Z" transform="translate(-44.185 -183.308)" fill="#1574dd"/>
            <path id="Trazado_910609" data-name="Trazado 910609" d="M122.136,357.366a.222.222,0,0,1-.038,0,.227.227,0,0,1-.187-.262c.06-.355,5.979-35.711,6.656-56.183.414-12.513.771-21.291.775-21.378a.231.231,0,0,1,.237-.219.228.228,0,0,1,.219.237c0,.087-.361,8.863-.775,21.374-.678,20.5-6.6,55.888-6.662,56.243a.227.227,0,0,1-.224.19" transform="translate(-53.861 -123.409)" fill="#1574dd"/>
            <path id="Trazado_910610" data-name="Trazado 910610" d="M109.412,242.411c-.184,2.128-1.248,4.7-3.7,4.911a2.827,2.827,0,0,1-2.523-1.074,5.566,5.566,0,0,1-.77-3.205c-.009-.279.424-.278.433,0a5.916,5.916,0,0,0,.475,2.613,2.39,2.39,0,0,0,2.386,1.232c2.194-.212,3.1-2.591,3.267-4.479.024-.275.457-.277.433,0" transform="translate(-45.251 -107.01)" fill="#1574dd"/>
            <path id="Trazado_910611" data-name="Trazado 910611" d="M117.393,323.317a74.942,74.942,0,0,0-12.12-.326c-.292.016-.294.472,0,.456a74.942,74.942,0,0,1,12.12.326c.291.032.289-.425,0-.456" transform="translate(-46.415 -142.655)" fill="#1574dd"/>
            <path id="Trazado_910612" data-name="Trazado 910612" d="M157.269,405.136l-.016,14.774,6.334.483,3.116-13.829a9.407,9.407,0,0,0-9.434-1.427" transform="translate(-69.477 -178.702)" fill="#ffa189"/>
            <path id="Trazado_910613" data-name="Trazado 910613" d="M156.709,428.541c-.647,1.728-.689,8.8-.689,8.8l16.029.017a3.119,3.119,0,0,0-2.53-4.3,10.825,10.825,0,0,1-3.749-1.676c0-.081-.857-4.008-1.384-4.2,0,0-.364-.409-.674,0a6.539,6.539,0,0,0-.578,1.735c-2.178-2.7-4.313-2.343-6.425-.373" transform="translate(-68.933 -188.646)" fill="#00184c"/>
            <path id="Trazado_910614" data-name="Trazado 910614" d="M156.734,432.843a4.977,4.977,0,0,1,4.643.606c.241.169.469-.227.231-.394a5.4,5.4,0,0,0-4.995-.651c-.273.1-.155.541.121.44" transform="translate(-69.126 -190.895)" fill="#fff"/>
            <path id="Trazado_910615" data-name="Trazado 910615" d="M172,443.344h0l-15.869-.017a.228.228,0,0,1,0-.456l15.868.017a.228.228,0,0,1,0,.456" transform="translate(-68.881 -195.669)" fill="#fff"/>
            <path id="Trazado_910616" data-name="Trazado 910616" d="M140.5,336.093l13.906.692c1.693-10.464,8.495-48.573,7.936-55.873-.683-8.916-8.737-47.512-11.732-50.488s-24.923,4.738-24.923,4.738,9.012,33.189,16.118,47.544c1.476,2.982-2.447,40.66-1.305,53.387" transform="translate(-55.529 -101.504)" fill="#0055b3"/>
            <path id="Trazado_910617" data-name="Trazado 910617" d="M166.943,415.11l-.709,4-15.454-.915-.311-4.191Z" transform="translate(-66.48 -182.916)" fill="#1574dd"/>
            <path id="Trazado_910618" data-name="Trazado 910618" d="M174.067,351.152l-.037,0a.228.228,0,0,1-.189-.262c.075-.464,7.516-46.454,7.247-51.229-.314-5.557-7.236-29.148-7.306-29.385a.228.228,0,1,1,.438-.129c.286.972,7.007,23.878,7.324,29.488.272,4.825-6.945,49.431-7.252,51.328a.229.229,0,0,1-.225.191" transform="translate(-76.777 -119.283)" fill="#1574dd"/>
            <path id="Trazado_910619" data-name="Trazado 910619" d="M147.477,240.5c.23,3.193-1.01,7.37-4.781,7.72-3.633.337-5.986-3.116-5.923-6.424a.216.216,0,0,1,.433,0c-.059,3.07,2.089,6.328,5.49,5.99,3.523-.35,4.56-4.349,4.349-7.288-.02-.278.412-.276.433,0" transform="translate(-60.428 -106.166)" fill="#1574dd"/>
            <path id="Trazado_910620" data-name="Trazado 910620" d="M165.241,243.366c1.242,4.892,2.928,10.612,8.142,12.58.275.1.394-.337.121-.44-5.04-1.9-6.627-7.554-7.822-12.262a.228.228,0,0,0-.44.121" transform="translate(-73.003 -107.398)" fill="#1574dd"/>
            <path id="Trazado_910621" data-name="Trazado 910621" d="M136.446,277.818a80.695,80.695,0,0,1-4.607-8.435,54.688,54.688,0,0,1-3.165-9.222.228.228,0,0,0-.44.122,55.475,55.475,0,0,0,3.117,9.124,79.468,79.468,0,0,0,4.7,8.642.228.228,0,0,0,.394-.23" transform="translate(-56.653 -114.872)" fill="#1574dd"/>
            <path id="Trazado_910622" data-name="Trazado 910622" d="M126.9,258.758a32.8,32.8,0,0,1-10.753-1.518c-.281-.089-.4.352-.122.44a33.184,33.184,0,0,0,10.874,1.534.228.228,0,0,0,0-.456" transform="translate(-51.193 -113.649)" fill="#1574dd"/>
            <path id="Trazado_910623" data-name="Trazado 910623" d="M158.747,323.813l10.167-.64c.292-.018.294-.474,0-.456l-10.167.64c-.291.018-.294.474,0,.456" transform="translate(-70.041 -142.583)" fill="#1574dd"/>
            <path id="Trazado_910624" data-name="Trazado 910624" d="M96.31,118.288l0-.009s0,0,.007.009Z" transform="translate(-42.551 -52.258)" fill="#1574dd"/>
            <path id="Trazado_910625" data-name="Trazado 910625" d="M129.618,114.494s3.84,1.868,11.156-.093l-.285-2.9,0-.5-.014-2.275,0-.305-.294-2.187-8.277-2.7a40.2,40.2,0,0,1-2.281,10.958" transform="translate(-57.268 -45.744)" fill="#ffa189"/>
            <path id="Trazado_910626" data-name="Trazado 910626" d="M145.026,113a3.19,3.19,0,0,0,2.243,1.832l-.013-2.275c-1.043-.358-2.59-.72-2.23.443" transform="translate(-64.052 -49.576)" fill="#00184c"/>
            <path id="Trazado_910627" data-name="Trazado 910627" d="M152.726,96.392a2.621,2.621,0,1,1,2.621,2.621,2.624,2.624,0,0,1-2.621-2.621m.456,0a2.165,2.165,0,1,0,2.165-2.165,2.167,2.167,0,0,0-2.165,2.165" transform="translate(-67.477 -41.43)" fill="#00184c"/>
            <path id="Trazado_910628" data-name="Trazado 910628" d="M132.421,90.331a7.913,7.913,0,0,0-.059.973,6.107,6.107,0,0,0,.348,2.01,19.8,19.8,0,0,0,1.486,3.047,6.9,6.9,0,0,0,5.281,3.194c5.6.772,6.619-2.976,6.938-8.8.2-3.618,1.474-5.466.769-6.977h0c-.051-.072-.1-.143-.157-.213a8.13,8.13,0,0,0-5.23-3.072c-.4-.062-.782-.109-1.152-.141-.083-.01-.167-.017-.249-.021-.034,0-.069-.007-.1-.007-.093-.008-.186-.013-.279-.016-.065,0-.132-.007-.2-.008-.15-.006-.3-.008-.439-.008-4.559.006-6.041,2.581-6.561,5.25a46.23,46.23,0,0,0-.4,4.792" transform="translate(-58.48 -35.473)" fill="#ffa189"/>
            <path id="Trazado_910629" data-name="Trazado 910629" d="M157.244,96.422s-.079,2.59.689,3.552S156.618,101,156.618,101Z" transform="translate(-69.197 -42.601)" fill="#ffa189"/>
            <path id="Trazado_910630" data-name="Trazado 910630" d="M158.717,97.426a.226.226,0,0,0,.157-.064.228.228,0,0,0,.007-.323,11.511,11.511,0,0,0-3.532-2.449.228.228,0,0,0-.174.421,11.275,11.275,0,0,1,3.376,2.344.225.225,0,0,0,.165.071" transform="translate(-68.498 -41.784)" fill="#00184c"/>
            <path id="Trazado_910631" data-name="Trazado 910631" d="M136.634,95.483a2.9,2.9,0,0,1-3.12,1.379A1.867,1.867,0,0,1,132,94.532s-1.83,2.356-3.351,1.99.468-2.781.468-2.781-3.129,2.151-3.888.41c-.484-1.11-.1-1.706.836-2.9.745-.953,1.672-4.09,1.52-6.979s-.9-4.066.345-6.6c2.483-5.054,6.719-2.311,6.719-2.311,5.341-2.9,9.321,1.139,12.187,3.781a2.625,2.625,0,0,1-.1,3.98,2.2,2.2,0,0,1-2.276.269c-1.992-.754-2.508-1.014-2.584.506s.838,3.05-.406,3.243-1.735-1.028-1.958-.235.465,2.586,1,3.48-1.27.074-2.237,1.366c0,0-.25.659-1.639,3.738" transform="translate(-55.236 -32.851)" fill="#00184c"/>
            <path id="Trazado_910632" data-name="Trazado 910632" d="M149.405,99.96a4.54,4.54,0,0,1-.627-2.751,2.634,2.634,0,0,1,2.013-2.563c1.588-.194,2.41.929,2.708,2.443s-.02,3.691-2.011,3.9a2.148,2.148,0,0,1-2.083-1.033" transform="translate(-65.727 -41.807)" fill="#ffa189"/>
            <path id="Trazado_910633" data-name="Trazado 910633" d="M152.385,99.927a3.756,3.756,0,0,1-.749-1.6c-.075-.534.049-1.438.687-1.551.213-.038.183-.393-.032-.354a1.375,1.375,0,0,0-1,1.317,3.536,3.536,0,0,0,.822,2.39.171.171,0,1,0,.276-.2" transform="translate(-66.835 -42.599)" fill="#00184c"/>
            <path id="Trazado_910634" data-name="Trazado 910634" d="M127.624,120.241s7.7,2.923,12.257,6.565c4.067,3.254.522,15.638-.118,20.685,0,0-26.5,2.089-33,.591s-5.206-14.064-5.922-19.174a8.014,8.014,0,0,1,7.136-9.075l8.377-.787s3.683-3.685,11.275,1.2" transform="translate(-44.515 -52.007)" fill="#00184c"/>
            <path id="Trazado_910635" data-name="Trazado 910635" d="M137.228,150.843s-1.433,18.456.118,25.594c1.2,5.54,4.414,13.993,1.715,15.577s-43.54,7.7-44.822,1.046C92.454,183.806,98,160.151,96.9,150.8s-.13-16.579,1.344-18.471,38.981,18.515,38.981,18.515" transform="translate(-41.479 -58.41)" fill="#00184c"/>
            <path id="Trazado_910636" data-name="Trazado 910636" d="M125.736,225.658a80.907,80.907,0,0,1-15.816-.933,32.21,32.21,0,0,1-6.728-1.514,5.714,5.714,0,0,1-3.544-3.2c-.1-.276.339-.4.44-.122.679,1.848,2.553,2.733,4.325,3.254a47.9,47.9,0,0,0,6.5,1.275,80.294,80.294,0,0,0,14.819.783c.294-.011.293.445,0,.456" transform="translate(-44.02 -97.083)" fill="#0d2f78"/>
            <path id="Trazado_910637" data-name="Trazado 910637" d="M101.753,130.5a22.965,22.965,0,0,0-1.619,6.83c-.023.29-.479.293-.456,0a23.383,23.383,0,0,1,1.635-6.952c.109-.268.55-.151.44.121" transform="translate(-44.039 -57.536)" fill="#0d2f78"/>
            <path id="Trazado_910638" data-name="Trazado 910638" d="M129.374,121.676a14.281,14.281,0,0,1,9.73,2.051c.247.156.019.551-.23.394a13.8,13.8,0,0,0-9.379-2c-.287.042-.411-.4-.121-.44" transform="translate(-57.087 -53.691)" fill="#0d2f78"/>
            <path id="Trazado_910639" data-name="Trazado 910639" d="M97.1,150.819a110.2,110.2,0,0,1,.017,17.346c-.462,5.716-1.377,11.384-2.405,17.022-.052.289-.492.166-.44-.121a169.8,169.8,0,0,0,2.41-17.16,110.231,110.231,0,0,0-.037-17.086c-.022-.292.434-.291.456,0" transform="translate(-41.651 -66.538)" fill="#0d2f78"/>
            <path id="Trazado_910640" data-name="Trazado 910640" d="M96.927,181.928a4.163,4.163,0,0,0-2.269,1.551c-.137.26-.531.03-.395-.23a4.622,4.622,0,0,1,2.542-1.761c.275-.105.393.335.122.44" transform="translate(-41.635 -80.178)" fill="#0d2f78"/>
            <path id="Trazado_910641" data-name="Trazado 910641" d="M164.922,176.784a67.981,67.981,0,0,0,.9,26.787,60.536,60.536,0,0,0,2.223,7.279c.1.272.543.154.44-.121a66.09,66.09,0,0,1-3.119-33.823c.047-.287-.392-.41-.44-.121" transform="translate(-72.458 -78.034)" fill="#0d2f78"/>
            <path id="Trazado_910642" data-name="Trazado 910642" d="M150.357,142.658s12.951,33.987,23.054,34.157,17.4-35.077,17.4-35.077l-4.222-.987S173.791,159.17,173.4,159.458s-9.294-23.279-9.294-23.279c-2.489-7.381-16.532-2.736-13.746,6.479" transform="translate(-66.27 -58.553)" fill="#00184c"/>
            <path id="Trazado_910643" data-name="Trazado 910643" d="M157.658,133.117a6.96,6.96,0,0,0-6.035,3.856c-1.385,2.532-1.44,5.549-1.234,8.355.021.292-.435.291-.456,0-.223-3.023-.122-6.318,1.522-8.973a7.325,7.325,0,0,1,6.2-3.694.228.228,0,0,1,0,.456" transform="translate(-66.205 -58.612)" fill="#0d2f78"/>
            <path id="Trazado_910644" data-name="Trazado 910644" d="M211.527,154.157a6.817,6.817,0,0,0,4.3,2.636c.288.052.166.492-.121.44a7.269,7.269,0,0,1-4.575-2.846c-.176-.236.22-.463.394-.231" transform="translate(-93.263 -68.067)" fill="#0d2f78"/>
            <path id="Trazado_910645" data-name="Trazado 910645" d="M214.522,151.825c-.23.339-.61.482-.847.321a.661.661,0,0,1-.014-.905c.23-.338.609-.482.847-.321a.661.661,0,0,1,.014.905" transform="translate(-94.325 -66.65)" fill="#0d2f78"/>
            <path id="Trazado_910646" data-name="Trazado 910646" d="M212.824,128.827h0a.39.39,0,0,1,.122-.537l20.1-12.63a.389.389,0,1,1,.414.659l-20.1,12.63a.39.39,0,0,1-.537-.122" transform="translate(-94.003 -51.074)" fill="#00184c"/>
            <path id="Trazado_910647" data-name="Trazado 910647" d="M215.5,137.809s.583-7.373.961-8.137,6.326-3.172,6.928-3.587.684.922-.435,1.523a30.625,30.625,0,0,0-2.791,1.828s1.671-.759,2.218-.444,3.426,2.964,3.544,4.693-1.741,2.487-2.241,2.829-.519-1.481-.519-1.481a5.772,5.772,0,0,1-1.414.971c-.881.443-1.358,2.746-2.195,3.4s-4.055-1.591-4.055-1.591" transform="translate(-95.211 -55.672)" fill="#ffa189"/>
            <path id="Trazado_910648" data-name="Trazado 910648" d="M221.274,133.088a6.317,6.317,0,0,1,1.389-.9c.185-.09.057-.383-.128-.293a6.623,6.623,0,0,0-1.46.947c-.156.135.043.385.2.251" transform="translate(-97.65 -58.264)" fill="#e87e64"/>
            <path id="Trazado_910649" data-name="Trazado 910649" d="M224.13,134.058a3.678,3.678,0,0,1,2.708-1.152c.2.027.286-.282.081-.309a4.005,4.005,0,0,0-3.016,1.234c-.16.129.067.354.226.227" transform="translate(-98.901 -58.573)" fill="#e87e64"/>
            <path id="Trazado_910650" data-name="Trazado 910650" d="M226.515,136.107a2.834,2.834,0,0,1,2.564-.838c.2.036.286-.273.082-.309a3.165,3.165,0,0,0-2.872.921c-.143.148.083.375.226.227" transform="translate(-99.959 -59.604)" fill="#e87e64"/>
            <path id="Trazado_910651" data-name="Trazado 910651" d="M229.125,140.814a2.566,2.566,0,0,0,.6-1.969c-.024-.2-.344-.2-.32,0a2.259,2.259,0,0,1-.506,1.743c-.131.156.094.385.226.227" transform="translate(-101.115 -61.277)" fill="#e87e64"/>
            <path id="Trazado_910652" data-name="Trazado 910652" d="M230.153,140.246a.862.862,0,0,1,.966-.095c.18.1.34-.179.159-.278a1.192,1.192,0,0,0-1.351.146c-.156.133.07.359.226.227" transform="translate(-101.563 -61.734)" fill="#e87e64"/>
            <path id="Trazado_910653" data-name="Trazado 910653" d="M190.778,180.637a30.2,30.2,0,0,0-.682,4.035.238.238,0,0,0,.474.052,29.351,29.351,0,0,1,.654-3.91c.072-.3-.373-.484-.446-.177" transform="translate(-83.988 -79.739)" fill="#0d2f78"/>
            <path id="Trazado_910654" data-name="Trazado 910654" d="M190.873,182.736a10.174,10.174,0,0,0,1.1,2.5c.163.268.535-.037.373-.3a9.719,9.719,0,0,1-1.037-2.386c-.088-.3-.524-.107-.437.194" transform="translate(-84.326 -80.584)" fill="#0d2f78"/>
            <path id="Trazado_910655" data-name="Trazado 910655" d="M291.346,368.245c-5.79-29.763,17.709-57.092,48.021-56.362,10.723.258,22.837,2.357,30.949,9.238,17.646,14.97,19.69,57.879.83,62.1-27.058,6.062-57.153,1.409-66.235.669-3.122-.255-11.956-7.384-13.564-15.65" transform="translate(-128.333 -137.79)" fill="#ffac00"/>
            <path id="Trazado_910656" data-name="Trazado 910656" d="M431.485,331.314a60.231,60.231,0,0,1,6.089,24.083,62.86,62.86,0,0,1-3.929,24.747,58.758,58.758,0,0,1-6.555,12.576c-.169.245-.573.013-.4-.236a59.766,59.766,0,0,0,9.4-22.8,62.368,62.368,0,0,0-.351-24.868,58.251,58.251,0,0,0-4.651-13.27c-.132-.268.27-.5.4-.235" transform="translate(-188.501 -146.329)" fill="#9e7035"/>
            <path id="Trazado_910657" data-name="Trazado 910657" d="M379.412,324.34s14.908,5.829,12.058,22.338c-1.7,9.848-18.244,7.257-32.211,6.4s-22.99-9.958-17.866-15.071,38.019-13.663,38.019-13.663" transform="translate(-150.192 -143.3)" fill="#9e7035"/>
            <path id="Trazado_910658" data-name="Trazado 910658" d="M367.978,218.921s-3.033-7.721,4.724-7.248c0,0,1.814-3.159,7.1-2.066s9.584,4.877,8.8,10.041-1.62,12.026,3.1,13.828,8.635,4.156,8.69,9.628-2.526,8.7,0,11.8-2.961,8.685-9.726,7.925-8.01-21.937-15.06-21.074-7.606-3.746-6.093-8.026-2.038-11.451-1.532-14.811" transform="translate(-162.322 -92.507)" fill="#00184c"/>
            <path id="Trazado_910659" data-name="Trazado 910659" d="M391.947,211.9s.666-6,6.257-5.383,4.795,10.123,0,9.512a7.7,7.7,0,0,1-6.257-4.129" transform="translate(-173.17 -91.221)" fill="#00184c"/>
            <path id="Trazado_910660" data-name="Trazado 910660" d="M370.026,255.764a69.991,69.991,0,0,1-8.806,5.317c-3.648,1.68.093,6.286-.88,7.8s-3.209,4.905-2.747,7.54,4.243,4.978,3.772,6.433-3.683,13.759-4.982,17.651c-1.227,3.68,3.687,7.47,10.576,7.507s7.947.922,15.419-.678c6.968-1.492,10.335-4.119,8.685-7.129s-4.445-7.2-5.618-12.981,1.952-9.785,4.568-18.932c3.3-11.548-2.336-12.965-10.594-13.874a19.672,19.672,0,0,0-9.392,1.341" transform="translate(-157.374 -112.362)" fill="#1574dd"/>
            <path id="Trazado_910661" data-name="Trazado 910661" d="M358.44,268.307s-5.2,7.822-5.669,11.238,6.323,3.677,6.323,3.677,2.1-11.37-.654-14.915" transform="translate(-155.851 -118.543)" fill="#1574dd"/>
            <path id="Trazado_910662" data-name="Trazado 910662" d="M362.284,327.605a39.047,39.047,0,0,0,23.474,7.108.24.24,0,0,0,0-.48,38.617,38.617,0,0,1-23.231-7.043c-.253-.179-.493.238-.242.415" transform="translate(-160.017 -144.54)" fill="#0559b5"/>
            <path id="Trazado_910663" data-name="Trazado 910663" d="M366.692,277.127c1.476,2.851,5.823,2.407,8.482,2.287a43.99,43.99,0,0,0,12.328-2.372c.3-.1.115-.552-.181-.45a43.567,43.567,0,0,1-10.981,2.267,32.782,32.782,0,0,1-5.286.048c-1.482-.132-3.169-.53-3.911-1.961-.142-.275-.594-.1-.45.181" transform="translate(-161.999 -122.197)" fill="#0559b5"/>
            <path id="Trazado_910664" data-name="Trazado 910664" d="M367.322,304.309a52.287,52.287,0,0,1,16.771,1.076c.3.07.378-.41.075-.479a52.725,52.725,0,0,0-16.9-1.079.243.243,0,0,0,.055.482" transform="translate(-162.174 -134.126)" fill="#0559b5"/>
            <path id="Trazado_910665" data-name="Trazado 910665" d="M406.835,275.591c-.1,2.731-1.983,5.145-3.191,7.494a27.084,27.084,0,0,0-2.788,7.66,14.849,14.849,0,0,0,.671,7.779,46.557,46.557,0,0,0,3.747,7.122c.755,1.3,1.638,2.531,2.292,3.882a7.837,7.837,0,0,1,.749,4.359c-.033.31.446.387.479.076a9.61,9.61,0,0,0-1.7-6.264c-1.451-2.374-2.957-4.743-4.192-7.239a15.252,15.252,0,0,1-1.726-8.5,24.074,24.074,0,0,1,2.642-8.15c1.278-2.558,3.392-5.187,3.5-8.148.011-.309-.468-.387-.479-.075" transform="translate(-177.002 -121.674)" fill="#0559b5"/>
            <path id="Trazado_910666" data-name="Trazado 910666" d="M391.552,255.152a8.02,8.02,0,0,1-2.422,3.56,18.634,18.634,0,0,1-5.741,3.332c-1.771.644-3.931.681-5.274-.836a5.561,5.561,0,0,1-1.241-3.554c.156-.1.3-.2.445-.295a5.323,5.323,0,0,0,1.131,3.527c1.371,1.568,3.595,1.244,5.311.517,2.859-1.214,6.346-3.2,7.346-6.32.15.023.3.045.445.07" transform="translate(-166.51 -112.7)" fill="#0559b5"/>
            <path id="Trazado_910667" data-name="Trazado 910667" d="M252.072,408.483l-5.505,7.971s1.355,3.537,4.827,4.044l8.385-9.4Z" transform="translate(-108.938 -180.476)" fill="#ffa189"/>
            <path id="Trazado_910668" data-name="Trazado 910668" d="M214.964,419.978l19.409,12.89a10.827,10.827,0,0,0,.645-.881c.09-.136.169-.275.261-.41,1.816-2.627,5.461-8.229,3.7-8.218-2.595,1.322-5.13-1.642-5.13-1.642s-.248-3.839-2.081-3.942-1.3,2.366-3.868,2.553c-1.968.141-3.212-1.518-5.378-2.427a7.113,7.113,0,0,0-2.286-.548,5.582,5.582,0,0,0-4.268,1.4,5.062,5.062,0,0,0-1,1.226" transform="translate(-94.975 -184.388)" fill="#00184c"/>
            <path id="Trazado_910669" data-name="Trazado 910669" d="M249.912,433.79a10.094,10.094,0,0,0-7.77,1.988c-.238.183-.47-.222-.235-.4a10.547,10.547,0,0,1,8.129-2.035c.3.047.17.5-.124.449" transform="translate(-106.836 -191.398)" fill="#fff"/>
            <path id="Trazado_910670" data-name="Trazado 910670" d="M238.915,421.884a.307.307,0,0,0,.09.026,3.555,3.555,0,0,1,.849,1.559c.074.285-.374.374-.447.09a3.081,3.081,0,0,0-.729-1.34.209.209,0,0,1,.229-.339l.007,0" transform="translate(-105.427 -186.386)" fill="#fff"/>
            <path id="Trazado_910671" data-name="Trazado 910671" d="M237.238,421.741a.312.312,0,0,0,.09.026,3.55,3.55,0,0,1,.849,1.559c.074.285-.374.374-.447.09a3.07,3.07,0,0,0-.729-1.34.209.209,0,0,1,.229-.339l.007,0" transform="translate(-104.686 -186.323)" fill="#fff"/>
            <path id="Trazado_910672" data-name="Trazado 910672" d="M235.154,421.365a.329.329,0,0,0,.09.026,3.55,3.55,0,0,1,.849,1.559c.074.285-.374.374-.447.09a3.081,3.081,0,0,0-.729-1.34.209.209,0,0,1,.229-.339l.007,0" transform="translate(-103.765 -186.157)" fill="#fff"/>
            <path id="Trazado_910673" data-name="Trazado 910673" d="M232.985,420.388a.33.33,0,0,0,.09.026,3.544,3.544,0,0,1,.849,1.558c.074.285-.374.374-.447.09a3.078,3.078,0,0,0-.729-1.34.209.209,0,0,1,.229-.339l.007,0" transform="translate(-102.807 -185.725)" fill="#fff"/>
            <path id="Trazado_910674" data-name="Trazado 910674" d="M216.763,418.752l4.579,3.041a4.592,4.592,0,0,0,1.976-3.891,7.106,7.106,0,0,0-2.287-.548,5.578,5.578,0,0,0-4.268,1.4" transform="translate(-95.77 -184.388)" fill="#fff"/>
            <path id="Trazado_910675" data-name="Trazado 910675" d="M214.964,421.1l19.409,12.89a10.836,10.836,0,0,0,.645-.881l.269-.4-19.319-12.83a5.062,5.062,0,0,0-1,1.226" transform="translate(-94.975 -185.508)" fill="#00184c"/>
            <path id="Trazado_910676" data-name="Trazado 910676" d="M326.176,328.639s-13.016-7.709-34.8-11.225c-8.269-1.335-40.242,51.331-40.242,51.331l9.659,7.059c7.609-10.372,23.177-20.232,28.03-32.81.416-1.08,11.432,2.684,24.54,5.686,34.084,5.106,15.287-10.765,12.814-20.04" transform="translate(-110.956 -140.229)" fill="#00184c"/>
            <path id="Trazado_910677" data-name="Trazado 910677" d="M297.692,356.644l-4.4-.61.286-.163a35.336,35.336,0,0,1-6.858,14.12,41.772,41.772,0,0,1-5.793,5.718c-2.415,2.039-4.66,4.262-7.134,6.234a57.451,57.451,0,0,0-6.614,6.7c-.2.223-.53-.108-.33-.33a66.884,66.884,0,0,1,5.647-5.9c1.106-.959,2.276-1.839,3.375-2.808,1.154-1.018,2.276-2.073,3.426-3.1a68.371,68.371,0,0,0,6.059-5.619,34.693,34.693,0,0,0,7.773-15.146.239.239,0,0,1,.286-.162l4.4.609c.3.041.17.49-.124.449" transform="translate(-117.872 -157.103)" fill="#0d2f78"/>
            <path id="Trazado_910678" data-name="Trazado 910678" d="M390.064,246.73s-4.4,6.192-9.382,2.7l.342-2.91.374-3.176.261-2.223,6.458-4.243Z" transform="translate(-168.193 -104.658)" fill="#ffa189"/>
            <path id="Trazado_910679" data-name="Trazado 910679" d="M387.144,243.495c-2.509,5.6-4.943,6.018-5.848,5.949l.373-3.175Z" transform="translate(-168.464 -107.581)" fill="#00184c"/>
            <path id="Trazado_910680" data-name="Trazado 910680" d="M385.939,226.4c-.5,2.233-1.072,2.995-2.555,5.229a8.233,8.233,0,0,1-5,3.295c-4.578.661-6.837-1.067-6.667-7.345.106-3.9-1.1-5.992-.213-7.552h0c.062-.074.124-.145.186-.214a8.751,8.751,0,0,1,5.881-2.837c11.175-.823,9.078,6.22,8.366,9.424" transform="translate(-163.992 -95.835)" fill="#ffa189"/>
            <path id="Trazado_910681" data-name="Trazado 910681" d="M377.308,240.839a2.935,2.935,0,0,0,2.824-1.177c.175-.242-.18-.544-.356-.3a2.472,2.472,0,0,1-2.388,1.019.233.233,0,0,0-.08.459" transform="translate(-166.62 -105.715)" fill="#00184c"/>
            <path id="Trazado_910682" data-name="Trazado 910682" d="M375.664,234.147c-.006.315-.2.567-.44.563a.516.516,0,0,1-.417-.58c.006-.315.2-.568.44-.563s.423.265.417.58" transform="translate(-165.597 -103.194)" fill="#00184c"/>
            <path id="Trazado_910683" data-name="Trazado 910683" d="M382.057,233.439c-.006.315-.2.568-.44.563a.515.515,0,0,1-.417-.58c.006-.315.2-.568.44-.563a.516.516,0,0,1,.417.58" transform="translate(-168.422 -102.882)" fill="#00184c"/>
            <path id="Trazado_910684" data-name="Trazado 910684" d="M371.593,215.937c6.535-3.825,12.461.13,13.681,2.605s1.528,6.71.037,6.082-4.06,1.805-5.223.242c-.645-.867.339-3.95.339-3.95s-5.22.859-4.64-2.536c0,0-2.8-2.249-4.3.03a6.384,6.384,0,0,0-1.282,3.932c-1.771.165-3.3-3.662,1.385-6.4" transform="translate(-162.801 -94.702)" fill="#00184c"/>
            <path id="Trazado_910685" data-name="Trazado 910685" d="M378.5,244.4a1.258,1.258,0,0,0,1.31-.242c.181-.183-.112-.454-.292-.272a.882.882,0,0,1-.926.126c-.247-.073-.338.316-.092.388" transform="translate(-167.165 -107.726)" fill="#e87e64"/>
            <path id="Trazado_910686" data-name="Trazado 910686" d="M385.589,235.188c.012.333-.5.622-1.136.645s-1.168-.229-1.18-.562.5-.622,1.136-.645,1.168.229,1.18.562" transform="translate(-169.337 -103.662)" fill="#e87e64"/>
            <path id="Trazado_910687" data-name="Trazado 910687" d="M374.052,236.227c.012.334-.5.622-1.136.646a1.855,1.855,0,0,1-.786-.13q0-.424.008-.876c0-.013,0-.025,0-.036a1.932,1.932,0,0,1,.735-.164c.639-.023,1.167.228,1.179.561" transform="translate(-164.414 -104.121)" fill="#e87e64"/>
            <path id="Trazado_910688" data-name="Trazado 910688" d="M381.6,229.1a.934.934,0,0,1,1.267.367c.2.467.965.233.761-.239a1.712,1.712,0,0,0-2.267-.889c-.468.2-.234.962.239.761" transform="translate(-168.378 -100.819)" fill="#00184c"/>
            <path id="Trazado_910689" data-name="Trazado 910689" d="M373.263,229.861c.293-.39.658-.949,1.218-.833.5.1.688-.672.184-.777-.893-.185-1.492.409-1.987,1.066-.305.407.276.954.584.544" transform="translate(-164.619 -100.831)" fill="#00184c"/>
            <path id="Trazado_910690" data-name="Trazado 910690" d="M389.761,233.623a2.789,2.789,0,0,1,.255-2.422c.57-.946,1.635-2.41,2.713-2.3,1.584.158,1.825,1.552,1.725,2.985s-.967,3.338-2.945,3.112a2.02,2.02,0,0,1-1.747-1.373" transform="translate(-172.13 -101.13)" fill="#ffa189"/>
            <path id="Trazado_910691" data-name="Trazado 910691" d="M393.12,239.95a2.011,2.011,0,1,1,2.1,1.922,2.014,2.014,0,0,1-2.1-1.922m.452-.02a1.559,1.559,0,1,0,1.49-1.626,1.561,1.561,0,0,0-1.49,1.626" transform="translate(-173.687 -105.087)" fill="#fff"/>
            <path id="Trazado_910692" data-name="Trazado 910692" d="M393.233,234.185a3.562,3.562,0,0,1-.005-1.759c.164-.512.678-1.271,1.331-1.1.219.057.347-.275.126-.332a1.441,1.441,0,0,0-1.529.756,3.358,3.358,0,0,0-.272,2.5.178.178,0,0,0,.349-.063" transform="translate(-173.533 -102.041)" fill="#00184c"/>
            <path id="Trazado_910693" data-name="Trazado 910693" d="M379.781,233.657a2.668,2.668,0,0,1,.083-3.38,1.958,1.958,0,0,1,1.508-.678,2.269,2.269,0,0,1,2.036,2.456h0a2.586,2.586,0,0,1-.645,1.676,1.956,1.956,0,0,1-1.508.677c-.052,0-.1,0-.156-.01a1.975,1.975,0,0,1-1.317-.74m3.264-1.611a1.91,1.91,0,0,0-1.683-2.085,1.6,1.6,0,0,0-1.231.559,2.306,2.306,0,0,0-.071,2.909,1.551,1.551,0,0,0,2.432.06A2.222,2.222,0,0,0,383.045,232.046Z" transform="translate(-167.546 -101.441)" fill="#fff"/>
            <path id="Trazado_910694" data-name="Trazado 910694" d="M374.613,233.381a.2.2,0,0,1,.177-.028,2.758,2.758,0,0,0,.024-.29,2.269,2.269,0,0,0-2.036-2.456,1.958,1.958,0,0,0-1.507.678,2.667,2.667,0,0,0-.083,3.381,1.976,1.976,0,0,0,1.317.74q.077.008.156.01a1.956,1.956,0,0,0,1.507-.677,2.388,2.388,0,0,0,.323-.46.609.609,0,0,1,.121-.9M373.9,234.5a1.551,1.551,0,0,1-2.433-.06,2.307,2.307,0,0,1,.072-2.909,1.6,1.6,0,0,1,1.231-.559,1.911,1.911,0,0,1,1.683,2.085,2.225,2.225,0,0,1-.553,1.442" transform="translate(-163.75 -101.887)" fill="#fff"/>
            <path id="Trazado_910695" data-name="Trazado 910695" d="M377.88,235.968h0a.776.776,0,0,1-.141-1.545l.212-.677a.156.156,0,0,1,.3.093l-.239.764a.156.156,0,0,1-.126.107c-.022,0-.553.094-.529.517.022.393.521.428.542.429a.156.156,0,0,1-.014.311" transform="translate(-166.583 -103.225)" fill="#00184c"/>
            <path id="Trazado_910696" data-name="Trazado 910696" d="M377.657,233.465a.908.908,0,0,1,.99-.246.136.136,0,0,1-.1.252.626.626,0,0,0-.672.155c-.118.126-.337-.033-.218-.161" transform="translate(-166.841 -103.016)" fill="#fff"/>
            <path id="Trazado_910697" data-name="Trazado 910697" d="M386.148,231.093a4.607,4.607,0,0,1,3.02-1.556c.173-.017.217.25.044.268a4.328,4.328,0,0,0-2.846,1.449c-.115.129-.334-.03-.218-.161" transform="translate(-170.593 -101.414)" fill="#fff"/>
            <path id="Trazado_910698" data-name="Trazado 910698" d="M338.756,410.088l1.4,9.586s3.4,1.665,6.288-.33l-.271-12.6Z" transform="translate(-149.669 -179.709)" fill="#ffa189"/>
            <path id="Trazado_910699" data-name="Trazado 910699" d="M315.59,436.62h23.3a10.775,10.775,0,0,0,.05-1.091c0-.163-.012-.323-.009-.486.06-3.193,0-9.877-1.464-8.892-1.43,2.536-5.182,1.47-5.182,1.47s-2.33-3.06-3.914-2.133.226,2.69-1.81,4.267c-1.561,1.206-3.515.512-5.823.953a7.11,7.11,0,0,0-2.208.809,5.577,5.577,0,0,0-2.783,3.525,5.057,5.057,0,0,0-.159,1.577" transform="translate(-139.43 -187.912)" fill="#00184c"/>
            <path id="Trazado_910700" data-name="Trazado 910700" d="M352.233,432.467a10.092,10.092,0,0,0-5.4,5.934c-.1.283-.546.161-.449-.124A10.545,10.545,0,0,1,352,432.065c.271-.123.508.279.235.4" transform="translate(-153.032 -190.884)" fill="#fff"/>
            <path id="Trazado_910701" data-name="Trazado 910701" d="M335.512,432.028a.3.3,0,0,0,.09-.028,3.553,3.553,0,0,1,1.57.829c.219.2-.1.519-.323.323a3.074,3.074,0,0,0-1.347-.713.209.209,0,0,1,0-.409h.008" transform="translate(-148.158 -190.866)" fill="#fff"/>
            <path id="Trazado_910702" data-name="Trazado 910702" d="M334.037,432.837a.3.3,0,0,0,.09-.028,3.554,3.554,0,0,1,1.57.829c.219.2-.1.519-.323.323a3.08,3.08,0,0,0-1.348-.713.209.209,0,0,1,0-.409h.008" transform="translate(-147.506 -191.224)" fill="#fff"/>
            <path id="Trazado_910703" data-name="Trazado 910703" d="M332.093,433.677a.3.3,0,0,0,.09-.029,3.553,3.553,0,0,1,1.57.829c.219.2-.105.519-.323.323a3.075,3.075,0,0,0-1.347-.713.209.209,0,0,1,0-.409h.008" transform="translate(-146.647 -191.595)" fill="#fff"/>
            <path id="Trazado_910704" data-name="Trazado 910704" d="M329.745,434.063a.31.31,0,0,0,.09-.028,3.548,3.548,0,0,1,1.569.829c.219.2-.1.519-.323.323a3.074,3.074,0,0,0-1.347-.713.209.209,0,0,1,0-.409h.008" transform="translate(-145.61 -191.765)" fill="#fff"/>
            <path id="Trazado_910705" data-name="Trazado 910705" d="M315.882,439.315h5.5a4.592,4.592,0,0,0-.507-4.334,7.1,7.1,0,0,0-2.208.809,5.579,5.579,0,0,0-2.783,3.525" transform="translate(-139.563 -192.183)" fill="#fff"/>
            <path id="Trazado_910706" data-name="Trazado 910706" d="M315.59,444.322h23.3a10.777,10.777,0,0,0,.05-1.091v-.486H315.749a5.057,5.057,0,0,0-.159,1.577" transform="translate(-139.43 -195.613)" fill="#00184c"/>
            <path id="Trazado_910707" data-name="Trazado 910707" d="M377.1,329.33s-20.632-8.291-42.421-11.789-4.494,54.449-4.494,54.449l11.906-1.657s-1.555-29.3-.9-30.609c.517-1.035,6.7,10.267,24,10.733,22.716.594,15.447-15.218,11.9-21.127" transform="translate(-143.005 -140.228)" fill="#00184c"/>
            <path id="Trazado_910708" data-name="Trazado 910708" d="M349.938,380.82q-.974-8.65-1.5-17.342-.269-4.288-.44-8.583c-.07-1.772-.476-4.621,1.618-5.448,2.133-.843,3.921,1.05,5.318,2.357a23.162,23.162,0,0,0,6.366,4.153,43.9,43.9,0,0,0,15.086,3.364,18.067,18.067,0,0,0,9.217-1.377,9.553,9.553,0,0,0,5.16-5.847.233.233,0,0,1,.449.124c-1.226,4.452-5.651,6.9-9.968,7.461a31.793,31.793,0,0,1-8.023-.2,51.63,51.63,0,0,1-7.138-1.348A31.68,31.68,0,0,1,359.5,355.6a26.323,26.323,0,0,1-5.721-4.252c-.983-.924-2.265-1.907-3.709-1.555-1.469.358-1.682,1.959-1.672,3.232.02,2.8.221,5.606.38,8.4.371,6.479.9,12.95,1.626,19.4.034.3-.433.3-.466,0" transform="translate(-153.717 -154.3)" fill="#0d2f78"/>
            <path id="Trazado_910709" data-name="Trazado 910709" d="M399.84,331.486a23.907,23.907,0,0,0,4.584,6.784,22.052,22.052,0,0,0,3.187,2.752c1.115.78,3.09,1.614,3.925-.01.137-.267.54-.031.4.235a2.423,2.423,0,0,1-2.92,1.039,10.947,10.947,0,0,1-3.843-2.638,24.206,24.206,0,0,1-5.739-7.927c-.122-.271.279-.508.4-.235" transform="translate(-176.469 -146.404)" fill="#0d2f78"/>
            <path id="Trazado_910710" data-name="Trazado 910710" d="M322.765,343.447q-.674-6.94-1.347-13.881c-.319-3.292-.528-7.8,3.211-9.264.28-.109.4.341.124.449-4.037,1.58-3.043,7.021-2.719,10.357q.6,6.17,1.2,12.339c.028.3-.437.3-.466,0" transform="translate(-141.938 -141.508)" fill="#0d2f78"/>
            <path id="Trazado_910711" data-name="Trazado 910711" d="M254.143,405.175a107.219,107.219,0,0,0,9.309,6.564c.253.159.02.563-.235.4a108.294,108.294,0,0,1-9.4-6.637c-.236-.185.1-.513.329-.329" transform="translate(-112.104 -178.99)" fill="#0d2f78"/>
            <path id="Trazado_910712" data-name="Trazado 910712" d="M334.017,406.465l11.832-1.064c.3-.027.3.439,0,.466l-11.832,1.064c-.3.027-.3-.439,0-.466" transform="translate(-147.477 -179.114)" fill="#0d2f78"/>
            <path id="Trazado_910713" data-name="Trazado 910713" d="M385.7,278.717s.075,14.2-.922,16.29-19.394,2.9-19.394,2.9l-.765,2.759s19.184,6.744,26.421,1.845c5.135-3.475,5.343-25.458,5.343-25.458Z" transform="translate(-161.096 -122.406)" fill="#ffa189"/>
            <path id="Trazado_910714" data-name="Trazado 910714" d="M400.682,309.643a12.775,12.775,0,0,1,2.936,1.016c.268.131.5-.271.236-.4a13.338,13.338,0,0,0-3.048-1.063c-.293-.063-.417.386-.124.449" transform="translate(-176.955 -136.605)" fill="#e87e64"/>
            <path id="Trazado_910715" data-name="Trazado 910715" d="M402.841,309.384a9.732,9.732,0,0,1,2.723-.751c.293-.037.3-.5,0-.466a10.553,10.553,0,0,0-2.958.815c-.274.12-.037.521.235.4" transform="translate(-177.825 -136.153)" fill="#e87e64"/>
            <path id="Trazado_910716" data-name="Trazado 910716" d="M408.8,260.714a24.768,24.768,0,0,1,3.02,14.188l-12.933-.413a38.812,38.812,0,0,1-1-11.228c.326-3.292,1.955-4.85,3.784-5.537,2.947-1.106,5.554.261,7.124,2.989" transform="translate(-175.749 -113.698)" fill="#1574dd"/>
            <path id="Trazado_910717" data-name="Trazado 910717" d="M399.768,266.9a26.953,26.953,0,0,0,.714,11.285.233.233,0,0,1-.449.124,27.511,27.511,0,0,1-.714-11.533c.044-.3.493-.17.449.124" transform="translate(-176.291 -117.792)" fill="#0559b5"/>
            <path id="Trazado_910718" data-name="Trazado 910718" d="M356,321.67l-45.989-3.7-.926-4.913,45.989,3.7Z" transform="translate(-136.559 -138.317)" fill="#bfc9ff"/>
            <path id="Trazado_910719" data-name="Trazado 910719" d="M337.854,299.367,312.145,297.3a2.035,2.035,0,0,1-1.794-1.771l-3.433-21.6a2.144,2.144,0,0,1,2.143-2.571l26.029,2.091a2.655,2.655,0,0,1,2.342,2.31l3.218,20.25a2.8,2.8,0,0,1-2.8,3.355" transform="translate(-135.589 -119.889)" fill="#bfc9ff"/>
            <path id="Trazado_910720" data-name="Trazado 910720" d="M334.067,299.061,308.359,297a2.034,2.034,0,0,1-1.795-1.77l-3.433-21.6a2.144,2.144,0,0,1,2.143-2.571l26.029,2.092a2.655,2.655,0,0,1,2.342,2.31l3.218,20.25a2.8,2.8,0,0,1-2.8,3.355" transform="translate(-133.916 -119.754)" fill="#bfc9ff"/>
            <path id="Trazado_910721" data-name="Trazado 910721" d="M333.689,296.714c.135,1.744-.989,3.059-2.51,2.937a3.609,3.609,0,0,1-3-3.379c-.134-1.744.989-3.059,2.51-2.938a3.609,3.609,0,0,1,3,3.38" transform="translate(-144.993 -129.597)" fill="#0d2f78"/>
            <path id="Trazado_910722" data-name="Trazado 910722" d="M357.768,278.433l3.354,21.671c.046.293-.4.42-.449.124q-1.677-10.836-3.355-21.671c-.045-.294.4-.42.449-.124" transform="translate(-157.869 -122.943)" fill="#0d2f78"/>
          </g>
        </g>
      </g>
    </g>
  </g>
</svg>
