<svg xmlns="http://www.w3.org/2000/svg" xmlns:xlink="http://www.w3.org/1999/xlink" width="400" height="108" viewBox="0 0 400 108">
  <defs>
    <clipPath id="clip-path">
      <rect id="Rectángulo_401273" data-name="Rectángulo 401273" width="11.958" height="11.958" fill="#f6f8de"/>
    </clipPath>
    <clipPath id="clip-path-2">
      <path id="Trazado_873519" data-name="Trazado 873519" d="M11.958,5.979A5.979,5.979,0,1,1,5.979,0a5.979,5.979,0,0,1,5.979,5.979" fill="#f6f8de"/>
    </clipPath>
  </defs>
  <g id="Grupo_1121169" data-name="Grupo 1121169" transform="translate(-327.711 -487)">
    <rect id="Rectángulo_409839" data-name="Rectángulo 409839" width="370.095" height="108" rx="7" transform="translate(345.711 487)" fill="#dcedc8"/>
    <g id="Grupo_1121166" data-name="Grupo 1121166" transform="translate(433.495 502)">
      <path id="Trazado_906868" data-name="Trazado 906868" d="M39.337,0A39.337,39.337,0,1,1,0,39.337,39.337,39.337,0,0,1,39.337,0Z" fill="#fff"/>
      <g id="Grupo_1119330" data-name="Grupo 1119330" transform="translate(7.152 15.895)">
        <g id="Grupo_1099855" data-name="Grupo 1099855" transform="translate(0 0)">
          <g id="Grupo_1099808" data-name="Grupo 1099808" transform="translate(0 0)">
            <g id="Grupo_1101062" data-name="Grupo 1101062" transform="translate(0 26.431)">
              <g id="Grupo_1101056" data-name="Grupo 1101056" transform="translate(11.958) rotate(90)" opacity="0.998" style="isolation: isolate">
                <g id="Grupo_1099844" data-name="Grupo 1099844">
                  <g id="Grupo_1099843" data-name="Grupo 1099843" clip-path="url(#clip-path)">
                    <g id="Grupo_1099842" data-name="Grupo 1099842" transform="translate(0 0)">
                      <g id="Grupo_1099841" data-name="Grupo 1099841" clip-path="url(#clip-path-2)">
                        <rect id="Rectángulo_401272" data-name="Rectángulo 401272" width="15.201" height="15.201" transform="translate(-3.683 10.689) rotate(-70.991)" fill="#f6f8de"/>
                      </g>
                    </g>
                  </g>
                </g>
              </g>
              <g id="Grupo_1101057" data-name="Grupo 1101057" transform="translate(11.958 11.958) rotate(90)" opacity="0.998" style="isolation: isolate">
                <g id="Grupo_1099844-2" data-name="Grupo 1099844">
                  <g id="Grupo_1099843-2" data-name="Grupo 1099843" clip-path="url(#clip-path)">
                    <g id="Grupo_1099842-2" data-name="Grupo 1099842" transform="translate(0 0)">
                      <g id="Grupo_1099841-2" data-name="Grupo 1099841" clip-path="url(#clip-path-2)">
                        <rect id="Rectángulo_401272-2" data-name="Rectángulo 401272" width="15.201" height="15.201" transform="translate(-3.683 10.689) rotate(-70.991)" fill="#f6f8de"/>
                      </g>
                    </g>
                  </g>
                </g>
              </g>
              <g id="Grupo_1101058" data-name="Grupo 1101058" transform="translate(11.958 23.916) rotate(90)" opacity="0.998" style="isolation: isolate">
                <g id="Grupo_1099844-3" data-name="Grupo 1099844">
                  <g id="Grupo_1099843-3" data-name="Grupo 1099843" clip-path="url(#clip-path)">
                    <g id="Grupo_1099842-3" data-name="Grupo 1099842" transform="translate(0 0)">
                      <g id="Grupo_1099841-3" data-name="Grupo 1099841" clip-path="url(#clip-path-2)">
                        <rect id="Rectángulo_401272-3" data-name="Rectángulo 401272" width="15.201" height="15.201" transform="translate(-3.683 10.689) rotate(-70.991)" fill="#f6f8de"/>
                      </g>
                    </g>
                  </g>
                </g>
              </g>
              <g id="Grupo_1101059" data-name="Grupo 1101059" transform="translate(23.916 24.024) rotate(90)" opacity="0.998" style="isolation: isolate">
                <g id="Grupo_1099844-4" data-name="Grupo 1099844">
                  <g id="Grupo_1099843-4" data-name="Grupo 1099843" clip-path="url(#clip-path)">
                    <g id="Grupo_1099842-4" data-name="Grupo 1099842" transform="translate(0 0)">
                      <g id="Grupo_1099841-4" data-name="Grupo 1099841" clip-path="url(#clip-path-2)">
                        <rect id="Rectángulo_401272-4" data-name="Rectángulo 401272" width="15.201" height="15.201" transform="translate(-3.683 10.689) rotate(-70.991)" fill="#f6f8de"/>
                      </g>
                    </g>
                  </g>
                </g>
              </g>
              <g id="Grupo_1101060" data-name="Grupo 1101060" transform="translate(23.916 11.958) rotate(90)" opacity="0.998" style="isolation: isolate">
                <g id="Grupo_1099844-5" data-name="Grupo 1099844">
                  <g id="Grupo_1099843-5" data-name="Grupo 1099843" clip-path="url(#clip-path)">
                    <g id="Grupo_1099842-5" data-name="Grupo 1099842" transform="translate(0 0)">
                      <g id="Grupo_1099841-5" data-name="Grupo 1099841" clip-path="url(#clip-path-2)">
                        <rect id="Rectángulo_401272-5" data-name="Rectángulo 401272" width="15.201" height="15.201" transform="translate(-3.683 10.689) rotate(-70.991)" fill="#f6f8de"/>
                      </g>
                    </g>
                  </g>
                </g>
              </g>
              <g id="Grupo_1101061" data-name="Grupo 1101061" transform="translate(35.874 24.024) rotate(90)" opacity="0.998" style="isolation: isolate">
                <g id="Grupo_1099844-6" data-name="Grupo 1099844">
                  <g id="Grupo_1099843-6" data-name="Grupo 1099843" clip-path="url(#clip-path)">
                    <g id="Grupo_1099842-6" data-name="Grupo 1099842" transform="translate(0 0)">
                      <g id="Grupo_1099841-6" data-name="Grupo 1099841" clip-path="url(#clip-path-2)">
                        <rect id="Rectángulo_401272-6" data-name="Rectángulo 401272" width="15.201" height="15.201" transform="translate(-3.683 10.689) rotate(-70.991)" fill="#f6f8de"/>
                      </g>
                    </g>
                  </g>
                </g>
              </g>
            </g>
            <g id="Grupo_1099776" data-name="Grupo 1099776" transform="translate(9.597)">
              <g id="Grupo_1099618" data-name="Grupo 1099618" transform="translate(0)">
                <rect id="Rectángulo_401104" data-name="Rectángulo 401104" width="45.951" height="46.505" transform="translate(0)" fill="none"/>
              </g>
              <path id="Trazado_907093" data-name="Trazado 907093" d="M66.742,41.417a.7.7,0,1,1,1.1-.861l.593.755,2.389-2.389a.7.7,0,1,1,.987.987l-2.943,2.946a.7.7,0,0,1-1.041-.062Zm2.56-7.253a6.724,6.724,0,1,1-6.724,6.724A6.726,6.726,0,0,1,69.3,34.164ZM73.07,37.12a5.328,5.328,0,1,0,1.561,3.767A5.3,5.3,0,0,0,73.07,37.12Zm-2.3-5.477-.584-1.551H68.414l-.581,1.551a.7.7,0,0,1-.515.441,9.02,9.02,0,0,0-2.85,1.185.691.691,0,0,1-.688.032L62.3,32.629l-1.257,1.257L61.73,35.4a.7.7,0,0,1-.047.658A9,9,0,0,0,60.5,38.917a.7.7,0,0,1-.438.5L58.507,40v1.776l1.551.584a.693.693,0,0,1,.441.512,9.02,9.02,0,0,0,1.185,2.85.7.7,0,0,1,.032.69l-.673,1.482L62.3,49.148l1.511-.685a.689.689,0,0,1,.658.047v0A8.981,8.981,0,0,0,67.331,49.7a.69.69,0,0,1,.5.435l.581,1.551h1.776l.584-1.551a.7.7,0,0,1,.512-.438,9.013,9.013,0,0,0,2.849-1.188.7.7,0,0,1,.69-.032l1.482.673,1.254-1.254-.685-1.511a.694.694,0,0,1,.047-.661,9.044,9.044,0,0,0,1.188-2.86.69.69,0,0,1,.435-.5l1.553-.584V40l-1.553-.581a.7.7,0,0,1-.438-.515,9.011,9.011,0,0,0-1.185-2.85.692.692,0,0,1-.035-.688l.673-1.482-1.254-1.257-1.511.688a.7.7,0,0,1-.661-.047,8.924,8.924,0,0,0-2.86-1.188A.7.7,0,0,1,70.774,31.644Zm.552-2.489.62,1.657a10.38,10.38,0,0,1,2.612,1.079l1.573-.715a.7.7,0,0,1,.821.124l1.937,1.939a.7.7,0,0,1,.143.779L78.3,35.633a10.416,10.416,0,0,1,1.081,2.61l1.65.62a.7.7,0,0,1,.46.653v2.721a.7.7,0,0,1-.453.673l-1.657.62A10.388,10.388,0,0,1,78.3,46.142l.715,1.573a.7.7,0,0,1-.124.821l-1.937,1.937a.7.7,0,0,1-.779.141l-1.615-.732a10.285,10.285,0,0,1-2.612,1.079l-.619,1.653a.7.7,0,0,1-.655.46H67.951a.7.7,0,0,1-.67-.453l-.623-1.66a10.247,10.247,0,0,1-2.61-1.079l-1.576.715a.693.693,0,0,1-.819-.124l-1.939-1.937h0a.7.7,0,0,1-.143-.779l.735-1.615a10.292,10.292,0,0,1-1.081-2.612l-1.65-.619a.7.7,0,0,1-.46-.655V39.536a.7.7,0,0,1,.453-.67l1.657-.623a10.254,10.254,0,0,1,1.081-2.61l-.717-1.576a.7.7,0,0,1,.124-.819L61.654,31.3v0a.691.691,0,0,1,.779-.143l1.615.732a10.329,10.329,0,0,1,2.61-1.079l.62-1.65a.694.694,0,0,1,.653-.46h2.721a.7.7,0,0,1,.674.453ZM66.718,58.039a.7.7,0,0,1,.938-1.026,8.816,8.816,0,0,0,3.005,1.8,12.439,12.439,0,0,0,3.906.681H74.6c4.282.2,6.956.264,8.356-.262,1.106-.415,1.309-1.393.9-3.322-.161-.762.49-1.264.5-1.459a15.232,15.232,0,0,1-.237-1.971.7.7,0,0,1,.542-.634,16.416,16.416,0,0,0,2.682-.324c.193-.1.237-.371-.089-1.029L84.651,45.5a.7.7,0,0,1-.082-.515,15.428,15.428,0,0,0,.4-3.495h0a15.382,15.382,0,0,0-30.764.008c0,5.239,1.586,7.1,3.287,9.1,2.1,2.463,4.359,5.123,4.478,13.4H73.878V60.852a11.39,11.39,0,0,1-7.16-2.813Zm19.264-13,2.523,4.826h0c.8,1.613.371,2.444-.539,2.9a6.224,6.224,0,0,1-2.412.376,5.371,5.371,0,0,1,.2,1.368,1.877,1.877,0,0,1-.4,1c-.059.092-.143.047-.131.112.576,2.744.163,4.181-1.776,4.91-1.551.584-4.138.561-8.178.383v3.772a.7.7,0,0,1-.759.7H61.281a.7.7,0,0,1-.7-.7c0-8.316-2.155-10.847-4.151-13.192-1.877-2.207-3.624-4.257-3.624-10a16.775,16.775,0,0,1,33.55-.007h.005A16.837,16.837,0,0,1,85.982,45.04Z" transform="translate(-48.604 -24.358)" fill="#474d41"/>
            </g>
          </g>
        </g>
      </g>
    </g>
    <g id="Grupo_1121167" data-name="Grupo 1121167" transform="translate(327.711 502)">
      <rect id="Rectángulo_409320" data-name="Rectángulo 409320" width="78.674" height="78.674" rx="39.337" fill="#fff"/>
      <g id="Grupo_1119330-2" data-name="Grupo 1119330" transform="translate(7.152 17.608)">
        <g id="Grupo_1099855-2" data-name="Grupo 1099855" transform="translate(0 0)">
          <g id="Grupo_1099808-2" data-name="Grupo 1099808">
            <g id="Grupo_1101062-2" data-name="Grupo 1101062" transform="translate(0 24.718)">
              <g id="Grupo_1101056-2" data-name="Grupo 1101056" transform="translate(11.958) rotate(90)" opacity="0.998" style="isolation: isolate">
                <g id="Grupo_1099844-7" data-name="Grupo 1099844">
                  <g id="Grupo_1099843-7" data-name="Grupo 1099843" clip-path="url(#clip-path)">
                    <g id="Grupo_1099842-7" data-name="Grupo 1099842" transform="translate(0 0)">
                      <g id="Grupo_1099841-7" data-name="Grupo 1099841" clip-path="url(#clip-path-2)">
                        <rect id="Rectángulo_401272-7" data-name="Rectángulo 401272" width="15.201" height="15.201" transform="translate(-3.683 10.689) rotate(-70.991)" fill="#f6f8de"/>
                      </g>
                    </g>
                  </g>
                </g>
              </g>
              <g id="Grupo_1101057-2" data-name="Grupo 1101057" transform="translate(11.958 11.958) rotate(90)" opacity="0.998" style="isolation: isolate">
                <g id="Grupo_1099844-8" data-name="Grupo 1099844">
                  <g id="Grupo_1099843-8" data-name="Grupo 1099843" clip-path="url(#clip-path)">
                    <g id="Grupo_1099842-8" data-name="Grupo 1099842" transform="translate(0 0)">
                      <g id="Grupo_1099841-8" data-name="Grupo 1099841" clip-path="url(#clip-path-2)">
                        <rect id="Rectángulo_401272-8" data-name="Rectángulo 401272" width="15.201" height="15.201" transform="translate(-3.683 10.689) rotate(-70.991)" fill="#f6f8de"/>
                      </g>
                    </g>
                  </g>
                </g>
              </g>
              <g id="Grupo_1101058-2" data-name="Grupo 1101058" transform="translate(11.958 23.916) rotate(90)" opacity="0.998" style="isolation: isolate">
                <g id="Grupo_1099844-9" data-name="Grupo 1099844">
                  <g id="Grupo_1099843-9" data-name="Grupo 1099843" clip-path="url(#clip-path)">
                    <g id="Grupo_1099842-9" data-name="Grupo 1099842" transform="translate(0 0)">
                      <g id="Grupo_1099841-9" data-name="Grupo 1099841" clip-path="url(#clip-path-2)">
                        <rect id="Rectángulo_401272-9" data-name="Rectángulo 401272" width="15.201" height="15.201" transform="translate(-3.683 10.689) rotate(-70.991)" fill="#f6f8de"/>
                      </g>
                    </g>
                  </g>
                </g>
              </g>
              <g id="Grupo_1101059-2" data-name="Grupo 1101059" transform="translate(23.916 24.024) rotate(90)" opacity="0.998" style="isolation: isolate">
                <g id="Grupo_1099844-10" data-name="Grupo 1099844">
                  <g id="Grupo_1099843-10" data-name="Grupo 1099843" clip-path="url(#clip-path)">
                    <g id="Grupo_1099842-10" data-name="Grupo 1099842" transform="translate(0 0)">
                      <g id="Grupo_1099841-10" data-name="Grupo 1099841" clip-path="url(#clip-path-2)">
                        <rect id="Rectángulo_401272-10" data-name="Rectángulo 401272" width="15.201" height="15.201" transform="translate(-3.683 10.689) rotate(-70.991)" fill="#f6f8de"/>
                      </g>
                    </g>
                  </g>
                </g>
              </g>
              <g id="Grupo_1101060-2" data-name="Grupo 1101060" transform="translate(23.916 11.958) rotate(90)" opacity="0.998" style="isolation: isolate">
                <g id="Grupo_1099844-11" data-name="Grupo 1099844">
                  <g id="Grupo_1099843-11" data-name="Grupo 1099843" clip-path="url(#clip-path)">
                    <g id="Grupo_1099842-11" data-name="Grupo 1099842" transform="translate(0 0)">
                      <g id="Grupo_1099841-11" data-name="Grupo 1099841" clip-path="url(#clip-path-2)">
                        <rect id="Rectángulo_401272-11" data-name="Rectángulo 401272" width="15.201" height="15.201" transform="translate(-3.683 10.689) rotate(-70.991)" fill="#f6f8de"/>
                      </g>
                    </g>
                  </g>
                </g>
              </g>
              <g id="Grupo_1101061-2" data-name="Grupo 1101061" transform="translate(35.874 24.024) rotate(90)" opacity="0.998" style="isolation: isolate">
                <g id="Grupo_1099844-12" data-name="Grupo 1099844">
                  <g id="Grupo_1099843-12" data-name="Grupo 1099843" clip-path="url(#clip-path)">
                    <g id="Grupo_1099842-12" data-name="Grupo 1099842" transform="translate(0 0)">
                      <g id="Grupo_1099841-12" data-name="Grupo 1099841" clip-path="url(#clip-path-2)">
                        <rect id="Rectángulo_401272-12" data-name="Rectángulo 401272" width="15.201" height="15.201" transform="translate(-3.683 10.689) rotate(-70.991)" fill="#f6f8de"/>
                      </g>
                    </g>
                  </g>
                </g>
              </g>
            </g>
            <g id="Grupo_1099776-2" data-name="Grupo 1099776" transform="translate(9.415)">
              <g id="Grupo_1099618-2" data-name="Grupo 1099618" transform="translate(0.887)">
                <rect id="Rectángulo_401104-2" data-name="Rectángulo 401104" width="44.668" height="45.206" transform="translate(0)" fill="none"/>
              </g>
              <path id="Trazado_907094" data-name="Trazado 907094" d="M35.221,52.392a16.152,16.152,0,0,0-1.587-.31,4.8,4.8,0,0,0,1.351-3.439,3.332,3.332,0,0,0-3.5-3.61,3.332,3.332,0,0,0-3.5,3.61,4.8,4.8,0,0,0,1.346,3.434,14.967,14.967,0,0,0-1.587.316c-2.021.52-3.18,1.7-3.18,3.229v7.483a3.286,3.286,0,0,0,2.611,3.17V76.533a.758.758,0,0,0,.758.758h7.1a.758.758,0,0,0,.758-.758V66.275a3.286,3.286,0,0,0,2.611-3.17V55.622c0-1.551-1.162-2.728-3.187-3.23Zm-3.734-5.843c.9,0,1.984.363,1.984,2.095,0,1.542-.908,2.845-1.984,2.845s-1.984-1.3-1.984-2.845A1.823,1.823,0,0,1,31.487,46.548Zm5.405,16.557a1.738,1.738,0,0,1-1.1,1.584v-6.63a.758.758,0,1,0-1.515,0V75.776H32.342v-8.23a.758.758,0,0,0-1.515,0v8.23H28.693V58.059a.758.758,0,0,0-1.515,0v6.63a1.738,1.738,0,0,1-1.1-1.584V55.622c0-1.022,1.111-1.522,2.042-1.761a13.6,13.6,0,0,1,6.732,0c.76.189,2.036.668,2.036,1.76Zm8.847-26.429a9.234,9.234,0,1,0,9.234,9.234A9.244,9.244,0,0,0,45.739,36.676Zm0,16.952a7.719,7.719,0,1,1,7.719-7.719A7.727,7.727,0,0,1,45.739,53.629Zm2.8-6.1A.758.758,0,0,1,47.5,47.8L45.36,46.566a.758.758,0,0,1-.379-.656V42.7a.758.758,0,1,1,1.515,0v2.769l1.762,1.017A.758.758,0,0,1,48.536,47.525Zm-3.555-7.632v-.732a.758.758,0,1,1,1.515,0v.732a.758.758,0,1,1-1.515,0Zm4.477,2.3a.758.758,0,0,1,0-1.071l.517-.517a.758.758,0,1,1,1.071,1.071l-.517.517a.758.758,0,0,1-1.071,0Zm1.589,7.955a.758.758,0,0,1-1.071,1.071l-.517-.517a.758.758,0,0,1,1.071-1.071Zm-9.027-.517a.757.757,0,0,1,0,1.071l-.517.517a.758.758,0,0,1-1.071-1.071l.517-.517a.758.758,0,0,1,1.071,0Zm0-8.51a.758.758,0,1,1-1.071,1.071l-.517-.517A.758.758,0,0,1,41.5,40.6Zm11.225,4.79a.758.758,0,0,1-.758.758h-.732a.758.758,0,0,1,0-1.515h.732A.758.758,0,0,1,53.245,45.91ZM46.5,51.927v.732a.758.758,0,1,1-1.515,0v-.732a.758.758,0,1,1,1.515,0Zm-6.775-5.259H38.99a.758.758,0,1,1,0-1.515h.732a.758.758,0,1,1,0,1.515ZM26.354,45.51a10.818,10.818,0,0,0-9.12-5.33,10.819,10.819,0,0,0-9.12,5.33.758.758,0,0,0,0,.8,10.819,10.819,0,0,0,9.12,5.329,10.819,10.819,0,0,0,9.12-5.329A.758.758,0,0,0,26.354,45.51Zm-9.12,4.614A9.246,9.246,0,0,1,9.663,45.91,9.245,9.245,0,0,1,17.234,41.7a9.245,9.245,0,0,1,7.572,4.214A9.245,9.245,0,0,1,17.234,50.124Zm0-7.9A3.685,3.685,0,1,0,20.92,45.91,3.689,3.689,0,0,0,17.235,42.225Zm0,5.855a2.17,2.17,0,1,1,2.17-2.17A2.172,2.172,0,0,1,17.235,48.08Zm-.758-9.115V36.292a.758.758,0,1,1,1.515,0v2.673a.758.758,0,1,1-1.515,0Zm5.038.944,1.336-2.315a.758.758,0,0,1,1.312.758l-1.336,2.315a.758.758,0,1,1-1.312-.758ZM10.306,38.351a.758.758,0,1,1,1.312-.758l1.336,2.315a.758.758,0,1,1-1.312.758Zm7.686,14.5v2.673a.758.758,0,1,1-1.515,0V52.855a.758.758,0,1,1,1.515,0Zm-5.038-.944-1.336,2.315a.758.758,0,0,1-1.312-.758l1.336-2.315a.758.758,0,1,1,1.312.758Zm11.209,1.557a.758.758,0,1,1-1.312.758l-1.336-2.315a.758.758,0,1,1,1.312-.758Z" transform="translate(-8.001 -33.557)" fill="#474d41"/>
            </g>
          </g>
        </g>
      </g>
    </g>
    <g id="Grupo_1121168" data-name="Grupo 1121168" transform="translate(541.266 502)">
      <rect id="Rectángulo_409320-2" data-name="Rectángulo 409320" width="78.674" height="78.674" rx="39.337" fill="#fff"/>
      <g id="Grupo_1119330-3" data-name="Grupo 1119330" transform="translate(7.152 15.895)">
        <g id="Grupo_1099855-3" data-name="Grupo 1099855" transform="translate(0 0)">
          <g id="Grupo_1099808-3" data-name="Grupo 1099808" transform="translate(0 0)">
            <g id="Grupo_1101062-3" data-name="Grupo 1101062" transform="translate(0 26.431)">
              <g id="Grupo_1101056-3" data-name="Grupo 1101056" transform="translate(11.958) rotate(90)" opacity="0.998" style="isolation: isolate">
                <g id="Grupo_1099844-13" data-name="Grupo 1099844">
                  <g id="Grupo_1099843-13" data-name="Grupo 1099843" clip-path="url(#clip-path)">
                    <g id="Grupo_1099842-13" data-name="Grupo 1099842" transform="translate(0 0)">
                      <g id="Grupo_1099841-13" data-name="Grupo 1099841" clip-path="url(#clip-path-2)">
                        <rect id="Rectángulo_401272-13" data-name="Rectángulo 401272" width="15.201" height="15.201" transform="translate(-3.683 10.689) rotate(-70.991)" fill="#f6f8de"/>
                      </g>
                    </g>
                  </g>
                </g>
              </g>
              <g id="Grupo_1101057-3" data-name="Grupo 1101057" transform="translate(11.958 11.958) rotate(90)" opacity="0.998" style="isolation: isolate">
                <g id="Grupo_1099844-14" data-name="Grupo 1099844">
                  <g id="Grupo_1099843-14" data-name="Grupo 1099843" clip-path="url(#clip-path)">
                    <g id="Grupo_1099842-14" data-name="Grupo 1099842" transform="translate(0 0)">
                      <g id="Grupo_1099841-14" data-name="Grupo 1099841" clip-path="url(#clip-path-2)">
                        <rect id="Rectángulo_401272-14" data-name="Rectángulo 401272" width="15.201" height="15.201" transform="translate(-3.683 10.689) rotate(-70.991)" fill="#f6f8de"/>
                      </g>
                    </g>
                  </g>
                </g>
              </g>
              <g id="Grupo_1101058-3" data-name="Grupo 1101058" transform="translate(11.958 23.916) rotate(90)" opacity="0.998" style="isolation: isolate">
                <g id="Grupo_1099844-15" data-name="Grupo 1099844">
                  <g id="Grupo_1099843-15" data-name="Grupo 1099843" clip-path="url(#clip-path)">
                    <g id="Grupo_1099842-15" data-name="Grupo 1099842" transform="translate(0 0)">
                      <g id="Grupo_1099841-15" data-name="Grupo 1099841" clip-path="url(#clip-path-2)">
                        <rect id="Rectángulo_401272-15" data-name="Rectángulo 401272" width="15.201" height="15.201" transform="translate(-3.683 10.689) rotate(-70.991)" fill="#f6f8de"/>
                      </g>
                    </g>
                  </g>
                </g>
              </g>
              <g id="Grupo_1101059-3" data-name="Grupo 1101059" transform="translate(23.916 24.024) rotate(90)" opacity="0.998" style="isolation: isolate">
                <g id="Grupo_1099844-16" data-name="Grupo 1099844">
                  <g id="Grupo_1099843-16" data-name="Grupo 1099843" clip-path="url(#clip-path)">
                    <g id="Grupo_1099842-16" data-name="Grupo 1099842" transform="translate(0 0)">
                      <g id="Grupo_1099841-16" data-name="Grupo 1099841" clip-path="url(#clip-path-2)">
                        <rect id="Rectángulo_401272-16" data-name="Rectángulo 401272" width="15.201" height="15.201" transform="translate(-3.683 10.689) rotate(-70.991)" fill="#f6f8de"/>
                      </g>
                    </g>
                  </g>
                </g>
              </g>
              <g id="Grupo_1101060-3" data-name="Grupo 1101060" transform="translate(23.916 11.958) rotate(90)" opacity="0.998" style="isolation: isolate">
                <g id="Grupo_1099844-17" data-name="Grupo 1099844">
                  <g id="Grupo_1099843-17" data-name="Grupo 1099843" clip-path="url(#clip-path)">
                    <g id="Grupo_1099842-17" data-name="Grupo 1099842" transform="translate(0 0)">
                      <g id="Grupo_1099841-17" data-name="Grupo 1099841" clip-path="url(#clip-path-2)">
                        <rect id="Rectángulo_401272-17" data-name="Rectángulo 401272" width="15.201" height="15.201" transform="translate(-3.683 10.689) rotate(-70.991)" fill="#f6f8de"/>
                      </g>
                    </g>
                  </g>
                </g>
              </g>
              <g id="Grupo_1101061-3" data-name="Grupo 1101061" transform="translate(35.874 24.024) rotate(90)" opacity="0.998" style="isolation: isolate">
                <g id="Grupo_1099844-18" data-name="Grupo 1099844">
                  <g id="Grupo_1099843-18" data-name="Grupo 1099843" clip-path="url(#clip-path)">
                    <g id="Grupo_1099842-18" data-name="Grupo 1099842" transform="translate(0 0)">
                      <g id="Grupo_1099841-18" data-name="Grupo 1099841" clip-path="url(#clip-path-2)">
                        <rect id="Rectángulo_401272-18" data-name="Rectángulo 401272" width="15.201" height="15.201" transform="translate(-3.683 10.689) rotate(-70.991)" fill="#f6f8de"/>
                      </g>
                    </g>
                  </g>
                </g>
              </g>
            </g>
            <g id="Grupo_1099776-3" data-name="Grupo 1099776" transform="translate(9.597)">
              <g id="Grupo_1099618-3" data-name="Grupo 1099618" transform="translate(0)">
                <rect id="Rectángulo_401104-3" data-name="Rectángulo 401104" width="45.951" height="46.505" transform="translate(0)" fill="none"/>
              </g>
              <g id="Grupo_1120655" data-name="Grupo 1120655" transform="translate(2.169 2.953)">
                <path id="Trazado_907095" data-name="Trazado 907095" d="M1.676,39.388H17.222a.672.672,0,0,0,.479-.2l4.731-4.731a.672.672,0,0,0,.2-.477v-22.3A.676.676,0,0,0,21.953,11H1.676A.676.676,0,0,0,1,11.676V38.712A.676.676,0,0,0,1.676,39.388ZM17.9,37.081V34.657h2.424ZM2.352,12.352H21.277V33.3H17.222a.676.676,0,0,0-.676.676v4.055H2.352Z" transform="translate(-1 -4.917)" fill="#474d41"/>
                <path id="Trazado_907096" data-name="Trazado 907096" d="M6.676,32.787h2.7a.676.676,0,0,0,.676-.676V24.676A.676.676,0,0,0,9.38,24h-2.7A.676.676,0,0,0,6,24.676v7.435A.676.676,0,0,0,6.676,32.787Zm.676-7.435H8.7v6.083H7.352Z" transform="translate(-2.62 -9.13)" fill="#474d41"/>
                <path id="Trazado_907097" data-name="Trazado 907097" d="M14.676,30.842h2.7a.676.676,0,0,0,.676-.676V18.676A.676.676,0,0,0,17.38,18h-2.7a.676.676,0,0,0-.676.676v11.49A.676.676,0,0,0,14.676,30.842Zm.676-11.49H16.7V29.49H15.352Z" transform="translate(-5.213 -7.185)" fill="#474d41"/>
                <path id="Trazado_907098" data-name="Trazado 907098" d="M22.676,34.083h2.7a.676.676,0,0,0,.676-.676V28.676A.676.676,0,0,0,25.38,28h-2.7a.676.676,0,0,0-.676.676v4.731A.676.676,0,0,0,22.676,34.083Zm.676-4.731H24.7v3.38H23.352Z" transform="translate(-7.806 -10.426)" fill="#474d41"/>
                <path id="Trazado_907099" data-name="Trazado 907099" d="M5,39H21.222v1.352H5Z" transform="translate(-2.296 -13.991)" fill="#474d41"/>
                <path id="Trazado_907100" data-name="Trazado 907100" d="M47.967,2a6.07,6.07,0,0,0-5.179,9.26l-7.4,5.752.83,1.068,7.4-5.754A6.083,6.083,0,1,0,47.967,2Zm0,10.815A4.731,4.731,0,1,1,52.7,8.083,4.731,4.731,0,0,1,47.967,12.815Z" transform="translate(-12.144 -2)" fill="#474d41"/>
                <path id="Trazado_907101" data-name="Trazado 907101" d="M47.967,42.124a6.064,6.064,0,0,0-4.352,1.841l-7.4-5.754-.83,1.068,7.4,5.752a6.077,6.077,0,1,0,5.179-2.906Zm0,10.815A4.731,4.731,0,1,1,52.7,48.207a4.731,4.731,0,0,1-4.731,4.731Z" transform="translate(-12.144 -13.735)" fill="#474d41"/>
                <path id="Trazado_907102" data-name="Trazado 907102" d="M51.669,10.539l-.956-.956-.956.956,1.434,1.434a.676.676,0,0,0,.956,0l3.345-3.346-.956-.956Z" transform="translate(-16.802 -3.838)" fill="#474d41"/>
                <path id="Trazado_907103" data-name="Trazado 907103" d="M54.412,49.111,52.74,50.784l-1.673-1.673-.956.956,1.673,1.673-1.673,1.673.956.956L52.74,52.7l1.673,1.673.956-.956L53.7,51.74l1.673-1.673Z" transform="translate(-16.916 -17.268)" fill="#474d41"/>
              </g>
            </g>
          </g>
        </g>
      </g>
    </g>
    <g id="Grupo_1121539" data-name="Grupo 1121539" transform="translate(649.037 502)">
      <rect id="Rectángulo_409320-3" data-name="Rectángulo 409320" width="78.674" height="78.674" rx="39.337" fill="#fff"/>
      <g id="Grupo_1119330-4" data-name="Grupo 1119330" transform="translate(7.152 15.895)">
        <g id="Grupo_1099855-4" data-name="Grupo 1099855" transform="translate(0 0)">
          <g id="Grupo_1099808-4" data-name="Grupo 1099808" transform="translate(0 0)">
            <g id="Grupo_1101062-4" data-name="Grupo 1101062" transform="translate(0 26.431)">
              <g id="Grupo_1101056-4" data-name="Grupo 1101056" transform="translate(11.958) rotate(90)" opacity="0.998" style="isolation: isolate">
                <g id="Grupo_1099844-19" data-name="Grupo 1099844">
                  <g id="Grupo_1099843-19" data-name="Grupo 1099843" clip-path="url(#clip-path)">
                    <g id="Grupo_1099842-19" data-name="Grupo 1099842" transform="translate(0 0)">
                      <g id="Grupo_1099841-19" data-name="Grupo 1099841" clip-path="url(#clip-path-2)">
                        <rect id="Rectángulo_401272-19" data-name="Rectángulo 401272" width="15.201" height="15.201" transform="translate(-3.683 10.689) rotate(-70.991)" fill="#f6f8de"/>
                      </g>
                    </g>
                  </g>
                </g>
              </g>
              <g id="Grupo_1101057-4" data-name="Grupo 1101057" transform="translate(11.958 11.958) rotate(90)" opacity="0.998" style="isolation: isolate">
                <g id="Grupo_1099844-20" data-name="Grupo 1099844">
                  <g id="Grupo_1099843-20" data-name="Grupo 1099843" clip-path="url(#clip-path)">
                    <g id="Grupo_1099842-20" data-name="Grupo 1099842" transform="translate(0 0)">
                      <g id="Grupo_1099841-20" data-name="Grupo 1099841" clip-path="url(#clip-path-2)">
                        <rect id="Rectángulo_401272-20" data-name="Rectángulo 401272" width="15.201" height="15.201" transform="translate(-3.683 10.689) rotate(-70.991)" fill="#f6f8de"/>
                      </g>
                    </g>
                  </g>
                </g>
              </g>
              <g id="Grupo_1101058-4" data-name="Grupo 1101058" transform="translate(11.958 23.916) rotate(90)" opacity="0.998" style="isolation: isolate">
                <g id="Grupo_1099844-21" data-name="Grupo 1099844">
                  <g id="Grupo_1099843-21" data-name="Grupo 1099843" clip-path="url(#clip-path)">
                    <g id="Grupo_1099842-21" data-name="Grupo 1099842" transform="translate(0 0)">
                      <g id="Grupo_1099841-21" data-name="Grupo 1099841" clip-path="url(#clip-path-2)">
                        <rect id="Rectángulo_401272-21" data-name="Rectángulo 401272" width="15.201" height="15.201" transform="translate(-3.683 10.689) rotate(-70.991)" fill="#f6f8de"/>
                      </g>
                    </g>
                  </g>
                </g>
              </g>
              <g id="Grupo_1101059-4" data-name="Grupo 1101059" transform="translate(23.916 24.024) rotate(90)" opacity="0.998" style="isolation: isolate">
                <g id="Grupo_1099844-22" data-name="Grupo 1099844">
                  <g id="Grupo_1099843-22" data-name="Grupo 1099843" clip-path="url(#clip-path)">
                    <g id="Grupo_1099842-22" data-name="Grupo 1099842" transform="translate(0 0)">
                      <g id="Grupo_1099841-22" data-name="Grupo 1099841" clip-path="url(#clip-path-2)">
                        <rect id="Rectángulo_401272-22" data-name="Rectángulo 401272" width="15.201" height="15.201" transform="translate(-3.683 10.689) rotate(-70.991)" fill="#f6f8de"/>
                      </g>
                    </g>
                  </g>
                </g>
              </g>
              <g id="Grupo_1101060-4" data-name="Grupo 1101060" transform="translate(23.916 11.958) rotate(90)" opacity="0.998" style="isolation: isolate">
                <g id="Grupo_1099844-23" data-name="Grupo 1099844">
                  <g id="Grupo_1099843-23" data-name="Grupo 1099843" clip-path="url(#clip-path)">
                    <g id="Grupo_1099842-23" data-name="Grupo 1099842" transform="translate(0 0)">
                      <g id="Grupo_1099841-23" data-name="Grupo 1099841" clip-path="url(#clip-path-2)">
                        <rect id="Rectángulo_401272-23" data-name="Rectángulo 401272" width="15.201" height="15.201" transform="translate(-3.683 10.689) rotate(-70.991)" fill="#f6f8de"/>
                      </g>
                    </g>
                  </g>
                </g>
              </g>
              <g id="Grupo_1101061-4" data-name="Grupo 1101061" transform="translate(35.874 24.024) rotate(90)" opacity="0.998" style="isolation: isolate">
                <g id="Grupo_1099844-24" data-name="Grupo 1099844">
                  <g id="Grupo_1099843-24" data-name="Grupo 1099843" clip-path="url(#clip-path)">
                    <g id="Grupo_1099842-24" data-name="Grupo 1099842" transform="translate(0 0)">
                      <g id="Grupo_1099841-24" data-name="Grupo 1099841" clip-path="url(#clip-path-2)">
                        <rect id="Rectángulo_401272-24" data-name="Rectángulo 401272" width="15.201" height="15.201" transform="translate(-3.683 10.689) rotate(-70.991)" fill="#f6f8de"/>
                      </g>
                    </g>
                  </g>
                </g>
              </g>
            </g>
            <g id="Grupo_1099776-4" data-name="Grupo 1099776" transform="translate(9.597)">
              <g id="Grupo_1099618-4" data-name="Grupo 1099618" transform="translate(0)">
                <rect id="Rectángulo_401104-4" data-name="Rectángulo 401104" width="45.951" height="46.505" transform="translate(0)" fill="none"/>
              </g>
              <g id="Grupo_1120655-2" data-name="Grupo 1120655" transform="translate(2.169 2.953)">
                <path id="Trazado_907095-2" data-name="Trazado 907095" d="M1.676,39.388H17.222a.672.672,0,0,0,.479-.2l4.731-4.731a.672.672,0,0,0,.2-.477v-22.3A.676.676,0,0,0,21.953,11H1.676A.676.676,0,0,0,1,11.676V38.712A.676.676,0,0,0,1.676,39.388ZM17.9,37.081V34.657h2.424ZM2.352,12.352H21.277V33.3H17.222a.676.676,0,0,0-.676.676v4.055H2.352Z" transform="translate(-1 -4.917)" fill="#474d41"/>
                <path id="Trazado_907096-2" data-name="Trazado 907096" d="M6.676,32.787h2.7a.676.676,0,0,0,.676-.676V24.676A.676.676,0,0,0,9.38,24h-2.7A.676.676,0,0,0,6,24.676v7.435A.676.676,0,0,0,6.676,32.787Zm.676-7.435H8.7v6.083H7.352Z" transform="translate(-2.62 -9.13)" fill="#474d41"/>
                <path id="Trazado_907097-2" data-name="Trazado 907097" d="M14.676,30.842h2.7a.676.676,0,0,0,.676-.676V18.676A.676.676,0,0,0,17.38,18h-2.7a.676.676,0,0,0-.676.676v11.49A.676.676,0,0,0,14.676,30.842Zm.676-11.49H16.7V29.49H15.352Z" transform="translate(-5.213 -7.185)" fill="#474d41"/>
                <path id="Trazado_907098-2" data-name="Trazado 907098" d="M22.676,34.083h2.7a.676.676,0,0,0,.676-.676V28.676A.676.676,0,0,0,25.38,28h-2.7a.676.676,0,0,0-.676.676v4.731A.676.676,0,0,0,22.676,34.083Zm.676-4.731H24.7v3.38H23.352Z" transform="translate(-7.806 -10.426)" fill="#474d41"/>
                <path id="Trazado_907099-2" data-name="Trazado 907099" d="M5,39H21.222v1.352H5Z" transform="translate(-2.296 -13.991)" fill="#474d41"/>
                <path id="Trazado_907100-2" data-name="Trazado 907100" d="M47.967,2a6.07,6.07,0,0,0-5.179,9.26l-7.4,5.752.83,1.068,7.4-5.754A6.083,6.083,0,1,0,47.967,2Zm0,10.815A4.731,4.731,0,1,1,52.7,8.083,4.731,4.731,0,0,1,47.967,12.815Z" transform="translate(-12.144 -2)" fill="#474d41"/>
                <path id="Trazado_907101-2" data-name="Trazado 907101" d="M47.967,42.124a6.064,6.064,0,0,0-4.352,1.841l-7.4-5.754-.83,1.068,7.4,5.752a6.077,6.077,0,1,0,5.179-2.906Zm0,10.815A4.731,4.731,0,1,1,52.7,48.207a4.731,4.731,0,0,1-4.731,4.731Z" transform="translate(-12.144 -13.735)" fill="#474d41"/>
                <path id="Trazado_907102-2" data-name="Trazado 907102" d="M51.669,10.539l-.956-.956-.956.956,1.434,1.434a.676.676,0,0,0,.956,0l3.345-3.346-.956-.956Z" transform="translate(-16.802 -3.838)" fill="#474d41"/>
                <path id="Trazado_907103-2" data-name="Trazado 907103" d="M54.412,49.111,52.74,50.784l-1.673-1.673-.956.956,1.673,1.673-1.673,1.673.956.956L52.74,52.7l1.673,1.673.956-.956L53.7,51.74l1.673-1.673Z" transform="translate(-16.916 -17.268)" fill="#474d41"/>
              </g>
            </g>
          </g>
        </g>
      </g>
    </g>
  </g>
</svg>
