<svg xmlns="http://www.w3.org/2000/svg" xmlns:xlink="http://www.w3.org/1999/xlink" width="129" height="128" viewBox="0 0 129 128">
  <defs>
    <clipPath id="clip-path">
      <path id="Rectángulo_36179" data-name="Rectángulo 36179" d="M0,0H129V128H0Z" transform="translate(390 4467)" fill="#dcedc8"/>
    </clipPath>
    <clipPath id="clip-path-2">
      <rect id="Rectángulo_401301" data-name="Rectángulo 401301" width="74.96" height="225.068" fill="none"/>
    </clipPath>
    <clipPath id="clip-path-4">
      <rect id="Rectángulo_401247" data-name="Rectángulo 401247" width="18.555" height="18.555" fill="none"/>
    </clipPath>
    <clipPath id="clip-path-5">
      <path id="Trazado_873506" data-name="Trazado 873506" d="M18.555,9.277A9.278,9.278,0,1,1,9.277,0a9.278,9.278,0,0,1,9.278,9.277" fill="none"/>
    </clipPath>
    <linearGradient id="linear-gradient" x1="-2.285" y1="5.638" x2="-2.264" y2="5.638" gradientUnits="objectBoundingBox">
      <stop offset="0" stop-color="#fff"/>
      <stop offset="0.07" stop-color="#f7f8ee"/>
      <stop offset="0.208" stop-color="#e3e7c4"/>
      <stop offset="0.399" stop-color="#c4cb80"/>
      <stop offset="0.457" stop-color="#bac36a"/>
      <stop offset="0.532" stop-color="#c1cc64"/>
      <stop offset="0.637" stop-color="#d4e157"/>
      <stop offset="1" stop-color="#d4e157"/>
    </linearGradient>
    <clipPath id="clip-path-7">
      <path id="Trazado_873507" data-name="Trazado 873507" d="M18.555,9.277A9.278,9.278,0,1,1,9.277,0a9.277,9.277,0,0,1,9.278,9.277" fill="none"/>
    </clipPath>
    <linearGradient id="linear-gradient-2" x1="-2.285" y1="4.852" x2="-2.264" y2="4.852" xlink:href="#linear-gradient"/>
    <linearGradient id="linear-gradient-3" x1="-2.285" y1="4.063" x2="-2.264" y2="4.063" xlink:href="#linear-gradient"/>
    <linearGradient id="linear-gradient-4" x1="-2.285" y1="3.276" x2="-2.264" y2="3.276" xlink:href="#linear-gradient"/>
    <linearGradient id="linear-gradient-5" x1="-2.285" y1="2.467" x2="-2.264" y2="2.467" xlink:href="#linear-gradient"/>
    <linearGradient id="linear-gradient-6" x1="-2.285" y1="1.68" x2="-2.264" y2="1.68" xlink:href="#linear-gradient"/>
    <linearGradient id="linear-gradient-7" x1="-2.285" y1="0.893" x2="-2.264" y2="0.893" xlink:href="#linear-gradient"/>
    <clipPath id="clip-path-19">
      <path id="Trazado_873513" data-name="Trazado 873513" d="M18.555,9.277A9.277,9.277,0,1,1,9.277,0a9.277,9.277,0,0,1,9.277,9.277" fill="none"/>
    </clipPath>
    <linearGradient id="linear-gradient-8" x1="-1.498" y1="5.638" x2="-1.477" y2="5.638" xlink:href="#linear-gradient"/>
    <clipPath id="clip-path-21">
      <path id="Trazado_873514" data-name="Trazado 873514" d="M18.555,9.278A9.278,9.278,0,1,1,9.277,0a9.278,9.278,0,0,1,9.278,9.278" fill="none"/>
    </clipPath>
    <linearGradient id="linear-gradient-9" x1="-2.285" y1="6.451" x2="-2.264" y2="6.451" xlink:href="#linear-gradient"/>
    <linearGradient id="linear-gradient-10" x1="-2.285" y1="7.242" x2="-2.264" y2="7.242" xlink:href="#linear-gradient"/>
    <linearGradient id="linear-gradient-11" x1="-2.285" y1="8.043" x2="-2.264" y2="8.043" xlink:href="#linear-gradient"/>
    <linearGradient id="linear-gradient-12" x1="-2.285" y1="8.848" x2="-2.264" y2="8.848" xlink:href="#linear-gradient"/>
    <linearGradient id="linear-gradient-13" x1="-2.285" y1="9.649" x2="-2.264" y2="9.649" xlink:href="#linear-gradient"/>
    <clipPath id="clip-path-31">
      <path id="Trazado_873519" data-name="Trazado 873519" d="M18.555,9.278A9.277,9.277,0,1,1,9.277,0a9.277,9.277,0,0,1,9.277,9.278" fill="none"/>
    </clipPath>
    <linearGradient id="linear-gradient-14" x1="-1.498" y1="6.451" x2="-1.477" y2="6.451" xlink:href="#linear-gradient"/>
    <clipPath id="clip-path-33">
      <path id="Trazado_873520" data-name="Trazado 873520" d="M18.555,9.277A9.277,9.277,0,1,1,9.277,0a9.278,9.278,0,0,1,9.277,9.277" fill="none"/>
    </clipPath>
    <linearGradient id="linear-gradient-15" x1="-0.711" y1="5.638" x2="-0.691" y2="5.638" xlink:href="#linear-gradient"/>
    <clipPath id="clip-path-35">
      <path id="Trazado_873521" data-name="Trazado 873521" d="M18.555,9.277A9.278,9.278,0,1,1,9.278,0a9.277,9.277,0,0,1,9.277,9.277" fill="none"/>
    </clipPath>
    <linearGradient id="linear-gradient-16" x1="-1.48" y1="4.852" x2="-1.459" y2="4.852" xlink:href="#linear-gradient"/>
    <linearGradient id="linear-gradient-17" x1="0.087" y1="5.638" x2="0.108" y2="5.638" xlink:href="#linear-gradient"/>
    <linearGradient id="linear-gradient-18" x1="-0.682" y1="4.852" x2="-0.661" y2="4.852" xlink:href="#linear-gradient"/>
    <clipPath id="clip-path-41">
      <path id="Trazado_873524" data-name="Trazado 873524" d="M18.555,9.277A9.278,9.278,0,1,1,9.278,0a9.278,9.278,0,0,1,9.277,9.277" fill="none"/>
    </clipPath>
    <linearGradient id="linear-gradient-19" x1="-1.48" y1="4.063" x2="-1.459" y2="4.063" xlink:href="#linear-gradient"/>
    <linearGradient id="linear-gradient-20" x1="0.107" y1="4.852" x2="0.128" y2="4.852" xlink:href="#linear-gradient"/>
    <linearGradient id="linear-gradient-21" x1="-0.682" y1="4.061" x2="-0.661" y2="4.061" xlink:href="#linear-gradient"/>
    <linearGradient id="linear-gradient-22" x1="-1.48" y1="3.276" x2="-1.459" y2="3.276" xlink:href="#linear-gradient"/>
    <clipPath id="clip-path-49">
      <path id="Trazado_873528" data-name="Trazado 873528" d="M18.555,9.278A9.277,9.277,0,1,1,9.277,0a9.278,9.278,0,0,1,9.277,9.278" fill="none"/>
    </clipPath>
    <linearGradient id="linear-gradient-23" x1="-0.711" y1="6.451" x2="-0.691" y2="6.451" xlink:href="#linear-gradient"/>
    <linearGradient id="linear-gradient-24" x1="0.075" y1="6.451" x2="0.096" y2="6.451" xlink:href="#linear-gradient"/>
    <linearGradient id="linear-gradient-25" x1="-1.498" y1="7.238" x2="-1.477" y2="7.238" xlink:href="#linear-gradient"/>
    <linearGradient id="linear-gradient-26" x1="-0.711" y1="7.238" x2="-0.691" y2="7.238" xlink:href="#linear-gradient"/>
    <clipPath id="clip-path-57">
      <path id="Trazado_873532" data-name="Trazado 873532" d="M18.555,9.278A9.278,9.278,0,1,1,9.278,0a9.278,9.278,0,0,1,9.277,9.278" fill="none"/>
    </clipPath>
    <linearGradient id="linear-gradient-27" x1="-1.48" y1="8.043" x2="-1.459" y2="8.043" xlink:href="#linear-gradient"/>
    <clipPath id="clip-path-58">
      <rect id="Rectángulo_400938" data-name="Rectángulo 400938" width="120" height="120" fill="none"/>
    </clipPath>
    <clipPath id="clip-path-59">
      <rect id="Rectángulo_400938-2" data-name="Rectángulo 400938" width="113" height="113" transform="translate(0.211 0.211)" fill="none"/>
    </clipPath>
  </defs>
  <g id="Grupo_1119777" data-name="Grupo 1119777" transform="translate(-376 -1314)">
    <g id="Grupo_108927" data-name="Grupo 108927" transform="translate(-14 -3153)">
      <path id="Rectángulo_36179-2" data-name="Rectángulo 36179" d="M0,0H129V128H0Z" transform="translate(390 4467)" fill="#dcedc8"/>
      <g id="Enmascarar_grupo_1100031" data-name="Enmascarar grupo 1100031" clip-path="url(#clip-path)">
        <g id="Grupo_1099913" data-name="Grupo 1099913" transform="translate(454.5 4639.479) rotate(180)" clip-path="url(#clip-path-2)">
          <g id="Grupo_1099912" data-name="Grupo 1099912">
            <g id="Grupo_1099911" data-name="Grupo 1099911" clip-path="url(#clip-path-2)">
              <g id="Grupo_1099780" data-name="Grupo 1099780" transform="translate(56.405 94.592)" opacity="0.8" style="mix-blend-mode: multiply;isolation: isolate">
                <g id="Grupo_1099779" data-name="Grupo 1099779" transform="translate(0 0)">
                  <g id="Grupo_1099778" data-name="Grupo 1099778" transform="translate(0 0)" clip-path="url(#clip-path-4)">
                    <g id="Grupo_1099777" data-name="Grupo 1099777" transform="translate(0 0)">
                      <g id="Grupo_1099776" data-name="Grupo 1099776" clip-path="url(#clip-path-5)">
                        <rect id="Rectángulo_401246" data-name="Rectángulo 401246" width="23.587" height="23.587" transform="translate(-5.714 16.586) rotate(-70.991)" fill="url(#linear-gradient)"/>
                      </g>
                    </g>
                  </g>
                </g>
              </g>
              <g id="Grupo_1099785" data-name="Grupo 1099785" transform="translate(56.405 113.147)" opacity="0.8" style="mix-blend-mode: multiply;isolation: isolate">
                <g id="Grupo_1099784" data-name="Grupo 1099784">
                  <g id="Grupo_1099783" data-name="Grupo 1099783" clip-path="url(#clip-path-4)">
                    <g id="Grupo_1099782" data-name="Grupo 1099782" transform="translate(0)">
                      <g id="Grupo_1099781" data-name="Grupo 1099781" clip-path="url(#clip-path-7)">
                        <rect id="Rectángulo_401248" data-name="Rectángulo 401248" width="23.587" height="23.587" transform="translate(-5.714 16.586) rotate(-70.991)" fill="url(#linear-gradient-2)"/>
                      </g>
                    </g>
                  </g>
                </g>
              </g>
              <g id="Grupo_1099790" data-name="Grupo 1099790" transform="translate(56.405 131.759)" opacity="0.8" style="mix-blend-mode: multiply;isolation: isolate">
                <g id="Grupo_1099789" data-name="Grupo 1099789" transform="translate(0 0)">
                  <g id="Grupo_1099788" data-name="Grupo 1099788" transform="translate(0 0)" clip-path="url(#clip-path-4)">
                    <g id="Grupo_1099787" data-name="Grupo 1099787" transform="translate(0 0)">
                      <g id="Grupo_1099786" data-name="Grupo 1099786" clip-path="url(#clip-path-5)">
                        <rect id="Rectángulo_401250" data-name="Rectángulo 401250" width="23.587" height="23.587" transform="translate(-5.714 16.586) rotate(-70.991)" fill="url(#linear-gradient-3)"/>
                      </g>
                    </g>
                  </g>
                </g>
              </g>
              <g id="Grupo_1099795" data-name="Grupo 1099795" transform="translate(56.405 150.314)" opacity="0.8" style="mix-blend-mode: multiply;isolation: isolate">
                <g id="Grupo_1099794" data-name="Grupo 1099794" transform="translate(0 0)">
                  <g id="Grupo_1099793" data-name="Grupo 1099793" transform="translate(0 0)" clip-path="url(#clip-path-4)">
                    <g id="Grupo_1099792" data-name="Grupo 1099792" transform="translate(0 0)">
                      <g id="Grupo_1099791" data-name="Grupo 1099791" clip-path="url(#clip-path-7)">
                        <rect id="Rectángulo_401252" data-name="Rectángulo 401252" width="23.587" height="23.587" transform="translate(-5.714 16.586) rotate(-70.991)" fill="url(#linear-gradient-4)"/>
                      </g>
                    </g>
                  </g>
                </g>
              </g>
              <g id="Grupo_1099800" data-name="Grupo 1099800" transform="translate(56.405 169.403)" opacity="0.8" style="mix-blend-mode: multiply;isolation: isolate">
                <g id="Grupo_1099799" data-name="Grupo 1099799">
                  <g id="Grupo_1099798" data-name="Grupo 1099798" clip-path="url(#clip-path-4)">
                    <g id="Grupo_1099797" data-name="Grupo 1099797" transform="translate(0 0)">
                      <g id="Grupo_1099796" data-name="Grupo 1099796" clip-path="url(#clip-path-7)">
                        <rect id="Rectángulo_401254" data-name="Rectángulo 401254" width="23.587" height="23.587" transform="translate(-5.714 16.586) rotate(-70.991)" fill="url(#linear-gradient-5)"/>
                      </g>
                    </g>
                  </g>
                </g>
              </g>
              <g id="Grupo_1099805" data-name="Grupo 1099805" transform="translate(56.405 187.958)" opacity="0.8" style="mix-blend-mode: multiply;isolation: isolate">
                <g id="Grupo_1099804" data-name="Grupo 1099804" transform="translate(0 0)">
                  <g id="Grupo_1099803" data-name="Grupo 1099803" transform="translate(0 0)" clip-path="url(#clip-path-4)">
                    <g id="Grupo_1099802" data-name="Grupo 1099802" transform="translate(0 0)">
                      <g id="Grupo_1099801" data-name="Grupo 1099801" clip-path="url(#clip-path-5)">
                        <rect id="Rectángulo_401256" data-name="Rectángulo 401256" width="23.587" height="23.587" transform="translate(-5.714 16.587) rotate(-70.991)" fill="url(#linear-gradient-6)"/>
                      </g>
                    </g>
                  </g>
                </g>
              </g>
              <g id="Grupo_1099810" data-name="Grupo 1099810" transform="translate(56.405 206.513)" opacity="0.8" style="mix-blend-mode: multiply;isolation: isolate">
                <g id="Grupo_1099809" data-name="Grupo 1099809" transform="translate(0 0)">
                  <g id="Grupo_1099808" data-name="Grupo 1099808" transform="translate(0 0)" clip-path="url(#clip-path-4)">
                    <g id="Grupo_1099807" data-name="Grupo 1099807" transform="translate(0 0)">
                      <g id="Grupo_1099806" data-name="Grupo 1099806" clip-path="url(#clip-path-5)">
                        <rect id="Rectángulo_401258" data-name="Rectángulo 401258" width="23.587" height="23.587" transform="translate(-5.714 16.586) rotate(-70.991)" fill="url(#linear-gradient-7)"/>
                      </g>
                    </g>
                  </g>
                </g>
              </g>
              <g id="Grupo_1099815" data-name="Grupo 1099815" transform="translate(37.85 94.592)" opacity="0.8" style="mix-blend-mode: multiply;isolation: isolate">
                <g id="Grupo_1099814" data-name="Grupo 1099814" transform="translate(0 0)">
                  <g id="Grupo_1099813" data-name="Grupo 1099813" transform="translate(0 0)" clip-path="url(#clip-path-4)">
                    <g id="Grupo_1099812" data-name="Grupo 1099812" transform="translate(0 0)">
                      <g id="Grupo_1099811" data-name="Grupo 1099811" clip-path="url(#clip-path-19)">
                        <rect id="Rectángulo_401260" data-name="Rectángulo 401260" width="23.587" height="23.587" transform="translate(-5.714 16.586) rotate(-70.991)" fill="url(#linear-gradient-8)"/>
                      </g>
                    </g>
                  </g>
                </g>
              </g>
              <g id="Grupo_1099820" data-name="Grupo 1099820" transform="translate(56.405 75.434)" opacity="0.8" style="mix-blend-mode: multiply;isolation: isolate">
                <g id="Grupo_1099819" data-name="Grupo 1099819" transform="translate(0 0)">
                  <g id="Grupo_1099818" data-name="Grupo 1099818" transform="translate(0 0)" clip-path="url(#clip-path-4)">
                    <g id="Grupo_1099817" data-name="Grupo 1099817" transform="translate(0 0)">
                      <g id="Grupo_1099816" data-name="Grupo 1099816" clip-path="url(#clip-path-21)">
                        <rect id="Rectángulo_401262" data-name="Rectángulo 401262" width="23.587" height="23.587" transform="matrix(0.326, -0.945, 0.945, 0.326, -5.714, 16.587)" fill="url(#linear-gradient-9)"/>
                      </g>
                    </g>
                  </g>
                </g>
              </g>
              <g id="Grupo_1099825" data-name="Grupo 1099825" transform="translate(56.405 56.776)" opacity="0.8" style="mix-blend-mode: multiply;isolation: isolate">
                <g id="Grupo_1099824" data-name="Grupo 1099824" transform="translate(0 0)">
                  <g id="Grupo_1099823" data-name="Grupo 1099823" transform="translate(0 0)" clip-path="url(#clip-path-4)">
                    <g id="Grupo_1099822" data-name="Grupo 1099822" transform="translate(0 0)">
                      <g id="Grupo_1099821" data-name="Grupo 1099821" clip-path="url(#clip-path-5)">
                        <rect id="Rectángulo_401264" data-name="Rectángulo 401264" width="23.587" height="23.587" transform="translate(-5.714 16.586) rotate(-70.991)" fill="url(#linear-gradient-10)"/>
                      </g>
                    </g>
                  </g>
                </g>
              </g>
              <g id="Grupo_1099830" data-name="Grupo 1099830" transform="translate(56.405 37.88)" opacity="0.8" style="mix-blend-mode: multiply;isolation: isolate">
                <g id="Grupo_1099829" data-name="Grupo 1099829" transform="translate(0 0)">
                  <g id="Grupo_1099828" data-name="Grupo 1099828" transform="translate(0 0)" clip-path="url(#clip-path-4)">
                    <g id="Grupo_1099827" data-name="Grupo 1099827" transform="translate(0 0)">
                      <g id="Grupo_1099826" data-name="Grupo 1099826" clip-path="url(#clip-path-21)">
                        <rect id="Rectángulo_401266" data-name="Rectángulo 401266" width="23.587" height="23.587" transform="translate(-5.714 16.587) rotate(-70.991)" fill="url(#linear-gradient-11)"/>
                      </g>
                    </g>
                  </g>
                </g>
              </g>
              <g id="Grupo_1099835" data-name="Grupo 1099835" transform="translate(56.405 18.896)" opacity="0.8" style="mix-blend-mode: multiply;isolation: isolate">
                <g id="Grupo_1099834" data-name="Grupo 1099834">
                  <g id="Grupo_1099833" data-name="Grupo 1099833" clip-path="url(#clip-path-4)">
                    <g id="Grupo_1099832" data-name="Grupo 1099832" transform="translate(0 0)">
                      <g id="Grupo_1099831" data-name="Grupo 1099831" clip-path="url(#clip-path-5)">
                        <rect id="Rectángulo_401268" data-name="Rectángulo 401268" width="23.587" height="23.587" transform="translate(-5.714 16.586) rotate(-70.991)" fill="url(#linear-gradient-12)"/>
                      </g>
                    </g>
                  </g>
                </g>
              </g>
              <g id="Grupo_1099840" data-name="Grupo 1099840" transform="translate(56.405)" opacity="0.8" style="mix-blend-mode: multiply;isolation: isolate">
                <g id="Grupo_1099839" data-name="Grupo 1099839">
                  <g id="Grupo_1099838" data-name="Grupo 1099838" clip-path="url(#clip-path-4)">
                    <g id="Grupo_1099837" data-name="Grupo 1099837" transform="translate(0)">
                      <g id="Grupo_1099836" data-name="Grupo 1099836" clip-path="url(#clip-path-5)">
                        <rect id="Rectángulo_401270" data-name="Rectángulo 401270" width="23.587" height="23.587" transform="translate(-5.714 16.586) rotate(-70.991)" fill="url(#linear-gradient-13)"/>
                      </g>
                    </g>
                  </g>
                </g>
              </g>
              <g id="Grupo_1099845" data-name="Grupo 1099845" transform="translate(37.85 75.434)" opacity="0.8" style="mix-blend-mode: multiply;isolation: isolate">
                <g id="Grupo_1099844" data-name="Grupo 1099844" transform="translate(0 0)">
                  <g id="Grupo_1099843" data-name="Grupo 1099843" transform="translate(0 0)" clip-path="url(#clip-path-4)">
                    <g id="Grupo_1099842" data-name="Grupo 1099842" transform="translate(0 0)">
                      <g id="Grupo_1099841" data-name="Grupo 1099841" clip-path="url(#clip-path-31)">
                        <rect id="Rectángulo_401272" data-name="Rectángulo 401272" width="23.587" height="23.587" transform="translate(-5.714 16.587) rotate(-70.991)" fill="url(#linear-gradient-14)"/>
                      </g>
                    </g>
                  </g>
                </g>
              </g>
              <g id="Grupo_1099850" data-name="Grupo 1099850" transform="translate(19.295 94.592)" opacity="0.8" style="mix-blend-mode: multiply;isolation: isolate">
                <g id="Grupo_1099849" data-name="Grupo 1099849" transform="translate(0 0)">
                  <g id="Grupo_1099848" data-name="Grupo 1099848" transform="translate(0 0)" clip-path="url(#clip-path-4)">
                    <g id="Grupo_1099847" data-name="Grupo 1099847" transform="translate(0 0)">
                      <g id="Grupo_1099846" data-name="Grupo 1099846" clip-path="url(#clip-path-33)">
                        <rect id="Rectángulo_401274" data-name="Rectángulo 401274" width="23.587" height="23.587" transform="translate(-5.714 16.586) rotate(-70.991)" fill="url(#linear-gradient-15)"/>
                      </g>
                    </g>
                  </g>
                </g>
              </g>
              <g id="Grupo_1099855" data-name="Grupo 1099855" transform="translate(37.424 113.147)" opacity="0.8" style="mix-blend-mode: multiply;isolation: isolate">
                <g id="Grupo_1099854" data-name="Grupo 1099854">
                  <g id="Grupo_1099853" data-name="Grupo 1099853" clip-path="url(#clip-path-4)">
                    <g id="Grupo_1099852" data-name="Grupo 1099852" transform="translate(0)">
                      <g id="Grupo_1099851" data-name="Grupo 1099851" transform="translate(0)" clip-path="url(#clip-path-35)">
                        <rect id="Rectángulo_401276" data-name="Rectángulo 401276" width="23.587" height="23.587" transform="translate(-5.714 16.586) rotate(-70.991)" fill="url(#linear-gradient-16)"/>
                      </g>
                    </g>
                  </g>
                </g>
              </g>
              <g id="Grupo_1099860" data-name="Grupo 1099860" transform="translate(0.462 94.592)" opacity="0.8" style="mix-blend-mode: multiply;isolation: isolate">
                <g id="Grupo_1099859" data-name="Grupo 1099859" transform="translate(0 0)">
                  <g id="Grupo_1099858" data-name="Grupo 1099858" transform="translate(0 0)" clip-path="url(#clip-path-4)">
                    <g id="Grupo_1099857" data-name="Grupo 1099857" transform="translate(0 0)">
                      <g id="Grupo_1099856" data-name="Grupo 1099856" clip-path="url(#clip-path-5)">
                        <rect id="Rectángulo_401278" data-name="Rectángulo 401278" width="23.587" height="23.587" transform="translate(-5.714 16.586) rotate(-70.991)" fill="url(#linear-gradient-17)"/>
                      </g>
                    </g>
                  </g>
                </g>
              </g>
              <g id="Grupo_1099865" data-name="Grupo 1099865" transform="translate(18.591 113.147)" opacity="0.8" style="mix-blend-mode: multiply;isolation: isolate">
                <g id="Grupo_1099864" data-name="Grupo 1099864">
                  <g id="Grupo_1099863" data-name="Grupo 1099863" clip-path="url(#clip-path-4)">
                    <g id="Grupo_1099862" data-name="Grupo 1099862" transform="translate(0)">
                      <g id="Grupo_1099861" data-name="Grupo 1099861" clip-path="url(#clip-path-19)">
                        <rect id="Rectángulo_401280" data-name="Rectángulo 401280" width="23.587" height="23.587" transform="translate(-5.714 16.586) rotate(-70.991)" fill="url(#linear-gradient-18)"/>
                      </g>
                    </g>
                  </g>
                </g>
              </g>
              <g id="Grupo_1099870" data-name="Grupo 1099870" transform="translate(37.424 131.759)" opacity="0.8" style="mix-blend-mode: multiply;isolation: isolate">
                <g id="Grupo_1099869" data-name="Grupo 1099869" transform="translate(0 0)">
                  <g id="Grupo_1099868" data-name="Grupo 1099868" transform="translate(0 0)" clip-path="url(#clip-path-4)">
                    <g id="Grupo_1099867" data-name="Grupo 1099867" transform="translate(0 0)">
                      <g id="Grupo_1099866" data-name="Grupo 1099866" transform="translate(0)" clip-path="url(#clip-path-41)">
                        <rect id="Rectángulo_401282" data-name="Rectángulo 401282" width="23.587" height="23.587" transform="translate(-5.714 16.586) rotate(-70.991)" fill="url(#linear-gradient-19)"/>
                      </g>
                    </g>
                  </g>
                </g>
              </g>
              <g id="Grupo_1099875" data-name="Grupo 1099875" transform="translate(0 113.147)" opacity="0.8" style="mix-blend-mode: multiply;isolation: isolate">
                <g id="Grupo_1099874" data-name="Grupo 1099874">
                  <g id="Grupo_1099873" data-name="Grupo 1099873" clip-path="url(#clip-path-4)">
                    <g id="Grupo_1099872" data-name="Grupo 1099872">
                      <g id="Grupo_1099871" data-name="Grupo 1099871" clip-path="url(#clip-path-19)">
                        <rect id="Rectángulo_401284" data-name="Rectángulo 401284" width="23.587" height="23.587" transform="translate(-5.714 16.586) rotate(-70.991)" fill="url(#linear-gradient-20)"/>
                      </g>
                    </g>
                  </g>
                </g>
              </g>
              <g id="Grupo_1099880" data-name="Grupo 1099880" transform="translate(18.591 131.8)" opacity="0.8" style="mix-blend-mode: multiply;isolation: isolate">
                <g id="Grupo_1099879" data-name="Grupo 1099879" transform="translate(0)">
                  <g id="Grupo_1099878" data-name="Grupo 1099878" transform="translate(0)" clip-path="url(#clip-path-4)">
                    <g id="Grupo_1099877" data-name="Grupo 1099877" transform="translate(0 0)">
                      <g id="Grupo_1099876" data-name="Grupo 1099876" clip-path="url(#clip-path-19)">
                        <rect id="Rectángulo_401286" data-name="Rectángulo 401286" width="23.587" height="23.587" transform="translate(-5.714 16.586) rotate(-70.991)" fill="url(#linear-gradient-21)"/>
                      </g>
                    </g>
                  </g>
                </g>
              </g>
              <g id="Grupo_1099885" data-name="Grupo 1099885" transform="translate(37.424 150.314)" opacity="0.8" style="mix-blend-mode: multiply;isolation: isolate">
                <g id="Grupo_1099884" data-name="Grupo 1099884" transform="translate(0 0)">
                  <g id="Grupo_1099883" data-name="Grupo 1099883" transform="translate(0 0)" clip-path="url(#clip-path-4)">
                    <g id="Grupo_1099882" data-name="Grupo 1099882" transform="translate(0 0)">
                      <g id="Grupo_1099881" data-name="Grupo 1099881" transform="translate(0)" clip-path="url(#clip-path-35)">
                        <rect id="Rectángulo_401288" data-name="Rectángulo 401288" width="23.587" height="23.587" transform="translate(-5.714 16.586) rotate(-70.991)" fill="url(#linear-gradient-22)"/>
                      </g>
                    </g>
                  </g>
                </g>
              </g>
              <g id="Grupo_1099890" data-name="Grupo 1099890" transform="translate(19.295 75.434)" opacity="0.8" style="mix-blend-mode: multiply;isolation: isolate">
                <g id="Grupo_1099889" data-name="Grupo 1099889" transform="translate(0 0)">
                  <g id="Grupo_1099888" data-name="Grupo 1099888" transform="translate(0 0)" clip-path="url(#clip-path-4)">
                    <g id="Grupo_1099887" data-name="Grupo 1099887" transform="translate(0 0)">
                      <g id="Grupo_1099886" data-name="Grupo 1099886" clip-path="url(#clip-path-49)">
                        <rect id="Rectángulo_401290" data-name="Rectángulo 401290" width="23.587" height="23.587" transform="translate(-5.714 16.587) rotate(-70.991)" fill="url(#linear-gradient-23)"/>
                      </g>
                    </g>
                  </g>
                </g>
              </g>
              <g id="Grupo_1099895" data-name="Grupo 1099895" transform="translate(0.74 75.434)" opacity="0.8" style="mix-blend-mode: multiply;isolation: isolate">
                <g id="Grupo_1099894" data-name="Grupo 1099894" transform="translate(0 0)">
                  <g id="Grupo_1099893" data-name="Grupo 1099893" transform="translate(0 0)" clip-path="url(#clip-path-4)">
                    <g id="Grupo_1099892" data-name="Grupo 1099892" transform="translate(0 0)">
                      <g id="Grupo_1099891" data-name="Grupo 1099891" transform="translate(0)" clip-path="url(#clip-path-21)">
                        <rect id="Rectángulo_401292" data-name="Rectángulo 401292" width="23.587" height="23.587" transform="matrix(0.326, -0.945, 0.945, 0.326, -5.714, 16.587)" fill="url(#linear-gradient-24)"/>
                      </g>
                    </g>
                  </g>
                </g>
              </g>
              <g id="Grupo_1099900" data-name="Grupo 1099900" transform="translate(37.85 56.861)" opacity="0.8" style="mix-blend-mode: multiply;isolation: isolate">
                <g id="Grupo_1099899" data-name="Grupo 1099899" transform="translate(0 0)">
                  <g id="Grupo_1099898" data-name="Grupo 1099898" transform="translate(0 0)" clip-path="url(#clip-path-4)">
                    <g id="Grupo_1099897" data-name="Grupo 1099897" transform="translate(0 0)">
                      <g id="Grupo_1099896" data-name="Grupo 1099896" clip-path="url(#clip-path-31)">
                        <rect id="Rectángulo_401294" data-name="Rectángulo 401294" width="23.587" height="23.587" transform="translate(-5.714 16.587) rotate(-70.991)" fill="url(#linear-gradient-25)"/>
                      </g>
                    </g>
                  </g>
                </g>
              </g>
              <g id="Grupo_1099905" data-name="Grupo 1099905" transform="translate(19.295 56.861)" opacity="0.8" style="mix-blend-mode: multiply;isolation: isolate">
                <g id="Grupo_1099904" data-name="Grupo 1099904" transform="translate(0 0)">
                  <g id="Grupo_1099903" data-name="Grupo 1099903" transform="translate(0 0)" clip-path="url(#clip-path-4)">
                    <g id="Grupo_1099902" data-name="Grupo 1099902" transform="translate(0 0)">
                      <g id="Grupo_1099901" data-name="Grupo 1099901" clip-path="url(#clip-path-49)">
                        <rect id="Rectángulo_401296" data-name="Rectángulo 401296" width="23.587" height="23.587" transform="translate(-5.714 16.587) rotate(-70.991)" fill="url(#linear-gradient-26)"/>
                      </g>
                    </g>
                  </g>
                </g>
              </g>
              <g id="Grupo_1099910" data-name="Grupo 1099910" transform="translate(37.424 37.88)" opacity="0.8" style="mix-blend-mode: multiply;isolation: isolate">
                <g id="Grupo_1099909" data-name="Grupo 1099909" transform="translate(0 0)">
                  <g id="Grupo_1099908" data-name="Grupo 1099908" transform="translate(0 0)" clip-path="url(#clip-path-4)">
                    <g id="Grupo_1099907" data-name="Grupo 1099907" transform="translate(0 0)">
                      <g id="Grupo_1099906" data-name="Grupo 1099906" transform="translate(0)" clip-path="url(#clip-path-57)">
                        <rect id="Rectángulo_401298" data-name="Rectángulo 401298" width="23.587" height="23.587" transform="matrix(0.326, -0.945, 0.945, 0.326, -5.714, 16.587)" fill="url(#linear-gradient-27)"/>
                      </g>
                    </g>
                  </g>
                </g>
              </g>
            </g>
          </g>
        </g>
      </g>
    </g>
    <g id="Grupo_1099431" data-name="Grupo 1099431" transform="translate(118.789 -3962.211)">
      <g id="Grupo_1099379" data-name="Grupo 1099379" transform="translate(265 5284)">
        <rect id="Rectángulo_401103" data-name="Rectángulo 401103" width="113" height="113" transform="translate(0.211 0.211)" fill="none"/>
        <path id="Trazado_873425" data-name="Trazado 873425" d="M47.337,0A47.337,47.337,0,1,1,0,47.337,47.337,47.337,0,0,1,47.337,0Z" transform="translate(14.061 16.873)" fill="#4c5066"/>
        <circle id="Elipse_11503" data-name="Elipse 11503" cx="49.5" cy="49.5" r="49.5" transform="translate(7.211 7.211)" fill="#fff"/>
      </g>
      <g id="Grupo_1099380" data-name="Grupo 1099380" transform="translate(289.372 5307.434)">
        <rect id="Rectángulo_401104" data-name="Rectángulo 401104" width="64" height="65" transform="translate(-0.16 -0.223)" fill="none"/>
        <g id="Grupo_1122176" data-name="Grupo 1122176" transform="translate(-0.16 -41.801)">
          <path id="Trazado_911921" data-name="Trazado 911921" d="M106.252,48.993v2.854l-2.8.657-2.9-.657V48.993a.625.625,0,0,1,.625-.625h4.452A.625.625,0,0,1,106.252,48.993Z" transform="translate(-87.871)" fill="#5a5a5a"/>
          <path id="Trazado_911922" data-name="Trazado 911922" d="M126.361,48.993v2.854l-1.4.657-.775-.657V48.993a.625.625,0,0,0-.625-.625h2.175A.625.625,0,0,1,126.361,48.993Z" transform="translate(-107.979 0)" fill="#444"/>
          <path id="Trazado_911923" data-name="Trazado 911923" d="M414.252,48.993v2.854l-2.915.53-2.787-.53V48.993a.625.625,0,0,1,.625-.625h4.452A.625.625,0,0,1,414.252,48.993Z" transform="translate(-357.033)" fill="#5a5a5a"/>
          <path id="Trazado_911924" data-name="Trazado 911924" d="M434.186,48.993v2.854l-1.413.257-.788-.257V48.993a.625.625,0,0,0-.625-.625h2.2A.625.625,0,0,1,434.186,48.993Z" transform="translate(-376.966 0)" fill="#444"/>
          <path id="Trazado_911925" data-name="Trazado 911925" d="M107.154,78.733V110.01a2.775,2.775,0,0,1-2.775,2.775h-2.961l-5.081-.821-5.081.821H53.062a3.243,3.243,0,0,1-3.242-3.242V79.2a3.243,3.243,0,0,1,3.242-3.242h51.317A2.775,2.775,0,0,1,107.154,78.733Z" transform="translate(-43.538 -24.111)" fill="#ddeafb"/>
          <path id="Trazado_911926" data-name="Trazado 911926" d="M466.669,78.732v31.279a2.774,2.774,0,0,1-2.775,2.774H461.21a2.775,2.775,0,0,0,2.775-2.774V78.732a2.775,2.775,0,0,0-2.775-2.774h2.683A2.774,2.774,0,0,1,466.669,78.732Z" transform="translate(-403.052 -24.111)" fill="#cbe2ff"/>
          <path id="Trazado_911927" data-name="Trazado 911927" d="M388.582,333.13v3.513H378.42V333.13a1.012,1.012,0,0,1,1.012-1.012h8.137A1.012,1.012,0,0,1,388.582,333.13Z" transform="translate(-330.702 -247.97)" fill="#528fd8"/>
          <path id="Trazado_911928" data-name="Trazado 911928" d="M434.226,333.131v3.513h-2.564v-3.513a1.013,1.013,0,0,0-1.013-1.013h2.564A1.012,1.012,0,0,1,434.226,333.131Z" transform="translate(-376.346 -247.97)" fill="#0473ce"/>
          <path id="Trazado_911929" data-name="Trazado 911929" d="M330.035,215.941l-2.768-.947-1.377-3.2,1.8-1.806,1.576-1.125C329.488,208.366,330.035,215.941,330.035,215.941Z" transform="translate(-284.796 -140.239)" fill="#ffcebf"/>
          <path id="Trazado_911930" data-name="Trazado 911930" d="M343.078,203.842l-.536,7.06-1.732-.593-.239-1.378.27-3.563a.435.435,0,0,0-.639-.417l1.666-1.666A.711.711,0,0,1,343.078,203.842Z" transform="translate(-297.303 -135.2)" fill="#ffb09e"/>
          <path id="Trazado_911931" data-name="Trazado 911931" d="M77.843,236.412l-6.078,7.4a8.272,8.272,0,0,1-4.215,2.731l-9.725,2.659a.883.883,0,0,0-.65.852v9.492H37.31v-5.967a21.963,21.963,0,0,1,2.236-9.654,5.55,5.55,0,0,1,4.983-3.108H60.465A13.263,13.263,0,0,0,70.8,235.87l2.9-3.6,2.174,2.174Z" transform="translate(-32.605 -160.711)" fill="#82aee3"/>
          <path id="Trazado_911932" data-name="Trazado 911932" d="M193.4,251.478l-6.078,7.4a8.272,8.272,0,0,1-4.215,2.731l-9.725,2.659a.883.883,0,0,0-.65.852v9.492h-3.19v-9.492a.884.884,0,0,1,.65-.852l9.725-2.659a8.272,8.272,0,0,0,4.215-2.731l7.3-9.374Z" transform="translate(-148.161 -175.777)" fill="#528fd8"/>
          <path id="Trazado_911933" data-name="Trazado 911933" d="M100.69,220.774v4.807a5.2,5.2,0,0,1-5.2,5.2c-.109,0-.217,0-.324-.011a5.194,5.194,0,0,1-4.872-5.185v-4.807Z" transform="translate(-78.91 -150.666)" fill="#ffcebf"/>
          <path id="Trazado_911934" data-name="Trazado 911934" d="M261.3,123.8H257.32a.584.584,0,0,1-.584-.584V120.9a.584.584,0,0,1,.584-.584H261.3a.584.584,0,0,1,.584.584v2.312A.584.584,0,0,1,261.3,123.8Z" transform="translate(-224.362 -62.875)" fill="#528fd8"/>
          <path id="Trazado_911935" data-name="Trazado 911935" d="M261.3,179.771H257.32a.584.584,0,0,1-.584-.584v-2.312a.584.584,0,0,1,.584-.584H261.3a.584.584,0,0,1,.584.584v2.312A.584.584,0,0,1,261.3,179.771Z" transform="translate(-224.362 -111.792)" fill="#528fd8"/>
          <path id="Trazado_911936" data-name="Trazado 911936" d="M100.694,220.778v4.806a5.2,5.2,0,0,1-5.2,5.2c-.11,0-.218,0-.325-.01a5.077,5.077,0,0,1-1.062-.178,5.193,5.193,0,0,1-3.809-5.009v-4.806Z" transform="translate(-78.913 -150.669)" fill="#ffcebf"/>
          <path id="Trazado_911937" data-name="Trazado 911937" d="M127.095,220.778v4.806a5.2,5.2,0,0,1-5.2,5.2c-.11,0-.218,0-.325-.01a5.077,5.077,0,0,1-1.062-.178,5.2,5.2,0,0,0,3.811-5.009v-4.806Z" transform="translate(-105.314 -150.669)" fill="#ffb09e"/>
          <path id="Trazado_911938" data-name="Trazado 911938" d="M99.261,168.511a3.724,3.724,0,0,1-3.725,3.725H88.817v5.155a2.614,2.614,0,0,1-4.052,2.171,2.39,2.39,0,0,1-1.091-2c0-.079-.005-.161-.005-.242v-7.088a2.991,2.991,0,0,1,2.991-2.992h2.6c1.851,0,2.542-1.462,4.062-2.131a4.988,4.988,0,0,1,2.214-.319,3.725,3.725,0,0,1,3.725,3.726Z" transform="translate(-73.119 -101.729)" fill="#5a5a5a"/>
          <g id="Grupo_1122173" data-name="Grupo 1122173" transform="translate(11.145 63.048)">
            <path id="Trazado_911939" data-name="Trazado 911939" d="M88.38,192.27a2.549,2.549,0,0,1,.183-.222C88.5,192.119,88.438,192.193,88.38,192.27Z" transform="translate(-88.38 -188.61)" fill="#444"/>
            <path id="Trazado_911940" data-name="Trazado 911940" d="M95.512,223.938h.9v5.155a2.614,2.614,0,0,1-4.052,2.171,2.441,2.441,0,0,0,1.151-2.171v-3.154A2,2,0,0,1,95.512,223.938Z" transform="translate(-91.858 -216.479)" fill="#444"/>
            <path id="Trazado_911941" data-name="Trazado 911941" d="M160.81,168.52a3.724,3.724,0,0,1-3.725,3.725H154.1a3.809,3.809,0,0,0,3.809-3.722,3.727,3.727,0,0,0-2.622-3.562,5.717,5.717,0,0,1,1.8-.166A3.725,3.725,0,0,1,160.81,168.52Z" transform="translate(-145.813 -164.786)" fill="#444"/>
          </g>
          <path id="Trazado_911942" data-name="Trazado 911942" d="M28.091,441.132H.946a.946.946,0,1,0,0,1.891H28.091a.946.946,0,1,0,0-1.891Z" transform="translate(0 -343.237)" fill="#0067c5"/>
          <g id="Grupo_1122174" data-name="Grupo 1122174" transform="translate(40.148 58.235)">
            <path id="Trazado_911943" data-name="Trazado 911943" d="M336.119,128.505H319.332a.946.946,0,1,1,0-1.891h16.787a.946.946,0,1,1,0,1.891Z" transform="translate(-318.386 -126.614)" fill="#fff9df"/>
          </g>
          <g id="Grupo_1122175" data-name="Grupo 1122175" transform="translate(40.148 65.293)">
            <path id="Trazado_911944" data-name="Trazado 911944" d="M323.476,184.481h-4.144a.946.946,0,1,1,0-1.891h4.144a.946.946,0,1,1,0,1.891Z" transform="translate(-318.386 -182.59)" fill="#fff9df"/>
          </g>
        </g>
      </g>
    </g>
  </g>
</svg>
