<svg xmlns="http://www.w3.org/2000/svg" xmlns:xlink="http://www.w3.org/1999/xlink" width="120" height="120" viewBox="0 0 120 120">
  <defs>
    <clipPath id="clip-path">
      <rect id="Rectángulo_400938" data-name="Rectángulo 400938" width="113" height="113" fill="none"/>
    </clipPath>
    <clipPath id="clip-path-2">
      <rect id="Rectángulo_401742" data-name="Rectángulo 401742" width="120" height="120" fill="none"/>
    </clipPath>
    <clipPath id="clip-path-3">
      <rect id="Rectángulo_401301" data-name="Rectángulo 401301" width="64.317" height="193.113" fill="#d4e157"/>
    </clipPath>
    <clipPath id="clip-path-5">
      <rect id="Rectángulo_401247" data-name="Rectángulo 401247" width="15.921" height="15.92" fill="#d4e157"/>
    </clipPath>
    <clipPath id="clip-path-6">
      <path id="Trazado_873506" data-name="Trazado 873506" d="M15.921,7.96A7.96,7.96,0,1,1,7.96,0a7.961,7.961,0,0,1,7.961,7.96" fill="#d4e157"/>
    </clipPath>
    <clipPath id="clip-path-8">
      <path id="Trazado_873507" data-name="Trazado 873507" d="M15.921,7.96A7.96,7.96,0,1,1,7.96,0a7.96,7.96,0,0,1,7.961,7.96" fill="#d4e157"/>
    </clipPath>
    <clipPath id="clip-path-13">
      <rect id="Rectángulo_401261" data-name="Rectángulo 401261" width="15.92" height="15.92" fill="#d4e157"/>
    </clipPath>
    <clipPath id="clip-path-14">
      <path id="Trazado_873513" data-name="Trazado 873513" d="M15.92,7.96A7.96,7.96,0,1,1,7.96,0a7.96,7.96,0,0,1,7.96,7.96" fill="#d4e157"/>
    </clipPath>
    <clipPath id="clip-path-15">
      <rect id="Rectángulo_401263" data-name="Rectángulo 401263" width="15.921" height="15.921" fill="#d4e157"/>
    </clipPath>
    <clipPath id="clip-path-16">
      <path id="Trazado_873514" data-name="Trazado 873514" d="M15.921,7.961A7.96,7.96,0,1,1,7.96,0a7.961,7.961,0,0,1,7.961,7.961" fill="#d4e157"/>
    </clipPath>
    <clipPath id="clip-path-21">
      <rect id="Rectángulo_401273" data-name="Rectángulo 401273" width="15.92" height="15.921" fill="#d4e157"/>
    </clipPath>
    <clipPath id="clip-path-22">
      <path id="Trazado_873519" data-name="Trazado 873519" d="M15.92,7.961A7.96,7.96,0,1,1,7.96,0a7.96,7.96,0,0,1,7.96,7.961" fill="#d4e157"/>
    </clipPath>
    <clipPath id="clip-path-24">
      <path id="Trazado_873521" data-name="Trazado 873521" d="M15.921,7.96A7.96,7.96,0,1,1,7.961,0a7.96,7.96,0,0,1,7.96,7.96" fill="#d4e157"/>
    </clipPath>
    <clipPath id="clip-path-32">
      <path id="Trazado_873532" data-name="Trazado 873532" d="M15.921,7.961A7.96,7.96,0,1,1,7.961,0a7.96,7.96,0,0,1,7.96,7.961" fill="#d4e157"/>
    </clipPath>
  </defs>
  <g id="Grupo_1119771" data-name="Grupo 1119771" transform="translate(-180.711 -1630)">
    <g id="Grupo_1101154" data-name="Grupo 1101154" transform="translate(180.711 1630.434)">
      <g id="Grupo_1099379" data-name="Grupo 1099379" transform="translate(0 -0.434)">
        <rect id="Rectángulo_401103" data-name="Rectángulo 401103" width="120" height="120" transform="translate(0 0)" fill="none"/>
        <path id="Trazado_873425" data-name="Trazado 873425" d="M49.147,0C76.29,0,98.293,23.571,98.293,52.647s-22,52.647-49.147,52.647S0,81.723,0,52.647,22,0,49.147,0Z" transform="translate(15.677 12.583)" fill="#b9bfe2"/>
        <g id="Enmascarar_grupo_1100032" data-name="Enmascarar grupo 1100032" transform="translate(0 0)" clip-path="url(#clip-path-2)">
          <g id="Grupo_1101051" data-name="Grupo 1101051" transform="translate(148.45 -27.966) rotate(90)" style="isolation: isolate">
            <g id="Grupo_1099913" data-name="Grupo 1099913" clip-path="url(#clip-path-3)" style="isolation: isolate">
              <g id="Grupo_1099912" data-name="Grupo 1099912">
                <g id="Grupo_1099911" data-name="Grupo 1099911" clip-path="url(#clip-path-3)">
                  <g id="Grupo_1099780" data-name="Grupo 1099780" transform="translate(48.396 81.162)" style="isolation: isolate">
                    <g id="Grupo_1099779" data-name="Grupo 1099779">
                      <g id="Grupo_1099778" data-name="Grupo 1099778" transform="translate(0 0)" clip-path="url(#clip-path-5)">
                        <g id="Grupo_1099777" data-name="Grupo 1099777" transform="translate(0 0)">
                          <g id="Grupo_1099776" data-name="Grupo 1099776" clip-path="url(#clip-path-6)">
                            <path id="Trazado_875145" data-name="Trazado 875145" d="M0,0H20.238V20.238H0Z" transform="translate(-4.903 14.231) rotate(-70.991)" fill="#d4e157"/>
                          </g>
                        </g>
                      </g>
                    </g>
                  </g>
                  <g id="Grupo_1099785" data-name="Grupo 1099785" transform="translate(48.396 97.082)" style="isolation: isolate">
                    <g id="Grupo_1099784" data-name="Grupo 1099784">
                      <g id="Grupo_1099783" data-name="Grupo 1099783" clip-path="url(#clip-path-5)">
                        <g id="Grupo_1099782" data-name="Grupo 1099782" transform="translate(0)">
                          <g id="Grupo_1099781" data-name="Grupo 1099781" clip-path="url(#clip-path-8)">
                            <path id="Trazado_875146" data-name="Trazado 875146" d="M0,0H20.238V20.238H0Z" transform="translate(-4.903 14.231) rotate(-70.991)" fill="#d4e157"/>
                          </g>
                        </g>
                      </g>
                    </g>
                  </g>
                  <g id="Grupo_1099790" data-name="Grupo 1099790" transform="translate(48.396 113.052)" style="isolation: isolate">
                    <g id="Grupo_1099789" data-name="Grupo 1099789">
                      <g id="Grupo_1099788" data-name="Grupo 1099788" transform="translate(0 0)" clip-path="url(#clip-path-5)">
                        <g id="Grupo_1099787" data-name="Grupo 1099787" transform="translate(0 0)">
                          <g id="Grupo_1099786" data-name="Grupo 1099786" clip-path="url(#clip-path-6)">
                            <path id="Trazado_875147" data-name="Trazado 875147" d="M0,0H20.238V20.238H0Z" transform="translate(-4.903 14.231) rotate(-70.991)" fill="#d4e157"/>
                          </g>
                        </g>
                      </g>
                    </g>
                  </g>
                  <g id="Grupo_1099795" data-name="Grupo 1099795" transform="translate(48.396 128.972)" style="isolation: isolate">
                    <g id="Grupo_1099794" data-name="Grupo 1099794">
                      <g id="Grupo_1099793" data-name="Grupo 1099793" transform="translate(0 0)" clip-path="url(#clip-path-5)">
                        <g id="Grupo_1099792" data-name="Grupo 1099792" transform="translate(0 0)">
                          <g id="Grupo_1099791" data-name="Grupo 1099791" clip-path="url(#clip-path-8)">
                            <path id="Trazado_875148" data-name="Trazado 875148" d="M0,0H20.238V20.238H0Z" transform="translate(-4.903 14.231) rotate(-70.991)" fill="#d4e157"/>
                          </g>
                        </g>
                      </g>
                    </g>
                  </g>
                  <g id="Grupo_1099815" data-name="Grupo 1099815" transform="translate(32.476 81.162)" style="isolation: isolate">
                    <g id="Grupo_1099814" data-name="Grupo 1099814">
                      <g id="Grupo_1099813" data-name="Grupo 1099813" transform="translate(0 0)" clip-path="url(#clip-path-13)">
                        <g id="Grupo_1099812" data-name="Grupo 1099812" transform="translate(0 0)">
                          <g id="Grupo_1099811" data-name="Grupo 1099811" clip-path="url(#clip-path-14)">
                            <path id="Trazado_875149" data-name="Trazado 875149" d="M0,0H20.238V20.238H0Z" transform="translate(-4.903 14.231) rotate(-70.991)" fill="#d4e157"/>
                          </g>
                        </g>
                      </g>
                    </g>
                  </g>
                  <g id="Grupo_1099820" data-name="Grupo 1099820" transform="translate(48.396 64.723)" style="isolation: isolate">
                    <g id="Grupo_1099819" data-name="Grupo 1099819">
                      <g id="Grupo_1099818" data-name="Grupo 1099818" transform="translate(0 0)" clip-path="url(#clip-path-15)">
                        <g id="Grupo_1099817" data-name="Grupo 1099817" transform="translate(0 0)">
                          <g id="Grupo_1099816" data-name="Grupo 1099816" clip-path="url(#clip-path-16)">
                            <path id="Trazado_875150" data-name="Trazado 875150" d="M0,0H20.238V20.238H0Z" transform="matrix(0.326, -0.945, 0.945, 0.326, -4.903, 14.232)" fill="#d4e157"/>
                          </g>
                        </g>
                      </g>
                    </g>
                  </g>
                  <g id="Grupo_1099825" data-name="Grupo 1099825" transform="translate(48.396 48.715)" style="isolation: isolate">
                    <g id="Grupo_1099824" data-name="Grupo 1099824">
                      <g id="Grupo_1099823" data-name="Grupo 1099823" transform="translate(0 0)" clip-path="url(#clip-path-5)">
                        <g id="Grupo_1099822" data-name="Grupo 1099822" transform="translate(0 0)">
                          <g id="Grupo_1099821" data-name="Grupo 1099821" clip-path="url(#clip-path-6)">
                            <path id="Trazado_875151" data-name="Trazado 875151" d="M0,0H20.238V20.238H0Z" transform="translate(-4.903 14.231) rotate(-70.991)" fill="#d4e157"/>
                          </g>
                        </g>
                      </g>
                    </g>
                  </g>
                  <g id="Grupo_1099830" data-name="Grupo 1099830" transform="translate(48.396 32.501)" style="isolation: isolate">
                    <g id="Grupo_1099829" data-name="Grupo 1099829">
                      <g id="Grupo_1099828" data-name="Grupo 1099828" transform="translate(0 0)" clip-path="url(#clip-path-15)">
                        <g id="Grupo_1099827" data-name="Grupo 1099827" transform="translate(0 0)">
                          <g id="Grupo_1099826" data-name="Grupo 1099826" clip-path="url(#clip-path-16)">
                            <path id="Trazado_875152" data-name="Trazado 875152" d="M0,0H20.238V20.238H0Z" transform="translate(-4.903 14.232) rotate(-70.991)" fill="#d4e157"/>
                          </g>
                        </g>
                      </g>
                    </g>
                  </g>
                  <g id="Grupo_1099845" data-name="Grupo 1099845" transform="translate(32.476 64.723)" style="isolation: isolate">
                    <g id="Grupo_1099844" data-name="Grupo 1099844">
                      <g id="Grupo_1099843" data-name="Grupo 1099843" transform="translate(0 0)" clip-path="url(#clip-path-21)">
                        <g id="Grupo_1099842" data-name="Grupo 1099842" transform="translate(0 0)">
                          <g id="Grupo_1099841" data-name="Grupo 1099841" clip-path="url(#clip-path-22)">
                            <path id="Trazado_875153" data-name="Trazado 875153" d="M0,0H20.238V20.238H0Z" transform="translate(-4.903 14.232) rotate(-70.991)" fill="#d4e157"/>
                          </g>
                        </g>
                      </g>
                    </g>
                  </g>
                  <g id="Grupo_1099855" data-name="Grupo 1099855" transform="translate(32.11 97.082)" style="isolation: isolate">
                    <g id="Grupo_1099854" data-name="Grupo 1099854">
                      <g id="Grupo_1099853" data-name="Grupo 1099853" clip-path="url(#clip-path-5)">
                        <g id="Grupo_1099852" data-name="Grupo 1099852" transform="translate(0)">
                          <g id="Grupo_1099851" data-name="Grupo 1099851" clip-path="url(#clip-path-24)">
                            <path id="Trazado_875154" data-name="Trazado 875154" d="M0,0H20.238V20.238H0Z" transform="translate(-4.903 14.231) rotate(-70.991)" fill="#d4e157"/>
                          </g>
                        </g>
                      </g>
                    </g>
                  </g>
                  <g id="Grupo_1099870" data-name="Grupo 1099870" transform="translate(32.11 113.052)" style="isolation: isolate">
                    <g id="Grupo_1099869" data-name="Grupo 1099869">
                      <g id="Grupo_1099868" data-name="Grupo 1099868" transform="translate(0 0)" clip-path="url(#clip-path-5)">
                        <g id="Grupo_1099867" data-name="Grupo 1099867" transform="translate(0 0)">
                          <g id="Grupo_1099866" data-name="Grupo 1099866" clip-path="url(#clip-path-24)">
                            <path id="Trazado_875155" data-name="Trazado 875155" d="M0,0H20.238V20.238H0Z" transform="translate(-4.903 14.231) rotate(-70.991)" fill="#d4e157"/>
                          </g>
                        </g>
                      </g>
                    </g>
                  </g>
                  <g id="Grupo_1099885" data-name="Grupo 1099885" transform="translate(32.11 128.972)" style="isolation: isolate">
                    <g id="Grupo_1099884" data-name="Grupo 1099884">
                      <g id="Grupo_1099883" data-name="Grupo 1099883" transform="translate(0 0)" clip-path="url(#clip-path-5)">
                        <g id="Grupo_1099882" data-name="Grupo 1099882" transform="translate(0 0)">
                          <g id="Grupo_1099881" data-name="Grupo 1099881" clip-path="url(#clip-path-24)">
                            <path id="Trazado_875156" data-name="Trazado 875156" d="M0,0H20.238V20.238H0Z" transform="translate(-4.903 14.231) rotate(-70.991)" fill="#d4e157"/>
                          </g>
                        </g>
                      </g>
                    </g>
                  </g>
                  <g id="Grupo_1099900" data-name="Grupo 1099900" transform="translate(32.476 48.788)" style="isolation: isolate">
                    <g id="Grupo_1099899" data-name="Grupo 1099899">
                      <g id="Grupo_1099898" data-name="Grupo 1099898" transform="translate(0 0)" clip-path="url(#clip-path-21)">
                        <g id="Grupo_1099897" data-name="Grupo 1099897" transform="translate(0 0)">
                          <g id="Grupo_1099896" data-name="Grupo 1099896" clip-path="url(#clip-path-22)">
                            <path id="Trazado_875157" data-name="Trazado 875157" d="M0,0H20.238V20.238H0Z" transform="translate(-4.903 14.232) rotate(-70.991)" fill="#d4e157"/>
                          </g>
                        </g>
                      </g>
                    </g>
                  </g>
                  <g id="Grupo_1099910" data-name="Grupo 1099910" transform="translate(32.11 32.501)" style="isolation: isolate">
                    <g id="Grupo_1099909" data-name="Grupo 1099909">
                      <g id="Grupo_1099908" data-name="Grupo 1099908" transform="translate(0 0)" clip-path="url(#clip-path-15)">
                        <g id="Grupo_1099907" data-name="Grupo 1099907" transform="translate(0 0)">
                          <g id="Grupo_1099906" data-name="Grupo 1099906" clip-path="url(#clip-path-32)">
                            <path id="Trazado_875158" data-name="Trazado 875158" d="M0,0H20.238V20.238H0Z" transform="matrix(0.326, -0.945, 0.945, 0.326, -4.903, 14.232)" fill="#d4e157"/>
                          </g>
                        </g>
                      </g>
                    </g>
                  </g>
                </g>
              </g>
            </g>
          </g>
        </g>
        <circle id="Elipse_11503" data-name="Elipse 11503" cx="51.5" cy="51.5" r="51.5" transform="translate(8 9)" fill="#f3f9ff"/>
      </g>
    </g>
    <g id="Grupo_1101156" data-name="Grupo 1101156" transform="translate(207.504 1655.256)">
      <g id="Grupo_1099389" data-name="Grupo 1099389" transform="translate(0.293 -0.141)">
        <rect id="Rectángulo_401104" data-name="Rectángulo 401104" width="67" height="68" transform="translate(-0.086 -0.116)" fill="none"/>
      </g>
      <g id="Grupo_1099776-2" data-name="Grupo 1099776" transform="translate(0.207 -0.681)">
        <g id="Grupo_1099618" data-name="Grupo 1099618" transform="translate(0 0.354)">
          <rect id="Rectángulo_401104-2" data-name="Rectángulo 401104" width="66.932" height="67.738" transform="translate(0)" fill="none"/>
        </g>
        <g id="Grupo_1119809" data-name="Grupo 1119809" transform="translate(0.187 -1.017)">
          <path id="Trazado_906827" data-name="Trazado 906827" d="M269.867,123.621a1.067,1.067,0,0,0,1.439-.276L283.759,105a1.036,1.036,0,1,0-1.715-1.164l-12.452,18.346A1.036,1.036,0,0,0,269.867,123.621Z" transform="translate(-234.254 -89.096)" fill="#4c5066"/>
          <path id="Trazado_906828" data-name="Trazado 906828" d="M346.383,191.317c2.157,0,3.911-2.157,3.911-4.808-.221-6.381-7.6-6.379-7.823,0C342.472,189.161,344.227,191.317,346.383,191.317Zm0-7.543c1,0,1.839,1.252,1.839,2.735s-.842,2.735-1.839,2.735-1.839-1.252-1.839-2.735S345.387,183.775,346.383,183.775Z" transform="translate(-297.218 -156.613)" fill="#4c5066"/>
          <path id="Trazado_906829" data-name="Trazado 906829" d="M251.674,108.191c0-2.651-1.755-4.808-3.911-4.808-5.187.256-5.185,9.36,0,9.615C249.919,113,251.674,110.842,251.674,108.191Zm-5.75,0c0-1.483.842-2.735,1.839-2.735s1.839,1.252,1.839,2.735-.842,2.735-1.839,2.735S245.924,109.673,245.924,108.191Z" transform="translate(-212.244 -89.097)" fill="#4c5066"/>
          <path id="Trazado_906830" data-name="Trazado 906830" d="M49.966,47.8C75.4,55.385,93.012,23.54,73.205,5.947a1.036,1.036,0,0,0-1.353,1.571c18.386,16.379,1.52,45.81-21.886,38.1V38.576c0-.888-.538-2.139-3.1-3.053a20.048,20.048,0,0,0-9.34-.7C27.756,15.742,47.757-4.921,67.087,4.375A1.036,1.036,0,0,0,68,2.512C47.146-7.537,25.363,14.434,35.425,35.245c-.31.085-.608.177-.889.278-2.56.914-3.1,2.165-3.1,3.053v6.9a16.769,16.769,0,0,0-7.178-1.355,1.036,1.036,0,0,0,0,2.073,16.9,16.9,0,0,1,5.461.8c1.42.507,1.718,1.02,1.718,1.1s-.3.593-1.722,1.1a17.376,17.376,0,0,1-10.939,0c-1.423-.508-1.722-1.021-1.722-1.1s.364-.685,2.092-1.223a1.036,1.036,0,0,0-.617-1.979c-2.933.914-3.548,2.246-3.548,3.2V66.829c0,.888.538,2.139,3.1,3.053a19.454,19.454,0,0,0,12.332,0,6.762,6.762,0,0,0,2.061-1.1,6.761,6.761,0,0,0,2.061,1.1,19.455,19.455,0,0,0,12.332,0,6.762,6.762,0,0,0,2.061-1.1,6.761,6.761,0,0,0,2.061,1.1,19.454,19.454,0,0,0,12.332,0c2.56-.914,3.1-2.165,3.1-3.053V57.461c0-.888-.538-2.139-3.1-3.053a19.454,19.454,0,0,0-12.332,0,8.993,8.993,0,0,0-1.025.434c0-1.351,0-5.361,0-6.77,0-.037,0-.229,0-.269ZM64.348,62.145c0,.08-.3.593-1.722,1.1a17.376,17.376,0,0,1-10.939,0c-1.423-.508-1.722-1.021-1.722-1.1V60.08a9.016,9.016,0,0,0,1.025.434,19.454,19.454,0,0,0,12.332,0,8.99,8.99,0,0,0,1.025-.434ZM47.893,43.26c0,.08-.3.593-1.722,1.1a17.376,17.376,0,0,1-10.939,0c-1.423-.508-1.722-1.021-1.722-1.1V41.195a9.015,9.015,0,0,0,1.025.434,19.455,19.455,0,0,0,12.332,0,8.99,8.99,0,0,0,1.025-.434ZM34.536,46.313a18.9,18.9,0,0,0,13.358-.434v2.14c0,.08-.3.593-1.722,1.1a17.378,17.378,0,0,1-10.939,0c-1.423-.508-1.722-1.021-1.722-1.1v-2.14A9.007,9.007,0,0,0,34.536,46.313Zm-3.1,11.148c0,.08-.3.593-1.722,1.1a17.376,17.376,0,0,1-10.939,0c-1.423-.508-1.722-1.021-1.722-1.1V55.4a9.014,9.014,0,0,0,1.025.434,19.454,19.454,0,0,0,12.332,0,8.991,8.991,0,0,0,1.025-.434ZM17.056,60.079a9.016,9.016,0,0,0,1.025.434,19.454,19.454,0,0,0,12.332,0,8.991,8.991,0,0,0,1.025-.434v2.065c0,.08-.3.593-1.722,1.1a17.376,17.376,0,0,1-10.939,0c-1.423-.508-1.722-1.021-1.722-1.1Zm16.455,0a9.017,9.017,0,0,0,1.025.434,19.455,19.455,0,0,0,12.332,0,8.99,8.99,0,0,0,1.025-.434v2.065c0,.08-.3.593-1.722,1.1a17.376,17.376,0,0,1-10.939,0c-1.423-.508-1.722-1.021-1.722-1.1Zm12.661-1.518a17.377,17.377,0,0,1-10.939,0c-1.423-.508-1.722-1.021-1.722-1.1V55.4a9.015,9.015,0,0,0,1.025.434,19.455,19.455,0,0,0,12.332,0,8.99,8.99,0,0,0,1.025-.434v2.065C47.893,57.541,47.594,58.054,46.171,58.562Zm1.722-5.785c0,.08-.3.593-1.722,1.1a17.378,17.378,0,0,1-10.939,0c-1.423-.508-1.722-1.021-1.722-1.1v-2.14a9.015,9.015,0,0,0,1.025.434,19.455,19.455,0,0,0,12.332,0,8.989,8.989,0,0,0,1.025-.434Zm-12.661-15.3a17.382,17.382,0,0,1,10.939,0c1.423.508,1.722,1.021,1.722,1.1s-.3.593-1.722,1.1a17.378,17.378,0,0,1-10.939,0c-1.423-.508-1.722-1.021-1.722-1.1S33.81,37.983,35.233,37.475ZM18.081,51.146a18.9,18.9,0,0,0,13.357-.434v2.066c0,.08-.3.593-1.722,1.1a17.376,17.376,0,0,1-10.939,0c-1.423-.508-1.722-1.021-1.722-1.1V50.711A9,9,0,0,0,18.081,51.146ZM29.716,67.93a17.376,17.376,0,0,1-10.939,0c-1.423-.508-1.722-1.021-1.722-1.1V64.764a18.525,18.525,0,0,0,14.382,0v2.066C31.438,66.909,31.139,67.422,29.716,67.93Zm16.455,0a17.378,17.378,0,0,1-10.939,0c-1.423-.508-1.722-1.021-1.722-1.1V64.764a18.525,18.525,0,0,0,14.383,0v2.066C47.893,66.909,47.594,67.422,46.171,67.93Zm16.455,0a17.376,17.376,0,0,1-10.939,0c-1.423-.508-1.722-1.021-1.722-1.1V64.764a18.525,18.525,0,0,0,14.382,0v2.066C64.348,66.909,64.049,67.422,62.627,67.93ZM51.688,56.36a17.376,17.376,0,0,1,10.939,0c1.423.508,1.722,1.021,1.722,1.1s-.3.593-1.722,1.1a17.376,17.376,0,0,1-10.939,0c-1.423-.508-1.722-1.021-1.722-1.1S50.265,56.868,51.688,56.36Z" transform="translate(-14.983 0)" fill="#4c5066"/>
        </g>
      </g>
    </g>
  </g>
</svg>
