<svg xmlns="http://www.w3.org/2000/svg" width="70" height="70" viewBox="0 0 70 70">
  <g id="Grupo_1071455" data-name="Grupo 1071455" transform="translate(-269 -958)">
    <circle id="Elipse_5614" data-name="Elipse 5614" cx="35" cy="35" r="35" transform="translate(269 958)" fill="#fff"/>
    <g id="Grupo_1122161" data-name="Grupo 1122161" transform="translate(282.005 971.384)">
      <path id="Trazado_911900" data-name="Trazado 911900" d="M21.659,1A20.659,20.659,0,1,0,42.318,21.659,20.679,20.679,0,0,0,21.659,1Zm15.59,20.659a1.594,1.594,0,0,1-1.589,1.589H33.673A12.139,12.139,0,0,1,23.248,33.673V35.66a1.589,1.589,0,1,1-3.178,0V33.673A12.139,12.139,0,0,1,9.645,23.248H7.659a1.589,1.589,0,0,1,0-3.178H9.645A12.139,12.139,0,0,1,20.07,9.645V7.659a1.589,1.589,0,0,1,3.178,0V9.645A12.139,12.139,0,0,1,33.673,20.07H35.66a1.594,1.594,0,0,1,1.589,1.589Z" fill="#474d41"/>
      <path id="Trazado_911901" data-name="Trazado 911901" d="M25.5,16.823h1.716A8.928,8.928,0,0,0,20,9.608v1.716a1.589,1.589,0,0,1-3.178,0V9.608a8.928,8.928,0,0,0-7.215,7.215h1.716a1.589,1.589,0,1,1,0,3.178H9.608a8.927,8.927,0,0,0,7.215,7.215V25.5A1.589,1.589,0,1,1,20,25.5v1.716A8.927,8.927,0,0,0,27.216,20H25.5a1.589,1.589,0,1,1,0-3.178Z" transform="translate(3.248 3.247)" fill="#474d41"/>
    </g>
  </g>
</svg>
