<svg xmlns="http://www.w3.org/2000/svg" xmlns:xlink="http://www.w3.org/1999/xlink" width="120" height="120" viewBox="0 0 120 120">
  <defs>
    <clipPath id="clip-path">
      <rect id="Rectángulo_400938" data-name="Rectángulo 400938" width="113" height="113" fill="none"/>
    </clipPath>
    <clipPath id="clip-path-2">
      <rect id="Rectángulo_401742" data-name="Rectángulo 401742" width="120" height="120" fill="none"/>
    </clipPath>
    <clipPath id="clip-path-3">
      <rect id="Rectángulo_401301" data-name="Rectángulo 401301" width="64.317" height="193.113" fill="#d4e157"/>
    </clipPath>
    <clipPath id="clip-path-5">
      <rect id="Rectángulo_401247" data-name="Rectángulo 401247" width="15.921" height="15.92" fill="#d4e157"/>
    </clipPath>
    <clipPath id="clip-path-6">
      <path id="Trazado_873506" data-name="Trazado 873506" d="M15.921,7.96A7.96,7.96,0,1,1,7.96,0a7.961,7.961,0,0,1,7.961,7.96" fill="#d4e157"/>
    </clipPath>
    <clipPath id="clip-path-8">
      <path id="Trazado_873507" data-name="Trazado 873507" d="M15.921,7.96A7.96,7.96,0,1,1,7.96,0a7.96,7.96,0,0,1,7.961,7.96" fill="#d4e157"/>
    </clipPath>
    <clipPath id="clip-path-13">
      <rect id="Rectángulo_401261" data-name="Rectángulo 401261" width="15.92" height="15.92" fill="#d4e157"/>
    </clipPath>
    <clipPath id="clip-path-14">
      <path id="Trazado_873513" data-name="Trazado 873513" d="M15.92,7.96A7.96,7.96,0,1,1,7.96,0a7.96,7.96,0,0,1,7.96,7.96" fill="#d4e157"/>
    </clipPath>
    <clipPath id="clip-path-15">
      <rect id="Rectángulo_401263" data-name="Rectángulo 401263" width="15.921" height="15.921" fill="#d4e157"/>
    </clipPath>
    <clipPath id="clip-path-16">
      <path id="Trazado_873514" data-name="Trazado 873514" d="M15.921,7.961A7.96,7.96,0,1,1,7.96,0a7.961,7.961,0,0,1,7.961,7.961" fill="#d4e157"/>
    </clipPath>
    <clipPath id="clip-path-21">
      <rect id="Rectángulo_401273" data-name="Rectángulo 401273" width="15.92" height="15.921" fill="#d4e157"/>
    </clipPath>
    <clipPath id="clip-path-22">
      <path id="Trazado_873519" data-name="Trazado 873519" d="M15.92,7.961A7.96,7.96,0,1,1,7.96,0a7.96,7.96,0,0,1,7.96,7.961" fill="#d4e157"/>
    </clipPath>
    <clipPath id="clip-path-24">
      <path id="Trazado_873521" data-name="Trazado 873521" d="M15.921,7.96A7.96,7.96,0,1,1,7.961,0a7.96,7.96,0,0,1,7.96,7.96" fill="#d4e157"/>
    </clipPath>
    <clipPath id="clip-path-32">
      <path id="Trazado_873532" data-name="Trazado 873532" d="M15.921,7.961A7.96,7.96,0,1,1,7.961,0a7.96,7.96,0,0,1,7.96,7.961" fill="#d4e157"/>
    </clipPath>
  </defs>
  <g id="Grupo_1119770" data-name="Grupo 1119770" transform="translate(-810.711 -1630)">
    <g id="Grupo_1101088" data-name="Grupo 1101088" transform="translate(810.711 1630.434)">
      <g id="Grupo_1099379" data-name="Grupo 1099379" transform="translate(0 -0.434)">
        <rect id="Rectángulo_401103" data-name="Rectángulo 401103" width="120" height="120" transform="translate(0 0)" fill="none"/>
        <path id="Trazado_873425" data-name="Trazado 873425" d="M49.147,0C76.29,0,98.293,23.571,98.293,52.647s-22,52.647-49.147,52.647S0,81.723,0,52.647,22,0,49.147,0Z" transform="translate(15.677 12.583)" fill="#b9bfe2"/>
        <g id="Enmascarar_grupo_1100032" data-name="Enmascarar grupo 1100032" transform="translate(0 0)" clip-path="url(#clip-path-2)">
          <g id="Grupo_1101051" data-name="Grupo 1101051" transform="translate(148.45 -27.966) rotate(90)" style="isolation: isolate">
            <g id="Grupo_1099913" data-name="Grupo 1099913" clip-path="url(#clip-path-3)" style="isolation: isolate">
              <g id="Grupo_1099912" data-name="Grupo 1099912">
                <g id="Grupo_1099911" data-name="Grupo 1099911" clip-path="url(#clip-path-3)">
                  <g id="Grupo_1099780" data-name="Grupo 1099780" transform="translate(48.396 81.162)" style="isolation: isolate">
                    <g id="Grupo_1099779" data-name="Grupo 1099779">
                      <g id="Grupo_1099778" data-name="Grupo 1099778" transform="translate(0 0)" clip-path="url(#clip-path-5)">
                        <g id="Grupo_1099777" data-name="Grupo 1099777" transform="translate(0 0)">
                          <g id="Grupo_1099776" data-name="Grupo 1099776" clip-path="url(#clip-path-6)">
                            <path id="Trazado_875145" data-name="Trazado 875145" d="M0,0H20.238V20.238H0Z" transform="translate(-4.903 14.231) rotate(-70.991)" fill="#d4e157"/>
                          </g>
                        </g>
                      </g>
                    </g>
                  </g>
                  <g id="Grupo_1099785" data-name="Grupo 1099785" transform="translate(48.396 97.082)" style="isolation: isolate">
                    <g id="Grupo_1099784" data-name="Grupo 1099784">
                      <g id="Grupo_1099783" data-name="Grupo 1099783" clip-path="url(#clip-path-5)">
                        <g id="Grupo_1099782" data-name="Grupo 1099782" transform="translate(0)">
                          <g id="Grupo_1099781" data-name="Grupo 1099781" clip-path="url(#clip-path-8)">
                            <path id="Trazado_875146" data-name="Trazado 875146" d="M0,0H20.238V20.238H0Z" transform="translate(-4.903 14.231) rotate(-70.991)" fill="#d4e157"/>
                          </g>
                        </g>
                      </g>
                    </g>
                  </g>
                  <g id="Grupo_1099790" data-name="Grupo 1099790" transform="translate(48.396 113.052)" style="isolation: isolate">
                    <g id="Grupo_1099789" data-name="Grupo 1099789">
                      <g id="Grupo_1099788" data-name="Grupo 1099788" transform="translate(0 0)" clip-path="url(#clip-path-5)">
                        <g id="Grupo_1099787" data-name="Grupo 1099787" transform="translate(0 0)">
                          <g id="Grupo_1099786" data-name="Grupo 1099786" clip-path="url(#clip-path-6)">
                            <path id="Trazado_875147" data-name="Trazado 875147" d="M0,0H20.238V20.238H0Z" transform="translate(-4.903 14.231) rotate(-70.991)" fill="#d4e157"/>
                          </g>
                        </g>
                      </g>
                    </g>
                  </g>
                  <g id="Grupo_1099795" data-name="Grupo 1099795" transform="translate(48.396 128.972)" style="isolation: isolate">
                    <g id="Grupo_1099794" data-name="Grupo 1099794">
                      <g id="Grupo_1099793" data-name="Grupo 1099793" transform="translate(0 0)" clip-path="url(#clip-path-5)">
                        <g id="Grupo_1099792" data-name="Grupo 1099792" transform="translate(0 0)">
                          <g id="Grupo_1099791" data-name="Grupo 1099791" clip-path="url(#clip-path-8)">
                            <path id="Trazado_875148" data-name="Trazado 875148" d="M0,0H20.238V20.238H0Z" transform="translate(-4.903 14.231) rotate(-70.991)" fill="#d4e157"/>
                          </g>
                        </g>
                      </g>
                    </g>
                  </g>
                  <g id="Grupo_1099815" data-name="Grupo 1099815" transform="translate(32.476 81.162)" style="isolation: isolate">
                    <g id="Grupo_1099814" data-name="Grupo 1099814">
                      <g id="Grupo_1099813" data-name="Grupo 1099813" transform="translate(0 0)" clip-path="url(#clip-path-13)">
                        <g id="Grupo_1099812" data-name="Grupo 1099812" transform="translate(0 0)">
                          <g id="Grupo_1099811" data-name="Grupo 1099811" clip-path="url(#clip-path-14)">
                            <path id="Trazado_875149" data-name="Trazado 875149" d="M0,0H20.238V20.238H0Z" transform="translate(-4.903 14.231) rotate(-70.991)" fill="#d4e157"/>
                          </g>
                        </g>
                      </g>
                    </g>
                  </g>
                  <g id="Grupo_1099820" data-name="Grupo 1099820" transform="translate(48.396 64.723)" style="isolation: isolate">
                    <g id="Grupo_1099819" data-name="Grupo 1099819">
                      <g id="Grupo_1099818" data-name="Grupo 1099818" transform="translate(0 0)" clip-path="url(#clip-path-15)">
                        <g id="Grupo_1099817" data-name="Grupo 1099817" transform="translate(0 0)">
                          <g id="Grupo_1099816" data-name="Grupo 1099816" clip-path="url(#clip-path-16)">
                            <path id="Trazado_875150" data-name="Trazado 875150" d="M0,0H20.238V20.238H0Z" transform="matrix(0.326, -0.945, 0.945, 0.326, -4.903, 14.232)" fill="#d4e157"/>
                          </g>
                        </g>
                      </g>
                    </g>
                  </g>
                  <g id="Grupo_1099825" data-name="Grupo 1099825" transform="translate(48.396 48.715)" style="isolation: isolate">
                    <g id="Grupo_1099824" data-name="Grupo 1099824">
                      <g id="Grupo_1099823" data-name="Grupo 1099823" transform="translate(0 0)" clip-path="url(#clip-path-5)">
                        <g id="Grupo_1099822" data-name="Grupo 1099822" transform="translate(0 0)">
                          <g id="Grupo_1099821" data-name="Grupo 1099821" clip-path="url(#clip-path-6)">
                            <path id="Trazado_875151" data-name="Trazado 875151" d="M0,0H20.238V20.238H0Z" transform="translate(-4.903 14.231) rotate(-70.991)" fill="#d4e157"/>
                          </g>
                        </g>
                      </g>
                    </g>
                  </g>
                  <g id="Grupo_1099830" data-name="Grupo 1099830" transform="translate(48.396 32.501)" style="isolation: isolate">
                    <g id="Grupo_1099829" data-name="Grupo 1099829">
                      <g id="Grupo_1099828" data-name="Grupo 1099828" transform="translate(0 0)" clip-path="url(#clip-path-15)">
                        <g id="Grupo_1099827" data-name="Grupo 1099827" transform="translate(0 0)">
                          <g id="Grupo_1099826" data-name="Grupo 1099826" clip-path="url(#clip-path-16)">
                            <path id="Trazado_875152" data-name="Trazado 875152" d="M0,0H20.238V20.238H0Z" transform="translate(-4.903 14.232) rotate(-70.991)" fill="#d4e157"/>
                          </g>
                        </g>
                      </g>
                    </g>
                  </g>
                  <g id="Grupo_1099845" data-name="Grupo 1099845" transform="translate(32.476 64.723)" style="isolation: isolate">
                    <g id="Grupo_1099844" data-name="Grupo 1099844">
                      <g id="Grupo_1099843" data-name="Grupo 1099843" transform="translate(0 0)" clip-path="url(#clip-path-21)">
                        <g id="Grupo_1099842" data-name="Grupo 1099842" transform="translate(0 0)">
                          <g id="Grupo_1099841" data-name="Grupo 1099841" clip-path="url(#clip-path-22)">
                            <path id="Trazado_875153" data-name="Trazado 875153" d="M0,0H20.238V20.238H0Z" transform="translate(-4.903 14.232) rotate(-70.991)" fill="#d4e157"/>
                          </g>
                        </g>
                      </g>
                    </g>
                  </g>
                  <g id="Grupo_1099855" data-name="Grupo 1099855" transform="translate(32.11 97.082)" style="isolation: isolate">
                    <g id="Grupo_1099854" data-name="Grupo 1099854">
                      <g id="Grupo_1099853" data-name="Grupo 1099853" clip-path="url(#clip-path-5)">
                        <g id="Grupo_1099852" data-name="Grupo 1099852" transform="translate(0)">
                          <g id="Grupo_1099851" data-name="Grupo 1099851" clip-path="url(#clip-path-24)">
                            <path id="Trazado_875154" data-name="Trazado 875154" d="M0,0H20.238V20.238H0Z" transform="translate(-4.903 14.231) rotate(-70.991)" fill="#d4e157"/>
                          </g>
                        </g>
                      </g>
                    </g>
                  </g>
                  <g id="Grupo_1099870" data-name="Grupo 1099870" transform="translate(32.11 113.052)" style="isolation: isolate">
                    <g id="Grupo_1099869" data-name="Grupo 1099869">
                      <g id="Grupo_1099868" data-name="Grupo 1099868" transform="translate(0 0)" clip-path="url(#clip-path-5)">
                        <g id="Grupo_1099867" data-name="Grupo 1099867" transform="translate(0 0)">
                          <g id="Grupo_1099866" data-name="Grupo 1099866" clip-path="url(#clip-path-24)">
                            <path id="Trazado_875155" data-name="Trazado 875155" d="M0,0H20.238V20.238H0Z" transform="translate(-4.903 14.231) rotate(-70.991)" fill="#d4e157"/>
                          </g>
                        </g>
                      </g>
                    </g>
                  </g>
                  <g id="Grupo_1099885" data-name="Grupo 1099885" transform="translate(32.11 128.972)" style="isolation: isolate">
                    <g id="Grupo_1099884" data-name="Grupo 1099884">
                      <g id="Grupo_1099883" data-name="Grupo 1099883" transform="translate(0 0)" clip-path="url(#clip-path-5)">
                        <g id="Grupo_1099882" data-name="Grupo 1099882" transform="translate(0 0)">
                          <g id="Grupo_1099881" data-name="Grupo 1099881" clip-path="url(#clip-path-24)">
                            <path id="Trazado_875156" data-name="Trazado 875156" d="M0,0H20.238V20.238H0Z" transform="translate(-4.903 14.231) rotate(-70.991)" fill="#d4e157"/>
                          </g>
                        </g>
                      </g>
                    </g>
                  </g>
                  <g id="Grupo_1099900" data-name="Grupo 1099900" transform="translate(32.476 48.788)" style="isolation: isolate">
                    <g id="Grupo_1099899" data-name="Grupo 1099899">
                      <g id="Grupo_1099898" data-name="Grupo 1099898" transform="translate(0 0)" clip-path="url(#clip-path-21)">
                        <g id="Grupo_1099897" data-name="Grupo 1099897" transform="translate(0 0)">
                          <g id="Grupo_1099896" data-name="Grupo 1099896" clip-path="url(#clip-path-22)">
                            <path id="Trazado_875157" data-name="Trazado 875157" d="M0,0H20.238V20.238H0Z" transform="translate(-4.903 14.232) rotate(-70.991)" fill="#d4e157"/>
                          </g>
                        </g>
                      </g>
                    </g>
                  </g>
                  <g id="Grupo_1099910" data-name="Grupo 1099910" transform="translate(32.11 32.501)" style="isolation: isolate">
                    <g id="Grupo_1099909" data-name="Grupo 1099909">
                      <g id="Grupo_1099908" data-name="Grupo 1099908" transform="translate(0 0)" clip-path="url(#clip-path-15)">
                        <g id="Grupo_1099907" data-name="Grupo 1099907" transform="translate(0 0)">
                          <g id="Grupo_1099906" data-name="Grupo 1099906" clip-path="url(#clip-path-32)">
                            <path id="Trazado_875158" data-name="Trazado 875158" d="M0,0H20.238V20.238H0Z" transform="matrix(0.326, -0.945, 0.945, 0.326, -4.903, 14.232)" fill="#d4e157"/>
                          </g>
                        </g>
                      </g>
                    </g>
                  </g>
                </g>
              </g>
            </g>
          </g>
        </g>
        <circle id="Elipse_11503" data-name="Elipse 11503" cx="51.5" cy="51.5" r="51.5" transform="translate(8 9)" fill="#f3f9ff"/>
      </g>
    </g>
    <g id="Grupo_1101089" data-name="Grupo 1101089" transform="translate(837.504 1655.256)">
      <g id="Grupo_1099389" data-name="Grupo 1099389" transform="translate(0.293 -0.141)">
        <rect id="Rectángulo_401104" data-name="Rectángulo 401104" width="67" height="68" transform="translate(-0.086 -0.116)" fill="none"/>
      </g>
      <g id="Grupo_1120642" data-name="Grupo 1120642" transform="translate(-348.563 -6422.587)">
        <g id="Grupo_1099389-2" data-name="Grupo 1099389" transform="translate(347.969 6423)">
          <rect id="Rectángulo_401104-2" data-name="Rectángulo 401104" width="65.82" height="66.663" transform="translate(0 0)" fill="none"/>
        </g>
        <g id="Grupo_1119731" data-name="Grupo 1119731" transform="translate(347.801 6430.81)">
          <g id="Grupo_1119728" data-name="Grupo 1119728" transform="translate(0 0)">
            <g id="Grupo_1119727" data-name="Grupo 1119727" transform="translate(0 0)">
              <path id="Trazado_906768" data-name="Trazado 906768" d="M67.955,101.767c-.081-1.882-1.923-3.386-5.485-4.469a39.075,39.075,0,0,0-10.062-1.408V81.44a1.464,1.464,0,0,0-.2-.677C51.826,79.124,50,77.8,46.761,76.822A40.319,40.319,0,0,0,35.548,75.4a39.307,39.307,0,0,0-11.1,1.422c-2.451.758-5.39,2.167-5.39,4.591a2.494,2.494,0,0,0,.041.447l.149,6.175a16.205,16.205,0,1,0,7.177,28.493,40.048,40.048,0,0,0,8.667.948c.691,3.751,8.816,5.471,16.386,5.471a38.756,38.756,0,0,0,11.1-1.449c2.451-.758,5.39-2.18,5.39-4.6V102.024A1.639,1.639,0,0,0,67.955,101.767ZM49.578,88.929c0,.176-.65,1.11-3.589,2a38.332,38.332,0,0,1-10.427,1.314,38.744,38.744,0,0,1-9.222-1.016c-.041-.014-.068-.014-.108-.027a15.624,15.624,0,0,0-4.239-2.4L21.9,84.988a15,15,0,0,0,2.925,1.124,40.026,40.026,0,0,0,10.739,1.314A40.388,40.388,0,0,0,46.775,86a16.243,16.243,0,0,0,2.939-1.178v3.548A.778.778,0,0,0,49.578,88.929ZM25.256,79.436a36.58,36.58,0,0,1,10.292-1.314,37.809,37.809,0,0,1,10.427,1.314c2.939.894,3.589,1.815,3.589,1.991s-.664,1.124-3.6,2a38.266,38.266,0,0,1-10.414,1.3,37.182,37.182,0,0,1-9.981-1.219c-2.912-.84-3.724-1.76-3.792-2.058,0-.027-.014-.027-.014-.027C21.776,81.169,22.4,80.3,25.256,79.436Zm.041,34.506A13.5,13.5,0,1,1,16.21,90.472a13.793,13.793,0,0,1,3.995.6,13.553,13.553,0,0,1,9.236,10.17,14.162,14.162,0,0,1,.271,2.722A13.418,13.418,0,0,1,25.3,113.941Zm3.44.3a16.352,16.352,0,0,0,2.6-4.455c1.151.095,2.343.163,3.589.176v.244l.081,4.591A42.3,42.3,0,0,1,28.737,114.239Zm3.616-11.89c.785.054,1.612.081,2.451.095l.081,4.794c-.948-.014-1.882-.054-2.776-.122a16.647,16.647,0,0,0,.311-3.169C32.42,103.419,32.393,102.891,32.352,102.349Zm3.331-2.6h-.135c-1.3,0-2.559-.054-3.724-.135A16.055,16.055,0,0,0,29.4,94.576a48.774,48.774,0,0,0,6.135.393,40.42,40.42,0,0,0,11.226-1.422,17.1,17.1,0,0,0,2.925-1.165V95.93C43.877,96.092,37.9,97.311,35.684,99.749Zm1.788,2.153a.1.1,0,0,1,.014-.054c.122-.366,1.083-1.259,3.887-2.045a36.855,36.855,0,0,1,9.656-1.151h.23a37.953,37.953,0,0,1,10.427,1.286c2.884.867,3.562,1.76,3.575,1.964v.014c-.014.2-.691,1.138-3.7,2.031a37.618,37.618,0,0,1-10.292,1.273,37.777,37.777,0,0,1-9.981-1.205c-2.912-.84-3.711-1.774-3.792-2.058Zm24.322,17.023a36.155,36.155,0,0,1-10.306,1.327,36.851,36.851,0,0,1-10.279-1.287c-2.857-.88-3.453-1.788-3.453-1.991v-.027l-.068-3.927a17.645,17.645,0,0,0,3.372,1.232,41.676,41.676,0,0,0,10.17,1.165A40.047,40.047,0,0,0,62.416,114a17.358,17.358,0,0,0,2.844-1.151v4.063h.014C65.273,117.1,64.65,118.031,61.793,118.925Zm3.494-9.967h-.014c0,.135-.081.3-.081.447,0,.19-.636,1.11-3.562,2a37.468,37.468,0,0,1-10.387,1.3c-7.5,0-12.554-1.693-13.61-3.006l-.014-1.138-.054-3.115a16.616,16.616,0,0,0,2.952,1.138A40.026,40.026,0,0,0,51.257,107.9a40.535,40.535,0,0,0,11.064-1.381,15.508,15.508,0,0,0,2.966-1.165Z" transform="translate(0 -75.4)" fill="#474d41"/>
            </g>
          </g>
          <g id="Grupo_1119730" data-name="Grupo 1119730" transform="translate(11.105 17.456)">
            <g id="Grupo_1119729" data-name="Grupo 1119729">
              <path id="Trazado_906769" data-name="Trazado 906769" d="M92.035,217.314a5.119,5.119,0,0,0-4.929-3.724,2.4,2.4,0,1,1,2.411-2.4,1.354,1.354,0,0,0,2.708,0,5.119,5.119,0,0,0-3.724-4.929v-.609a1.354,1.354,0,0,0-2.708,0v.582a5.111,5.111,0,0,0,1.314,10.048,2.4,2.4,0,1,1-2.4,2.411,1.354,1.354,0,1,0-2.708,0,5.144,5.144,0,0,0,3.792,4.943v1.178a1.354,1.354,0,1,0,2.708,0v-1.192A5.109,5.109,0,0,0,92.035,217.314Z" transform="translate(-82 -204.3)" fill="#474d41"/>
            </g>
          </g>
        </g>
      </g>
    </g>
  </g>
</svg>
