<svg xmlns="http://www.w3.org/2000/svg" xmlns:xlink="http://www.w3.org/1999/xlink" width="120" height="120" viewBox="0 0 120 120">
  <defs>
    <clipPath id="clip-path">
      <rect id="Rectángulo_400938" data-name="Rectángulo 400938" width="113" height="113" fill="none"/>
    </clipPath>
    <clipPath id="clip-path-2">
      <rect id="Rectángulo_401742" data-name="Rectángulo 401742" width="120" height="120" fill="none"/>
    </clipPath>
    <clipPath id="clip-path-3">
      <rect id="Rectángulo_401301" data-name="Rectángulo 401301" width="64.317" height="193.113" fill="#d4e157"/>
    </clipPath>
    <clipPath id="clip-path-5">
      <rect id="Rectángulo_401247" data-name="Rectángulo 401247" width="15.921" height="15.92" fill="#d4e157"/>
    </clipPath>
    <clipPath id="clip-path-6">
      <path id="Trazado_873506" data-name="Trazado 873506" d="M15.921,7.96A7.96,7.96,0,1,1,7.96,0a7.961,7.961,0,0,1,7.961,7.96" fill="#d4e157"/>
    </clipPath>
    <clipPath id="clip-path-8">
      <path id="Trazado_873507" data-name="Trazado 873507" d="M15.921,7.96A7.96,7.96,0,1,1,7.96,0a7.96,7.96,0,0,1,7.961,7.96" fill="#d4e157"/>
    </clipPath>
    <clipPath id="clip-path-13">
      <rect id="Rectángulo_401261" data-name="Rectángulo 401261" width="15.92" height="15.92" fill="#d4e157"/>
    </clipPath>
    <clipPath id="clip-path-14">
      <path id="Trazado_873513" data-name="Trazado 873513" d="M15.92,7.96A7.96,7.96,0,1,1,7.96,0a7.96,7.96,0,0,1,7.96,7.96" fill="#d4e157"/>
    </clipPath>
    <clipPath id="clip-path-15">
      <rect id="Rectángulo_401263" data-name="Rectángulo 401263" width="15.921" height="15.921" fill="#d4e157"/>
    </clipPath>
    <clipPath id="clip-path-16">
      <path id="Trazado_873514" data-name="Trazado 873514" d="M15.921,7.961A7.96,7.96,0,1,1,7.96,0a7.961,7.961,0,0,1,7.961,7.961" fill="#d4e157"/>
    </clipPath>
    <clipPath id="clip-path-21">
      <rect id="Rectángulo_401273" data-name="Rectángulo 401273" width="15.92" height="15.921" fill="#d4e157"/>
    </clipPath>
    <clipPath id="clip-path-22">
      <path id="Trazado_873519" data-name="Trazado 873519" d="M15.92,7.961A7.96,7.96,0,1,1,7.96,0a7.96,7.96,0,0,1,7.96,7.961" fill="#d4e157"/>
    </clipPath>
    <clipPath id="clip-path-24">
      <path id="Trazado_873521" data-name="Trazado 873521" d="M15.921,7.96A7.96,7.96,0,1,1,7.961,0a7.96,7.96,0,0,1,7.96,7.96" fill="#d4e157"/>
    </clipPath>
    <clipPath id="clip-path-32">
      <path id="Trazado_873532" data-name="Trazado 873532" d="M15.921,7.961A7.96,7.96,0,1,1,7.961,0a7.96,7.96,0,0,1,7.96,7.961" fill="#d4e157"/>
    </clipPath>
  </defs>
  <g id="Grupo_1121568" data-name="Grupo 1121568" transform="translate(-180.711 -1630)">
    <g id="Grupo_1101154" data-name="Grupo 1101154" transform="translate(180.711 1630.434)">
      <g id="Grupo_1099379" data-name="Grupo 1099379" transform="translate(0 -0.434)">
        <rect id="Rectángulo_401103" data-name="Rectángulo 401103" width="120" height="120" transform="translate(0 0)" fill="none"/>
        <path id="Trazado_873425" data-name="Trazado 873425" d="M49.147,0C76.29,0,98.293,23.571,98.293,52.647s-22,52.647-49.147,52.647S0,81.723,0,52.647,22,0,49.147,0Z" transform="translate(15.677 12.583)" fill="#b9bfe2"/>
        <g id="Enmascarar_grupo_1100032" data-name="Enmascarar grupo 1100032" transform="translate(0 0)" clip-path="url(#clip-path-2)">
          <g id="Grupo_1101051" data-name="Grupo 1101051" transform="translate(148.45 -27.966) rotate(90)" style="isolation: isolate">
            <g id="Grupo_1099913" data-name="Grupo 1099913" clip-path="url(#clip-path-3)" style="isolation: isolate">
              <g id="Grupo_1099912" data-name="Grupo 1099912">
                <g id="Grupo_1099911" data-name="Grupo 1099911" clip-path="url(#clip-path-3)">
                  <g id="Grupo_1099780" data-name="Grupo 1099780" transform="translate(48.396 81.162)" style="isolation: isolate">
                    <g id="Grupo_1099779" data-name="Grupo 1099779">
                      <g id="Grupo_1099778" data-name="Grupo 1099778" transform="translate(0 0)" clip-path="url(#clip-path-5)">
                        <g id="Grupo_1099777" data-name="Grupo 1099777" transform="translate(0 0)">
                          <g id="Grupo_1099776" data-name="Grupo 1099776" clip-path="url(#clip-path-6)">
                            <path id="Trazado_875145" data-name="Trazado 875145" d="M0,0H20.238V20.238H0Z" transform="translate(-4.903 14.231) rotate(-70.991)" fill="#d4e157"/>
                          </g>
                        </g>
                      </g>
                    </g>
                  </g>
                  <g id="Grupo_1099785" data-name="Grupo 1099785" transform="translate(48.396 97.082)" style="isolation: isolate">
                    <g id="Grupo_1099784" data-name="Grupo 1099784">
                      <g id="Grupo_1099783" data-name="Grupo 1099783" clip-path="url(#clip-path-5)">
                        <g id="Grupo_1099782" data-name="Grupo 1099782" transform="translate(0)">
                          <g id="Grupo_1099781" data-name="Grupo 1099781" clip-path="url(#clip-path-8)">
                            <path id="Trazado_875146" data-name="Trazado 875146" d="M0,0H20.238V20.238H0Z" transform="translate(-4.903 14.231) rotate(-70.991)" fill="#d4e157"/>
                          </g>
                        </g>
                      </g>
                    </g>
                  </g>
                  <g id="Grupo_1099790" data-name="Grupo 1099790" transform="translate(48.396 113.052)" style="isolation: isolate">
                    <g id="Grupo_1099789" data-name="Grupo 1099789">
                      <g id="Grupo_1099788" data-name="Grupo 1099788" transform="translate(0 0)" clip-path="url(#clip-path-5)">
                        <g id="Grupo_1099787" data-name="Grupo 1099787" transform="translate(0 0)">
                          <g id="Grupo_1099786" data-name="Grupo 1099786" clip-path="url(#clip-path-6)">
                            <path id="Trazado_875147" data-name="Trazado 875147" d="M0,0H20.238V20.238H0Z" transform="translate(-4.903 14.231) rotate(-70.991)" fill="#d4e157"/>
                          </g>
                        </g>
                      </g>
                    </g>
                  </g>
                  <g id="Grupo_1099795" data-name="Grupo 1099795" transform="translate(48.396 128.972)" style="isolation: isolate">
                    <g id="Grupo_1099794" data-name="Grupo 1099794">
                      <g id="Grupo_1099793" data-name="Grupo 1099793" transform="translate(0 0)" clip-path="url(#clip-path-5)">
                        <g id="Grupo_1099792" data-name="Grupo 1099792" transform="translate(0 0)">
                          <g id="Grupo_1099791" data-name="Grupo 1099791" clip-path="url(#clip-path-8)">
                            <path id="Trazado_875148" data-name="Trazado 875148" d="M0,0H20.238V20.238H0Z" transform="translate(-4.903 14.231) rotate(-70.991)" fill="#d4e157"/>
                          </g>
                        </g>
                      </g>
                    </g>
                  </g>
                  <g id="Grupo_1099815" data-name="Grupo 1099815" transform="translate(32.476 81.162)" style="isolation: isolate">
                    <g id="Grupo_1099814" data-name="Grupo 1099814">
                      <g id="Grupo_1099813" data-name="Grupo 1099813" transform="translate(0 0)" clip-path="url(#clip-path-13)">
                        <g id="Grupo_1099812" data-name="Grupo 1099812" transform="translate(0 0)">
                          <g id="Grupo_1099811" data-name="Grupo 1099811" clip-path="url(#clip-path-14)">
                            <path id="Trazado_875149" data-name="Trazado 875149" d="M0,0H20.238V20.238H0Z" transform="translate(-4.903 14.231) rotate(-70.991)" fill="#d4e157"/>
                          </g>
                        </g>
                      </g>
                    </g>
                  </g>
                  <g id="Grupo_1099820" data-name="Grupo 1099820" transform="translate(48.396 64.723)" style="isolation: isolate">
                    <g id="Grupo_1099819" data-name="Grupo 1099819">
                      <g id="Grupo_1099818" data-name="Grupo 1099818" transform="translate(0 0)" clip-path="url(#clip-path-15)">
                        <g id="Grupo_1099817" data-name="Grupo 1099817" transform="translate(0 0)">
                          <g id="Grupo_1099816" data-name="Grupo 1099816" clip-path="url(#clip-path-16)">
                            <path id="Trazado_875150" data-name="Trazado 875150" d="M0,0H20.238V20.238H0Z" transform="matrix(0.326, -0.945, 0.945, 0.326, -4.903, 14.232)" fill="#d4e157"/>
                          </g>
                        </g>
                      </g>
                    </g>
                  </g>
                  <g id="Grupo_1099825" data-name="Grupo 1099825" transform="translate(48.396 48.715)" style="isolation: isolate">
                    <g id="Grupo_1099824" data-name="Grupo 1099824">
                      <g id="Grupo_1099823" data-name="Grupo 1099823" transform="translate(0 0)" clip-path="url(#clip-path-5)">
                        <g id="Grupo_1099822" data-name="Grupo 1099822" transform="translate(0 0)">
                          <g id="Grupo_1099821" data-name="Grupo 1099821" clip-path="url(#clip-path-6)">
                            <path id="Trazado_875151" data-name="Trazado 875151" d="M0,0H20.238V20.238H0Z" transform="translate(-4.903 14.231) rotate(-70.991)" fill="#d4e157"/>
                          </g>
                        </g>
                      </g>
                    </g>
                  </g>
                  <g id="Grupo_1099830" data-name="Grupo 1099830" transform="translate(48.396 32.501)" style="isolation: isolate">
                    <g id="Grupo_1099829" data-name="Grupo 1099829">
                      <g id="Grupo_1099828" data-name="Grupo 1099828" transform="translate(0 0)" clip-path="url(#clip-path-15)">
                        <g id="Grupo_1099827" data-name="Grupo 1099827" transform="translate(0 0)">
                          <g id="Grupo_1099826" data-name="Grupo 1099826" clip-path="url(#clip-path-16)">
                            <path id="Trazado_875152" data-name="Trazado 875152" d="M0,0H20.238V20.238H0Z" transform="translate(-4.903 14.232) rotate(-70.991)" fill="#d4e157"/>
                          </g>
                        </g>
                      </g>
                    </g>
                  </g>
                  <g id="Grupo_1099845" data-name="Grupo 1099845" transform="translate(32.476 64.723)" style="isolation: isolate">
                    <g id="Grupo_1099844" data-name="Grupo 1099844">
                      <g id="Grupo_1099843" data-name="Grupo 1099843" transform="translate(0 0)" clip-path="url(#clip-path-21)">
                        <g id="Grupo_1099842" data-name="Grupo 1099842" transform="translate(0 0)">
                          <g id="Grupo_1099841" data-name="Grupo 1099841" clip-path="url(#clip-path-22)">
                            <path id="Trazado_875153" data-name="Trazado 875153" d="M0,0H20.238V20.238H0Z" transform="translate(-4.903 14.232) rotate(-70.991)" fill="#d4e157"/>
                          </g>
                        </g>
                      </g>
                    </g>
                  </g>
                  <g id="Grupo_1099855" data-name="Grupo 1099855" transform="translate(32.11 97.082)" style="isolation: isolate">
                    <g id="Grupo_1099854" data-name="Grupo 1099854">
                      <g id="Grupo_1099853" data-name="Grupo 1099853" clip-path="url(#clip-path-5)">
                        <g id="Grupo_1099852" data-name="Grupo 1099852" transform="translate(0)">
                          <g id="Grupo_1099851" data-name="Grupo 1099851" clip-path="url(#clip-path-24)">
                            <path id="Trazado_875154" data-name="Trazado 875154" d="M0,0H20.238V20.238H0Z" transform="translate(-4.903 14.231) rotate(-70.991)" fill="#d4e157"/>
                          </g>
                        </g>
                      </g>
                    </g>
                  </g>
                  <g id="Grupo_1099870" data-name="Grupo 1099870" transform="translate(32.11 113.052)" style="isolation: isolate">
                    <g id="Grupo_1099869" data-name="Grupo 1099869">
                      <g id="Grupo_1099868" data-name="Grupo 1099868" transform="translate(0 0)" clip-path="url(#clip-path-5)">
                        <g id="Grupo_1099867" data-name="Grupo 1099867" transform="translate(0 0)">
                          <g id="Grupo_1099866" data-name="Grupo 1099866" clip-path="url(#clip-path-24)">
                            <path id="Trazado_875155" data-name="Trazado 875155" d="M0,0H20.238V20.238H0Z" transform="translate(-4.903 14.231) rotate(-70.991)" fill="#d4e157"/>
                          </g>
                        </g>
                      </g>
                    </g>
                  </g>
                  <g id="Grupo_1099885" data-name="Grupo 1099885" transform="translate(32.11 128.972)" style="isolation: isolate">
                    <g id="Grupo_1099884" data-name="Grupo 1099884">
                      <g id="Grupo_1099883" data-name="Grupo 1099883" transform="translate(0 0)" clip-path="url(#clip-path-5)">
                        <g id="Grupo_1099882" data-name="Grupo 1099882" transform="translate(0 0)">
                          <g id="Grupo_1099881" data-name="Grupo 1099881" clip-path="url(#clip-path-24)">
                            <path id="Trazado_875156" data-name="Trazado 875156" d="M0,0H20.238V20.238H0Z" transform="translate(-4.903 14.231) rotate(-70.991)" fill="#d4e157"/>
                          </g>
                        </g>
                      </g>
                    </g>
                  </g>
                  <g id="Grupo_1099900" data-name="Grupo 1099900" transform="translate(32.476 48.788)" style="isolation: isolate">
                    <g id="Grupo_1099899" data-name="Grupo 1099899">
                      <g id="Grupo_1099898" data-name="Grupo 1099898" transform="translate(0 0)" clip-path="url(#clip-path-21)">
                        <g id="Grupo_1099897" data-name="Grupo 1099897" transform="translate(0 0)">
                          <g id="Grupo_1099896" data-name="Grupo 1099896" clip-path="url(#clip-path-22)">
                            <path id="Trazado_875157" data-name="Trazado 875157" d="M0,0H20.238V20.238H0Z" transform="translate(-4.903 14.232) rotate(-70.991)" fill="#d4e157"/>
                          </g>
                        </g>
                      </g>
                    </g>
                  </g>
                  <g id="Grupo_1099910" data-name="Grupo 1099910" transform="translate(32.11 32.501)" style="isolation: isolate">
                    <g id="Grupo_1099909" data-name="Grupo 1099909">
                      <g id="Grupo_1099908" data-name="Grupo 1099908" transform="translate(0 0)" clip-path="url(#clip-path-15)">
                        <g id="Grupo_1099907" data-name="Grupo 1099907" transform="translate(0 0)">
                          <g id="Grupo_1099906" data-name="Grupo 1099906" clip-path="url(#clip-path-32)">
                            <path id="Trazado_875158" data-name="Trazado 875158" d="M0,0H20.238V20.238H0Z" transform="matrix(0.326, -0.945, 0.945, 0.326, -4.903, 14.232)" fill="#d4e157"/>
                          </g>
                        </g>
                      </g>
                    </g>
                  </g>
                </g>
              </g>
            </g>
          </g>
        </g>
        <circle id="Elipse_11503" data-name="Elipse 11503" cx="51.5" cy="51.5" r="51.5" transform="translate(8 9)" fill="#f3f9ff"/>
      </g>
    </g>
    <g id="Grupo_1101156" data-name="Grupo 1101156" transform="translate(207.504 1655.256)">
      <g id="Grupo_1099389" data-name="Grupo 1099389" transform="translate(0.293 -0.141)">
        <rect id="Rectángulo_401104" data-name="Rectángulo 401104" width="67" height="68" transform="translate(-0.086 -0.116)" fill="none"/>
      </g>
      <g id="Grupo_1099776-2" data-name="Grupo 1099776" transform="translate(0.207 -0.681)">
        <g id="Grupo_1099618" data-name="Grupo 1099618" transform="translate(0 0.354)">
          <rect id="Rectángulo_401104-2" data-name="Rectángulo 401104" width="66.932" height="67.738" transform="translate(0)" fill="none"/>
        </g>
        <path id="Trazado_911884" data-name="Trazado 911884" d="M22.38,67.05l.788,1.392,0,0a2.6,2.6,0,0,1-.98,3.524L19.316,73.6l0,0a2.6,2.6,0,0,1-3.525-.98L7.336,57.686a2.593,2.593,0,0,1,.975-3.528l2.877-1.629h0a2.6,2.6,0,0,1,3.525.977v0l.634,1.12L22.822,50.3c2.278-1.318,4.607-2.173,7.109-1.361,2.418.784,6.365,2.474,10.393,3.2a1.073,1.073,0,0,1,.141.035,4.033,4.033,0,0,1,2.756,4.856,4.6,4.6,0,0,1-.282.774,5.553,5.553,0,0,0,1.146-.508l10.248-5.968c3.733-2.175,6.223-1.93,7.632-.985a4.312,4.312,0,0,1-.037,6.966L43.334,68.761a7.865,7.865,0,0,1-6.366.905h0l-13.057-3.5ZM21.287,69.5l-8.449-14.93a.434.434,0,0,0-.587-.165L9.375,56.037h0a.429.429,0,0,0-.159.584h0l8.452,14.934h0a.432.432,0,0,0,.587.161l2.871-1.627h0a.432.432,0,0,0,.161-.587Zm.029-4.332,1.9-1.1a1.079,1.079,0,0,1,.819-.108L37.524,67.58a5.775,5.775,0,0,0,4.675-.657h0L60.8,55.473a2.132,2.132,0,0,0-.341-3.5c-1.057-.44-2.679-.152-5.036,1.221L45.173,59.165a7.69,7.69,0,0,1-5.283.931h0l-1.27-.207s-4.506-1.182-6.888-1.822a1.08,1.08,0,0,1,.56-2.085c2.323.624,4.416,1.309,6.671,1.775a1.82,1.82,0,0,0,2.177-1.283h0a1.878,1.878,0,0,0-1.275-2.22c-4.109-.755-8.13-2.459-10.6-3.259h0c-1.9-.616-3.634.177-5.361,1.176l-7.49,4.337Zm-9.5-9.057a1.193,1.193,0,1,1-1.01,1.351A1.192,1.192,0,0,1,11.813,56.114ZM18.3,20.987A11.3,11.3,0,1,1,7,32.284,11.3,11.3,0,0,1,18.3,20.987Zm7.618,16.345a9.137,9.137,0,1,0-15.235,0,8.246,8.246,0,0,1,4.247-4.42,4.688,4.688,0,1,1,6.741,0A8.245,8.245,0,0,1,25.914,37.332Zm-13.556,1.9a9.139,9.139,0,0,0,11.878,0,6.054,6.054,0,0,0-11.878,0ZM18.3,32.191a2.529,2.529,0,1,0-2.529-2.529A2.536,2.536,0,0,0,18.3,32.191ZM43.311,8.876a9.756,9.756,0,0,1,1.8.748l1.158-.515a1.08,1.08,0,0,1,1.2.223l1.954,1.954a1.08,1.08,0,0,1,.224,1.2l-.513,1.158a9.737,9.737,0,0,1,.749,1.808l1.18.454a1.08,1.08,0,0,1,.692,1.007v2.764a1.08,1.08,0,0,1-.692,1.008l-1.181.454a9.849,9.849,0,0,1-.748,1.8l.514,1.159a1.08,1.08,0,0,1-.224,1.2l-1.954,1.954a1.08,1.08,0,0,1-1.2.224l-1.158-.513a9.731,9.731,0,0,1-1.806.748L42.857,28.9a1.08,1.08,0,0,1-1.008.692H39.085a1.08,1.08,0,0,1-1.007-.692l-.454-1.181a9.825,9.825,0,0,1-1.807-.749l-1.159.514a1.08,1.08,0,0,1-1.2-.224L31.5,25.3a1.08,1.08,0,0,1-.223-1.2l.515-1.157a9.829,9.829,0,0,1-.749-1.8l-1.182-.455a1.08,1.08,0,0,1-.692-1.008V16.914a1.08,1.08,0,0,1,.692-1.007l1.182-.455a9.835,9.835,0,0,1,.749-1.807l-.515-1.158a1.08,1.08,0,0,1,.223-1.2l1.954-1.954a1.08,1.08,0,0,1,1.2-.223l1.158.515a9.758,9.758,0,0,1,1.8-.748l.457-1.184A1.079,1.079,0,0,1,39.085,7h2.764a1.079,1.079,0,0,1,1.008.692Zm-1.819,1.286-.385-1H39.826l-.388,1a1.08,1.08,0,0,1-.757.662,7.612,7.612,0,0,0-2.236.927,1.079,1.079,0,0,1-1,.067l-.981-.436-.905.905.436.981a1.079,1.079,0,0,1-.067,1,7.68,7.68,0,0,0-.93,2.241,1.08,1.08,0,0,1-.662.756l-1,.385v1.281l1,.385a1.08,1.08,0,0,1,.662.755,7.661,7.661,0,0,0,.929,2.237,1.08,1.08,0,0,1,.068,1.006l-.436.981.906.906.982-.435a1.08,1.08,0,0,1,1,.067,7.669,7.669,0,0,0,2.24.928,1.08,1.08,0,0,1,.759.663l.385,1h1.281l.385-1a1.08,1.08,0,0,1,.758-.662,7.581,7.581,0,0,0,2.234-.926,1.08,1.08,0,0,1,1.005-.069l.982.435.907-.907-.435-.982a1.08,1.08,0,0,1,.067-1,7.684,7.684,0,0,0,.928-2.238,1.08,1.08,0,0,1,.662-.758l1-.385V17.655l-1-.385a1.08,1.08,0,0,1-.663-.759,7.6,7.6,0,0,0-.926-2.238,1.08,1.08,0,0,1-.068-1l.435-.982-.906-.906-.981.436a1.079,1.079,0,0,1-1-.067,7.612,7.612,0,0,0-2.236-.927A1.08,1.08,0,0,1,41.493,10.162Zm-1.027,2.232a5.9,5.9,0,1,1-5.9,5.9,5.9,5.9,0,0,1,5.9-5.9Zm0,2.159a3.743,3.743,0,1,0,3.744,3.741A3.74,3.74,0,0,0,40.466,14.553ZM62.637,43.58A11.295,11.295,0,1,1,73.932,32.286,11.317,11.317,0,0,1,62.637,43.58Zm0-2.159A9.136,9.136,0,1,0,53.5,32.286,9.153,9.153,0,0,0,62.637,41.421Zm-1.08-15.1v-.5a1.08,1.08,0,0,1,2.159,0v.484a4.1,4.1,0,0,1,2.925,2.459,1.08,1.08,0,1,1-1.991.835,2.2,2.2,0,0,0-2.892-1.087,1.361,1.361,0,0,0-.978,1.315v0a1.137,1.137,0,0,0,.746.977,4.713,4.713,0,0,0,1.294.373h0c1.855.305,3.879,1.16,4.144,3.365.259,2.138-1.442,3.39-3.25,3.737v.466a1.08,1.08,0,1,1-2.159,0v-.482A4.078,4.078,0,0,1,58.314,35.3a1.08,1.08,0,0,1,2.1-.522,2.173,2.173,0,0,0,2.334,1.45h0a3.062,3.062,0,0,0,1.623-.46.971.971,0,0,0,.455-.958h0a1.39,1.39,0,0,0-.929-1.1,5.716,5.716,0,0,0-1.421-.39c-1.819-.3-3.747-1.222-3.849-3.379a3.452,3.452,0,0,1,2.344-3.429,4.453,4.453,0,0,1,.589-.185ZM41.545,40.772a1.08,1.08,0,1,1-2.159,0V33.429a1.08,1.08,0,1,1,2.159,0Zm2.844,4.018a1.08,1.08,0,0,1-1.34-1.693l6.31-4.992A1.079,1.079,0,1,1,50.7,39.8ZM37.882,43.1a1.08,1.08,0,0,1-1.34,1.693L30.233,39.8a1.079,1.079,0,1,1,1.34-1.693Z" transform="translate(-7 -6.242)" fill="#474d41" fill-rule="evenodd"/>
      </g>
    </g>
  </g>
</svg>
