<svg xmlns="http://www.w3.org/2000/svg" width="295.455" height="246.247" viewBox="0 0 295.455 246.247">
  <g id="Grupo_1120631" data-name="Grupo 1120631" transform="translate(-915.123 -1320.753)">
    <rect id="Rectángulo_409117" data-name="Rectángulo 409117" width="295.289" height="240" transform="translate(915.289 1327)" fill="none"/>
    <g id="OBJECTS" transform="translate(915.123 1348.005)">
      <g id="Grupo_1121708" data-name="Grupo 1121708" transform="translate(0 0.01)">
        <g id="Grupo_1121653" data-name="Grupo 1121653" transform="translate(27.249 15.514)">
          <g id="Grupo_1121642" data-name="Grupo 1121642" transform="translate(0 39.629)">
            <ellipse id="Elipse_11573" data-name="Elipse 11573" cx="117.794" cy="7.518" rx="117.794" ry="7.518" transform="translate(0 113.454)" fill="#001433" opacity="0.1"/>
            <g id="Grupo_1121641" data-name="Grupo 1121641" transform="translate(12.713)">
              <g id="Grupo_1121639" data-name="Grupo 1121639" transform="translate(27.731)">
                <rect id="Rectángulo_410235" data-name="Rectángulo 410235" width="158.764" height="116.26" rx="7.13" fill="#001433" stroke="#22689e" stroke-miterlimit="10" stroke-width="2.14"/>
                <rect id="Rectángulo_410236" data-name="Rectángulo 410236" width="147.195" height="98.444" transform="translate(5.791 6.128)" fill="#faeee8"/>
              </g>
              <g id="Grupo_1121640" data-name="Grupo 1121640" transform="translate(0 110.96)">
                <path id="Trazado_910723" data-name="Trazado 910723" d="M303.834,378.92H92.721a1.561,1.561,0,0,0-1.561,1.561v3.437a1.587,1.587,0,0,0,.061.412,4.681,4.681,0,0,0,4.625,3.963H300.709a4.681,4.681,0,0,0,4.625-3.963,1.587,1.587,0,0,0,.061-.412v-3.437A1.561,1.561,0,0,0,303.834,378.92Z" transform="translate(-91.16 -378.92)" fill="#bfc9ff"/>
                <path id="Trazado_910724" data-name="Trazado 910724" d="M274.274,378.92a6.4,6.4,0,0,0,6.361,5.716h40.957a6.4,6.4,0,0,0,6.361-5.716H274.27Z" transform="translate(-194 -378.92)" fill="#003154" opacity="0.6"/>
              </g>
            </g>
          </g>
          <g id="Grupo_1121649" data-name="Grupo 1121649" transform="translate(71.643 1.881)">
            <g id="Grupo_1121645" data-name="Grupo 1121645" transform="translate(0 52.346)">
              <rect id="Rectángulo_410237" data-name="Rectángulo 410237" width="114.318" height="72.34" rx="5.73" transform="translate(0)" fill="#fff" stroke="#22689e" stroke-miterlimit="10" stroke-width="1.75"/>
              <g id="Grupo_1121644" data-name="Grupo 1121644" transform="translate(0 0.338)">
                <path id="Trazado_910725" data-name="Trazado 910725" d="M339.908,167.612v-5.23a2.514,2.514,0,0,0-2.512-2.512H228.1a2.514,2.514,0,0,0-2.512,2.512v5.23Z" transform="translate(-225.59 -159.87)" fill="#bfc9ff"/>
                <g id="Grupo_1121643" data-name="Grupo 1121643" transform="translate(100.329 1.324)">
                  <circle id="Elipse_11574" data-name="Elipse 11574" cx="1.477" cy="1.477" r="1.477" transform="translate(9.416)" fill="#fff"/>
                  <path id="Trazado_910726" data-name="Trazado 910726" d="M465.2,164.367a1.477,1.477,0,1,0,1.477-1.477A1.478,1.478,0,0,0,465.2,164.367Z" transform="translate(-460.492 -162.89)" fill="#fff"/>
                  <path id="Trazado_910727" data-name="Trazado 910727" d="M454.46,164.367a1.477,1.477,0,1,0,1.477-1.477A1.478,1.478,0,0,0,454.46,164.367Z" transform="translate(-454.46 -162.89)" fill="#fff"/>
                </g>
              </g>
            </g>
            <g id="Grupo_1121648" data-name="Grupo 1121648" transform="translate(8.693)">
              <g id="Grupo_1121647" data-name="Grupo 1121647">
                <rect id="Rectángulo_410238" data-name="Rectángulo 410238" width="9.482" height="47.865" transform="translate(35.596 66.185)" fill="#d4e157"/>
                <rect id="Rectángulo_410239" data-name="Rectángulo 410239" width="10.543" height="66.316" transform="translate(70.126 47.734)" fill="#d4e157"/>
                <rect id="Rectángulo_410240" data-name="Rectángulo 410240" width="10.543" height="31.72" transform="translate(17.53 82.33)" fill="#d4e157"/>
                <rect id="Rectángulo_410241" data-name="Rectángulo 410241" width="10.543" height="36.332" transform="translate(52.595 77.718)" fill="#bfc9ff"/>
                <rect id="Rectángulo_410242" data-name="Rectángulo 410242" width="10.543" height="19.613" transform="translate(0 94.438)" fill="#bfc9ff"/>
                <g id="Grupo_1121646" data-name="Grupo 1121646" transform="translate(84.421)">
                  <rect id="Rectángulo_410243" data-name="Rectángulo 410243" width="9.482" height="101.491" transform="translate(3.77 12.559)" fill="#d4e157"/>
                  <path id="Trazado_910728" data-name="Trazado 910728" d="M438,54.424l8.509-14.734,8.509,14.734Z" transform="translate(-438 -39.69)" fill="#d4e157"/>
                </g>
              </g>
              <line id="Línea_3524" data-name="Línea 3524" x2="100.978" transform="translate(1.188 115.843)" fill="none" stroke="#001433" stroke-linecap="round" stroke-miterlimit="10" stroke-width="1.75"/>
            </g>
          </g>
          <g id="Grupo_1121652" data-name="Grupo 1121652" transform="translate(51.295 -16.288)">
            <g id="Grupo_1121650" data-name="Grupo 1121650" transform="translate(6.456 -11.317)">
              <circle id="Elipse_11575" data-name="Elipse 11575" cx="24.884" cy="24.884" r="24.884" transform="translate(0 35.192) rotate(-45)" fill="#d4e157"/>
              <path id="Trazado_910729" data-name="Trazado 910729" d="M286.335,112.6a22.116,22.116,0,0,1-7.846-1.823V104.6a26.765,26.765,0,0,0,4.684,1.829,16.193,16.193,0,0,0,4.443.732,5.272,5.272,0,0,0,2.313-.379,1.322,1.322,0,0,0,.732-1.274,1.282,1.282,0,0,0-.529-1.039,8.077,8.077,0,0,0-1.764-.967q-1.235-.539-3.338-1.3a15.042,15.042,0,0,1-3.809-1.96,6.8,6.8,0,0,1-2.11-2.437,7.651,7.651,0,0,1-.66-3.358,6.044,6.044,0,0,1,1.973-4.8,10.49,10.49,0,0,1,5.912-2.136V84.97h3.848v2.509a21.82,21.82,0,0,1,7.454,1.823l-2.215,5.3a17.354,17.354,0,0,0-7.01-1.744,4.428,4.428,0,0,0-2.091.359,1.162,1.162,0,0,0-.6,1.071,1.3,1.3,0,0,0,.438,1.013,6.312,6.312,0,0,0,1.516.9c.719.327,1.718.712,2.992,1.143a14.507,14.507,0,0,1,5.579,3.129,6.241,6.241,0,0,1,1.692,4.527,6.811,6.811,0,0,1-1.979,5.076,9.68,9.68,0,0,1-5.775,2.417v3.587h-3.848V112.6Z" transform="translate(-253.008 -65.33)" fill="#fff"/>
            </g>
            <path id="Trazado_910730" data-name="Trazado 910730" d="M388.827,51.833c-.466-9.064-7.361-16.433-16.433-16.433A16.438,16.438,0,0,0,355.96,51.833c0,13.579,16.433,30.173,16.433,30.173S389.437,63.591,388.827,51.833Zm-16.442,6.861a6.87,6.87,0,1,1,6.87-6.87A6.869,6.869,0,0,1,372.385,58.695Z" transform="translate(-272.174 -61.887)" fill="#bfc9ff"/>
          </g>
        </g>
        <g id="Grupo_1121671" data-name="Grupo 1121671" transform="translate(220.365 13.637)">
          <ellipse id="Elipse_11578" data-name="Elipse 11578" cx="33.417" cy="6.058" rx="33.417" ry="6.058" transform="translate(7.802 171.762)" fill="#001433" opacity="0.1"/>
          <g id="Grupo_1121670" data-name="Grupo 1121670">
            <g id="Grupo_1121656" data-name="Grupo 1121656" transform="translate(26.792 0.597)">
              <g id="Grupo_1121654" data-name="Grupo 1121654">
                <path id="Trazado_910731" data-name="Trazado 910731" d="M580.017,33.213s-7.084-3.485-12.077,4.761-5.69,20.551-.811,22.756l-.346-1.859s.929,3.253,7.549,3.831,5.69-29.493,5.69-29.493Z" transform="translate(-563.811 -32.482)" fill="#000a19"/>
                <path id="Trazado_910732" data-name="Trazado 910732" d="M596.232,86.86s-3.95,11.726-1.626,12.423-9.986-1.626-9.986-1.626l1.508-9.986,10.1-.811Z" transform="translate(-575.498 -63.022)" fill="#ff927d"/>
                <path id="Trazado_910733" data-name="Trazado 910733" d="M584.594,43.065s-8.938-1.508-10.218,9.868c-1.539,13.695,10.31,20.06,17.763,8.71,5.107-7.781,2.323-17.184-7.549-18.578Z" transform="translate(-569.668 -38.389)" fill="#ffb199"/>
              </g>
              <g id="Grupo_1121655" data-name="Grupo 1121655" transform="translate(5.953 11.106)">
                <path id="Trazado_910734" data-name="Trazado 910734" d="M577.39,59.488a1.709,1.709,0,0,1,.105-.267,2.35,2.35,0,0,1,.167-.285,2.268,2.268,0,0,1,.276-.333,2.572,2.572,0,0,1,.395-.342,2.34,2.34,0,0,1,.53-.281c.1-.035.2-.07.311-.1s.219-.035.333-.048a2.59,2.59,0,0,1,.688.026,3.053,3.053,0,0,1,.64.215,2.549,2.549,0,0,1,.544.324,3.747,3.747,0,0,1,.434.381c.118.136.224.272.316.395a1.89,1.89,0,0,1,.224.355c.061.11.105.21.145.289.074.162.109.259.109.259s-.1-.048-.245-.14-.346-.241-.592-.39c-.123-.075-.254-.149-.386-.237s-.285-.145-.43-.228a3.254,3.254,0,0,0-.456-.2,3.572,3.572,0,0,0-.469-.136,2.167,2.167,0,0,0-.237-.026.86.86,0,0,0-.237-.013c-.079,0-.158,0-.232,0l-.228.039a3.434,3.434,0,0,0-.443.114,4.284,4.284,0,0,0-.4.158,6.779,6.779,0,0,0-.614.32c-.153.088-.241.145-.241.145Z" transform="translate(-577.39 -57.816)" fill="#000a19"/>
                <path id="Trazado_910735" data-name="Trazado 910735" d="M596.71,61.366a1.453,1.453,0,0,1,.136-.276,2.582,2.582,0,0,1,.522-.627,2.649,2.649,0,0,1,.447-.338,2.594,2.594,0,0,1,.579-.267c.11-.031.219-.066.329-.1s.232-.035.351-.048a3.641,3.641,0,0,1,.723.022,3.748,3.748,0,0,1,.684.2c.105.048.21.1.311.149a1.535,1.535,0,0,1,.285.171,5,5,0,0,1,.491.377c.14.136.259.272.373.4a2.113,2.113,0,0,1,.272.364c.075.114.132.215.18.3a2.926,2.926,0,0,1,.14.267s-.105-.048-.267-.145-.381-.25-.658-.395c-.136-.075-.285-.153-.43-.245s-.32-.14-.478-.228a5.122,5.122,0,0,0-.513-.193c-.171-.07-.355-.083-.53-.136a4.453,4.453,0,0,0-.535-.039c-.088,0-.175,0-.263,0s-.175.026-.259.035a4.3,4.3,0,0,0-.5.11c-.153.057-.311.1-.447.158a7.5,7.5,0,0,0-.68.32c-.167.088-.263.145-.263.145Z" transform="translate(-588.241 -58.874)" fill="#000a19"/>
                <path id="Trazado_910736" data-name="Trazado 910736" d="M581.042,65.182c-.1.811-.421,1.438-.71,1.4s-.443-.723-.342-1.534.421-1.438.71-1.4.443.723.342,1.534Z" transform="translate(-578.833 -61.09)" fill="#000a19"/>
                <path id="Trazado_910737" data-name="Trazado 910737" d="M598.442,67.7c-.1.811-.421,1.438-.71,1.4s-.443-.723-.342-1.534.421-1.438.71-1.4S598.543,66.891,598.442,67.7Z" transform="translate(-588.605 -62.506)" fill="#000a19"/>
                <path id="Trazado_910738" data-name="Trazado 910738" d="M583.879,70.99a1.4,1.4,0,0,1,.07.837,1.759,1.759,0,0,1-.381.807,2.007,2.007,0,0,1-.723.548,2.508,2.508,0,0,1-.416.153c-.14.039-.285.053-.425.079l.267-.7a6.906,6.906,0,0,1,.487.815,4.4,4.4,0,0,1,.351.925,4.416,4.416,0,0,1-.824-.548,6.521,6.521,0,0,1-.693-.653l-.46-.5.728-.206.316-.088c.1-.044.206-.066.294-.11s.189-.079.276-.132a.636.636,0,0,0,.132-.075c.039-.031.088-.053.127-.083.083-.061.162-.127.241-.2s.153-.153.228-.241a2.494,2.494,0,0,0,.206-.294q.1-.158.2-.342Z" transform="translate(-579.49 -65.215)" fill="#db6363"/>
                <path id="Trazado_910739" data-name="Trazado 910739" d="M584.23,83.611s.114.026.307.079c.1.031.215.061.346.11a2.874,2.874,0,0,0,.438.127c.158.035.329.07.5.118a4.2,4.2,0,0,0,.557.1,3.31,3.31,0,0,0,.6.07c.2,0,.408.022.614.035.206-.018.408-.031.614-.039a3.265,3.265,0,0,0,.592-.079,4.315,4.315,0,0,0,.557-.105c.171-.053.342-.1.5-.132a2.858,2.858,0,0,0,.425-.136c.123-.048.241-.083.333-.114.193-.061.307-.092.307-.092s-.07.088-.21.237c-.07.075-.158.162-.263.259a1.662,1.662,0,0,1-.377.3c-.149.092-.311.2-.5.294a2.5,2.5,0,0,1-.6.241,3.074,3.074,0,0,1-.671.171c-.237.031-.478.048-.719.07-.241-.018-.482-.039-.715-.07a3.068,3.068,0,0,1-.671-.167,2.807,2.807,0,0,1-.6-.232c-.184-.1-.355-.2-.5-.285a1.658,1.658,0,0,1-.373-.285c-.105-.092-.193-.175-.263-.245-.145-.14-.224-.228-.224-.228Z" transform="translate(-581.232 -72.269)" fill="#db6363"/>
              </g>
            </g>
            <g id="Grupo_1121663" data-name="Grupo 1121663" transform="translate(13.622 51.787)">
              <g id="Grupo_1121660" data-name="Grupo 1121660" transform="translate(7.411 79.231)">
                <g id="Grupo_1121658" data-name="Grupo 1121658" transform="translate(21.057 2.285)">
                  <g id="Grupo_1121657" data-name="Grupo 1121657">
                    <path id="Trazado_910740" data-name="Trazado 910740" d="M598.72,344.331s9.925,27.556,11.634,30.721c1.284,2.38,13.6,8.3,3.209-.938,0,0-2.315-27.319-5.554-36.148s-9.289,6.361-9.289,6.361Z" transform="translate(-598.716 -335.208)" fill="#ffb199"/>
                    <path id="Trazado_910741" data-name="Trazado 910741" d="M613.1,369.328c-.824-8.241-2.713-24.834-5.1-31.352-3.24-8.829-9.289,6.361-9.289,6.361s6.72,18.657,10.052,27.03C610.213,370.7,611.655,370.012,613.1,369.328Z" transform="translate(-598.71 -335.214)" fill="#ff927d"/>
                  </g>
                  <path id="Trazado_910742" data-name="Trazado 910742" d="M623.69,423.9l.408,2.148s17.8,10.218,4.336-1.394C628.433,424.654,631.125,427.771,623.69,423.9Z" transform="translate(-612.74 -385.02)" fill="#001433"/>
                </g>
                <g id="Grupo_1121659" data-name="Grupo 1121659">
                  <path id="Trazado_910743" data-name="Trazado 910743" d="M562.806,333.058s-.153,38.55-1.241,39.633-13.081,6.891-4.024-1.587c0,0-7.584-33.246-6.812-38.818s12.077.776,12.077.776Z" transform="translate(-550.674 -329.996)" fill="#ff927d"/>
                  <path id="Trazado_910744" data-name="Trazado 910744" d="M564.008,422.71l-.114,2.091s-18.166,10.3-4.695-1.315c0,0-2.617,3.095,4.813-.776Z" transform="translate(-552.669 -382.067)" fill="#001433"/>
                </g>
              </g>
              <g id="Grupo_1121662" data-name="Grupo 1121662" transform="translate(0 0)">
                <path id="Trazado_910745" data-name="Trazado 910745" d="M550.529,156.153s-13.931,11.766-16.408,27.556,9.289,78.643,9.289,78.643,3.095,2.477,11.148.929l1.547-68.736s.662,28.038,2.477,35.3c4.072,16.29,3.7,13.2,9.907,33.75a14.972,14.972,0,0,0,11.455-1.547s-3.717-24.461-7.742-37.156c0,0,14.554-39.633-4.336-63.476s-17.337-5.265-17.337-5.265Z" transform="translate(-533.774 -149.255)" fill="#001433"/>
                <g id="Grupo_1121661" data-name="Grupo 1121661" transform="translate(0 0.004)">
                  <path id="Trazado_910746" data-name="Trazado 910746" d="M550.462,234.393A31.83,31.83,0,0,1,538,226.84a52.382,52.382,0,0,1-3.463-3.98c-.162.719-.307,1.451-.425,2.187-2.477,15.79,9.289,78.643,9.289,78.643s3.095,2.477,11.148.929l1.543-68.574c-1.907-.473-3.792-1-5.633-1.657Z" transform="translate(-533.769 -190.599)" fill="#000a19"/>
                  <path id="Trazado_910747" data-name="Trazado 910747" d="M557.83,162.677a19.282,19.282,0,0,0,6.4,2.639,49.778,49.778,0,0,0,12.13.85,53.931,53.931,0,0,0,7.755-.807,39.413,39.413,0,0,0-2.74-3.937c-18.889-23.843-17.337-5.265-17.337-5.265a54.54,54.54,0,0,0-6.207,6.514Z" transform="translate(-547.282 -149.266)" fill="#000a19"/>
                </g>
              </g>
            </g>
            <g id="Grupo_1121669" data-name="Grupo 1121669" transform="translate(0 13.568)">
              <g id="Grupo_1121666" data-name="Grupo 1121666">
                <g id="Grupo_1121664" data-name="Grupo 1121664">
                  <path id="Trazado_910748" data-name="Trazado 910748" d="M503.967,78.391s-2.841-10.074-.039-7.991c0,0,0-2.621,1.122-.991,0,0,1.083-2.788,1.7-.618,0,0-1.394-15.325,1.859.311l3.253,15.637-7.9-6.348Z" transform="translate(-502.693 -62.07)" fill="#ffb199"/>
                  <path id="Trazado_910749" data-name="Trazado 910749" d="M504.16,91.144c.316,1.416.631,2.534.631,2.534l7.9,6.348s0-.009-2.231-10.736C508.346,89.877,506.242,90.469,504.16,91.144Z" transform="translate(-503.517 -77.358)" fill="#ff927d"/>
                </g>
                <g id="Grupo_1121665" data-name="Grupo 1121665" transform="translate(0.341 12.607)">
                  <path id="Trazado_910750" data-name="Trazado 910750" d="M538.461,97.8s-7.277-2.941-10.065-1.241-13.006,13.006-13.006,13.006L510.747,90.83l-7.277,2.63s3.406,27.714,7.584,29.1,18.889-12.384,18.889-12.384L538.456,97.8Z" transform="translate(-503.47 -90.83)" fill="#d4e157"/>
                  <path id="Trazado_910751" data-name="Trazado 910751" d="M527.767,107.79c-1.157-2.433-2.472-4.94-3.546-7.522-3.937,3.9-8.811,9.293-8.811,9.293L510.767,90.83l-7.277,2.63s3.406,27.714,7.584,29.1c3.638,1.214,15.251-9.07,18.2-11.753C528.753,109.811,528.249,108.8,527.767,107.79Z" transform="translate(-503.481 -90.83)" fill="#bac36a"/>
                </g>
              </g>
              <g id="Grupo_1121667" data-name="Grupo 1121667" transform="translate(21.819 16.167)">
                <path id="Trazado_910752" data-name="Trazado 910752" d="M565.207,102.045l.311-3.095,13.16,1.241-.929,3.56s6.812-.153,10.065,2.941-6.659,27.556-6.659,27.556a59.974,59.974,0,0,1-26.784-5.418s-3.095-11.148-1.394-15.325,6.812-12.542,6.812-12.542Z" transform="translate(-552.466 -98.95)" fill="#d4e157"/>
                <path id="Trazado_910753" data-name="Trazado 910753" d="M573.846,136.385a36.7,36.7,0,0,1-20.586-.368,66.6,66.6,0,0,0,1.556,7.527,59.965,59.965,0,0,0,26.784,5.418s6.51-16.075,7.242-23.812c-2.551,5.716-9.263,9.723-14.992,11.231Z" transform="translate(-552.912 -113.665)" fill="#bac36a"/>
              </g>
              <g id="Grupo_1121668" data-name="Grupo 1121668" transform="translate(41.758 20.659)">
                <path id="Trazado_910754" data-name="Trazado 910754" d="M613.819,176.29l-6.348,3.406s-3.095-2.941-4.336-2.788-8.824,1.7-.153,1.394c0,0-11.919,5.883.929,1.394,0,0-9.289,6.348.929,1.394,0,0,1.394,3.717,3.56,2.788s8.671-4.335,8.671-4.335Z" transform="translate(-597.95 -146.879)" fill="#ffb199"/>
                <path id="Trazado_910755" data-name="Trazado 910755" d="M608.9,109.506s7.9-1.859,12.849,3.56,15.325,17.184,13.624,21.52-18.731,12.384-18.731,12.384l-3.718-5.572,10.99-9.6s-20.59-13.467-15.019-22.291Z" transform="translate(-603.56 -109.198)" fill="#d4e157"/>
              </g>
            </g>
            <path id="Trazado_910756" data-name="Trazado 910756" d="M588.526,35.232s-4.642,8.938,7.43,12.656c0,0-3.6-2.788-4.528-5.8,0,0,3.253,4.993,7.084,6.155,0,0-.811,10.1-3.6,14.979,0,0,6.5,1.162,8.36-7.2A9.724,9.724,0,0,1,602,61.126s6.155,0,6.036-14.979S594.1,27.1,588.526,35.232Z" transform="translate(-550.407 -31.119)" fill="#001433"/>
          </g>
        </g>
        <g id="Grupo_1121707" data-name="Grupo 1121707" transform="translate(0)">
          <ellipse id="Elipse_11579" data-name="Elipse 11579" cx="37.143" cy="6.514" rx="37.143" ry="6.514" transform="translate(0 184.943)" fill="#352c38" opacity="0.1"/>
          <g id="Grupo_1121706" data-name="Grupo 1121706" transform="translate(2.383)">
            <g id="Grupo_1121676" data-name="Grupo 1121676" transform="translate(12.442)">
              <g id="Grupo_1121674" data-name="Grupo 1121674">
                <g id="Grupo_1121672" data-name="Grupo 1121672" transform="translate(0 5.708)">
                  <path id="Trazado_910757" data-name="Trazado 910757" d="M46.449,57.724s.973,10.806.544,11.661S33.82,73.563,33.82,73.563s22.6,9.425,29.774,5.782,4.712-8.675,3.643-8.57-10.069-.644-10.069-.644l.215-6L46.449,57.72Z" transform="translate(-33.82 -38.13)" fill="#dd938a"/>
                  <path id="Trazado_910758" data-name="Trazado 910758" d="M60.8,36.014s-6.352-11.7,1.648-19.424,15.47-1.306,16.123,4.388,3.3,22.712-6.79,22.081S60.8,36.01,60.8,36.01Z" transform="translate(-47.627 -13.031)" fill="#ffac9d"/>
                </g>
                <g id="Grupo_1121673" data-name="Grupo 1121673" transform="translate(6.23)">
                  <path id="Trazado_910759" data-name="Trazado 910759" d="M77.266,2.2,76.047,4.249s-.438-3.02-2.49-4.239a2.44,2.44,0,0,1-3.082,2.81C67,2.281,60.446-2.261,55.343,4.288c-.636.815-1.179,1.583-1.648,2.293-1.131-.342-2.858-.324-4.392,1.924S45.923,20.1,55.111,30.082l-.679-4.765s-1.249.57-2.249-1.385c-1.732-3.389-.088-4.905,1.271-4.186s1.306,3.967,1.306,3.967l1.832-.245-.219-5.914c2.56-1.512,1.767-5.431,1.767-5.431a73.888,73.888,0,0,0,13.366.443C81.075,11.85,77.27,2.2,77.27,2.2Z" transform="translate(-48.032 -0.01)" fill="#001433"/>
                  <path id="Trazado_910760" data-name="Trazado 910760" d="M58.929,52.305s-3.27-.281-3.555-4.8,2.582-4.577,3.191-1.753a28.593,28.593,0,0,1,.368,6.549Z" transform="translate(-52.144 -24.622)" fill="#ffac9d"/>
                </g>
              </g>
              <g id="Grupo_1121675" data-name="Grupo 1121675" transform="translate(10.709 15.346)">
                <path id="Trazado_910761" data-name="Trazado 910761" d="M91.447,43.62a19.206,19.206,0,0,1,.666,1.837c.193.618.364,1.241.522,1.867a37.3,37.3,0,0,1,.745,3.8l.061.434-.39-.009c-.478-.009-.956-.031-1.433-.061s-.956-.079-1.438-.158c.473-.123.942-.206,1.416-.289s.947-.14,1.42-.193l-.329.425a38.511,38.511,0,0,1-.842-3.779c-.11-.636-.2-1.276-.272-1.92a19.178,19.178,0,0,1-.127-1.951Z" transform="translate(-76.183 -39.848)" fill="#db6363"/>
                <path id="Trazado_910762" data-name="Trazado 910762" d="M78.109,62.19s.11.1.307.254.478.377.82.614c.171.118.359.245.561.368s.425.237.64.368c.228.11.465.228.71.324a5.1,5.1,0,0,0,.754.259,4.338,4.338,0,0,0,.776.184,6.765,6.765,0,0,0,.767.092,2.67,2.67,0,0,0,.373.013h.359a5.159,5.159,0,0,0,.662-.048,4.935,4.935,0,0,0,.57-.07c.167-.035.316-.061.438-.083.25-.044.395-.061.395-.061s-.118.079-.342.21c-.11.066-.245.145-.4.228a3.25,3.25,0,0,1-.561.224,3.2,3.2,0,0,1-.693.193,3.943,3.943,0,0,1-.807.1,4.506,4.506,0,0,1-.872-.031,4.736,4.736,0,0,1-.885-.18,5.942,5.942,0,0,1-1.6-.745,5.8,5.8,0,0,1-.636-.5,4.668,4.668,0,0,1-.513-.5,5.261,5.261,0,0,1-.636-.855,3.116,3.116,0,0,1-.188-.355Z" transform="translate(-69.398 -50.278)" fill="#db6363"/>
                <path id="Trazado_910763" data-name="Trazado 910763" d="M59.819,52.574a2.331,2.331,0,0,1-.6-.241,2.141,2.141,0,0,1-.281-.193.894.894,0,0,1-.132-.127.624.624,0,0,1-.118-.167.61.61,0,0,1-.083-.224.6.6,0,0,1,.013-.276.771.771,0,0,1,.127-.237,1.129,1.129,0,0,1,.167-.158.89.89,0,0,1,.171-.114c.057-.031.114-.066.171-.092l.333-.118-.294.329.018-.587.009-.592c0-.395,0-.785-.022-1.166-.013-.193-.039-.377-.066-.561a2.628,2.628,0,0,0-.057-.267c-.026-.083-.048-.167-.079-.25a1.14,1.14,0,0,0-.123-.215.813.813,0,0,0-.175-.171,1.063,1.063,0,0,0-.552-.14,1.261,1.261,0,0,1,.3-.132.8.8,0,0,1,.355-.013,1.042,1.042,0,0,1,.351.136,1.37,1.37,0,0,1,.276.25,2.061,2.061,0,0,1,.2.294,2.919,2.919,0,0,1,.145.316,3.117,3.117,0,0,1,.184.64,6.087,6.087,0,0,1,.114,1.284,7.3,7.3,0,0,1-.123,1.267L60,51.324l-.241.053-.259.053c-.066.026-.162.039-.206.066a.519.519,0,0,0-.07.035c0,.009-.031.013-.035.022s-.026,0-.022.026a.094.094,0,0,0,0,.07.241.241,0,0,0,.031.1.692.692,0,0,0,.057.114,1.85,1.85,0,0,0,.158.237c.123.158.259.316.4.469Z" transform="translate(-58.25 -41.661)" fill="#db6363"/>
                <path id="Trazado_910764" data-name="Trazado 910764" d="M93.76,38.61a1.386,1.386,0,0,1,.031-.289,2.71,2.71,0,0,1,.25-.719,3.19,3.19,0,0,1,.285-.434,2.6,2.6,0,0,1,.425-.425,1.377,1.377,0,0,1,.276-.184,1.483,1.483,0,0,1,.311-.158c.114-.039.228-.083.346-.114s.245-.031.373-.048a1.178,1.178,0,0,1,.373.013c.123.013.245.039.364.061a3.341,3.341,0,0,1,.618.281,5.4,5.4,0,0,1,.473.373c.123.14.228.276.32.4a1.537,1.537,0,0,1,.21.373,2.472,2.472,0,0,1,.123.307,2.3,2.3,0,0,1,.083.276s-.11-.035-.272-.105a3.051,3.051,0,0,1-.285-.132,3.331,3.331,0,0,0-.351-.158c-.127-.053-.259-.11-.386-.171-.136-.044-.276-.083-.408-.14s-.272-.048-.4-.092c-.066,0-.132,0-.193,0a.476.476,0,0,0-.193,0l-.193.013a1.371,1.371,0,0,1-.193.044,3.733,3.733,0,0,0-.395.127,3.97,3.97,0,0,0-.39.184c-.132.057-.25.14-.368.2s-.228.132-.324.2-.189.118-.263.162c-.153.1-.241.149-.241.149Z" transform="translate(-78.193 -35.697)" fill="#000a19"/>
                <path id="Trazado_910765" data-name="Trazado 910765" d="M79.356,37.929s-.123-.075-.333-.206c-.1-.061-.228-.136-.368-.224s-.307-.171-.473-.272-.355-.2-.552-.285c-.1-.048-.2-.1-.3-.145s-.21-.083-.316-.127c-.21-.092-.434-.149-.649-.219a3.91,3.91,0,0,0-.671-.118,2.14,2.14,0,0,0-.333-.031c-.11.009-.224.009-.333.009a5.5,5.5,0,0,0-.658.083c-.215.039-.416.127-.627.175s-.386.162-.57.224a3.808,3.808,0,0,0-.5.215c-.14.079-.276.14-.386.193-.224.105-.364.158-.364.158a3.12,3.12,0,0,1,.189-.346c.066-.105.145-.241.245-.386a2.239,2.239,0,0,1,.39-.452,3.437,3.437,0,0,1,.544-.469,5.368,5.368,0,0,1,.723-.4c.136-.053.281-.1.425-.14l.219-.07c.075-.013.153-.022.232-.031.153-.018.311-.035.473-.044a3.434,3.434,0,0,1,.473.031,3.945,3.945,0,0,1,.912.21,4.36,4.36,0,0,1,.412.184,2.608,2.608,0,0,1,.377.21c.118.079.232.153.342.237s.2.171.3.259a4.788,4.788,0,0,1,.487.517,4.641,4.641,0,0,1,.552.89,1.847,1.847,0,0,1,.14.373Z" transform="translate(-65.933 -35.016)" fill="#000a19"/>
                <path id="Trazado_910766" data-name="Trazado 910766" d="M77.645,45.65c-.022.815-.276,1.473-.565,1.464s-.513-.675-.491-1.49.276-1.473.565-1.464S77.666,44.835,77.645,45.65Z" transform="translate(-68.548 -40.151)" fill="#000a19"/>
                <path id="Trazado_910767" data-name="Trazado 910767" d="M98.175,45.65c-.022.815-.276,1.473-.565,1.464s-.513-.675-.491-1.49.276-1.473.566-1.464S98.2,44.835,98.175,45.65Z" transform="translate(-80.079 -40.151)" fill="#000a19"/>
              </g>
            </g>
            <g id="Grupo_1121688" data-name="Grupo 1121688" transform="translate(7.284 75.806)">
              <g id="Grupo_1121685" data-name="Grupo 1121685" transform="translate(0 94.978)">
                <g id="Grupo_1121680" data-name="Grupo 1121680" transform="translate(36.848 0.789)">
                  <g id="Grupo_1121677" data-name="Grupo 1121677">
                    <path id="Trazado_910768" data-name="Trazado 910768" d="M106.11,398.7l.53,11.726s30.98,8.776,6.457-3.248l-.228-15.773Z" transform="translate(-106.11 -391.406)" fill="#bfc9ff"/>
                    <path id="Trazado_910769" data-name="Trazado 910769" d="M108.9,407.282a13.72,13.72,0,0,1-2.407-.175l-.381-8.412,6.76-7.294.219,15.2a11.689,11.689,0,0,1-4.2.684Z" transform="translate(-106.11 -391.4)" fill="#161826" opacity="0.3"/>
                  </g>
                  <g id="Grupo_1121679" data-name="Grupo 1121679" transform="translate(0.473 15.724)">
                    <path id="Trazado_910770" data-name="Trazado 910770" d="M122.919,436.242c2.845,3.183-15.7-2.016-15.7-2.016l-.031-.675c1.477.412,14.848,4.086,15.724,2.692Z" transform="translate(-107.19 -430.797)" fill="#fff"/>
                    <g id="Grupo_1121678" data-name="Grupo 1121678" transform="translate(4.752)">
                      <path id="Trazado_910771" data-name="Trazado 910771" d="M120.274,427.27a2.95,2.95,0,0,0-2.244.947" transform="translate(-118.03 -427.27)" fill="none" stroke="#fff" stroke-linecap="round" stroke-miterlimit="10" stroke-width="1"/>
                      <path id="Trazado_910772" data-name="Trazado 910772" d="M123.124,428.96a2.95,2.95,0,0,0-2.244.947" transform="translate(-119.631 -428.219)" fill="none" stroke="#fff" stroke-linecap="round" stroke-miterlimit="10" stroke-width="1"/>
                      <path id="Trazado_910773" data-name="Trazado 910773" d="M126.334,430.74a2.95,2.95,0,0,0-2.244.947" transform="translate(-121.434 -429.219)" fill="none" stroke="#fff" stroke-linecap="round" stroke-miterlimit="10" stroke-width="1"/>
                    </g>
                  </g>
                </g>
                <g id="Grupo_1121684" data-name="Grupo 1121684">
                  <g id="Grupo_1121681" data-name="Grupo 1121681" transform="translate(0.067)">
                    <path id="Trazado_910774" data-name="Trazado 910774" d="M39.409,397.241,38.23,408.923s-31.418,7.132-6.269-3.586l1.1-15.737Z" transform="translate(-22.206 -389.6)" fill="#bfc9ff"/>
                    <path id="Trazado_910775" data-name="Trazado 910775" d="M48.7,405.666a13.61,13.61,0,0,0,2.411-.048l.846-8.377L45.611,389.6,44.55,404.763a11.643,11.643,0,0,0,4.151.9Z" transform="translate(-34.755 -389.6)" fill="#161826" opacity="0.3"/>
                  </g>
                  <g id="Grupo_1121683" data-name="Grupo 1121683" transform="translate(0 15.663)">
                    <path id="Trazado_910776" data-name="Trazado 910776" d="M22.38,434.293c-3.016,3.025,15.786-1.188,15.786-1.188l.066-.675c-1.5.333-15.054,3.3-15.851,1.859Z" transform="translate(-22.053 -429.318)" fill="#fff"/>
                    <g id="Grupo_1121682" data-name="Grupo 1121682" transform="translate(6.614)">
                      <path id="Trazado_910777" data-name="Trazado 910777" d="M43.38,425.33a2.948,2.948,0,0,1,2.187,1.061" transform="translate(-40.645 -425.33)" fill="none" stroke="#fff" stroke-linecap="round" stroke-miterlimit="10" stroke-width="1"/>
                      <path id="Trazado_910778" data-name="Trazado 910778" d="M40.44,426.87a2.948,2.948,0,0,1,2.187,1.061" transform="translate(-38.993 -426.195)" fill="none" stroke="#fff" stroke-linecap="round" stroke-miterlimit="10" stroke-width="1"/>
                      <path id="Trazado_910779" data-name="Trazado 910779" d="M37.14,428.47a2.948,2.948,0,0,1,2.187,1.061" transform="translate(-37.14 -427.094)" fill="none" stroke="#fff" stroke-linecap="round" stroke-miterlimit="10" stroke-width="1"/>
                    </g>
                  </g>
                </g>
              </g>
              <g id="Grupo_1121687" data-name="Grupo 1121687" transform="translate(8.683)">
                <path id="Trazado_910780" data-name="Trazado 910780" d="M75.855,181.588s4.848,56,2.345,101.127c0,0-6.4,2.087-8.368.342-1.433-10.758-1.179-31.519-3.345-47.09-2.038-14.659-4.3-32-4.3-32l-1.262.175s-8.864,73.045-10.161,78.367c-6.672,1.517-8.9-1.363-8.9-1.363s2.617-85.881,4.857-100.075c2.937-18.6,29.138.509,29.138.509Z" transform="translate(-41.86 -172.938)" fill="#d4e157"/>
                <g id="Grupo_1121686" data-name="Grupo 1121686" transform="translate(3.349 0.007)">
                  <path id="Trazado_910781" data-name="Trazado 910781" d="M66.7,203.191c5,.833,10.017,1.469,15.049,2.065-.789-14.229-1.6-23.654-1.6-23.654s-26.2-19.113-29.138-.508c-.5,3.134-1.008,9.762-1.508,18.188A128.647,128.647,0,0,0,66.7,203.2Z" transform="translate(-49.5 -172.954)" fill="#bac36a"/>
                  <path id="Trazado_910782" data-name="Trazado 910782" d="M103.238,234.834c1.223,20.239,2.643,53.678,1.039,82.646,0,0-6.4,2.087-8.368.342-1.433-10.758-1.179-31.519-3.345-47.09-1.9-13.7-4.011-29.748-4.274-31.782a46.6,46.6,0,0,0,14.948-4.121Z" transform="translate(-71.286 -207.705)" fill="#bac36a"/>
                </g>
              </g>
            </g>
            <g id="Grupo_1121705" data-name="Grupo 1121705" transform="translate(0 37.003)">
              <g id="Grupo_1121694" data-name="Grupo 1121694" transform="translate(8.3 0)">
                <path id="Trazado_910783" data-name="Trazado 910783" d="M46.76,85.064s2.262,6.606,9.32,6.426c5.984-.153,6.106-6,6.106-6s9.806.272,11.279,3.568-2.187,9.7-2.187,9.7,4.221,37.722,4.046,45.853c0,0-21.555,3.283-33.272.57,0,0-2.424-41.934-5.782-55.73L46.765,85.06Z" transform="translate(-31.053 -84.779)" fill="#bfc9ff"/>
                <g id="Grupo_1121693" data-name="Grupo 1121693">
                  <g id="Grupo_1121689" data-name="Grupo 1121689" transform="translate(32.838 0.5)">
                    <path id="Trazado_910784" data-name="Trazado 910784" d="M99.284,85.56s13.423.355,15.137,4.927,18.85,40.843,18.85,40.843l-10.854-.285-12.568-20.564L99.28,85.56Z" transform="translate(-99.28 -85.56)" fill="#001433"/>
                    <path id="Trazado_910785" data-name="Trazado 910785" d="M126.054,104.98c-2.788,3.472-5.8,6.755-8.794,10.065l2.692,6.343,12.568,20.564,10.854.285s-12.682-26.846-17.316-37.257Z" transform="translate(-109.378 -96.467)" fill="#000a19"/>
                  </g>
                  <g id="Grupo_1121692" data-name="Grupo 1121692">
                    <g id="Grupo_1121690" data-name="Grupo 1121690" transform="translate(32.843 0.476)">
                      <path id="Trazado_910786" data-name="Trazado 910786" d="M99.29,85.53s4.068,36.63,3,61.906l11.139-1.284s-.215-51.407-2.569-56.335S99.29,85.535,99.29,85.535Z" transform="translate(-99.29 -85.507)" fill="#001433"/>
                      <path id="Trazado_910787" data-name="Trazado 910787" d="M111.4,176.909c-1.837-.517-3.665-1.03-5.488-1.569.294,7.707.39,15.562.1,22.545l11.139-1.284s-.035-8.084-.219-18.144q-2.762-.769-5.528-1.547Z" transform="translate(-103.008 -135.96)" fill="#000a19"/>
                    </g>
                    <g id="Grupo_1121691" data-name="Grupo 1121691">
                      <path id="Trazado_910788" data-name="Trazado 910788" d="M38.078,84.42s6.567,10.28,10.28,37.7,2,25.706,2,25.706l-18.28.57L24.37,90.132Z" transform="translate(-24.37 -84.42)" fill="#001433"/>
                      <path id="Trazado_910789" data-name="Trazado 910789" d="M50.951,149.159C43.762,144.867,36.674,140.4,29.48,136.1l5.466,41.321,19.709,2.661s.285-1.517-3.428-28.937c-.092-.671-.184-1.333-.281-1.986Z" transform="translate(-27.24 -113.445)" fill="#000a19"/>
                    </g>
                  </g>
                </g>
              </g>
              <g id="Grupo_1121704" data-name="Grupo 1121704">
                <g id="Grupo_1121700" data-name="Grupo 1121700" transform="translate(29.302 44.188)">
                  <g id="Grupo_1121697" data-name="Grupo 1121697">
                    <rect id="Rectángulo_410244" data-name="Rectángulo 410244" width="76.14" height="64.024" rx="5.07" fill="#fff" stroke="#ff8255" stroke-miterlimit="10" stroke-width="2.01"/>
                    <g id="Grupo_1121696" data-name="Grupo 1121696" transform="translate(0 0.298)">
                      <path id="Trazado_910790" data-name="Trazado 910790" d="M148.416,192.752v-4.629a2.223,2.223,0,0,0-2.223-2.223H74.5a2.223,2.223,0,0,0-2.223,2.223v4.629h76.14Z" transform="translate(-72.28 -185.9)" fill="#d4e157"/>
                      <g id="Grupo_1121695" data-name="Grupo 1121695" transform="translate(63.756 1.175)">
                        <circle id="Elipse_11580" data-name="Elipse 11580" cx="1.306" cy="1.306" r="1.306" transform="translate(8.333)" fill="#fff"/>
                        <path id="Trazado_910791" data-name="Trazado 910791" d="M227.23,189.886a1.306,1.306,0,1,0,1.306-1.306A1.307,1.307,0,0,0,227.23,189.886Z" transform="translate(-223.061 -188.58)" fill="#fff"/>
                        <circle id="Elipse_11581" data-name="Elipse 11581" cx="1.306" cy="1.306" r="1.306" fill="#fff"/>
                      </g>
                    </g>
                  </g>
                  <g id="Grupo_1121699" data-name="Grupo 1121699" transform="translate(15.29 11.485)">
                    <g id="Grupo_1121698" data-name="Grupo 1121698">
                      <circle id="Elipse_11582" data-name="Elipse 11582" cx="22.773" cy="22.773" r="22.773" transform="translate(0.004)" fill="#d4e157" stroke="#fff" stroke-miterlimit="10" stroke-width="2.01"/>
                      <path id="Trazado_910792" data-name="Trazado 910792" d="M129.372,262.214l-1.035.061H107.173c0,.149-.013.294-.013.443a22.769,22.769,0,0,0,41.259,13.291l-19.051-13.8Z" transform="translate(-107.16 -239.945)" fill="#d4e157" stroke="#fff" stroke-miterlimit="10" stroke-width="2.01"/>
                      <path id="Trazado_910793" data-name="Trazado 910793" d="M129.316,211.45a22.769,22.769,0,0,0,0,45.52V211.454Z" transform="translate(-107.166 -211.437)" fill="#bfc9ff" stroke="#fff" stroke-miterlimit="10" stroke-width="2.01"/>
                    </g>
                    <circle id="Elipse_11583" data-name="Elipse 11583" cx="9.697" cy="9.697" r="9.697" transform="translate(13.081 13.077)" fill="#fff"/>
                  </g>
                </g>
                <g id="Grupo_1121703" data-name="Grupo 1121703">
                  <g id="Grupo_1121701" data-name="Grupo 1121701">
                    <path id="Trazado_910794" data-name="Trazado 910794" d="M60.672,200.271s13.129-1.061-.864-1.293c0,0,9.372-3.674-1.482-.425l-2.3,2.915-3.34-4.5a39.182,39.182,0,0,1-4.489,6.444c3.481,2.77,6.479,4.774,7.4,4.476,2.442-.78,5.094-4.037,5.094-4.037s12.187,4.406.018-1.35c0,0,15.238,3.428-.039-2.231Z" transform="translate(-29.454 -147.632)" fill="#ffb199"/>
                    <path id="Trazado_910795" data-name="Trazado 910795" d="M27.444,84.42s-13.993,2.569-15.707,5.427-8.281,30.274-5.712,34.846S26.3,144.4,26.3,144.4l5.142-8L18.879,120.695l4-21.708L27.444,84.42Z" transform="translate(-5.437 -84.42)" fill="#001433"/>
                  </g>
                  <g id="Grupo_1121702" data-name="Grupo 1121702" transform="translate(17.79 1.013)">
                    <path id="Trazado_910796" data-name="Trazado 910796" d="M46.024,87.03l.153,4.059.132,4.059c.079,2.709.167,5.414.224,8.123l-.2-.184,6.317-.206.644-.022-.509.4-4.2,3.318.022-.272c1.7,1.907,3.362,3.84,5.041,5.765l2.507,2.9,2.49,2.911-2.6-2.814-2.586-2.827c-1.714-1.894-3.441-3.774-5.138-5.681l-.132-.149.153-.123,4.169-3.358.14.381-6.321.162h-.193v-.184c-.053-2.709-.07-5.418-.1-8.127l-.026-4.064V87.03Z" transform="translate(-46.02 -86.898)" fill="#22689e"/>
                    <path id="Trazado_910797" data-name="Trazado 910797" d="M107.992,86.73,110,94.086l1.973,7.365.031.123-.123.031-4.577,1.131.035-.245c1.4.8,2.779,1.631,4.169,2.45l.088.053-.031.1-2.328,7.417c-.776,2.472-1.578,4.936-2.372,7.4.732-2.486,1.455-4.975,2.205-7.452l2.253-7.439.057.145c-1.394-.811-2.792-1.609-4.178-2.433l-.285-.171.32-.079,4.581-1.109-.092.153-1.894-7.387-1.854-7.4Z" transform="translate(-80.195 -86.73)" fill="#22689e"/>
                  </g>
                </g>
              </g>
            </g>
          </g>
        </g>
      </g>
    </g>
  </g>
</svg>
