<svg xmlns="http://www.w3.org/2000/svg" width="107" height="107" viewBox="0 0 107 107">
  <g id="Grupo_1122213" data-name="Grupo 1122213" transform="translate(-285 -9152)">
    <g id="Grupo_156312" data-name="Grupo 156312" transform="translate(-3.668 4703.563)">
      <path id="Elipse_5845" data-name="Elipse 5845" d="M53.5,0A53.5,53.5,0,1,1,0,53.5,53.5,53.5,0,0,1,53.5,0Z" transform="translate(288.668 4448.437)" fill="#d4e157"/>
    </g>
    <g id="Grupo_1098917" data-name="Grupo 1098917" transform="translate(-101.527 3133.787)">
      <path id="Trazado_873216" data-name="Trazado 873216" d="M0,0H63.184V63.186H0Z" transform="translate(408.527 6040.213)" fill="none"/>
      <path id="Trazado_911836" data-name="Trazado 911836" d="M17.945,16.286a1.019,1.019,0,0,1,1.019-1.019H29.943a1.019,1.019,0,0,1,0,2.038H18.964A1.019,1.019,0,0,1,17.945,16.286Zm-3.9,7.52H29.943a1.019,1.019,0,0,0,0-2.038H14.048a1.019,1.019,0,1,0,0,2.038ZM71.184,15.2V48.172a1.019,1.019,0,0,1-1.019,1.019h-20.7A14.463,14.463,0,0,1,43.1,52.662l.064,4.256a2.257,2.257,0,0,1,.651.44,2.226,2.226,0,0,1,.682,1.575l.155,10.3A2.245,2.245,0,0,1,42.446,71.5l-3.831.058h-.034a2.245,2.245,0,0,1-2.242-2.209l-.155-10.3a2.25,2.25,0,0,1,1.548-2.166l-.059-3.926a14.434,14.434,0,0,1-7.957-3.775H9.019A1.019,1.019,0,0,1,8,48.172V15.2a1.019,1.019,0,0,1,.3-.721l5.668-5.669a1.019,1.019,0,0,1,.721-.3H34.971A1.019,1.019,0,0,1,35.99,9.527V24.6a14.525,14.525,0,0,1,7.2,0V9.527a1.019,1.019,0,0,1,1.019-1.019H64.5a1.019,1.019,0,0,1,.721.3l5.669,5.669a1.019,1.019,0,0,1,.3.721Zm-5.668-1.019H67.7l-2.189-2.189Zm-54.036,0h2.189V11.988ZM10.038,47.153h17.87A14.454,14.454,0,0,1,25.9,43.308H14.048a1.019,1.019,0,0,1,0-2.038H25.361a14.535,14.535,0,0,1-.131-4.463H14.048a1.019,1.019,0,0,1,0-2.038H25.637a14.425,14.425,0,0,1,2.11-4.463h-13.7a1.019,1.019,0,1,1,0-2.038H29.483a14.522,14.522,0,0,1,4.469-2.982V10.546H15.707V15.2a1.019,1.019,0,0,1-1.019,1.019H10.038Zm29.554,3.9a12.43,12.43,0,0,0,9.089-20.917,1.022,1.022,0,0,1-.309-.321,12.435,12.435,0,1,0-8.781,21.237Zm3.024,18.2-.155-10.3a.208.208,0,0,0-.2-.2h0l-3.831.058a.208.208,0,0,0-.2.207l.155,10.3a.21.21,0,0,0,.207.2l3.831-.058a.207.207,0,0,0,.2-.207ZM41.07,53.019q-.669.068-1.356.073l.055,3.67,1.356-.02Zm28.076-5.866V16.215H64.5A1.019,1.019,0,0,1,63.478,15.2V10.546H45.232v14.74a14.527,14.527,0,0,1,4.47,2.982H65.137a1.019,1.019,0,1,1,0,2.038h-13.7a14.422,14.422,0,0,1,2.11,4.463H65.137a1.019,1.019,0,0,1,0,2.038H53.955a14.535,14.535,0,0,1-.131,4.463H65.137a1.019,1.019,0,1,1,0,2.038H53.287a14.446,14.446,0,0,1-2.011,3.845ZM49.242,17.3H60.22a1.019,1.019,0,1,0,0-2.038H49.242a1.019,1.019,0,1,0,0,2.038Zm15.895,4.463H49.242a1.019,1.019,0,1,0,0,2.038H65.137a1.019,1.019,0,1,0,0-2.038ZM39.592,49.191A10.573,10.573,0,1,1,50.165,38.618,10.585,10.585,0,0,1,39.592,49.191Zm8.535-10.573a8.535,8.535,0,1,0-8.535,8.535A8.545,8.545,0,0,0,48.127,38.618Z" transform="translate(400.528 6031.77)" fill="#474d41"/>
    </g>
  </g>
</svg>
