<svg xmlns="http://www.w3.org/2000/svg" width="107" height="107" viewBox="0 0 107 107">
  <g id="Grupo_1122215" data-name="Grupo 1122215" transform="translate(-285 -9473)">
    <g id="Grupo_156312" data-name="Grupo 156312" transform="translate(-3.668 5024.563)">
      <path id="Elipse_5845" data-name="Elipse 5845" d="M53.5,0A53.5,53.5,0,1,1,0,53.5,53.5,53.5,0,0,1,53.5,0Z" transform="translate(288.668 4448.437)" fill="#d4e157"/>
    </g>
    <g id="Grupo_1098919" data-name="Grupo 1098919" transform="translate(-101.527 3454.787)">
      <path id="Trazado_873216" data-name="Trazado 873216" d="M0,0H63.184V63.186H0Z" transform="translate(408.527 6040.213)" fill="none"/>
      <path id="Trazado_911847" data-name="Trazado 911847" d="M55.142,8.3,52.5,5.979l2.639-2.324a1.3,1.3,0,0,0-.861-2.281H43.359V.905a.905.905,0,1,0-1.811,0V13.114l-7.435,4.037a2.864,2.864,0,0,0-.294-.951l-1.048-2.045a2.864,2.864,0,0,0-3.85-1.242l-.81.415a2.86,2.86,0,0,0-1.242,3.851l1.048,2.046a2.843,2.843,0,0,0,1.031,1.12,7.93,7.93,0,0,0-1.091,2.626l-.2.691a.9.9,0,0,0,.625,1.117.891.891,0,0,0,.246.034.906.906,0,0,0,.871-.659l.2-.689c.4-1.4.64-2.148,1.416-2.57l1.391-.755.172-.088c.057-.029.11-.062.164-.095l9.911-5.382a3.831,3.831,0,0,1-1.827,3.076L34.38,21.567l-.022.013L32.352,22.8a.905.905,0,0,0,.865,1.588l-1.522,4.6-1.113.456-3.025,1.24.872-3.082a.906.906,0,1,0-1.743-.493L25.309,31.98a.869.869,0,0,0-.033.2L24.916,38.8a3.03,3.03,0,0,1-.074.976l-4,8.423H17.928a3.094,3.094,0,0,0-3.091,3.09V53.9a3.066,3.066,0,0,0-1.28-.279H6.169a3.094,3.094,0,0,0-3.09,3.09v3.242H.905a.905.905,0,0,0,0,1.811H54.28a.905.905,0,1,0,0-1.811H51.926V36.623a3.094,3.094,0,0,0-3.09-3.09H43.359V17.74a5.646,5.646,0,0,0,.91-4.838.906.906,0,0,0-.91-.664V10.584H54.281A1.3,1.3,0,0,0,55.142,8.3ZM28.416,15.552a1.043,1.043,0,0,1,.521-.613l.81-.415a1.05,1.05,0,0,1,1.413.456l1.048,2.046a1.052,1.052,0,0,1-.349,1.35l-.295.16-.623.319a1.051,1.051,0,0,1-1.413-.456l-1.048-2.045A1.044,1.044,0,0,1,28.416,15.552ZM26.6,48.477a3.073,3.073,0,0,0-.994-.265l.994-1.32Zm4.3-7.294a3.411,3.411,0,0,0,.653-1.622c.025-.117.471-2.557.471-2.557s.423.263.467.282a.1.1,0,0,1,.056.079l.492,5.006H30Zm5.353-5-.764,6.181h-.631l-.509-5.179a1.907,1.907,0,0,0-1.066-1.531l-.91-.577.606-3.361s2.555,3.035,2.614,3.113C36.117,35.519,36.3,35.794,36.249,36.186ZM26.47,40.568a4.908,4.908,0,0,0,.254-1.68l.329-6.039,4.187-1.716-.761,4.216c0,.011,0,.023-.006.034l-.63,3.486a3.449,3.449,0,0,1-.379,1.206L23.347,48.2h-.5ZM4.889,56.714a1.281,1.281,0,0,1,1.28-1.279h7.389a1.281,1.281,0,0,1,1.28,1.279v3.243H4.889Zm11.759,0V51.289a1.282,1.282,0,0,1,1.28-1.28h7.389a1.281,1.281,0,0,1,1.28,1.28v8.667H16.649V56.714ZM50.115,36.623V59.956H40.167V54.529a.905.905,0,0,0-1.811,0v5.428H28.408V45.461a1.281,1.281,0,0,1,1.28-1.279h7.389a1.281,1.281,0,0,1,1.28,1.279V50a.905.905,0,1,0,1.811,0V36.623a1.282,1.282,0,0,1,1.28-1.28h7.388A1.282,1.282,0,0,1,50.115,36.623Zm-8.669-3.09a3.094,3.094,0,0,0-3.09,3.09V42.65a3.064,3.064,0,0,0-1.049-.269l.738-5.972a3.5,3.5,0,0,0-1.023-2.682c-.061-.079-3.58-4.257-3.58-4.257L35.6,22.943l5.946-3.613v14.2ZM43.359,8.773V3.186h9.577L50.873,5a1.3,1.3,0,0,0,0,1.956l2.063,1.816H43.359Zm0,0" transform="translate(412.327 6040.922)" fill="#474d41"/>
    </g>
  </g>
</svg>
