<svg xmlns="http://www.w3.org/2000/svg" xmlns:xlink="http://www.w3.org/1999/xlink" width="250.06" height="528.601" viewBox="0 0 250.06 528.601">
  <defs>
    <clipPath id="clip-path">
      <path id="Trazado_194907" data-name="Trazado 194907" d="M0,139.241c0,47.447,39.179,85.908,87.511,85.908s87.511-38.461,87.511-85.908S135.841,53.333,87.511,53.333,0,91.8,0,139.241" transform="translate(0 -53.333)" fill="#bfc9ff"/>
    </clipPath>
    <clipPath id="clip-path-2">
      <path id="Trazado_194907-2" data-name="Trazado 194907" d="M0,95.647A42.315,42.315,0,1,0,42.315,53.333,42.315,42.315,0,0,0,0,95.647" transform="translate(0 -53.333)" fill="#7f4fc7"/>
    </clipPath>
    <clipPath id="clip-path-3">
      <rect id="Rectángulo_46351" data-name="Rectángulo 46351" width="115.414" height="119.42" fill="none"/>
    </clipPath>
  </defs>
  <g id="conectada_01.375dd2a5" transform="translate(-2.443)">
    <g id="Grupo_155444" data-name="Grupo 155444" transform="translate(2.443 22.364)">
      <g id="Grupo_155253" data-name="Grupo 155253" transform="translate(28.233 235.396)">
        <path id="Trazado_196478" data-name="Trazado 196478" d="M319.689,149.033q-.327.339-.648.683a52.147,52.147,0,0,0-14.068,37.632l21.849-.761a30.63,30.63,0,1,1,61.222-2.141l21.849-.761a52.492,52.492,0,0,0-90.2-34.646" transform="translate(-304.936 -133.025)" fill="#b0bda0"/>
        <path id="Trazado_196479" data-name="Trazado 196479" d="M304.88,231.066A52.492,52.492,0,1,0,409.8,227.4l-21.85.761a30.629,30.629,0,0,1-61.221,2.141Z" transform="translate(-304.844 -176.744)" fill="#4c5066"/>
      </g>
      <g id="Grupo_154313" data-name="Grupo 154313" transform="translate(61.983 321.892)">
        <g id="Grupo_152768" data-name="Grupo 152768" clip-path="url(#clip-path)">
          <path id="Trazado_194826" data-name="Trazado 194826" d="M4.605,55.593a2.284,2.284,0,0,0-2.3-2.26,2.262,2.262,0,1,0,0,4.522,2.284,2.284,0,0,0,2.3-2.263" transform="translate(0.001 -53.333)" fill="#bfc9ff"/>
          <path id="Trazado_194827" data-name="Trazado 194827" d="M12.879,55.589a2.3,2.3,0,1,0-2.3,2.263,2.3,2.3,0,0,0,2.3-2.263" transform="translate(13.028 -53.329)" fill="#bfc9ff"/>
          <path id="Trazado_194828" data-name="Trazado 194828" d="M21.152,55.589a2.3,2.3,0,1,0-2.3,2.263,2.3,2.3,0,0,0,2.3-2.263" transform="translate(26.059 -53.329)" fill="#bfc9ff"/>
          <path id="Trazado_194829" data-name="Trazado 194829" d="M29.425,55.589a2.3,2.3,0,1,0-2.3,2.263,2.3,2.3,0,0,0,2.3-2.263" transform="translate(39.088 -53.329)" fill="#bfc9ff"/>
          <path id="Trazado_194830" data-name="Trazado 194830" d="M37.7,55.589a2.3,2.3,0,1,0-2.3,2.263,2.3,2.3,0,0,0,2.3-2.263" transform="translate(52.116 -53.329)" fill="#bfc9ff"/>
          <path id="Trazado_194831" data-name="Trazado 194831" d="M45.966,55.589a2.3,2.3,0,1,0-2.3,2.263,2.3,2.3,0,0,0,2.3-2.263" transform="translate(65.146 -53.329)" fill="#bfc9ff"/>
          <path id="Trazado_194832" data-name="Trazado 194832" d="M54.242,55.589a2.3,2.3,0,1,0-2.3,2.263,2.3,2.3,0,0,0,2.3-2.263" transform="translate(78.175 -53.329)" fill="#bfc9ff"/>
          <path id="Trazado_194833" data-name="Trazado 194833" d="M62.515,55.589a2.3,2.3,0,1,0-2.3,2.263,2.3,2.3,0,0,0,2.3-2.263" transform="translate(91.204 -53.329)" fill="#bfc9ff"/>
          <path id="Trazado_194834" data-name="Trazado 194834" d="M70.788,55.589a2.3,2.3,0,1,0-2.3,2.262,2.3,2.3,0,0,0,2.3-2.262" transform="translate(104.234 -53.329)" fill="#bfc9ff"/>
          <path id="Trazado_194835" data-name="Trazado 194835" d="M4.609,63.866a2.284,2.284,0,0,0-2.3-2.26,2.26,2.26,0,0,0,0,4.52,2.284,2.284,0,0,0,2.3-2.26" transform="translate(-0.002 -40.693)" fill="#bfc9ff"/>
          <path id="Trazado_194836" data-name="Trazado 194836" d="M12.879,63.862a2.3,2.3,0,1,0-2.3,2.26,2.3,2.3,0,0,0,2.3-2.26" transform="translate(13.028 -40.689)" fill="#bfc9ff"/>
          <path id="Trazado_194837" data-name="Trazado 194837" d="M21.152,63.862a2.3,2.3,0,1,0-2.3,2.26,2.3,2.3,0,0,0,2.3-2.26" transform="translate(26.059 -40.689)" fill="#bfc9ff"/>
          <path id="Trazado_194838" data-name="Trazado 194838" d="M29.425,63.862a2.3,2.3,0,1,0-2.3,2.26,2.3,2.3,0,0,0,2.3-2.26" transform="translate(39.088 -40.689)" fill="#bfc9ff"/>
          <path id="Trazado_194839" data-name="Trazado 194839" d="M37.7,63.862a2.3,2.3,0,1,0-2.3,2.26,2.3,2.3,0,0,0,2.3-2.26" transform="translate(52.116 -40.689)" fill="#bfc9ff"/>
          <path id="Trazado_194840" data-name="Trazado 194840" d="M45.966,63.862a2.3,2.3,0,1,0-2.3,2.26,2.3,2.3,0,0,0,2.3-2.26" transform="translate(65.146 -40.689)" fill="#bfc9ff"/>
          <path id="Trazado_194841" data-name="Trazado 194841" d="M54.242,63.862a2.3,2.3,0,1,0-2.3,2.26,2.3,2.3,0,0,0,2.3-2.26" transform="translate(78.175 -40.689)" fill="#bfc9ff"/>
          <path id="Trazado_194842" data-name="Trazado 194842" d="M62.515,63.862a2.3,2.3,0,1,0-2.3,2.26,2.3,2.3,0,0,0,2.3-2.26" transform="translate(91.204 -40.689)" fill="#bfc9ff"/>
          <path id="Trazado_194843" data-name="Trazado 194843" d="M70.788,63.862a2.3,2.3,0,1,0-2.3,2.26,2.3,2.3,0,0,0,2.3-2.26" transform="translate(104.234 -40.689)" fill="#bfc9ff"/>
          <path id="Trazado_194844" data-name="Trazado 194844" d="M4.609,72.139a2.284,2.284,0,0,0-2.3-2.26,2.26,2.26,0,0,0,0,4.52,2.284,2.284,0,0,0,2.3-2.26" transform="translate(-0.002 -28.054)" fill="#bfc9ff"/>
          <path id="Trazado_194845" data-name="Trazado 194845" d="M12.879,72.135a2.3,2.3,0,1,0-2.3,2.26,2.3,2.3,0,0,0,2.3-2.26" transform="translate(13.028 -28.049)" fill="#bfc9ff"/>
          <path id="Trazado_194846" data-name="Trazado 194846" d="M21.152,72.135a2.3,2.3,0,1,0-2.3,2.26,2.3,2.3,0,0,0,2.3-2.26" transform="translate(26.059 -28.049)" fill="#bfc9ff"/>
          <path id="Trazado_194847" data-name="Trazado 194847" d="M29.425,72.135a2.3,2.3,0,1,0-2.3,2.26,2.3,2.3,0,0,0,2.3-2.26" transform="translate(39.088 -28.049)" fill="#bfc9ff"/>
          <path id="Trazado_194848" data-name="Trazado 194848" d="M37.7,72.135a2.3,2.3,0,1,0-2.3,2.26,2.3,2.3,0,0,0,2.3-2.26" transform="translate(52.116 -28.049)" fill="#bfc9ff"/>
          <path id="Trazado_194849" data-name="Trazado 194849" d="M45.966,72.135a2.3,2.3,0,1,0-2.3,2.26,2.3,2.3,0,0,0,2.3-2.26" transform="translate(65.146 -28.049)" fill="#bfc9ff"/>
          <path id="Trazado_194850" data-name="Trazado 194850" d="M54.242,72.135a2.3,2.3,0,1,0-2.3,2.26,2.3,2.3,0,0,0,2.3-2.26" transform="translate(78.175 -28.049)" fill="#bfc9ff"/>
          <path id="Trazado_194851" data-name="Trazado 194851" d="M62.515,72.135a2.3,2.3,0,1,0-2.3,2.26,2.3,2.3,0,0,0,2.3-2.26" transform="translate(91.204 -28.049)" fill="#bfc9ff"/>
          <path id="Trazado_194852" data-name="Trazado 194852" d="M70.788,72.135a2.3,2.3,0,1,0-2.3,2.26,2.3,2.3,0,0,0,2.3-2.26" transform="translate(104.234 -28.049)" fill="#bfc9ff"/>
          <path id="Trazado_194853" data-name="Trazado 194853" d="M4.609,80.411a2.284,2.284,0,0,0-2.3-2.26,2.26,2.26,0,0,0,0,4.52,2.284,2.284,0,0,0,2.3-2.26" transform="translate(-0.002 -15.416)" fill="#bfc9ff"/>
          <path id="Trazado_194854" data-name="Trazado 194854" d="M12.879,80.407a2.3,2.3,0,1,0-2.3,2.259,2.3,2.3,0,0,0,2.3-2.259" transform="translate(13.028 -15.411)" fill="#bfc9ff"/>
          <path id="Trazado_194855" data-name="Trazado 194855" d="M21.152,80.407a2.3,2.3,0,1,0-2.3,2.259,2.3,2.3,0,0,0,2.3-2.259" transform="translate(26.059 -15.411)" fill="#bfc9ff"/>
          <path id="Trazado_194856" data-name="Trazado 194856" d="M29.425,80.407a2.3,2.3,0,1,0-2.3,2.259,2.3,2.3,0,0,0,2.3-2.259" transform="translate(39.088 -15.411)" fill="#bfc9ff"/>
          <path id="Trazado_194857" data-name="Trazado 194857" d="M37.7,80.407a2.3,2.3,0,1,0-2.3,2.259,2.3,2.3,0,0,0,2.3-2.259" transform="translate(52.116 -15.411)" fill="#bfc9ff"/>
          <path id="Trazado_194858" data-name="Trazado 194858" d="M45.966,80.407a2.3,2.3,0,1,0-2.3,2.259,2.3,2.3,0,0,0,2.3-2.259" transform="translate(65.146 -15.411)" fill="#bfc9ff"/>
          <path id="Trazado_194859" data-name="Trazado 194859" d="M54.242,80.407a2.3,2.3,0,1,0-2.3,2.259,2.3,2.3,0,0,0,2.3-2.259" transform="translate(78.175 -15.411)" fill="#bfc9ff"/>
          <path id="Trazado_194860" data-name="Trazado 194860" d="M62.515,80.407a2.3,2.3,0,1,0-2.3,2.259,2.3,2.3,0,0,0,2.3-2.259" transform="translate(91.204 -15.411)" fill="#bfc9ff"/>
          <path id="Trazado_194861" data-name="Trazado 194861" d="M70.788,80.407a2.3,2.3,0,1,0-2.3,2.259,2.3,2.3,0,0,0,2.3-2.259" transform="translate(104.234 -15.411)" fill="#bfc9ff"/>
          <path id="Trazado_194862" data-name="Trazado 194862" d="M4.605,88.685a2.284,2.284,0,0,0-2.3-2.26,2.262,2.262,0,1,0,0,4.522,2.284,2.284,0,0,0,2.3-2.262" transform="translate(0.001 -2.776)" fill="#bfc9ff"/>
          <path id="Trazado_194863" data-name="Trazado 194863" d="M12.879,88.681a2.3,2.3,0,1,0-2.3,2.262,2.3,2.3,0,0,0,2.3-2.262" transform="translate(13.028 -2.771)" fill="#bfc9ff"/>
          <path id="Trazado_194864" data-name="Trazado 194864" d="M21.152,88.681a2.3,2.3,0,1,0-2.3,2.262,2.3,2.3,0,0,0,2.3-2.262" transform="translate(26.059 -2.771)" fill="#bfc9ff"/>
          <path id="Trazado_194865" data-name="Trazado 194865" d="M29.425,88.681a2.3,2.3,0,1,0-2.3,2.262,2.3,2.3,0,0,0,2.3-2.262" transform="translate(39.088 -2.771)" fill="#bfc9ff"/>
          <path id="Trazado_194866" data-name="Trazado 194866" d="M37.7,88.681a2.3,2.3,0,1,0-2.3,2.262,2.3,2.3,0,0,0,2.3-2.262" transform="translate(52.116 -2.771)" fill="#bfc9ff"/>
          <path id="Trazado_194867" data-name="Trazado 194867" d="M45.966,88.681a2.3,2.3,0,1,0-2.3,2.262,2.3,2.3,0,0,0,2.3-2.262" transform="translate(65.146 -2.771)" fill="#bfc9ff"/>
          <path id="Trazado_194868" data-name="Trazado 194868" d="M54.242,88.681a2.3,2.3,0,1,0-2.3,2.262,2.3,2.3,0,0,0,2.3-2.262" transform="translate(78.175 -2.771)" fill="#bfc9ff"/>
          <path id="Trazado_194869" data-name="Trazado 194869" d="M62.515,88.681a2.3,2.3,0,1,0-2.3,2.262,2.3,2.3,0,0,0,2.3-2.262" transform="translate(91.204 -2.771)" fill="#bfc9ff"/>
          <path id="Trazado_194870" data-name="Trazado 194870" d="M70.788,88.681a2.3,2.3,0,1,0-2.3,2.261,2.3,2.3,0,0,0,2.3-2.261" transform="translate(104.234 -2.771)" fill="#bfc9ff"/>
          <path id="Trazado_194871" data-name="Trazado 194871" d="M4.609,96.957a2.284,2.284,0,0,0-2.3-2.257,2.26,2.26,0,0,0,0,4.52,2.284,2.284,0,0,0,2.3-2.26" transform="translate(-0.002 9.864)" fill="#bfc9ff"/>
          <path id="Trazado_194872" data-name="Trazado 194872" d="M12.879,96.953a2.3,2.3,0,1,0-2.3,2.26,2.3,2.3,0,0,0,2.3-2.26" transform="translate(13.028 9.869)" fill="#bfc9ff"/>
          <path id="Trazado_194873" data-name="Trazado 194873" d="M21.152,96.953a2.3,2.3,0,1,0-2.3,2.26,2.3,2.3,0,0,0,2.3-2.26" transform="translate(26.059 9.869)" fill="#bfc9ff"/>
          <path id="Trazado_194874" data-name="Trazado 194874" d="M29.425,96.953a2.3,2.3,0,1,0-2.3,2.26,2.3,2.3,0,0,0,2.3-2.26" transform="translate(39.088 9.869)" fill="#bfc9ff"/>
          <path id="Trazado_194875" data-name="Trazado 194875" d="M37.7,96.953a2.3,2.3,0,1,0-2.3,2.26,2.3,2.3,0,0,0,2.3-2.26" transform="translate(52.116 9.869)" fill="#bfc9ff"/>
          <path id="Trazado_194876" data-name="Trazado 194876" d="M45.966,96.953a2.3,2.3,0,1,0-2.3,2.26,2.3,2.3,0,0,0,2.3-2.26" transform="translate(65.146 9.869)" fill="#bfc9ff"/>
          <path id="Trazado_194877" data-name="Trazado 194877" d="M54.242,96.953a2.3,2.3,0,1,0-2.3,2.26,2.3,2.3,0,0,0,2.3-2.26" transform="translate(78.175 9.869)" fill="#bfc9ff"/>
          <path id="Trazado_194878" data-name="Trazado 194878" d="M62.515,96.953a2.3,2.3,0,1,0-2.3,2.26,2.3,2.3,0,0,0,2.3-2.26" transform="translate(91.204 9.869)" fill="#bfc9ff"/>
          <path id="Trazado_194879" data-name="Trazado 194879" d="M70.788,96.953a2.3,2.3,0,1,0-2.3,2.26,2.3,2.3,0,0,0,2.3-2.26" transform="translate(104.234 9.869)" fill="#bfc9ff"/>
          <path id="Trazado_194880" data-name="Trazado 194880" d="M4.609,105.229a2.284,2.284,0,0,0-2.3-2.26,2.26,2.26,0,1,0,0,4.52,2.284,2.284,0,0,0,2.3-2.26" transform="translate(-0.002 22.503)" fill="#bfc9ff"/>
          <path id="Trazado_194881" data-name="Trazado 194881" d="M12.879,105.225a2.3,2.3,0,1,0-2.3,2.26,2.3,2.3,0,0,0,2.3-2.26" transform="translate(13.028 22.507)" fill="#bfc9ff"/>
          <path id="Trazado_194882" data-name="Trazado 194882" d="M21.152,105.225a2.3,2.3,0,1,0-2.3,2.26,2.3,2.3,0,0,0,2.3-2.26" transform="translate(26.059 22.507)" fill="#bfc9ff"/>
          <path id="Trazado_194883" data-name="Trazado 194883" d="M29.425,105.225a2.3,2.3,0,1,0-2.3,2.26,2.3,2.3,0,0,0,2.3-2.26" transform="translate(39.088 22.507)" fill="#bfc9ff"/>
          <path id="Trazado_194884" data-name="Trazado 194884" d="M37.7,105.225a2.3,2.3,0,1,0-2.3,2.26,2.3,2.3,0,0,0,2.3-2.26" transform="translate(52.116 22.507)" fill="#bfc9ff"/>
          <path id="Trazado_194885" data-name="Trazado 194885" d="M45.966,105.225a2.3,2.3,0,1,0-2.3,2.26,2.3,2.3,0,0,0,2.3-2.26" transform="translate(65.146 22.507)" fill="#bfc9ff"/>
          <path id="Trazado_194886" data-name="Trazado 194886" d="M54.242,105.225a2.3,2.3,0,1,0-2.3,2.26,2.3,2.3,0,0,0,2.3-2.26" transform="translate(78.175 22.507)" fill="#bfc9ff"/>
          <path id="Trazado_194887" data-name="Trazado 194887" d="M62.515,105.225a2.3,2.3,0,1,0-2.3,2.26,2.3,2.3,0,0,0,2.3-2.26" transform="translate(91.204 22.507)" fill="#bfc9ff"/>
          <path id="Trazado_194888" data-name="Trazado 194888" d="M70.788,105.225a2.3,2.3,0,1,0-2.3,2.26,2.3,2.3,0,0,0,2.3-2.26" transform="translate(104.234 22.507)" fill="#bfc9ff"/>
          <path id="Trazado_194889" data-name="Trazado 194889" d="M4.609,113.5a2.284,2.284,0,0,0-2.3-2.26,2.26,2.26,0,0,0,0,4.52,2.284,2.284,0,0,0,2.3-2.26" transform="translate(-0.002 35.142)" fill="#bfc9ff"/>
          <path id="Trazado_194890" data-name="Trazado 194890" d="M12.879,113.5a2.3,2.3,0,1,0-2.3,2.26,2.3,2.3,0,0,0,2.3-2.26" transform="translate(13.028 35.146)" fill="#bfc9ff"/>
          <path id="Trazado_194891" data-name="Trazado 194891" d="M21.152,113.5a2.3,2.3,0,1,0-2.3,2.26,2.3,2.3,0,0,0,2.3-2.26" transform="translate(26.059 35.146)" fill="#bfc9ff"/>
          <path id="Trazado_194892" data-name="Trazado 194892" d="M29.425,113.5a2.3,2.3,0,1,0-2.3,2.26,2.3,2.3,0,0,0,2.3-2.26" transform="translate(39.088 35.146)" fill="#bfc9ff"/>
          <path id="Trazado_194893" data-name="Trazado 194893" d="M37.7,113.5a2.3,2.3,0,1,0-2.3,2.26,2.3,2.3,0,0,0,2.3-2.26" transform="translate(52.116 35.146)" fill="#bfc9ff"/>
          <path id="Trazado_194894" data-name="Trazado 194894" d="M45.966,113.5a2.3,2.3,0,1,0-2.3,2.26,2.3,2.3,0,0,0,2.3-2.26" transform="translate(65.146 35.146)" fill="#bfc9ff"/>
          <path id="Trazado_194895" data-name="Trazado 194895" d="M54.242,113.5a2.3,2.3,0,1,0-2.3,2.26,2.3,2.3,0,0,0,2.3-2.26" transform="translate(78.175 35.146)" fill="#bfc9ff"/>
          <path id="Trazado_194896" data-name="Trazado 194896" d="M62.515,113.5a2.3,2.3,0,1,0-2.3,2.26,2.3,2.3,0,0,0,2.3-2.26" transform="translate(91.204 35.146)" fill="#bfc9ff"/>
          <path id="Trazado_194897" data-name="Trazado 194897" d="M70.788,113.5a2.3,2.3,0,1,0-2.3,2.26,2.3,2.3,0,0,0,2.3-2.26" transform="translate(104.234 35.146)" fill="#bfc9ff"/>
          <path id="Trazado_194898" data-name="Trazado 194898" d="M4.609,121.774a2.284,2.284,0,0,0-2.3-2.26,2.26,2.26,0,0,0,0,4.52,2.284,2.284,0,0,0,2.3-2.26" transform="translate(-0.002 47.78)" fill="#bfc9ff"/>
          <path id="Trazado_194899" data-name="Trazado 194899" d="M12.879,121.77a2.3,2.3,0,1,0-2.3,2.26,2.3,2.3,0,0,0,2.3-2.26" transform="translate(13.028 47.784)" fill="#bfc9ff"/>
          <path id="Trazado_194900" data-name="Trazado 194900" d="M21.152,121.77a2.3,2.3,0,1,0-2.3,2.26,2.3,2.3,0,0,0,2.3-2.26" transform="translate(26.059 47.784)" fill="#bfc9ff"/>
          <path id="Trazado_194901" data-name="Trazado 194901" d="M29.425,121.77a2.3,2.3,0,1,0-2.3,2.26,2.3,2.3,0,0,0,2.3-2.26" transform="translate(39.088 47.784)" fill="#bfc9ff"/>
          <path id="Trazado_194902" data-name="Trazado 194902" d="M37.7,121.77a2.3,2.3,0,1,0-2.3,2.26,2.3,2.3,0,0,0,2.3-2.26" transform="translate(52.116 47.784)" fill="#bfc9ff"/>
          <path id="Trazado_194903" data-name="Trazado 194903" d="M45.966,121.77a2.3,2.3,0,1,0-2.3,2.26,2.3,2.3,0,0,0,2.3-2.26" transform="translate(65.146 47.784)" fill="#bfc9ff"/>
          <path id="Trazado_194904" data-name="Trazado 194904" d="M54.242,121.77a2.3,2.3,0,1,0-2.3,2.26,2.3,2.3,0,0,0,2.3-2.26" transform="translate(78.175 47.784)" fill="#bfc9ff"/>
          <path id="Trazado_194905" data-name="Trazado 194905" d="M62.515,121.77a2.3,2.3,0,1,0-2.3,2.26,2.3,2.3,0,0,0,2.3-2.26" transform="translate(91.204 47.784)" fill="#bfc9ff"/>
          <path id="Trazado_194906" data-name="Trazado 194906" d="M70.788,121.77a2.3,2.3,0,1,0-2.3,2.26,2.3,2.3,0,0,0,2.3-2.26" transform="translate(104.234 47.784)" fill="#bfc9ff"/>
        </g>
      </g>
      <g id="Grupo_154805" data-name="Grupo 154805" transform="translate(137.088 0)">
        <g id="Grupo_152768-2" data-name="Grupo 152768" transform="translate(0)" clip-path="url(#clip-path-2)">
          <path id="Trazado_194826-2" data-name="Trazado 194826" d="M2.228,54.443a1.113,1.113,0,1,0-1.113,1.114,1.113,1.113,0,0,0,1.113-1.114" transform="translate(0 -53.333)" fill="#7f4fc7"/>
          <path id="Trazado_194827-2" data-name="Trazado 194827" d="M10.5,54.443a1.113,1.113,0,1,0-1.113,1.114A1.113,1.113,0,0,0,10.5,54.443" transform="translate(2.028 -53.333)" fill="#7f4fc7"/>
          <path id="Trazado_194828-2" data-name="Trazado 194828" d="M18.773,54.443a1.113,1.113,0,1,0-1.113,1.114,1.113,1.113,0,0,0,1.113-1.114" transform="translate(4.056 -53.333)" fill="#7f4fc7"/>
          <path id="Trazado_194829-2" data-name="Trazado 194829" d="M27.046,54.443a1.113,1.113,0,1,0-1.113,1.114,1.113,1.113,0,0,0,1.113-1.114" transform="translate(6.083 -53.333)" fill="#7f4fc7"/>
          <path id="Trazado_194830-2" data-name="Trazado 194830" d="M35.318,54.443A1.113,1.113,0,1,0,34.2,55.558a1.113,1.113,0,0,0,1.113-1.114" transform="translate(8.111 -53.333)" fill="#7f4fc7"/>
          <path id="Trazado_194831-2" data-name="Trazado 194831" d="M43.587,54.443a1.113,1.113,0,1,0-1.113,1.114,1.113,1.113,0,0,0,1.113-1.114" transform="translate(10.139 -53.333)" fill="#7f4fc7"/>
          <path id="Trazado_194832-2" data-name="Trazado 194832" d="M51.863,54.443a1.113,1.113,0,1,0-1.113,1.114,1.113,1.113,0,0,0,1.113-1.114" transform="translate(12.167 -53.333)" fill="#7f4fc7"/>
          <path id="Trazado_194833-2" data-name="Trazado 194833" d="M60.136,54.443a1.113,1.113,0,1,0-1.113,1.114,1.113,1.113,0,0,0,1.113-1.114" transform="translate(14.194 -53.333)" fill="#7f4fc7"/>
          <path id="Trazado_194834-2" data-name="Trazado 194834" d="M68.409,54.443A1.113,1.113,0,1,0,67.3,55.558a1.113,1.113,0,0,0,1.113-1.114" transform="translate(16.222 -53.333)" fill="#7f4fc7"/>
          <path id="Trazado_194835-2" data-name="Trazado 194835" d="M2.228,62.719a1.112,1.112,0,1,0-.326.788,1.113,1.113,0,0,0,.326-.788" transform="translate(0 -51.305)" fill="#7f4fc7"/>
          <path id="Trazado_194836-2" data-name="Trazado 194836" d="M10.5,62.719a1.112,1.112,0,1,0-.326.788,1.113,1.113,0,0,0,.326-.788" transform="translate(2.028 -51.305)" fill="#7f4fc7"/>
          <path id="Trazado_194837-2" data-name="Trazado 194837" d="M18.773,62.719a1.112,1.112,0,1,0-.326.788,1.113,1.113,0,0,0,.326-.788" transform="translate(4.056 -51.305)" fill="#7f4fc7"/>
          <path id="Trazado_194838-2" data-name="Trazado 194838" d="M27.046,62.719a1.112,1.112,0,1,0-.326.788,1.113,1.113,0,0,0,.326-.788" transform="translate(6.083 -51.305)" fill="#7f4fc7"/>
          <path id="Trazado_194839-2" data-name="Trazado 194839" d="M35.318,62.719a1.112,1.112,0,1,0-.326.788,1.113,1.113,0,0,0,.326-.788" transform="translate(8.111 -51.305)" fill="#7f4fc7"/>
          <path id="Trazado_194840-2" data-name="Trazado 194840" d="M43.587,62.719a1.112,1.112,0,1,0-.326.788,1.113,1.113,0,0,0,.326-.788" transform="translate(10.139 -51.305)" fill="#7f4fc7"/>
          <path id="Trazado_194841-2" data-name="Trazado 194841" d="M51.863,62.719a1.112,1.112,0,1,0-.326.788,1.113,1.113,0,0,0,.326-.788" transform="translate(12.167 -51.305)" fill="#7f4fc7"/>
          <path id="Trazado_194842-2" data-name="Trazado 194842" d="M60.136,62.719a1.113,1.113,0,1,0-1.113,1.113,1.113,1.113,0,0,0,1.113-1.113" transform="translate(14.194 -51.305)" fill="#7f4fc7"/>
          <path id="Trazado_194843-2" data-name="Trazado 194843" d="M68.409,62.719a1.112,1.112,0,1,0-.326.788,1.113,1.113,0,0,0,.326-.788" transform="translate(16.222 -51.305)" fill="#7f4fc7"/>
          <path id="Trazado_194844-2" data-name="Trazado 194844" d="M2.228,70.992a1.112,1.112,0,1,0-.326.788,1.113,1.113,0,0,0,.326-.788" transform="translate(0 -49.277)" fill="#7f4fc7"/>
          <path id="Trazado_194845-2" data-name="Trazado 194845" d="M10.5,70.992a1.112,1.112,0,1,0-.326.788,1.113,1.113,0,0,0,.326-.788" transform="translate(2.028 -49.277)" fill="#7f4fc7"/>
          <path id="Trazado_194846-2" data-name="Trazado 194846" d="M18.773,70.992a1.112,1.112,0,1,0-.326.788,1.113,1.113,0,0,0,.326-.788" transform="translate(4.056 -49.277)" fill="#7f4fc7"/>
          <path id="Trazado_194847-2" data-name="Trazado 194847" d="M27.046,70.992a1.112,1.112,0,1,0-.326.788,1.113,1.113,0,0,0,.326-.788" transform="translate(6.083 -49.277)" fill="#7f4fc7"/>
          <path id="Trazado_194848-2" data-name="Trazado 194848" d="M35.318,70.992a1.112,1.112,0,1,0-.326.788,1.113,1.113,0,0,0,.326-.788" transform="translate(8.111 -49.277)" fill="#7f4fc7"/>
          <path id="Trazado_194849-2" data-name="Trazado 194849" d="M43.587,70.992a1.112,1.112,0,1,0-.326.788,1.113,1.113,0,0,0,.326-.788" transform="translate(10.139 -49.277)" fill="#7f4fc7"/>
          <path id="Trazado_194850-2" data-name="Trazado 194850" d="M51.863,70.992a1.112,1.112,0,1,0-.326.788,1.113,1.113,0,0,0,.326-.788" transform="translate(12.167 -49.277)" fill="#7f4fc7"/>
          <path id="Trazado_194851-2" data-name="Trazado 194851" d="M60.136,70.992a1.113,1.113,0,1,0-1.113,1.113,1.113,1.113,0,0,0,1.113-1.113" transform="translate(14.194 -49.277)" fill="#7f4fc7"/>
          <path id="Trazado_194852-2" data-name="Trazado 194852" d="M68.409,70.992a1.112,1.112,0,1,0-.326.788,1.113,1.113,0,0,0,.326-.788" transform="translate(16.222 -49.277)" fill="#7f4fc7"/>
          <path id="Trazado_194853-2" data-name="Trazado 194853" d="M2.228,79.264a1.112,1.112,0,1,0-.326.788,1.113,1.113,0,0,0,.326-.788" transform="translate(0 -47.25)" fill="#7f4fc7"/>
          <path id="Trazado_194854-2" data-name="Trazado 194854" d="M10.5,79.264a1.112,1.112,0,1,0-.326.788,1.113,1.113,0,0,0,.326-.788" transform="translate(2.028 -47.25)" fill="#7f4fc7"/>
          <path id="Trazado_194855-2" data-name="Trazado 194855" d="M18.773,79.264a1.112,1.112,0,1,0-.326.788,1.113,1.113,0,0,0,.326-.788" transform="translate(4.056 -47.25)" fill="#7f4fc7"/>
          <path id="Trazado_194856-2" data-name="Trazado 194856" d="M27.046,79.264a1.112,1.112,0,1,0-.326.788,1.113,1.113,0,0,0,.326-.788" transform="translate(6.083 -47.25)" fill="#7f4fc7"/>
          <path id="Trazado_194857-2" data-name="Trazado 194857" d="M35.318,79.264a1.112,1.112,0,1,0-.326.788,1.113,1.113,0,0,0,.326-.788" transform="translate(8.111 -47.25)" fill="#7f4fc7"/>
          <path id="Trazado_194858-2" data-name="Trazado 194858" d="M43.587,79.264a1.112,1.112,0,1,0-.326.788,1.113,1.113,0,0,0,.326-.788" transform="translate(10.139 -47.25)" fill="#7f4fc7"/>
          <path id="Trazado_194859-2" data-name="Trazado 194859" d="M51.863,79.264a1.112,1.112,0,1,0-.326.788,1.113,1.113,0,0,0,.326-.788" transform="translate(12.167 -47.25)" fill="#7f4fc7"/>
          <path id="Trazado_194860-2" data-name="Trazado 194860" d="M60.136,79.264a1.113,1.113,0,1,0-1.113,1.113,1.113,1.113,0,0,0,1.113-1.113" transform="translate(14.194 -47.25)" fill="#7f4fc7"/>
          <path id="Trazado_194861-2" data-name="Trazado 194861" d="M68.409,79.264a1.112,1.112,0,1,0-.326.788,1.113,1.113,0,0,0,.326-.788" transform="translate(16.222 -47.25)" fill="#7f4fc7"/>
          <path id="Trazado_194862-2" data-name="Trazado 194862" d="M2.228,87.537a1.112,1.112,0,1,0-.325.788,1.113,1.113,0,0,0,.325-.788" transform="translate(0 -45.222)" fill="#7f4fc7"/>
          <path id="Trazado_194863-2" data-name="Trazado 194863" d="M10.5,87.537a1.112,1.112,0,1,0-.325.788,1.113,1.113,0,0,0,.325-.788" transform="translate(2.028 -45.222)" fill="#7f4fc7"/>
          <path id="Trazado_194864-2" data-name="Trazado 194864" d="M18.773,87.537a1.112,1.112,0,1,0-.325.788,1.113,1.113,0,0,0,.325-.788" transform="translate(4.056 -45.222)" fill="#7f4fc7"/>
          <path id="Trazado_194865-2" data-name="Trazado 194865" d="M27.046,87.537a1.112,1.112,0,1,0-.325.788,1.113,1.113,0,0,0,.325-.788" transform="translate(6.083 -45.222)" fill="#7f4fc7"/>
          <path id="Trazado_194866-2" data-name="Trazado 194866" d="M35.318,87.537a1.112,1.112,0,1,0-.325.788,1.113,1.113,0,0,0,.325-.788" transform="translate(8.111 -45.222)" fill="#7f4fc7"/>
          <path id="Trazado_194867-2" data-name="Trazado 194867" d="M43.587,87.537a1.112,1.112,0,1,0-.325.788,1.113,1.113,0,0,0,.325-.788" transform="translate(10.139 -45.222)" fill="#7f4fc7"/>
          <path id="Trazado_194868-2" data-name="Trazado 194868" d="M51.863,87.537a1.112,1.112,0,1,0-.325.788,1.113,1.113,0,0,0,.325-.788" transform="translate(12.167 -45.222)" fill="#7f4fc7"/>
          <path id="Trazado_194869-2" data-name="Trazado 194869" d="M60.136,87.537a1.113,1.113,0,1,0-1.113,1.114,1.113,1.113,0,0,0,1.113-1.114" transform="translate(14.194 -45.222)" fill="#7f4fc7"/>
          <path id="Trazado_194870-2" data-name="Trazado 194870" d="M68.409,87.537a1.112,1.112,0,1,0-.325.788,1.113,1.113,0,0,0,.325-.788" transform="translate(16.222 -45.222)" fill="#7f4fc7"/>
          <path id="Trazado_194871-2" data-name="Trazado 194871" d="M2.228,95.81A1.112,1.112,0,1,0,1.9,96.6a1.113,1.113,0,0,0,.326-.788" transform="translate(0 -43.194)" fill="#7f4fc7"/>
          <path id="Trazado_194872-2" data-name="Trazado 194872" d="M10.5,95.81a1.112,1.112,0,1,0-.326.788,1.113,1.113,0,0,0,.326-.788" transform="translate(2.028 -43.194)" fill="#7f4fc7"/>
          <path id="Trazado_194873-2" data-name="Trazado 194873" d="M18.773,95.81a1.112,1.112,0,1,0-.326.788,1.113,1.113,0,0,0,.326-.788" transform="translate(4.056 -43.194)" fill="#7f4fc7"/>
          <path id="Trazado_194874-2" data-name="Trazado 194874" d="M27.046,95.81a1.112,1.112,0,1,0-.326.788,1.113,1.113,0,0,0,.326-.788" transform="translate(6.083 -43.194)" fill="#7f4fc7"/>
          <path id="Trazado_194875-2" data-name="Trazado 194875" d="M35.318,95.81a1.112,1.112,0,1,0-.326.788,1.113,1.113,0,0,0,.326-.788" transform="translate(8.111 -43.194)" fill="#7f4fc7"/>
          <path id="Trazado_194876-2" data-name="Trazado 194876" d="M43.587,95.81a1.112,1.112,0,1,0-.326.788,1.113,1.113,0,0,0,.326-.788" transform="translate(10.139 -43.194)" fill="#7f4fc7"/>
          <path id="Trazado_194877-2" data-name="Trazado 194877" d="M51.863,95.81a1.112,1.112,0,1,0-.326.788,1.113,1.113,0,0,0,.326-.788" transform="translate(12.167 -43.194)" fill="#7f4fc7"/>
          <path id="Trazado_194878-2" data-name="Trazado 194878" d="M60.136,95.81a1.113,1.113,0,1,0-1.113,1.113,1.113,1.113,0,0,0,1.113-1.113" transform="translate(14.194 -43.194)" fill="#7f4fc7"/>
          <path id="Trazado_194879-2" data-name="Trazado 194879" d="M68.409,95.81a1.112,1.112,0,1,0-.326.788,1.113,1.113,0,0,0,.326-.788" transform="translate(16.222 -43.194)" fill="#7f4fc7"/>
          <path id="Trazado_194880-2" data-name="Trazado 194880" d="M2.228,104.082a1.112,1.112,0,1,0-.326.788,1.113,1.113,0,0,0,.326-.788" transform="translate(0 -41.166)" fill="#7f4fc7"/>
          <path id="Trazado_194881-2" data-name="Trazado 194881" d="M10.5,104.082a1.112,1.112,0,1,0-.326.788,1.113,1.113,0,0,0,.326-.788" transform="translate(2.028 -41.166)" fill="#7f4fc7"/>
          <path id="Trazado_194882-2" data-name="Trazado 194882" d="M18.773,104.082a1.112,1.112,0,1,0-.326.788,1.113,1.113,0,0,0,.326-.788" transform="translate(4.056 -41.166)" fill="#7f4fc7"/>
          <path id="Trazado_194883-2" data-name="Trazado 194883" d="M27.046,104.082a1.112,1.112,0,1,0-.326.788,1.113,1.113,0,0,0,.326-.788" transform="translate(6.083 -41.166)" fill="#7f4fc7"/>
          <path id="Trazado_194884-2" data-name="Trazado 194884" d="M35.318,104.082a1.112,1.112,0,1,0-.326.788,1.113,1.113,0,0,0,.326-.788" transform="translate(8.111 -41.166)" fill="#7f4fc7"/>
          <path id="Trazado_194885-2" data-name="Trazado 194885" d="M43.587,104.082a1.112,1.112,0,1,0-.326.788,1.113,1.113,0,0,0,.326-.788" transform="translate(10.139 -41.166)" fill="#7f4fc7"/>
          <path id="Trazado_194886-2" data-name="Trazado 194886" d="M51.863,104.082a1.112,1.112,0,1,0-.326.788,1.113,1.113,0,0,0,.326-.788" transform="translate(12.167 -41.166)" fill="#7f4fc7"/>
          <path id="Trazado_194887-2" data-name="Trazado 194887" d="M60.136,104.082a1.113,1.113,0,1,0-1.113,1.113,1.113,1.113,0,0,0,1.113-1.113" transform="translate(14.194 -41.166)" fill="#7f4fc7"/>
          <path id="Trazado_194888-2" data-name="Trazado 194888" d="M68.409,104.082a1.112,1.112,0,1,0-.326.788,1.113,1.113,0,0,0,.326-.788" transform="translate(16.222 -41.166)" fill="#7f4fc7"/>
          <path id="Trazado_194889-2" data-name="Trazado 194889" d="M2.228,112.355a1.112,1.112,0,1,0-.326.788,1.113,1.113,0,0,0,.326-.788" transform="translate(0 -39.138)" fill="#7f4fc7"/>
          <path id="Trazado_194890-2" data-name="Trazado 194890" d="M10.5,112.355a1.112,1.112,0,1,0-.326.788,1.113,1.113,0,0,0,.326-.788" transform="translate(2.028 -39.138)" fill="#7f4fc7"/>
          <path id="Trazado_194891-2" data-name="Trazado 194891" d="M18.773,112.355a1.112,1.112,0,1,0-.326.788,1.113,1.113,0,0,0,.326-.788" transform="translate(4.056 -39.138)" fill="#7f4fc7"/>
          <path id="Trazado_194892-2" data-name="Trazado 194892" d="M27.046,112.355a1.112,1.112,0,1,0-.326.788,1.113,1.113,0,0,0,.326-.788" transform="translate(6.083 -39.138)" fill="#7f4fc7"/>
          <path id="Trazado_194893-2" data-name="Trazado 194893" d="M35.318,112.355a1.112,1.112,0,1,0-.326.788,1.113,1.113,0,0,0,.326-.788" transform="translate(8.111 -39.138)" fill="#7f4fc7"/>
          <path id="Trazado_194894-2" data-name="Trazado 194894" d="M43.587,112.355a1.112,1.112,0,1,0-.326.788,1.113,1.113,0,0,0,.326-.788" transform="translate(10.139 -39.138)" fill="#7f4fc7"/>
          <path id="Trazado_194895-2" data-name="Trazado 194895" d="M51.863,112.355a1.112,1.112,0,1,0-.326.788,1.113,1.113,0,0,0,.326-.788" transform="translate(12.167 -39.138)" fill="#7f4fc7"/>
          <path id="Trazado_194896-2" data-name="Trazado 194896" d="M60.136,112.355a1.113,1.113,0,1,0-1.113,1.113,1.113,1.113,0,0,0,1.113-1.113" transform="translate(14.194 -39.138)" fill="#7f4fc7"/>
          <path id="Trazado_194897-2" data-name="Trazado 194897" d="M68.409,112.355a1.112,1.112,0,1,0-.326.788,1.113,1.113,0,0,0,.326-.788" transform="translate(16.222 -39.138)" fill="#7f4fc7"/>
          <path id="Trazado_194898-2" data-name="Trazado 194898" d="M2.228,120.627a1.112,1.112,0,1,0-.326.788,1.113,1.113,0,0,0,.326-.788" transform="translate(0 -37.111)" fill="#7f4fc7"/>
          <path id="Trazado_194899-2" data-name="Trazado 194899" d="M10.5,120.627a1.112,1.112,0,1,0-.326.788,1.113,1.113,0,0,0,.326-.788" transform="translate(2.028 -37.111)" fill="#7f4fc7"/>
          <path id="Trazado_194900-2" data-name="Trazado 194900" d="M18.773,120.627a1.112,1.112,0,1,0-.326.788,1.113,1.113,0,0,0,.326-.788" transform="translate(4.056 -37.111)" fill="#7f4fc7"/>
          <path id="Trazado_194901-2" data-name="Trazado 194901" d="M27.046,120.627a1.112,1.112,0,1,0-.326.788,1.113,1.113,0,0,0,.326-.788" transform="translate(6.083 -37.111)" fill="#7f4fc7"/>
          <path id="Trazado_194902-2" data-name="Trazado 194902" d="M35.318,120.627a1.112,1.112,0,1,0-.326.788,1.113,1.113,0,0,0,.326-.788" transform="translate(8.111 -37.111)" fill="#7f4fc7"/>
          <path id="Trazado_194903-2" data-name="Trazado 194903" d="M43.587,120.627a1.112,1.112,0,1,0-.326.788,1.113,1.113,0,0,0,.326-.788" transform="translate(10.139 -37.111)" fill="#7f4fc7"/>
          <path id="Trazado_194904-2" data-name="Trazado 194904" d="M51.863,120.627a1.112,1.112,0,1,0-.326.788,1.113,1.113,0,0,0,.326-.788" transform="translate(12.167 -37.111)" fill="#7f4fc7"/>
          <path id="Trazado_194905-2" data-name="Trazado 194905" d="M60.136,120.627a1.113,1.113,0,1,0-1.113,1.113,1.113,1.113,0,0,0,1.113-1.113" transform="translate(14.194 -37.111)" fill="#7f4fc7"/>
          <path id="Trazado_194906-2" data-name="Trazado 194906" d="M68.409,120.627a1.112,1.112,0,1,0-.326.788,1.113,1.113,0,0,0,.326-.788" transform="translate(16.222 -37.111)" fill="#7f4fc7"/>
        </g>
      </g>
      <g id="Grupo_155254" data-name="Grupo 155254" transform="translate(28.76 403.11)">
        <g id="Grupo_154318" data-name="Grupo 154318">
          <g id="Grupo_154315" data-name="Grupo 154315" transform="translate(32.747 9.551)">
            <path id="Trazado_195058" data-name="Trazado 195058" d="M14.017,225.789H54.543a1.523,1.523,0,0,0,0-3.038H14.017a1.523,1.523,0,1,0,0,3.038" transform="translate(-12.394 -222.747)" fill="#12263f"/>
            <path id="Trazado_195059" data-name="Trazado 195059" d="M83.974,225.789H94.206a1.523,1.523,0,0,0,0-3.038H83.974a1.523,1.523,0,1,0,0,3.038" transform="translate(-35.06 -222.747)" fill="#12263f"/>
            <path id="Trazado_195064" data-name="Trazado 195064" d="M112.811,232.612H84.346a1.067,1.067,0,1,0,0,2.134h28.469a1.067,1.067,0,1,0,0-2.134" transform="translate(-35.33 -225.943)" fill="#12263f"/>
            <path id="Trazado_195065" data-name="Trazado 195065" d="M73.867,232.612H66.681a1.067,1.067,0,1,0,0,2.134h7.186a1.067,1.067,0,1,0,0-2.134" transform="translate(-29.607 -225.943)" fill="#12263f"/>
          </g>
          <g id="Grupo_154316" data-name="Grupo 154316">
            <path id="Trazado_195062" data-name="Trazado 195062" d="M161.607,1.333H113.762c-.991,0-1.793.476-1.793,1.067s.8,1.068,1.793,1.068h47.845c.991,0,1.794-.476,1.794-1.068s-.8-1.067-1.794-1.067" transform="translate(-80.777 -1.333)" fill="#12263f"/>
            <path id="Trazado_195063" data-name="Trazado 195063" d="M115.873,1.333H97.1c-1.541,0-2.787.476-2.787,1.067S95.556,3.467,97.1,3.467h18.777c1.541,0,2.787-.476,2.787-1.068s-1.247-1.067-2.787-1.067" transform="translate(-94.309 -1.333)" fill="#12263f"/>
          </g>
        </g>
      </g>
      <g id="Grupo_154801" data-name="Grupo 154801" transform="translate(0 386.815)">
        <g id="Grupo_154721" data-name="Grupo 154721" clip-path="url(#clip-path-3)">
          <line id="Línea_1878" data-name="Línea 1878" x1="21.605" y2="101.839" transform="translate(61.14 29.463)" fill="none" stroke="#1e0b4a" stroke-linecap="round" stroke-linejoin="round" stroke-width="1.052"/>
          <path id="Trazado_196481" data-name="Trazado 196481" d="M238.009,274.732a8.116,8.116,0,1,1-8.116-8.116,8.116,8.116,0,0,1,8.116,8.116" transform="translate(-147.148 -245.268)" fill="#b9bfe2"/>
          <path id="Trazado_196482" data-name="Trazado 196482" d="M250.969,334.8c-8.993,25.883-37.317,39.553-37.317,39.553s-13.743-28.29-4.749-54.171,37.317-39.552,37.317-39.552,13.743,28.289,4.749,54.17" transform="translate(-144.709 -243.048)" fill="#12263f"/>
          <path id="Trazado_196483" data-name="Trazado 196483" d="M294.477,324.773c4.17,39.347-24.428,74.631-24.428,74.631s-35.357-28.508-39.526-67.855,24.429-74.631,24.429-74.631,35.356,28.508,39.525,67.855" transform="translate(-213.683 -246.805)" fill="#b9bfe2"/>
          <path id="Trazado_196484" data-name="Trazado 196484" d="M301.225,323.107A14.827,14.827,0,1,1,286.4,308.28a14.827,14.827,0,0,1,14.827,14.827" transform="translate(-268.053 -238.666)" fill="#12263f"/>
          <line id="Línea_1879" data-name="Línea 1879" x2="14.585" y2="137.648" transform="translate(41.781 14.95)" fill="none" stroke="#1e0b4a" stroke-linecap="round" stroke-linejoin="round" stroke-width="1.052"/>
          <line id="Línea_1880" data-name="Línea 1880" y1="17.929" x2="27.876" transform="translate(50.522 79.509)" fill="none" stroke="#1e0b4a" stroke-linecap="round" stroke-linejoin="round" stroke-width="1.052"/>
          <line id="Línea_1881" data-name="Línea 1881" x1="23.957" y1="12.551" transform="translate(22.858 49.911)" fill="none" stroke="#1e0b4a" stroke-linecap="round" stroke-linejoin="round" stroke-width="1.052"/>
          <line id="Línea_1882" data-name="Línea 1882" x2="26.068" y2="53.467" transform="translate(18.345 84.441)" fill="none" stroke="#1e0b4a" stroke-linecap="round" stroke-linejoin="round" stroke-width="1.052"/>
        </g>
      </g>
      <g id="Grupo_155255" data-name="Grupo 155255" transform="translate(0.001 23.371)">
        <g id="Grupo_154317" data-name="Grupo 154317">
          <g id="Grupo_154315-2" data-name="Grupo 154315" transform="translate(47.652 8.224)">
            <path id="Trazado_195058-2" data-name="Trazado 195058" d="M14.7,227.158H73.5a2.2,2.2,0,1,0,0-4.407H14.7a2.2,2.2,0,1,0,0,4.407" transform="translate(-12.5 -222.751)" fill="#4c5066"/>
            <path id="Trazado_195059-2" data-name="Trazado 195059" d="M84.665,227.158H99.51a2.2,2.2,0,1,0,0-4.407H84.665a2.2,2.2,0,1,0,0,4.407" transform="translate(-13.851 -222.751)" fill="#4c5066"/>
            <path id="Trazado_195064-2" data-name="Trazado 195064" d="M126.12,232.612h-41.3a1.548,1.548,0,1,0,0,3.1h41.3a1.548,1.548,0,0,0,0-3.1" transform="translate(-13.866 -222.941)" fill="#4c5066"/>
            <path id="Trazado_195065-2" data-name="Trazado 195065" d="M77.591,232.612H67.161a1.548,1.548,0,1,0,0,3.1H77.591a1.548,1.548,0,0,0,0-3.1" transform="translate(-13.525 -222.941)" fill="#4c5066"/>
          </g>
          <g id="Grupo_154316-2" data-name="Grupo 154316">
            <path id="Trazado_195062-2" data-name="Trazado 195062" d="M183.977,1.333h-69.41c-1.437,0-2.6.694-2.6,1.547s1.164,1.548,2.6,1.548h69.408c1.437,0,2.6-.694,2.6-1.548s-1.166-1.547-2.6-1.547" transform="translate(-66.719 -1.333)" fill="#4c5066"/>
            <path id="Trazado_195063-2" data-name="Trazado 195063" d="M125.591,1.333H98.352c-2.234,0-4.043.694-4.043,1.547s1.808,1.548,4.043,1.548h27.239c2.234,0,4.043-.694,4.043-1.548s-1.808-1.547-4.043-1.547" transform="translate(-94.309 -1.333)" fill="#4c5066"/>
          </g>
        </g>
      </g>
      <g id="Grupo_155256" data-name="Grupo 155256" transform="translate(188.714 155.617)">
        <rect id="Rectángulo_45220" data-name="Rectángulo 45220" width="106.857" height="25.376" transform="translate(48.291) rotate(90)" fill="#474d41"/>
        <rect id="Rectángulo_45221" data-name="Rectángulo 45221" width="3.287" height="3.287" transform="translate(0 23.055) rotate(-90)" fill="#b0bda0"/>
        <rect id="Rectángulo_45222" data-name="Rectángulo 45222" width="3.287" height="3.287" transform="translate(0 30.038) rotate(-90)" fill="#b0bda0"/>
        <rect id="Rectángulo_45223" data-name="Rectángulo 45223" width="3.287" height="3.287" transform="translate(0 37.022) rotate(-90)" fill="#b0bda0"/>
        <rect id="Rectángulo_45224" data-name="Rectángulo 45224" width="3.286" height="3.287" transform="translate(0 44.005) rotate(-90)" fill="#b0bda0"/>
        <rect id="Rectángulo_45225" data-name="Rectángulo 45225" width="3.287" height="3.287" transform="translate(0 50.989) rotate(-90)" fill="#b0bda0"/>
        <rect id="Rectángulo_45226" data-name="Rectángulo 45226" width="3.286" height="3.287" transform="translate(0 57.972) rotate(-90)" fill="#b0bda0"/>
        <rect id="Rectángulo_45227" data-name="Rectángulo 45227" width="3.287" height="3.287" transform="translate(0 64.955) rotate(-90)" fill="#b0bda0"/>
        <rect id="Rectángulo_45228" data-name="Rectángulo 45228" width="3.286" height="3.287" transform="translate(0 71.939) rotate(-90)" fill="#b0bda0"/>
        <rect id="Rectángulo_45229" data-name="Rectángulo 45229" width="3.287" height="3.287" transform="translate(0 78.923) rotate(-90)" fill="#b0bda0"/>
        <rect id="Rectángulo_46135" data-name="Rectángulo 46135" width="3.287" height="3.287" transform="translate(0 99.873) rotate(-90)" fill="#b0bda0"/>
        <rect id="Rectángulo_46159" data-name="Rectángulo 46159" width="3.287" height="3.287" transform="translate(0 120.824) rotate(-90)" fill="#b0bda0"/>
        <rect id="Rectángulo_45230" data-name="Rectángulo 45230" width="3.287" height="3.287" transform="translate(0 85.906) rotate(-90)" fill="#b0bda0"/>
        <rect id="Rectángulo_46125" data-name="Rectángulo 46125" width="3.287" height="3.287" transform="translate(0 106.857) rotate(-90)" fill="#b0bda0"/>
        <rect id="Rectángulo_46160" data-name="Rectángulo 46160" width="3.287" height="3.287" transform="translate(0 127.807) rotate(-90)" fill="#b0bda0"/>
        <rect id="Rectángulo_46168" data-name="Rectángulo 46168" width="3.287" height="3.287" transform="translate(0 141.773) rotate(-90)" fill="#b0bda0"/>
        <rect id="Rectángulo_45231" data-name="Rectángulo 45231" width="3.287" height="3.287" transform="translate(0 92.889) rotate(-90)" fill="#b0bda0"/>
        <rect id="Rectángulo_46123" data-name="Rectángulo 46123" width="3.287" height="3.287" transform="translate(0 113.84) rotate(-90)" fill="#b0bda0"/>
        <rect id="Rectángulo_46161" data-name="Rectángulo 46161" width="3.287" height="3.287" transform="translate(0 134.79) rotate(-90)" fill="#b0bda0"/>
        <rect id="Rectángulo_46162" data-name="Rectángulo 46162" width="3.287" height="3.287" transform="translate(0 148.757) rotate(-90)" fill="#b0bda0"/>
        <rect id="Rectángulo_45232" data-name="Rectángulo 45232" width="3.287" height="3.287" transform="translate(6.984 23.055) rotate(-90)" fill="#b0bda0"/>
        <rect id="Rectángulo_45233" data-name="Rectángulo 45233" width="3.287" height="3.287" transform="translate(6.984 30.038) rotate(-90)" fill="#b0bda0"/>
        <rect id="Rectángulo_45234" data-name="Rectángulo 45234" width="3.287" height="3.287" transform="translate(6.984 37.022) rotate(-90)" fill="#b0bda0"/>
        <rect id="Rectángulo_45235" data-name="Rectángulo 45235" width="3.286" height="3.287" transform="translate(6.984 44.005) rotate(-90)" fill="#b0bda0"/>
        <rect id="Rectángulo_45236" data-name="Rectángulo 45236" width="3.287" height="3.287" transform="translate(6.984 50.989) rotate(-90)" fill="#b0bda0"/>
        <rect id="Rectángulo_45237" data-name="Rectángulo 45237" width="3.286" height="3.287" transform="translate(6.984 57.972) rotate(-90)" fill="#b0bda0"/>
        <rect id="Rectángulo_45238" data-name="Rectángulo 45238" width="3.287" height="3.287" transform="translate(6.984 64.955) rotate(-90)" fill="#b0bda0"/>
        <rect id="Rectángulo_45239" data-name="Rectángulo 45239" width="3.286" height="3.287" transform="translate(6.984 71.939) rotate(-90)" fill="#b0bda0"/>
        <rect id="Rectángulo_45240" data-name="Rectángulo 45240" width="3.287" height="3.287" transform="translate(6.984 78.923) rotate(-90)" fill="#b0bda0"/>
        <rect id="Rectángulo_46136" data-name="Rectángulo 46136" width="3.287" height="3.287" transform="translate(6.984 99.873) rotate(-90)" fill="#b0bda0"/>
        <rect id="Rectángulo_46156" data-name="Rectángulo 46156" width="3.287" height="3.287" transform="translate(6.984 120.824) rotate(-90)" fill="#b0bda0"/>
        <rect id="Rectángulo_45241" data-name="Rectángulo 45241" width="3.287" height="3.287" transform="translate(6.984 85.906) rotate(-90)" fill="#b0bda0"/>
        <rect id="Rectángulo_46126" data-name="Rectángulo 46126" width="3.287" height="3.287" transform="translate(6.984 106.857) rotate(-90)" fill="#b0bda0"/>
        <rect id="Rectángulo_46157" data-name="Rectángulo 46157" width="3.287" height="3.287" transform="translate(6.984 127.807) rotate(-90)" fill="#b0bda0"/>
        <rect id="Rectángulo_46169" data-name="Rectángulo 46169" width="3.287" height="3.287" transform="translate(6.984 141.773) rotate(-90)" fill="#b0bda0"/>
        <rect id="Rectángulo_45242" data-name="Rectángulo 45242" width="3.287" height="3.287" transform="translate(6.984 92.889) rotate(-90)" fill="#b0bda0"/>
        <rect id="Rectángulo_46124" data-name="Rectángulo 46124" width="3.287" height="3.287" transform="translate(6.984 113.84) rotate(-90)" fill="#b0bda0"/>
        <rect id="Rectángulo_46158" data-name="Rectángulo 46158" width="3.287" height="3.287" transform="translate(6.984 134.79) rotate(-90)" fill="#b0bda0"/>
        <rect id="Rectángulo_46163" data-name="Rectángulo 46163" width="3.287" height="3.287" transform="translate(6.984 148.757) rotate(-90)" fill="#b0bda0"/>
        <rect id="Rectángulo_45243" data-name="Rectángulo 45243" width="3.287" height="3.287" transform="translate(12.856 23.055) rotate(-90)" fill="#b0bda0"/>
        <rect id="Rectángulo_45244" data-name="Rectángulo 45244" width="3.287" height="3.287" transform="translate(12.856 30.038) rotate(-90)" fill="#b0bda0"/>
        <rect id="Rectángulo_45245" data-name="Rectángulo 45245" width="3.287" height="3.287" transform="translate(12.856 37.022) rotate(-90)" fill="#b0bda0"/>
        <rect id="Rectángulo_45246" data-name="Rectángulo 45246" width="3.286" height="3.287" transform="translate(12.856 44.005) rotate(-90)" fill="#b0bda0"/>
        <rect id="Rectángulo_45247" data-name="Rectángulo 45247" width="3.287" height="3.287" transform="translate(12.856 50.989) rotate(-90)" fill="#b0bda0"/>
        <rect id="Rectángulo_45248" data-name="Rectángulo 45248" width="3.286" height="3.287" transform="translate(12.856 57.972) rotate(-90)" fill="#b0bda0"/>
        <rect id="Rectángulo_45249" data-name="Rectángulo 45249" width="3.287" height="3.287" transform="translate(12.856 64.955) rotate(-90)" fill="#b0bda0"/>
        <rect id="Rectángulo_45250" data-name="Rectángulo 45250" width="3.286" height="3.287" transform="translate(12.856 71.939) rotate(-90)" fill="#b0bda0"/>
        <rect id="Rectángulo_45251" data-name="Rectángulo 45251" width="3.287" height="3.287" transform="translate(12.856 78.923) rotate(-90)" fill="#b0bda0"/>
        <rect id="Rectángulo_46137" data-name="Rectángulo 46137" width="3.287" height="3.287" transform="translate(12.856 99.873) rotate(-90)" fill="#b0bda0"/>
        <rect id="Rectángulo_46146" data-name="Rectángulo 46146" width="3.287" height="3.287" transform="translate(12.856 120.824) rotate(-90)" fill="#b0bda0"/>
        <rect id="Rectángulo_45252" data-name="Rectángulo 45252" width="3.287" height="3.287" transform="translate(12.856 85.906) rotate(-90)" fill="#b0bda0"/>
        <rect id="Rectángulo_46127" data-name="Rectángulo 46127" width="3.287" height="3.287" transform="translate(12.856 106.857) rotate(-90)" fill="#b0bda0"/>
        <rect id="Rectángulo_46147" data-name="Rectángulo 46147" width="3.287" height="3.287" transform="translate(12.856 127.807) rotate(-90)" fill="#b0bda0"/>
        <rect id="Rectángulo_46170" data-name="Rectángulo 46170" width="3.287" height="3.287" transform="translate(12.856 141.773) rotate(-90)" fill="#b0bda0"/>
        <rect id="Rectángulo_45253" data-name="Rectángulo 45253" width="3.287" height="3.287" transform="translate(12.856 92.889) rotate(-90)" fill="#b0bda0"/>
        <rect id="Rectángulo_46128" data-name="Rectángulo 46128" width="3.287" height="3.287" transform="translate(12.856 113.84) rotate(-90)" fill="#b0bda0"/>
        <rect id="Rectángulo_46148" data-name="Rectángulo 46148" width="3.287" height="3.287" transform="translate(12.856 134.79) rotate(-90)" fill="#b0bda0"/>
        <rect id="Rectángulo_46164" data-name="Rectángulo 46164" width="3.287" height="3.287" transform="translate(12.856 148.757) rotate(-90)" fill="#b0bda0"/>
        <rect id="Rectángulo_45221-2" data-name="Rectángulo 45221" width="3.287" height="3.287" transform="translate(18.747 23.055) rotate(-90)" fill="#b0bda0"/>
        <rect id="Rectángulo_45222-2" data-name="Rectángulo 45222" width="3.287" height="3.287" transform="translate(18.747 30.038) rotate(-90)" fill="#b0bda0"/>
        <rect id="Rectángulo_45223-2" data-name="Rectángulo 45223" width="3.287" height="3.287" transform="translate(18.747 37.022) rotate(-90)" fill="#b0bda0"/>
        <rect id="Rectángulo_45224-2" data-name="Rectángulo 45224" width="3.286" height="3.287" transform="translate(18.747 44.005) rotate(-90)" fill="#b0bda0"/>
        <rect id="Rectángulo_45225-2" data-name="Rectángulo 45225" width="3.287" height="3.287" transform="translate(18.747 50.989) rotate(-90)" fill="#b0bda0"/>
        <rect id="Rectángulo_45226-2" data-name="Rectángulo 45226" width="3.286" height="3.287" transform="translate(18.747 57.972) rotate(-90)" fill="#b0bda0"/>
        <rect id="Rectángulo_45227-2" data-name="Rectángulo 45227" width="3.287" height="3.287" transform="translate(18.747 64.955) rotate(-90)" fill="#b0bda0"/>
        <rect id="Rectángulo_45228-2" data-name="Rectángulo 45228" width="3.286" height="3.287" transform="translate(18.747 71.939) rotate(-90)" fill="#b0bda0"/>
        <rect id="Rectángulo_45229-2" data-name="Rectángulo 45229" width="3.287" height="3.287" transform="translate(18.747 78.923) rotate(-90)" fill="#b0bda0"/>
        <rect id="Rectángulo_46138" data-name="Rectángulo 46138" width="3.287" height="3.287" transform="translate(18.747 99.873) rotate(-90)" fill="#b0bda0"/>
        <rect id="Rectángulo_46149" data-name="Rectángulo 46149" width="3.287" height="3.287" transform="translate(18.747 120.824) rotate(-90)" fill="#b0bda0"/>
        <rect id="Rectángulo_45230-2" data-name="Rectángulo 45230" width="3.287" height="3.287" transform="translate(18.747 85.906) rotate(-90)" fill="#b0bda0"/>
        <rect id="Rectángulo_46129" data-name="Rectángulo 46129" width="3.287" height="3.287" transform="translate(18.747 106.857) rotate(-90)" fill="#b0bda0"/>
        <rect id="Rectángulo_46150" data-name="Rectángulo 46150" width="3.287" height="3.287" transform="translate(18.747 127.807) rotate(-90)" fill="#b0bda0"/>
        <rect id="Rectángulo_46171" data-name="Rectángulo 46171" width="3.287" height="3.287" transform="translate(18.747 141.773) rotate(-90)" fill="#b0bda0"/>
        <rect id="Rectángulo_45231-2" data-name="Rectángulo 45231" width="3.287" height="3.287" transform="translate(18.747 92.889) rotate(-90)" fill="#b0bda0"/>
        <rect id="Rectángulo_46130" data-name="Rectángulo 46130" width="3.287" height="3.287" transform="translate(18.747 113.84) rotate(-90)" fill="#b0bda0"/>
        <rect id="Rectángulo_46151" data-name="Rectángulo 46151" width="3.287" height="3.287" transform="translate(18.747 134.79) rotate(-90)" fill="#b0bda0"/>
        <rect id="Rectángulo_46165" data-name="Rectángulo 46165" width="3.287" height="3.287" transform="translate(18.747 148.757) rotate(-90)" fill="#b0bda0"/>
        <rect id="Rectángulo_45232-2" data-name="Rectángulo 45232" width="3.287" height="3.287" transform="translate(25.175 23.055) rotate(-90)" fill="#b0bda0"/>
        <rect id="Rectángulo_45233-2" data-name="Rectángulo 45233" width="3.287" height="3.287" transform="translate(25.175 30.038) rotate(-90)" fill="#b0bda0"/>
        <rect id="Rectángulo_45234-2" data-name="Rectángulo 45234" width="3.287" height="3.287" transform="translate(25.175 37.022) rotate(-90)" fill="#b0bda0"/>
        <rect id="Rectángulo_45235-2" data-name="Rectángulo 45235" width="3.286" height="3.287" transform="translate(25.175 44.005) rotate(-90)" fill="#b0bda0"/>
        <rect id="Rectángulo_45236-2" data-name="Rectángulo 45236" width="3.287" height="3.287" transform="translate(25.175 50.989) rotate(-90)" fill="#b0bda0"/>
        <rect id="Rectángulo_45237-2" data-name="Rectángulo 45237" width="3.286" height="3.287" transform="translate(25.175 57.972) rotate(-90)" fill="#b0bda0"/>
        <rect id="Rectángulo_45238-2" data-name="Rectángulo 45238" width="3.287" height="3.287" transform="translate(25.175 64.955) rotate(-90)" fill="#b0bda0"/>
        <rect id="Rectángulo_45239-2" data-name="Rectángulo 45239" width="3.286" height="3.287" transform="translate(25.175 71.939) rotate(-90)" fill="#b0bda0"/>
        <rect id="Rectángulo_45240-2" data-name="Rectángulo 45240" width="3.287" height="3.287" transform="translate(25.175 78.923) rotate(-90)" fill="#b0bda0"/>
        <rect id="Rectángulo_46139" data-name="Rectángulo 46139" width="3.287" height="3.287" transform="translate(25.175 99.873) rotate(-90)" fill="#b0bda0"/>
        <rect id="Rectángulo_46152" data-name="Rectángulo 46152" width="3.287" height="3.287" transform="translate(25.175 120.824) rotate(-90)" fill="#b0bda0"/>
        <rect id="Rectángulo_45241-2" data-name="Rectángulo 45241" width="3.287" height="3.287" transform="translate(25.175 85.906) rotate(-90)" fill="#b0bda0"/>
        <rect id="Rectángulo_46131" data-name="Rectángulo 46131" width="3.287" height="3.287" transform="translate(25.175 106.857) rotate(-90)" fill="#b0bda0"/>
        <rect id="Rectángulo_46153" data-name="Rectángulo 46153" width="3.287" height="3.287" transform="translate(25.175 127.807) rotate(-90)" fill="#b0bda0"/>
        <rect id="Rectángulo_46172" data-name="Rectángulo 46172" width="3.287" height="3.287" transform="translate(25.175 141.773) rotate(-90)" fill="#b0bda0"/>
        <rect id="Rectángulo_45242-2" data-name="Rectángulo 45242" width="3.287" height="3.287" transform="translate(25.175 92.889) rotate(-90)" fill="#b0bda0"/>
        <rect id="Rectángulo_46132" data-name="Rectángulo 46132" width="3.287" height="3.287" transform="translate(25.175 113.84) rotate(-90)" fill="#b0bda0"/>
        <rect id="Rectángulo_46154" data-name="Rectángulo 46154" width="3.287" height="3.287" transform="translate(25.175 134.79) rotate(-90)" fill="#b0bda0"/>
        <rect id="Rectángulo_46166" data-name="Rectángulo 46166" width="3.287" height="3.287" transform="translate(25.175 148.757) rotate(-90)" fill="#b0bda0"/>
        <rect id="Rectángulo_45243-2" data-name="Rectángulo 45243" width="3.287" height="3.287" transform="translate(31.603 23.055) rotate(-90)" fill="#b0bda0"/>
        <rect id="Rectángulo_45244-2" data-name="Rectángulo 45244" width="3.287" height="3.287" transform="translate(31.603 30.038) rotate(-90)" fill="#b0bda0"/>
        <rect id="Rectángulo_45245-2" data-name="Rectángulo 45245" width="3.287" height="3.287" transform="translate(31.603 37.022) rotate(-90)" fill="#b0bda0"/>
        <rect id="Rectángulo_45246-2" data-name="Rectángulo 45246" width="3.286" height="3.287" transform="translate(31.603 44.005) rotate(-90)" fill="#b0bda0"/>
        <rect id="Rectángulo_45247-2" data-name="Rectángulo 45247" width="3.287" height="3.287" transform="translate(31.603 50.989) rotate(-90)" fill="#b0bda0"/>
        <rect id="Rectángulo_45248-2" data-name="Rectángulo 45248" width="3.286" height="3.287" transform="translate(31.603 57.972) rotate(-90)" fill="#b0bda0"/>
        <rect id="Rectángulo_45249-2" data-name="Rectángulo 45249" width="3.287" height="3.287" transform="translate(31.603 64.955) rotate(-90)" fill="#b0bda0"/>
        <rect id="Rectángulo_45250-2" data-name="Rectángulo 45250" width="3.286" height="3.287" transform="translate(31.603 71.939) rotate(-90)" fill="#b0bda0"/>
        <rect id="Rectángulo_45251-2" data-name="Rectángulo 45251" width="3.287" height="3.287" transform="translate(31.603 78.923) rotate(-90)" fill="#b0bda0"/>
        <rect id="Rectángulo_46140" data-name="Rectángulo 46140" width="3.287" height="3.287" transform="translate(31.603 99.873) rotate(-90)" fill="#b0bda0"/>
        <rect id="Rectángulo_46144" data-name="Rectángulo 46144" width="3.287" height="3.287" transform="translate(31.603 120.824) rotate(-90)" fill="#b0bda0"/>
        <rect id="Rectángulo_45252-2" data-name="Rectángulo 45252" width="3.287" height="3.287" transform="translate(31.603 85.906) rotate(-90)" fill="#b0bda0"/>
        <rect id="Rectángulo_46133" data-name="Rectángulo 46133" width="3.287" height="3.287" transform="translate(31.603 106.857) rotate(-90)" fill="#b0bda0"/>
        <rect id="Rectángulo_46145" data-name="Rectángulo 46145" width="3.287" height="3.287" transform="translate(31.603 127.807) rotate(-90)" fill="#b0bda0"/>
        <rect id="Rectángulo_46173" data-name="Rectángulo 46173" width="3.287" height="3.287" transform="translate(31.603 141.773) rotate(-90)" fill="#b0bda0"/>
        <rect id="Rectángulo_45253-2" data-name="Rectángulo 45253" width="3.287" height="3.287" transform="translate(31.603 92.889) rotate(-90)" fill="#b0bda0"/>
        <rect id="Rectángulo_46134" data-name="Rectángulo 46134" width="3.287" height="3.287" transform="translate(31.603 113.84) rotate(-90)" fill="#b0bda0"/>
        <rect id="Rectángulo_46155" data-name="Rectángulo 46155" width="3.287" height="3.287" transform="translate(31.603 134.79) rotate(-90)" fill="#b0bda0"/>
        <rect id="Rectángulo_46167" data-name="Rectángulo 46167" width="3.287" height="3.287" transform="translate(31.603 148.757) rotate(-90)" fill="#b0bda0"/>
      </g>
    </g>
    <g id="OBJECTS" transform="translate(63.545 0)">
      <g id="Grupo_1122072" data-name="Grupo 1122072">
        <g id="Grupo_1122066" data-name="Grupo 1122066" transform="translate(0 350.522)">
          <g id="Grupo_1122059" data-name="Grupo 1122059" transform="translate(0 112.536)">
            <path id="Trazado_911404" data-name="Trazado 911404" d="M0,1290.012v-11.518l168.543-1.044-.243,12.562Z" transform="translate(0 -1248.252)" fill="#bac36a"/>
            <path id="Trazado_911405" data-name="Trazado 911405" d="M6.609,1249.3c15.337-12.763,50.322-23.984,110.514-16.319,39.2,4.99,59.679,20.154,48.365,33.352-13.753,16.046-53.775,21.745-112.729,16.435-40.569-3.653-65.32-17.518-46.145-33.471Z" transform="translate(-0.005 -1219.378)" fill="#bac36a"/>
            <path id="Trazado_911406" data-name="Trazado 911406" d="M6.609,1220.5c15.337-12.763,50.322-23.984,110.514-16.316,39.2,4.994,59.679,20.154,48.365,33.352-13.753,16.046-53.775,21.745-112.729,16.435-40.569-3.653-65.32-17.518-46.145-33.471Z" transform="translate(-0.005 -1201.679)" fill="#d4e157"/>
            <path id="Trazado_911407" data-name="Trazado 911407" d="M109.772,1257.691c-10.243,0-21.506-.551-33.726-1.649-25.421-2.289-42.912-9.179-45.656-17.976-1.649-5.287,2.185-9.872,5.692-12.793h0c8.231-6.848,33.964-21.938,94.984-14.169,23.741,3.025,40.689,10.6,44.226,19.788,1.4,3.645.62,7.352-2.27,10.72-6.019,7.021-17.568,11.811-34.323,14.239a203.621,203.621,0,0,1-28.928,1.838Zm-72.017-30.411c-4.208,3.5-5.85,6.871-4.871,10.007,2.385,7.653,19.418,13.992,43.4,16.154,49.787,4.485,83.439-.32,94.761-13.526,2.258-2.632,2.867-5.353,1.815-8.085-3.144-8.158-19.676-15.279-42.118-18.134-23.29-2.967-43.775-2.828-60.889.412-17.4,3.295-27.055,8.983-32.1,13.175h0Z" transform="translate(-18.437 -1206.139)" fill="#fff"/>
          </g>
          <g id="Grupo_1122060" data-name="Grupo 1122060" transform="translate(0 99.843)">
            <path id="Trazado_911408" data-name="Trazado 911408" d="M0,1257.066v-11.522l168.543-1.044-.243,12.566Z" transform="translate(0 -1215.306)" fill="#bac36a"/>
            <path id="Trazado_911409" data-name="Trazado 911409" d="M6.609,1216.35c15.337-12.763,50.322-23.984,110.514-16.316,39.2,4.99,59.679,20.154,48.365,33.352-13.753,16.046-53.775,21.745-112.729,16.435-40.569-3.653-65.32-17.518-46.145-33.471Z" transform="translate(-0.005 -1186.436)" fill="#bac36a"/>
            <path id="Trazado_911410" data-name="Trazado 911410" d="M6.609,1187.561c15.337-12.759,50.322-23.984,110.514-16.316,39.2,4.994,59.679,20.154,48.365,33.352-13.753,16.046-53.775,21.745-112.729,16.435-40.569-3.653-65.32-17.518-46.145-33.471Z" transform="translate(-0.005 -1168.741)" fill="#d4e157"/>
            <path id="Trazado_911411" data-name="Trazado 911411" d="M109.782,1224.749c-10.243,0-21.506-.551-33.726-1.649-25.417-2.289-42.912-9.175-45.656-17.976-1.649-5.287,2.185-9.873,5.692-12.793l.836,1-.836-1c8.231-6.848,33.964-21.942,94.984-14.169,23.741,3.025,40.689,10.6,44.226,19.787,1.4,3.645.62,7.352-2.27,10.72-6.019,7.021-17.568,11.811-34.323,14.238a203.658,203.658,0,0,1-28.928,1.838Zm-10.439-46.122a159.107,159.107,0,0,0-29.487,2.536c-17.4,3.295-27.055,8.982-32.1,13.175-4.208,3.5-5.85,6.871-4.871,10.007,2.385,7.653,19.418,13.992,43.394,16.154,49.787,4.486,83.439-.32,94.761-13.526,2.258-2.632,2.867-5.352,1.815-8.084-3.144-8.158-19.676-15.275-42.118-18.135a249.371,249.371,0,0,0-31.406-2.127Z" transform="translate(-18.443 -1173.197)" fill="#fff"/>
          </g>
          <g id="Grupo_1122061" data-name="Grupo 1122061" transform="translate(0 82.258)">
            <path id="Trazado_911412" data-name="Trazado 911412" d="M0,1211.442v-11.518l168.543-1.044-.243,12.562Z" transform="translate(0 -1169.68)" fill="#bac36a"/>
            <path id="Trazado_911413" data-name="Trazado 911413" d="M6.609,1170.73c15.337-12.763,50.322-23.984,110.514-16.316,39.2,4.994,59.679,20.154,48.365,33.352-13.753,16.046-53.775,21.745-112.729,16.435-40.569-3.653-65.32-17.518-46.145-33.471Z" transform="translate(-0.005 -1140.81)" fill="#bac36a"/>
            <path id="Trazado_911414" data-name="Trazado 911414" d="M6.609,1141.927c15.337-12.763,50.322-23.984,110.514-16.319,39.2,4.994,59.679,20.154,48.365,33.352-13.753,16.046-53.775,21.745-112.729,16.435-40.569-3.653-65.32-17.518-46.145-33.471Z" transform="translate(-0.005 -1123.105)" fill="#d4e157"/>
            <path id="Trazado_911415" data-name="Trazado 911415" d="M109.782,1179.118c-10.243,0-21.506-.551-33.726-1.649-25.417-2.289-42.912-9.179-45.656-17.976-1.649-5.287,2.185-9.876,5.692-12.794l.836,1-.836-1c8.231-6.848,33.964-21.942,94.984-14.169,23.741,3.025,40.689,10.6,44.226,19.788,1.4,3.645.62,7.352-2.27,10.72-6.019,7.021-17.568,11.811-34.323,14.243a203.66,203.66,0,0,1-28.928,1.838ZM99.343,1133a159.107,159.107,0,0,0-29.487,2.536c-17.4,3.295-27.055,8.983-32.1,13.175-4.208,3.5-5.85,6.871-4.871,10.007,2.385,7.653,19.418,13.992,43.394,16.154,49.787,4.485,83.439-.32,94.761-13.526,2.258-2.632,2.867-5.352,1.815-8.085-3.144-8.158-19.676-15.275-42.118-18.134A249.373,249.373,0,0,0,99.335,1133Z" transform="translate(-18.443 -1127.565)" fill="#fff"/>
          </g>
          <g id="Grupo_1122062" data-name="Grupo 1122062" transform="translate(1.996 60.698)">
            <path id="Trazado_911416" data-name="Trazado 911416" d="M5.18,1155.482v-11.518l168.539-1.044-.239,12.562Z" transform="translate(-5.18 -1113.724)" fill="#bac36a"/>
            <path id="Trazado_911417" data-name="Trazado 911417" d="M11.789,1114.77c15.337-12.763,50.322-23.984,110.514-16.316,39.2,4.99,59.679,20.154,48.365,33.352-13.753,16.042-53.771,21.745-112.729,16.435-40.569-3.653-65.32-17.518-46.145-33.471Z" transform="translate(-5.185 -1084.853)" fill="#bac36a"/>
            <path id="Trazado_911418" data-name="Trazado 911418" d="M11.789,1085.977c15.337-12.763,50.322-23.984,110.514-16.319,39.2,4.994,59.679,20.154,48.365,33.352-13.753,16.046-53.771,21.745-112.729,16.435-40.569-3.653-65.32-17.518-46.145-33.471Z" transform="translate(-5.185 -1067.155)" fill="#d4e157"/>
            <path id="Trazado_911419" data-name="Trazado 911419" d="M114.952,1123.161c-10.243,0-21.506-.551-33.726-1.649-25.417-2.289-42.912-9.175-45.656-17.976-1.649-5.287,2.185-9.873,5.692-12.793l.836,1-.836-1c8.231-6.848,33.961-21.938,94.984-14.169,23.741,3.025,40.689,10.6,44.226,19.788,1.4,3.641.62,7.352-2.27,10.72-6.019,7.021-17.568,11.811-34.323,14.242a203.639,203.639,0,0,1-28.928,1.838Zm-10.439-46.122a159.117,159.117,0,0,0-29.487,2.536c-17.4,3.291-27.055,8.983-32.1,13.175-4.208,3.5-5.846,6.871-4.871,10.007,2.385,7.653,19.418,13.992,43.394,16.154,49.787,4.485,83.439-.32,94.761-13.526,2.258-2.632,2.867-5.352,1.815-8.084-3.144-8.158-19.676-15.279-42.118-18.135a249.36,249.36,0,0,0-31.4-2.127Z" transform="translate(-23.617 -1071.611)" fill="#fff"/>
            <path id="Trazado_911420" data-name="Trazado 911420" d="M162.473,1126.857l1.16-1.68c.42-.613-.659-1.222-2.482-1.422a78,78,0,0,1-11.229-2c-1.426-.389-1.742-1.06-.759-1.572l.678-.355a9.351,9.351,0,0,1,5.518-.3,72.636,72.636,0,0,0,12.659,1.992c8.366.613,13.437-.94,14.986-3.191,1.5-2.17-.478-3.5-8.381-5.322-10.928-2.455-21.564-5.141-19.2-8.574,2.062-2.994,9.8-5.6,23.776-4.728,1.669.1,3.141-.408,3.511-.948l1.268-1.842c.451-.659,2.455-1.071,4.47-.921h0c2.019.146,3.287.8,2.832,1.457l-1.06,1.538c-.412.6.609,1.21,2.389,1.414a69.832,69.832,0,0,1,8.551,1.453c1.572.381,1.946,1.1.882,1.634l-.671.339a9.4,9.4,0,0,1-5.356.308,67.324,67.324,0,0,0-10.847-1.584c-9.071-.663-13.738.9-14.828,2.482-1.414,2.05,4.8,2.713,14.073,4.882,10.99,2.543,17.048,5.437,15.637,9.005-1.507,3.807-10.034,5.919-25.294,5.58-1.7-.038-3.144.409-3.514.948l-1.353,1.961c-.451.655-2.455,1.067-4.474.921l-.116-.008c-2.019-.146-3.287-.8-2.832-1.457Z" transform="translate(-93.331 -1084.86)" fill="#fff"/>
          </g>
          <g id="Grupo_1122063" data-name="Grupo 1122063" transform="translate(3.829 40.735)">
            <path id="Trazado_911421" data-name="Trazado 911421" d="M9.95,1103.672v-11.518l168.539-1.044-.239,12.562Z" transform="translate(-9.945 -1061.916)" fill="#bac36a"/>
            <path id="Trazado_911422" data-name="Trazado 911422" d="M16.543,1062.96c15.337-12.763,50.322-23.984,110.514-16.316,39.2,4.994,59.679,20.154,48.361,33.352-13.753,16.046-53.771,21.745-112.729,16.435-40.569-3.653-65.32-17.518-46.145-33.471Z" transform="translate(-9.938 -1033.046)" fill="#bac36a"/>
            <path id="Trazado_911423" data-name="Trazado 911423" d="M16.543,1034.171c15.337-12.759,50.322-23.984,110.514-16.315,39.2,4.994,59.679,20.154,48.361,33.352-13.753,16.046-53.771,21.745-112.729,16.435-40.569-3.653-65.32-17.518-46.145-33.471Z" transform="translate(-9.938 -1015.35)" fill="#d4e157"/>
            <path id="Trazado_911424" data-name="Trazado 911424" d="M119.722,1071.355c-10.243,0-21.506-.551-33.726-1.649-25.417-2.289-42.912-9.175-45.656-17.976-1.649-5.287,2.185-9.873,5.692-12.79h0c8.231-6.848,33.961-21.942,94.984-14.169,23.741,3.025,40.689,10.6,44.226,19.788,1.4,3.645.62,7.352-2.27,10.72-6.019,7.021-17.568,11.811-34.323,14.239a203.66,203.66,0,0,1-28.928,1.838ZM47.7,1040.943c-4.208,3.5-5.85,6.871-4.871,10.007,2.385,7.653,19.418,13.992,43.394,16.154,49.787,4.485,83.439-.32,94.761-13.526,2.258-2.632,2.867-5.352,1.815-8.084-3.144-8.158-19.676-15.275-42.118-18.135-23.286-2.967-43.775-2.828-60.889.412-17.4,3.295-27.055,8.982-32.1,13.175h0Z" transform="translate(-28.382 -1019.807)" fill="#fff"/>
            <path id="Trazado_911425" data-name="Trazado 911425" d="M167.243,1075.035l1.16-1.684c.42-.613-.659-1.222-2.482-1.422a78.1,78.1,0,0,1-11.229-2c-1.426-.385-1.742-1.06-.759-1.572l.678-.354a9.379,9.379,0,0,1,5.518-.308,72.563,72.563,0,0,0,12.659,1.992c8.366.613,13.437-.94,14.986-3.191,1.5-2.169-.478-3.5-8.381-5.322-10.928-2.455-21.564-5.141-19.2-8.574,2.062-2.99,9.8-5.6,23.78-4.728,1.669.1,3.137-.408,3.511-.948l1.268-1.842c.451-.659,2.455-1.071,4.474-.921h0c2.015.146,3.283.8,2.832,1.457l-1.06,1.538c-.412.6.605,1.21,2.389,1.414a69.833,69.833,0,0,1,8.551,1.453c1.572.381,1.946,1.1.882,1.634l-.671.339a9.417,9.417,0,0,1-5.36.308,67.3,67.3,0,0,0-10.847-1.584c-9.071-.663-13.738.9-14.828,2.482-1.414,2.05,4.8,2.713,14.069,4.882,10.994,2.543,17.048,5.437,15.637,9.005-1.507,3.807-10.034,5.919-25.294,5.58-1.7-.039-3.144.408-3.514.952l-1.353,1.961c-.451.655-2.455,1.071-4.47.921l-.119-.008c-2.015-.146-3.287-.8-2.832-1.457Z" transform="translate(-98.096 -1033.04)" fill="#fff"/>
          </g>
          <g id="Grupo_1122064" data-name="Grupo 1122064" transform="translate(20.376 23.54)">
            <path id="Trazado_911426" data-name="Trazado 911426" d="M52.89,1059.056v-11.522l168.539-1.044-.239,12.566Z" transform="translate(-52.885 -1017.296)" fill="#bac36a"/>
            <path id="Trazado_911427" data-name="Trazado 911427" d="M59.483,1018.341c15.337-12.759,50.322-23.984,110.514-16.316,39.2,4.994,59.679,20.154,48.365,33.352-13.753,16.046-53.775,21.745-112.733,16.435-40.569-3.653-65.32-17.518-46.145-33.471Z" transform="translate(-52.878 -988.426)" fill="#bac36a"/>
            <path id="Trazado_911428" data-name="Trazado 911428" d="M59.483,989.55C74.82,976.787,109.806,965.566,170,973.234c39.2,4.994,59.679,20.154,48.365,33.352-13.753,16.046-53.775,21.745-112.733,16.435-40.569-3.653-65.32-17.518-46.145-33.471Z" transform="translate(-52.878 -970.729)" fill="#d4e157"/>
            <path id="Trazado_911429" data-name="Trazado 911429" d="M162.662,1026.731c-10.243,0-21.506-.551-33.726-1.649-25.417-2.289-42.912-9.179-45.656-17.977-1.649-5.287,2.185-9.873,5.692-12.794,8.231-6.848,33.961-21.938,94.984-14.169,23.741,3.025,40.689,10.6,44.226,19.788,1.4,3.645.617,7.352-2.27,10.72-6.019,7.021-17.568,11.811-34.323,14.239a203.641,203.641,0,0,1-28.928,1.838Zm-10.439-46.122a159.106,159.106,0,0,0-29.487,2.536c-17.4,3.291-27.055,8.982-32.1,13.171h0c-4.208,3.5-5.85,6.871-4.871,10.007,2.385,7.653,19.418,13.992,43.394,16.154,49.787,4.485,83.439-.32,94.761-13.526,2.258-2.632,2.867-5.352,1.815-8.085-3.144-8.158-19.676-15.275-42.118-18.134a249.383,249.383,0,0,0-31.406-2.127Z" transform="translate(-71.322 -975.183)" fill="#fff"/>
          </g>
          <g id="Grupo_1122065" data-name="Grupo 1122065" transform="translate(16.7)">
            <path id="Trazado_911430" data-name="Trazado 911430" d="M43.34,997.962V986.444L211.879,985.4l-.239,12.562Z" transform="translate(-43.339 -956.206)" fill="#bac36a"/>
            <path id="Trazado_911431" data-name="Trazado 911431" d="M49.939,957.247c15.337-12.763,50.322-23.984,110.514-16.319,39.2,4.994,59.679,20.154,48.365,33.352-13.753,16.046-53.771,21.745-112.729,16.435-40.569-3.653-65.32-17.518-46.145-33.471Z" transform="translate(-43.338 -927.333)" fill="#bac36a"/>
            <path id="Trazado_911432" data-name="Trazado 911432" d="M49.939,928.461c15.337-12.759,50.322-23.984,110.514-16.316,39.2,4.994,59.679,20.154,48.365,33.352-13.753,16.046-53.771,21.745-112.729,16.435-40.569-3.653-65.32-17.518-46.145-33.471Z" transform="translate(-43.338 -909.641)" fill="#d4e157"/>
            <path id="Trazado_911433" data-name="Trazado 911433" d="M153.112,965.641c-10.243,0-21.506-.551-33.726-1.649-25.417-2.289-42.912-9.175-45.656-17.976-1.649-5.287,2.185-9.873,5.692-12.793l.836,1-.836-1c8.231-6.848,33.961-21.938,94.984-14.169,23.741,3.025,40.689,10.6,44.226,19.788,1.4,3.642.62,7.352-2.27,10.72-6.019,7.021-17.568,11.811-34.323,14.238a203.64,203.64,0,0,1-28.928,1.838Zm-10.439-46.122a159.106,159.106,0,0,0-29.487,2.536c-17.4,3.295-27.055,8.982-32.1,13.175-4.208,3.5-5.846,6.871-4.871,10.007,2.385,7.653,19.418,13.992,43.394,16.154,49.791,4.485,83.439-.32,94.761-13.526,2.258-2.632,2.867-5.352,1.815-8.085-3.144-8.158-19.676-15.279-42.118-18.134a249.361,249.361,0,0,0-31.4-2.127Z" transform="translate(-61.776 -914.093)" fill="#fff"/>
            <path id="Trazado_911434" data-name="Trazado 911434" d="M200.633,969.337l1.16-1.68c.42-.613-.659-1.222-2.482-1.422a78.015,78.015,0,0,1-11.229-2c-1.426-.389-1.742-1.06-.759-1.572l.678-.354a9.351,9.351,0,0,1,5.518-.3A72.629,72.629,0,0,0,206.178,964c8.366.613,13.437-.94,14.986-3.191,1.5-2.169-.478-3.5-8.377-5.322-10.928-2.455-21.564-5.141-19.2-8.574,2.062-2.99,9.8-5.6,23.776-4.728,1.669.1,3.141-.408,3.51-.948l1.268-1.842c.455-.659,2.455-1.071,4.47-.921h0c2.015.146,3.287.8,2.832,1.457l-1.06,1.537c-.412.6.609,1.21,2.389,1.414a69.817,69.817,0,0,1,8.551,1.453c1.572.381,1.946,1.1.882,1.634l-.671.339a9.417,9.417,0,0,1-5.36.308,67.294,67.294,0,0,0-10.847-1.584c-9.071-.663-13.738.9-14.828,2.482-1.414,2.05,4.8,2.713,14.073,4.882,10.99,2.543,17.048,5.437,15.637,9.006-1.5,3.807-10.034,5.919-25.294,5.58-1.7-.039-3.144.408-3.514.948l-1.353,1.961c-.455.655-2.455,1.071-4.474.921l-.116-.008c-2.019-.146-3.287-.8-2.832-1.457Z" transform="translate(-131.49 -927.342)" fill="#fff"/>
          </g>
        </g>
        <g id="Grupo_1122071" data-name="Grupo 1122071" transform="translate(16.011)">
          <path id="Trazado_911435" data-name="Trazado 911435" d="M59.652,298.161s-14.235-.655-16.5-22.5c-2.331-22.45,23.418,0,23.418,0Z" transform="translate(-42.442 -163.309)" fill="#ffa189"/>
          <path id="Trazado_911436" data-name="Trazado 911436" d="M87.462,164.13c-.867.343-15.275,4.247-21.656,25.976s15.036,4.6,15.036,4.6l6.616-30.573Z" transform="translate(-55.729 -100.887)" fill="#ffa189"/>
          <path id="Trazado_911437" data-name="Trazado 911437" d="M138.663,941.06s-.2,7.811-5.48,10.011-20.6,4.193-14.874,9.214c3.283,2.882,18.755,1.021,23.121,1.021s8.47,1.9,11.715-1.021c3.572-3.218,0-19.225,0-19.225a17.43,17.43,0,0,1-7.16,1.877c-4.886-.127-7.325-1.877-7.325-1.877Z" transform="translate(-87.955 -578.43)" fill="#183e41"/>
          <path id="Trazado_911438" data-name="Trazado 911438" d="M296.153,941.044s-.2,7.811-5.48,10.011-20.6,4.193-14.874,9.214c3.283,2.882,18.755,1.017,23.125,1.017s8.47,1.9,11.715-1.021c3.572-3.218,0-19.225,0-19.225a17.431,17.431,0,0,1-7.16,1.877c-4.886-.127-7.325-1.877-7.325-1.877Z" transform="translate(-184.757 -578.418)" fill="#183e41"/>
          <path id="Trazado_911439" data-name="Trazado 911439" d="M71.171,385.46s-.979,32.689,9.456,95.4c7.534,45.274,16.423,90.9,20.789,112.768a17.065,17.065,0,0,0,15.938,13.857l4.193.17a14.321,14.321,0,0,0,14.659-15.514L125.621,444.175l-2.609-48.7L71.171,385.464Z" transform="translate(-59.741 -236.929)" fill="#b1b0c5"/>
          <path id="Trazado_911440" data-name="Trazado 911440" d="M160.921,433.419c-.482,3.981-22.978,3.5-50.527.008s-48.989-9.453-48.507-13.433,22.7-4.462,50.249-.975,49.263,10.42,48.785,14.4Z" transform="translate(-54.045 -256.117)" fill="#183e41"/>
          <path id="Trazado_911441" data-name="Trazado 911441" d="M153.257,441.173l58.808,188.916a18.956,18.956,0,0,0,17.691,13.464l3.534.062A13.419,13.419,0,0,0,246.5,627.642l-32.169-177.51a5.834,5.834,0,0,0-4.058-4.374c-11.032-3.183-58.091-12.4-57.008-4.586Z" transform="translate(-110.202 -269.29)" fill="#b1b0c5"/>
          <path id="Trazado_911442" data-name="Trazado 911442" d="M151.742,144.3s-7.826-22.015-35.7-21.013S67.124,160.916,61.91,239.642c0,0,45.644-10.007,99.115,13.341,0,0,2.963-76.6-9.279-108.683Z" transform="translate(-54.064 -75.763)" fill="#bfc9ff"/>
          <path id="Trazado_911443" data-name="Trazado 911443" d="M187.034,142.769l-19.749,12.639s-50.758,5.079-64.233,2.632S87.48,145.686,87.48,145.686a62.572,62.572,0,0,1,37.213-21.949,67.165,67.165,0,0,1,7.067-.659,69.61,69.61,0,0,1,12.331.27c24.1,2.6,42.943,19.418,42.943,19.418Z" transform="translate(-69.781 -75.557)" fill="#bfc9ff"/>
          <path id="Trazado_911444" data-name="Trazado 911444" d="M175.047,570.075,162.4,531.625a36.441,36.441,0,0,0-16.47-20.315l.493-.859a37.451,37.451,0,0,1,16.921,20.866l12.647,38.446-.94.308Z" transform="translate(-105.707 -313.754)" fill="#020202"/>
          <g id="Grupo_1122067" data-name="Grupo 1122067" transform="translate(37.732)">
            <path id="Trazado_911445" data-name="Trazado 911445" d="M143.734,74.914c-.146-.062-3.545-1.522-4.169-4.239-.331-1.433.181-2.94,1.526-4.474q.9-1.023,1.649-1.865c3.491-3.927,4.67-5.248,4.528-8.805l.324-.012c.146,3.688-1.148,5.141-4.609,9.033-.5.563-1.052,1.179-1.649,1.865-1.272,1.453-1.761,2.859-1.453,4.189.59,2.555,3.946,4,3.981,4.015l-.127.3Z" transform="translate(-139.466 -34.13)" fill="#183e41"/>
            <path id="Trazado_911446" data-name="Trazado 911446" d="M149.689,55.53A16.44,16.44,0,0,1,145.354,66.4c-4.624,5.156-1.36,10.042,3.961,8.655s6.146,5.241,13.059,2.821S149.689,55.53,149.689,55.53Z" transform="translate(-141.726 -34.136)" fill="#183e41"/>
            <path id="Trazado_911447" data-name="Trazado 911447" d="M200.254,77.859a7.7,7.7,0,0,1-6.281-4.6l-3.457-8.023-1-2.327-5.9-13.691,1.021,14.188.617,8.516.173,2.428a3.873,3.873,0,0,1-3.195,4.085H182.2c-1.048,1.711-2.5,5.179,1.83,6.555,5.087,1.618,13.314-2.385,16.265-7.129a.188.188,0,0,1-.046,0Z" transform="translate(-165.055 -30.257)" fill="#ffa189"/>
            <path id="Trazado_911448" data-name="Trazado 911448" d="M196.182,86.421c0,.077-.008.158-.015.235-.339,4.574-5.229,6.709-5.229,6.709l-.031-.027-.617-8.516c1.5-.547,3.626-1.11,4.875-.5a2,2,0,0,1,1.017,2.092Z" transform="translate(-170.705 -51.671)" fill="#183e41"/>
            <path id="Trazado_911449" data-name="Trazado 911449" d="M157.927,28.321c1.511-8.955,8.616-15.225,15.876-14s11.923,9.476,10.412,18.431-8.616,15.225-15.876,14S156.416,37.276,157.927,28.321Z" transform="translate(-150.639 -8.711)" fill="#ffa189"/>
            <path id="Trazado_911450" data-name="Trazado 911450" d="M212.867,58.533c-1.726,1.171-3.834.967-4.705-.459s-.173-3.526,1.553-4.7,3.834-.967,4.705.459S214.593,57.361,212.867,58.533Z" transform="translate(-181.46 -32.345)" fill="#ffa189"/>
            <path id="Trazado_911451" data-name="Trazado 911451" d="M169.53,80.78a28.951,28.951,0,0,0,9.229.039,4.439,4.439,0,0,1-5.287,3.965C170.617,84.479,169.53,80.78,169.53,80.78Z" transform="translate(-157.945 -49.656)" fill="#db6b49"/>
            <path id="Trazado_911452" data-name="Trazado 911452" d="M169.53,80.78a5.973,5.973,0,0,0,3.472,1.5c2.536.416,5.757-1.46,5.757-1.46A43.628,43.628,0,0,1,169.53,80.78Z" transform="translate(-157.945 -49.656)" fill="#fff"/>
            <path id="Trazado_911453" data-name="Trazado 911453" d="M188.839,55.386a.3.3,0,0,1,.062-.574,3.288,3.288,0,0,1,3.726,1.514.3.3,0,0,1-.081.42.332.332,0,0,1-.42-.081,5.158,5.158,0,0,0-3.094-1.26.3.3,0,0,1-.193-.023Z" transform="translate(-169.705 -33.622)" fill="#060633"/>
            <path id="Trazado_911454" data-name="Trazado 911454" d="M190.789,63.776c-.1.717-.6,1.241-1.118,1.171s-.863-.709-.767-1.426.6-1.241,1.117-1.171S190.885,63.059,190.789,63.776Z" transform="translate(-169.844 -38.324)" fill="#060633"/>
            <path id="Trazado_911455" data-name="Trazado 911455" d="M160.282,53.874a.309.309,0,0,1-.239-.131.3.3,0,0,1,.077-.42,3.281,3.281,0,0,1,4.023-.019.3.3,0,0,1,.085.42.332.332,0,0,1-.42.085,5.185,5.185,0,0,0-3.341.012A.323.323,0,0,1,160.282,53.874Z" transform="translate(-152.08 -32.349)" fill="#060633"/>
            <path id="Trazado_911456" data-name="Trazado 911456" d="M165.711,61.243a1.17,1.17,0,0,1-.59,1.507c-.509.131-1.067-.328-1.252-1.029a1.173,1.173,0,0,1,.59-1.507C164.967,60.083,165.526,60.542,165.711,61.243Z" transform="translate(-154.43 -37.001)" fill="#060633"/>
            <path id="Trazado_911457" data-name="Trazado 911457" d="M168.133,7.617s-.667,5.676,6.2,7.819,11.21,5.934,9.414,10.836-14.894,13.495-7.252,18.967,7.144-2.412,15.876.867,12.389-8.5,7.352-16.539.6-26.123-22.843-29.229-18.038,16.924-18.038,16.924,8.258-3.426,9.291-9.641Z" transform="translate(-151.045 -0.011)" fill="#183e41"/>
            <path id="Trazado_911458" data-name="Trazado 911458" d="M195.885,55.141a4.945,4.945,0,0,1-2.674-3.672c-.389-3.946,4.971-8.905,9.7-13.279,1.245-1.152,2.42-2.239,3.476-3.291,2.932-2.913,3.773-6.67,2.254-10.058-1.665-3.711-5.668-5.834-10.451-5.545-4.763.293-7.757-1.2-9.429-2.5a8.772,8.772,0,0,1-2.52-2.94l.173-.081c.027.058,2.774,5.877,11.761,5.329,4.863-.3,8.94,1.873,10.639,5.657,1.53,3.41.647,7.345-2.3,10.273-1.06,1.052-2.235,2.143-3.48,3.295-4.693,4.347-10.015,9.271-9.638,13.121a4.725,4.725,0,0,0,2.586,3.53l-.1.166Z" transform="translate(-168.216 -8.468)" fill="#fff"/>
          </g>
          <path id="Trazado_911459" data-name="Trazado 911459" d="M305.711,173.618c.686,1.988-4.478,5.711-11.533,8.312s-13.329,3.1-14.015,1.114,4.478-5.711,11.533-8.312S305.025,171.63,305.711,173.618Z" transform="translate(-188.176 -105.971)" fill="#183e41"/>
          <path id="Trazado_911460" data-name="Trazado 911460" d="M220.494,246l-.235-14.431a3.714,3.714,0,0,1,3.453-3.765c10-.717,17.005-3.819,20.843-9.244,5.325-7.534,4.763-19.233,3.279-27.348-.759-4.154.613-6.929,5.626-9.591a34.315,34.315,0,0,1,9.638-3.279c2.131-.362,4.247.493,4.8,2.586a88.139,88.139,0,0,1,2.5,14.354c1.26,14.231-1.484,26.608-7.938,35.795-7.923,11.275-20.693,17.518-38,18.578A3.733,3.733,0,0,1,220.494,246Z" transform="translate(-151.394 -109.573)" fill="#ffa189"/>
          <g id="Grupo_1122068" data-name="Grupo 1122068" transform="translate(102.964 108.488)" opacity="0.5">
            <path id="Trazado_911461" data-name="Trazado 911461" d="M311.661,290.792a2.886,2.886,0,0,1-1.838-.609c-1.572-1.268-1.4-4.1.381-6.312s4.512-2.983,6.085-1.715,1.4,4.1-.382,6.312a5.769,5.769,0,0,1-4.246,2.328Zm2.786-8.285a4.862,4.862,0,0,0-3.491,1.969c-1.422,1.765-1.665,4.035-.528,4.952s3.3.2,4.724-1.568,1.665-4.035.528-4.952a1.934,1.934,0,0,0-1.233-.4Z" transform="translate(-308.747 -281.545)" fill="#e84949"/>
          </g>
          <path id="Trazado_911462" data-name="Trazado 911462" d="M145.31,437.962s-54.977-10.5-72.8-5.549l8.547,12.666,31.776,1.8Z" transform="translate(-60.579 -264.973)" fill="#b1b0c5"/>
          <g id="Grupo_1122069" data-name="Grupo 1122069" transform="translate(0 85.489)">
            <path id="Trazado_911463" data-name="Trazado 911463" d="M108.818,256.22l-47.39.019a2.3,2.3,0,0,1-2.189-1.565l-9.861-29.406a2.289,2.289,0,0,1,2.185-3.01l45.571-.019a4.823,4.823,0,0,1,4.578,3.275L111,253.21a2.289,2.289,0,0,1-2.185,3.01Z" transform="translate(-46.288 -222.094)" fill="#183e41"/>
            <path id="Trazado_911464" data-name="Trazado 911464" d="M101.1,256.226l-47.39.019a2.309,2.309,0,0,1-2.189-1.564l-9.857-29.406a2.289,2.289,0,0,1,2.185-3.01l45.571-.015A4.823,4.823,0,0,1,94,225.525l9.287,27.695a2.289,2.289,0,0,1-2.185,3.01Z" transform="translate(-41.549 -222.1)" fill="#183e41"/>
            <path id="Trazado_911465" data-name="Trazado 911465" d="M109.91,261.352c0-1.117,1.287-1.572,2.412-1.572s2.959,1.225,2.952,2.79c-.012,1.688-1.329,1.907-2.455,1.907a3.716,3.716,0,0,1-2.906-3.125Z" transform="translate(-83.567 -245.168)" fill="#deebe9"/>
            <path id="Trazado_911466" data-name="Trazado 911466" d="M175.871,236.873c-.023-.089-2.351-8.805-3.857-11.514a6.412,6.412,0,0,0-3.333-3.2l.081-.3c.081.023,1.973.57,3.518,3.349,1.526,2.744,3.792,11.225,3.888,11.587l-.3.077Z" transform="translate(-119.69 -221.86)" fill="#fff"/>
            <path id="Trazado_911467" data-name="Trazado 911467" d="M193.859,280.125l-3.7-11.029.293-.1,3.7,11.029Z" transform="translate(-132.893 -250.835)" fill="#436e8e"/>
          </g>
          <path id="Trazado_911468" data-name="Trazado 911468" d="M41.978,255.364s-.786,6.173,4.439,6.759c6.655.748,15.776-5.21,11.568-5.745a45.708,45.708,0,0,0-9.214.224s13.926-1.981,12.628-4.94-13.252-1.087-13.252-1.087,13.422-3.3,11.345-5.649-12.94-.717-12.94-.717,13.26-2.466,10.786-5.133-9.125.1-12.173.586c-2.882.459-3.588,2.6-3.052,5.553,0,0-1.06,3.318-.254,5.137.308.7-.258,1.53-.254,2.081a20.279,20.279,0,0,0,.378,2.936Z" transform="translate(-41.553 -146.25)" fill="#ffa189"/>
          <g id="Grupo_1122070" data-name="Grupo 1122070" transform="translate(49.375 102.624)">
            <path id="Trazado_911469" data-name="Trazado 911469" d="M196.3,281.022s-3.514-10.632-9.53-13.237-15.668-1.38-12.281,1.025a43.333,43.333,0,0,0,8.562,4.285s-11.244-3.491-10.925-.509,10.131,5.927,10.131,5.927-13.714-3.09-12.5-.37,11.653,4.994,11.653,4.994-12.874-2.366-11.387.763,10.651,1.884,10.975,4.871,2.609,14.728,11.013,14.844Z" transform="translate(-169.681 -266.328)" fill="#ffa189"/>
            <path id="Trazado_911470" data-name="Trazado 911470" d="M208.316,285.979c-.817-1.719-4.015-2.227-4.046-2.231l.073-.478c.143.023,3.484.555,4.408,2.5l-.435.208Z" transform="translate(-190.941 -276.741)" fill="#e84949"/>
            <path id="Trazado_911471" data-name="Trazado 911471" d="M207.116,300.534a8.182,8.182,0,0,0-4.886-2.732l.066-.482a8.521,8.521,0,0,1,5.21,2.921l-.385.289Z" transform="translate(-189.688 -285.377)" fill="#e84949"/>
            <path id="Trazado_911472" data-name="Trazado 911472" d="M204.581,312.309c-.713-1.9-4.512-2.493-4.551-2.5l.073-.478c.17.027,4.119.651,4.932,2.809l-.455.17Z" transform="translate(-188.335 -292.759)" fill="#e84949"/>
          </g>
          <path id="Trazado_911473" data-name="Trazado 911473" d="M51.915,299.906a4.354,4.354,0,0,1-2.655-.636l.308-.374c1.222,1.013,5.194.308,6.624-.046l.116.47a21.047,21.047,0,0,1-4.4.59Z" transform="translate(-46.288 -183.693)" fill="#e84949"/>
        </g>
      </g>
    </g>
  </g>
</svg>
