<svg id="Grupo_1121177" data-name="Grupo 1121177" xmlns="http://www.w3.org/2000/svg" xmlns:xlink="http://www.w3.org/1999/xlink" width="85" height="84.398" viewBox="0 0 85 84.398">
  <defs>
    <clipPath id="clip-path">
      <rect id="Rectángulo_409840" data-name="Rectángulo 409840" width="85" height="84.398" fill="#d4e157"/>
    </clipPath>
  </defs>
  <g id="Grupo_1121172" data-name="Grupo 1121172">
    <g id="Grupo_1121171" data-name="Grupo 1121171" clip-path="url(#clip-path)">
      <path id="Trazado_909070" data-name="Trazado 909070" d="M82.57,41.285A41.284,41.284,0,1,1,41.285,0,41.284,41.284,0,0,1,82.57,41.285" transform="translate(-0.001)" fill="#d4e157"/>
    </g>
  </g>
  <g id="Grupo_1122156" data-name="Grupo 1122156" transform="translate(-3.961 -25.216)">
    <g id="Grupo_1122139" data-name="Grupo 1122139" transform="translate(20.061 78.584)">
      <g id="Grupo_1122134" data-name="Grupo 1122134" transform="translate(12.184 2.031)">
        <path id="Trazado_911848" data-name="Trazado 911848" d="M159.231,360h-8.646a6.092,6.092,0,0,0-4.308,1.784L144,364.062l5.077,5.077,2.451-2.451a2.03,2.03,0,0,1,1.436-.595h6.266a3.046,3.046,0,1,0,0-6.092Z" transform="translate(-144 -360)" fill="#fab991"/>
      </g>
      <g id="Grupo_1122135" data-name="Grupo 1122135" transform="translate(17.261)">
        <path id="Trazado_911849" data-name="Trazado 911849" d="M208.789,344.594a2.031,2.031,0,0,0-2.872,0l-7.528,7.528h-10.5a2.031,2.031,0,0,0-1.436.595L184,355.168l3.046,3.046,2.031-2.031h9.733a3.026,3.026,0,0,0,2.154-.892l7.826-7.826A2.031,2.031,0,0,0,208.789,344.594Z" transform="translate(-184 -343.999)" fill="#f0915a"/>
      </g>
      <g id="Grupo_1122136" data-name="Grupo 1122136" transform="translate(25.723 3.385)">
        <path id="Trazado_911850" data-name="Trazado 911850" d="M252.359,374.051h-.677a1.015,1.015,0,0,1-1.015-1.015v-1.354a1.015,1.015,0,0,1,1.015-1.015h.677a1.692,1.692,0,0,1,0,3.385Z" transform="translate(-250.667 -370.666)" fill="#f0915a"/>
      </g>
      <g id="Grupo_1122137" data-name="Grupo 1122137" transform="translate(0 5.498)">
        <path id="Trazado_911851" data-name="Trazado 911851" d="M59.887,387.611l5.374,5.374-5.077,5.077H48l10.451-10.451A1.015,1.015,0,0,1,59.887,387.611Z" transform="translate(-48 -387.314)" fill="#555a6e"/>
      </g>
      <g id="Grupo_1122138" data-name="Grupo 1122138" transform="translate(12.184 11.169)">
        <path id="Trazado_911852" data-name="Trazado 911852" d="M149.077,432l3.343,3.344a1.015,1.015,0,0,1,0,1.436l-.3.3H144Z" transform="translate(-144 -432)" fill="#463c4b"/>
      </g>
    </g>
    <g id="Grupo_1122140" data-name="Grupo 1122140" transform="translate(16 40)">
      <path id="Trazado_911853" data-name="Trazado 911853" d="M30.215,40H20.061L16,44.061V58.277a2.031,2.031,0,0,0,2.031,2.031H30.215a2.031,2.031,0,0,0,2.031-2.031V42.031A2.031,2.031,0,0,0,30.215,40Z" transform="translate(-16 -40)" fill="#ff6e91"/>
    </g>
    <g id="Grupo_1122141" data-name="Grupo 1122141" transform="translate(16 40)">
      <path id="Trazado_911854" data-name="Trazado 911854" d="M20.061,40,16,44.061h2.031a2.031,2.031,0,0,0,2.031-2.031Z" transform="translate(-16 -40)" fill="#e64178"/>
    </g>
    <g id="Grupo_1122142" data-name="Grupo 1122142" transform="translate(18.031 46.092)">
      <path id="Trazado_911855" data-name="Trazado 911855" d="M43.169,90.031H33.015a1.015,1.015,0,0,1,0-2.031H43.169a1.015,1.015,0,0,1,0,2.031Z" transform="translate(-32 -88)" fill="#e64178"/>
    </g>
    <g id="Grupo_1122143" data-name="Grupo 1122143" transform="translate(18.031 50.154)">
      <path id="Trazado_911856" data-name="Trazado 911856" d="M43.169,122.031H33.015a1.015,1.015,0,1,1,0-2.031H43.169a1.015,1.015,0,1,1,0,2.031Z" transform="translate(-32 -120)" fill="#e64178"/>
    </g>
    <g id="Grupo_1122144" data-name="Grupo 1122144" transform="translate(18.031 54.215)">
      <path id="Trazado_911857" data-name="Trazado 911857" d="M39.108,154.031H33.015a1.015,1.015,0,0,1,0-2.031h6.092a1.015,1.015,0,1,1,0,2.031Z" transform="translate(-32 -152)" fill="#e64178"/>
    </g>
    <g id="Grupo_1122145" data-name="Grupo 1122145" transform="translate(38.338 40)">
      <path id="Trazado_911858" data-name="Trazado 911858" d="M206.215,40H196.061L192,44.061V58.277a2.031,2.031,0,0,0,2.031,2.031h12.184a2.031,2.031,0,0,0,2.031-2.031V42.031A2.031,2.031,0,0,0,206.215,40Z" transform="translate(-192 -40)" fill="#5ad7ff"/>
    </g>
    <g id="Grupo_1122146" data-name="Grupo 1122146" transform="translate(38.338 40)">
      <path id="Trazado_911859" data-name="Trazado 911859" d="M196.061,40,192,44.061h2.031a2.031,2.031,0,0,0,2.031-2.031Z" transform="translate(-192 -40)" fill="#2387c3"/>
    </g>
    <g id="Grupo_1122147" data-name="Grupo 1122147" transform="translate(40.369 46.092)">
      <path id="Trazado_911860" data-name="Trazado 911860" d="M219.169,90.031H209.015a1.015,1.015,0,1,1,0-2.031h10.154a1.015,1.015,0,0,1,0,2.031Z" transform="translate(-208 -88)" fill="#2387c3"/>
    </g>
    <g id="Grupo_1122148" data-name="Grupo 1122148" transform="translate(40.369 50.154)">
      <path id="Trazado_911861" data-name="Trazado 911861" d="M219.169,122.031H209.015a1.015,1.015,0,1,1,0-2.031h10.154a1.015,1.015,0,1,1,0,2.031Z" transform="translate(-208 -120)" fill="#2387c3"/>
    </g>
    <g id="Grupo_1122149" data-name="Grupo 1122149" transform="translate(40.369 54.215)">
      <path id="Trazado_911862" data-name="Trazado 911862" d="M215.108,154.031h-6.092a1.015,1.015,0,1,1,0-2.031h6.092a1.015,1.015,0,1,1,0,2.031Z" transform="translate(-208 -152)" fill="#2387c3"/>
    </g>
    <g id="Grupo_1122150" data-name="Grupo 1122150" transform="translate(60.676 40)">
      <path id="Trazado_911863" data-name="Trazado 911863" d="M382.215,40H372.062L368,44.061V58.277a2.031,2.031,0,0,0,2.031,2.031h12.184a2.031,2.031,0,0,0,2.031-2.031V42.031A2.031,2.031,0,0,0,382.215,40Z" transform="translate(-368 -40)" fill="#d7e6f0"/>
    </g>
    <g id="Grupo_1122151" data-name="Grupo 1122151" transform="translate(60.676 40)">
      <path id="Trazado_911864" data-name="Trazado 911864" d="M372.062,40,368,44.061h2.031a2.031,2.031,0,0,0,2.031-2.031Z" transform="translate(-368 -40)" fill="#a5c3dc"/>
    </g>
    <g id="Grupo_1122152" data-name="Grupo 1122152" transform="translate(62.707 46.092)">
      <path id="Trazado_911865" data-name="Trazado 911865" d="M395.169,90.031H385.015a1.015,1.015,0,0,1,0-2.031h10.154a1.015,1.015,0,1,1,0,2.031Z" transform="translate(-384 -88)" fill="#a5c3dc"/>
    </g>
    <g id="Grupo_1122153" data-name="Grupo 1122153" transform="translate(62.707 50.154)">
      <path id="Trazado_911866" data-name="Trazado 911866" d="M395.169,122.031H385.015a1.015,1.015,0,0,1,0-2.031h10.154a1.015,1.015,0,1,1,0,2.031Z" transform="translate(-384 -120)" fill="#a5c3dc"/>
    </g>
    <g id="Grupo_1122154" data-name="Grupo 1122154" transform="translate(62.707 54.215)">
      <path id="Trazado_911867" data-name="Trazado 911867" d="M391.108,154.031h-6.092a1.015,1.015,0,0,1,0-2.031h6.092a1.015,1.015,0,1,1,0,2.031Z" transform="translate(-384 -152)" fill="#a5c3dc"/>
    </g>
    <g id="Grupo_1122155" data-name="Grupo 1122155" transform="translate(23.108 60.307)">
      <path id="Trazado_911868" data-name="Trazado 911868" d="M312.246,200v2.031a3.05,3.05,0,0,1-3.046,3.046h-6.092a5.083,5.083,0,0,0-5.077,5.077v1.015h-1.015a1.015,1.015,0,0,0-.718,1.733l2.031,2.031a1.015,1.015,0,0,0,1.436,0l2.031-2.031a1.015,1.015,0,0,0-.718-1.733h-1.015v-1.015a3.05,3.05,0,0,1,3.046-3.046H309.2a5.083,5.083,0,0,0,5.077-5.077V200Z" transform="translate(-267.57 -200)" fill="#555a6e"/>
      <path id="Trazado_911869" data-name="Trazado 911869" d="M90.2,211.8a1.015,1.015,0,0,0-.938-.627H88.246v-1.015a5.083,5.083,0,0,0-5.077-5.077H77.077a3.05,3.05,0,0,1-3.046-3.046V200H72v2.031a5.083,5.083,0,0,0,5.077,5.077h6.092a3.05,3.05,0,0,1,3.046,3.046v1.015H85.2a1.015,1.015,0,0,0-.718,1.733l2.031,2.031a1.015,1.015,0,0,0,1.436,0l2.031-2.031A1.015,1.015,0,0,0,90.2,211.8Z" transform="translate(-72 -200)" fill="#555a6e"/>
      <path id="Trazado_911870" data-name="Trazado 911870" d="M238.015,215.857a1.015,1.015,0,0,0-.938-.627h-1.015V200h-2.031v15.231h-1.015a1.015,1.015,0,0,0-.718,1.733l2.031,2.031a1.015,1.015,0,0,0,1.436,0l2.031-2.031A1.015,1.015,0,0,0,238.015,215.857Z" transform="translate(-211.692 -200)" fill="#555a6e"/>
    </g>
  </g>
</svg>
